<?xml version="1.0" encoding="utf-8"?>
<!-- Generator: Adobe Illustrator 24.0.1, SVG Export Plug-In . SVG Version: 6.00 Build 0)  -->
<svg version="1.1" id="Layer_1" xmlns="http://www.w3.org/2000/svg" xmlns:xlink="http://www.w3.org/1999/xlink" x="0px" y="0px"
	 viewBox="0 0 443.54 172.07" style="enable-background:new 0 0 443.54 172.07;" xml:space="preserve">
<style type="text/css">
	.st0{fill:#FFFFFF;}
</style>
<g>
	<g>
		<g>
			<path class="st0" d="M43.89,107.44c33.43,3.07,66.95,2.54,100.3-1.37c9.65-1.13,19.28-2.5,28.88-4.04
				c-0.33-1.21-0.66-2.41-1-3.62c-6.36,1.08-12.27,4.4-16.24,9.52c-2.92,3.78-5.16,9.06-3.74,13.88c1.47,5,6.51,6.95,11.36,6.66
				c6.13-0.37,10.36-4.77,12.48-10.25c2.17-5.59,2.51-12.54,0.15-18.12c-0.91-2.14-3.69-0.44-3.43,1.44
				c0.63,4.56,1.17,9.14,1.9,13.68c0.52,3.2,1.01,6.68,2.5,9.6c0.44,0.87,1.04,1.74,1.88,2.27c0.94,0.59,1.47,0.58,2.18,0.58
				c1.04,0,2.04-0.42,2.9-0.97c2.28-1.46,3.99-3.8,5.51-5.98c2.21-3.17,4.1-6.57,5.87-10.01c4.5-8.72,8.27-17.85,11.58-27.08
				c3.01-8.37,5.8-16.98,7.28-25.77c0.61-3.65,2.41-12.48-2.68-14.04c-0.14-0.04-0.29-0.06-0.44-0.1c-1.27-0.35,0.11,0-0.51-0.1
				c-0.67-0.1-1.21-0.14-1.88,0.02c-0.98,0.24-1.85,0.83-2.57,1.53c-1.99,1.94-3.14,4.71-4.14,7.24c-3.11,7.89-4.66,16.46-5.96,24.8
				c-1.49,9.66-2.48,19.45-2.55,29.24c-0.03,3.91,0.1,7.83,0.63,11.7c0.35,2.55,0.81,5.34,2.19,7.57c1.47,2.4,3.95,3.13,6.63,2.28
				c5-1.58,6.41-7.58,6.86-12.16c0.38-3.88,0.11-7.8-0.37-11.67c-0.63,0.63-1.25,1.25-1.88,1.88c6.7,0.34,13.22-0.65,19.73-2.19
				c-0.33-1.21-0.66-2.41-1-3.62c-4.88,1.43-8.67,5.35-10.77,9.9c-1.77,3.83-2.84,8.85-0.63,12.74c2.28,4.01,7.98,4.73,11.95,3
				c4.39-1.92,6.8-7.03,7.57-11.51c0.9-5.2,0.01-11.49-5.44-13.71c-0.17,1.23-0.33,2.46-0.5,3.68c6.95-0.48,13.93,0.26,20.88-0.22
				c-0.6-0.79-1.21-1.58-1.81-2.37c-1.29,3.32-2.86,6.52-4.03,9.89c-1.12,3.24-2.36,7.3-1.16,10.69c1.33,3.74,5.75,4.88,9.19,3.46
				c4.15-1.71,6.41-5.57,7.6-9.72c1.29-4.49,1.31-9.3,2.89-13.7c-1.21-0.33-2.41-0.66-3.62-1c-0.51,3.45-0.6,6.96-0.45,10.44
				c0.15,3.56,0.42,7.4,1.85,10.71c0.99,2.29,3.02,4.2,5.67,3.27c1.88-0.66,3.26-2.48,4.41-4.02c3.96-5.31,6.67-11.63,9.18-17.71
				c3.45-8.33,6.29-16.94,8.45-25.7c2.24-9.06,4-18.61,3.36-27.98c-0.13-1.97-3.27-2.7-3.68-0.5c-2.76,14.9-4.78,30-5.92,45.11
				c-0.36,4.81-0.76,9.71-0.45,14.54c0.28,4.3,0.9,9.05,3.69,12.51c3.52,4.35,9.26,4.81,14.46,4.51c4.13-0.24,8.25-0.55,12.37-0.85
				c12.85-0.95,25.69-1.97,38.53-2.92c16.56-1.22,33.12-2.39,49.71-3.25c2.4-0.12,2.42-3.88,0-3.75
				c-27.4,1.43-54.76,3.64-82.12,5.71c-4.67,0.35-9.34,0.71-14.01,1.03c-4.26,0.29-9.21,1.18-13.2-0.66
				c-3.99-1.83-5.03-6.21-5.49-10.2c-0.48-4.24-0.26-8.53-0.01-12.77c0.95-16.08,3.11-32.17,6.04-48c-1.23-0.17-2.46-0.33-3.68-0.5
				c0.5,7.45-0.59,14.94-2.13,22.21c-1.73,8.14-4.13,16.14-7,23.95c-2.41,6.55-5.13,13.06-8.62,19.12
				c-1.08,1.88-2.23,3.78-3.65,5.33c-0.26,0.28-0.53,0.56-0.82,0.82c-0.24,0.22-0.19,0.16-0.16,0.14c-0.13,0.09-0.26,0.18-0.4,0.26
				c-0.19,0.1-0.27,0.28-0.56-0.17c-1.6-2.42-1.85-6.08-2.03-9.01c-0.22-3.51-0.26-7.16,0.26-10.64c0.35-2.36-2.79-3.31-3.62-1
				c-1.17,3.27-1.44,6.8-2.08,10.19c-0.64,3.36-1.48,7.29-4.23,9.6c-1.64,1.38-5.33,2.57-6.25-0.18c-0.89-2.67,0.52-6.2,1.4-8.69
				c1.15-3.24,2.66-6.33,3.9-9.53c0.43-1.1-0.67-2.45-1.81-2.37c-6.95,0.48-13.93-0.26-20.88,0.22c-2.2,0.15-2.44,2.89-0.5,3.68
				c3.08,1.26,3.25,5.79,2.91,8.55c-0.42,3.33-1.88,7.46-4.9,9.3c-2.15,1.31-6.21,1.39-7.73-0.92c-1.64-2.49-0.71-6.25,0.33-8.77
				c1.59-3.83,4.62-7.37,8.7-8.57c2.32-0.68,1.35-4.17-1-3.62c-6.2,1.47-12.34,2.38-18.73,2.05c-0.93-0.05-1.99,0.9-1.88,1.88
				c0.45,3.71,0.72,7.47,0.41,11.2c-0.2,2.36-0.62,4.94-1.89,6.99c-0.81,1.3-1.85,2.06-3.33,2.21c-0.18,0.02-1.09,0.13-0.39,0.03
				c-0.5,0.07-0.05-0.31-0.08,0.02c0-0.02-0.34-0.18-0.37-0.21c0.26,0.27,0.06,0.08-0.13-0.14c-0.31-0.35-0.05-0.02-0.14-0.15
				c-0.11-0.15-0.21-0.31-0.3-0.48c-0.1-0.18-0.19-0.36-0.28-0.54c-0.04-0.07-0.23-0.51-0.05-0.09c-0.06-0.14-0.12-0.29-0.17-0.43
				c-0.41-1.15-0.69-2.33-0.91-3.53c-0.56-3.08-0.72-6.42-0.78-9.68c-0.15-8.7,0.56-17.42,1.67-26.04
				c1.07-8.33,2.53-16.7,4.93-24.76c0.87-2.92,1.78-5.69,3.18-8.27c0.55-1.02,1.06-1.82,1.57-2.32c0.15-0.15,0.3-0.29,0.45-0.43
				c0.21-0.18-0.3,0.24,0.12-0.08c0.12-0.1,0.27-0.16,0.41-0.23c-0.58,0.28,0.02-0.03,0.2-0.02c-0.76-0.04-0.03,0.02,0.06,0.04
				c-0.38-0.09-0.29-0.02,0.01,0.03c0.96,0.17,0.44,0.06,0.41,0.06c0.44,0.05,0.2,0.05,0.12,0.02c0.3,0.13-0.02-0.23,0.01-0.01
				c0.02,0.13,0.33,0.42,0.04,0c0.09,0.13,0.2,0.28,0.26,0.43c0.15,0.4-0.06-0.33,0.1,0.28c0.31,1.16,0.31,1.19,0.34,2.51
				c0.03,1.26-0.07,2.53-0.21,3.79c-0.81,7.31-3.16,14.94-5.5,22.05c-2.87,8.73-6.21,17.32-10.07,25.66
				c-2.94,6.36-6.28,13.41-10.61,18.68c-0.69,0.84-1.43,1.66-2.27,2.36c-0.27,0.23-1.03,0.72-1.43,0.78
				c-0.42,0.06,0.46-0.07-0.01-0.01c-0.35,0.05,0.04,0.09,0.15,0.04c-0.23,0.1-0.53-0.27-0.37-0.05c0.27,0.35-0.16-0.19-0.18-0.23
				c-0.22-0.47-0.5-0.89-0.7-1.38c-1.15-2.9-1.56-6.16-2.04-9.22c-0.64-4.17-1.14-8.36-1.72-12.54c-1.14,0.48-2.28,0.96-3.43,1.44
				c1.64,3.88,1.31,8.82,0.26,12.8c-1.13,4.3-3.67,8.69-8.31,9.74c-3.14,0.71-7.6,0.12-8.94-3.24c-1.38-3.47,0.46-7.6,2.44-10.43
				c3.43-4.9,8.95-7.85,14.76-8.83c2.38-0.41,1.36-3.99-1-3.62c-32.84,5.25-65.99,8.19-99.27,7.1c-9.65-0.32-19.29-0.95-28.91-1.83
				C41.48,103.47,41.5,107.22,43.89,107.44L43.89,107.44z"/>
		</g>
	</g>
	<g>
		<g>
			<path class="st0" d="M264.79,76.75c15.46,0,30.92,0,46.38,0c2.41,0,2.42-3.75,0-3.75c-15.46,0-30.92,0-46.38,0
				C262.37,73,262.37,76.75,264.79,76.75L264.79,76.75z"/>
		</g>
	</g>
</g>
</svg>
