<?xml version="1.0" encoding="utf-8"?>
<!-- Generator: Adobe Illustrator 24.0.1, SVG Export Plug-In . SVG Version: 6.00 Build 0)  -->
<svg version="1.1" id="Layer_1" xmlns="http://www.w3.org/2000/svg" xmlns:xlink="http://www.w3.org/1999/xlink" x="0px" y="0px"
	 viewBox="0 0 443.54 172.07" style="enable-background:new 0 0 443.54 172.07;" xml:space="preserve">
<style type="text/css">
	.st0{fill:#F7931E;}
</style>
<g>
	<g>
		<path class="st0" d="M42.17,82.71c11.78-0.62,23.51,0.72,35.22,1.78c11.09,1,22.18,1.5,33.29,0.42
			c18.33-1.79,37.97-6.99,52.18-19.28c5.78-4.99,10.87-10.83,15.3-17.05c3-4.21,6.61-9.26,7.42-14.5c0.26-1.71,0.07-3.66-1.54-4.67
			c-3.11-1.97-5.68,1.59-7.32,3.85c-2.66,3.68-4.07,8.09-5.17,12.44c-1.31,5.15-2.32,10.39-2.8,15.69c-0.49,5.49-0.32,11,0.37,16.46
			c0.61,4.89,0.77,11.92,5.54,14.77c4.16,2.49,9.46,0.95,10.72-3.93c1.37-5.34-0.38-10.84,0.15-16.24
			c-0.94,0.54-1.88,1.08-2.82,1.62c5.62,3.49,10.77-1.42,14.52-5.31c3.59-3.72,6.8-7.65,9.6-12c2.76-4.28,5.18-8.8,7.15-13.5
			c1.28-3.06,2.82-6.69,2.54-10.09c-0.32-3.91-3.74-4.27-6.71-2.7c-4.69,2.48-6.83,7.64-7.79,12.59
			c-1.45,7.51-2.03,15.22-2.05,22.86c-0.01,3.85,0.26,7.68,0.45,11.52c0.16,3.2-0.1,6.47,0.53,9.63c0.6,3,2.51,6.58,6.05,6.49
			c3.46-0.09,5.52-4.01,7.18-6.52c2.1-3.17,4.04-6.49,6.57-9.35c1.6-1.81,4.79-5.89,7.54-4.98c0-1.21,0-2.41,0-3.62
			c-4.99,1.89-9.55,6.56-10.93,11.8c-1.41,5.34,0.82,10.92,5.87,13.27c4.18,1.95,9.39,1.81,13.39-0.62
			c4.25-2.58,6.52-8.33,6.04-13.17c-0.54-5.52-5.3-10.8-10.94-11.22c0,1.25,0,2.5,0,3.75c12.4,0.66,24.82-0.14,37.12-1.78
			c1.85-0.25,2.81-3.35,0.5-3.68c-10.13-1.47-23.59,4.96-22.76,16.74c0.38,5.47,4.8,8.36,9.9,8.99c5.6,0.7,9.74-3.42,11.74-8.25
			c2.02-4.87,2.87-11.27,1.14-16.36c-0.65-1.9-3.81-1.73-3.68,0.5c0.66,11.54,1.33,23.08,1.99,34.61
			c0.32,5.53,0.64,11.06,0.95,16.59c0.26,4.51,0.7,9.04,0.64,13.56c-0.04,2.87-0.14,6.2-1.58,8.76c-0.55,0.98-1.23,1.61-2.37,1.74
			c-0.86,0.1-2.21,0.26-2.9-0.36c-1.62-1.47-0.9-5.41-0.66-7.23c0.38-2.89,1.07-5.73,1.7-8.58c2.17-9.91,5.11-19.87,9.31-29.12
			c3.57-7.85,8.48-15.27,15.66-20.26c6.27-4.35,13.66-5.97,21.1-7.11c8.04-1.22,16.18-1.72,24.3-2.1
			c23.97-1.12,47.94-2.05,71.92-3.07c2.4-0.1,2.42-3.85,0-3.75c-23.28,0.99-46.56,1.95-69.83,2.97c-8.63,0.38-17.27,0.9-25.83,2.1
			c-7.93,1.11-16.05,2.74-22.83,7.23c-7.7,5.1-13.24,12.63-17.16,20.89c-4.63,9.77-7.85,20.34-10.17,30.87
			c-0.73,3.28-1.49,6.57-1.9,9.91c-0.35,2.79-0.6,6.13,0.85,8.68c1.53,2.69,4.66,3.04,7.45,2.55c3.16-0.55,4.92-3.41,5.75-6.29
			c0.95-3.28,1.04-6.85,0.94-10.24c-0.17-5.53-0.61-11.06-0.93-16.58c-0.71-12.26-1.41-24.52-2.12-36.78
			c-0.17-3-0.35-6.01-0.52-9.01c-1.23,0.17-2.46,0.33-3.68,0.5c1.18,3.47,0.84,7.54-0.03,11.03c-0.88,3.54-2.76,7.82-6.67,8.78
			c-3.35,0.82-8-1.03-8.65-4.69c-0.5-2.83,0.76-6.05,2.46-8.27c1.48-1.94,3.8-3.09,6.04-3.92c2.93-1.07,6.31-1.9,9.44-1.44
			c0.17-1.23,0.33-2.46,0.5-3.68c-12.3,1.63-24.72,2.44-37.12,1.78c-2.42-0.13-2.39,3.57,0,3.75c4.53,0.34,7.63,5.58,7.2,9.75
			c-0.23,2.22-1.11,4.54-2.57,6.25c-1.54,1.81-3.9,2.56-6.19,2.82c-4.41,0.5-8.74-1.97-9.36-6.54c-0.69-5.14,3.86-10.71,8.49-12.47
			c1.71-0.65,1.84-3.01,0-3.62c-4.62-1.52-8.92,3.27-11.59,6.4c-1.89,2.21-3.5,4.64-5.08,7.08c-0.72,1.11-1.44,2.23-2.18,3.33
			c-0.77,1.15-1.59,2.66-2.72,3.5c-2.59,1.92-3.33-4.28-3.4-5.71c-0.14-2.9-0.11-5.79-0.28-8.69c-0.38-6.68-0.42-13.35,0.14-20.02
			c0.44-5.31,0.76-11.43,3.07-16.35c0.93-1.99,2.29-3.74,4.23-4.82c0.4-0.22,1.14-0.57,1.36-0.64c0.19-0.06,0.06,0.07,0.06-0.03
			c0.01,0.21-0.23-0.34-0.25-0.33c0.08-0.06,0.09,1.92,0,2.41c-0.27,1.51-0.75,3-1.27,4.44c-1.41,3.92-3.33,7.66-5.4,11.27
			c-2.44,4.24-5.18,8.38-8.44,12.04c-1.83,2.05-3.76,4.09-5.81,5.93c-2.03,1.82-4.49,3.55-7.12,1.91c-1.31-0.81-2.69,0.28-2.82,1.62
			c-0.27,2.72-0.02,5.37,0.22,8.08c0.21,2.43,0.46,5.27-0.36,7.62c-0.88,2.51-3.92,2.34-5.68,0.8c-2-1.75-2.16-5.19-2.57-7.64
			c-1.87-11.34-1.2-22.44,1.53-33.59c1.44-5.86,3.29-11.55,7.95-15.67c-0.44,0.18-0.88,0.37-1.33,0.55c0.09-0.01,0.6-0.08,0.67,0
			c-0.13-0.14-0.13,0.05-0.22-0.05c0.14,0.15-0.06-0.22-0.08-0.11c-0.05,0.28,0.08,0.22,0.02,0.86c-0.01,0.08-0.17,0.86-0.29,1.27
			c-0.89,3.08-2.64,5.95-4.35,8.63c-4.91,7.7-11.09,14.83-18.12,20.67c-8.58,7.13-19.5,11.35-30.2,14.09
			c-12.51,3.21-25.5,4.25-38.38,3.71c-16.15-0.68-32.2-3.56-48.4-2.71C39.77,79.08,39.75,82.83,42.17,82.71L42.17,82.71z"/>
	</g>
</g>
</svg>
