<?xml version="1.0" encoding="utf-8"?>
<!-- Generator: Adobe Illustrator 24.0.1, SVG Export Plug-In . SVG Version: 6.00 Build 0)  -->
<svg version="1.1" id="Layer_1" xmlns="http://www.w3.org/2000/svg" xmlns:xlink="http://www.w3.org/1999/xlink" x="0px" y="0px"
	 viewBox="0 0 640.18 242.37" style="enable-background:new 0 0 640.18 242.37;" xml:space="preserve">
<style type="text/css">
	.st0{fill:#FFFFFF;}
</style>
<g>
	<g>
		<g>
			<path class="st0" d="M73.05,75.98C85.01,64.59,100.37,58.48,116,53.96c4.46-1.29,8.95-2.47,13.44-3.66
				c-0.32-0.76-0.64-1.52-0.96-2.28c-6.68,3.57-13.91,6.06-19.3,11.63c-2,2.07-3.45,4.62-3.41,7.57c0.04,2.6,0.98,5.48,3.12,7.1
				c3.68,2.79,8.92,1.01,12.66-0.71c5.04-2.32,9.2-5.97,13.58-9.3c6.78-5.17,13.85-9.86,22.02-12.51c-0.32-0.76-0.64-1.52-0.96-2.28
				c-6.05,4.47-11.88,12.03-11.5,19.95c0.08,1.65,0.39,3.51,1.84,4.51c1.39,0.95,3.25,0.92,4.78,0.36c3.51-1.3,5.28-4.98,5.8-8.46
				c0.35-2.32,0.32-4.68,0.55-7.01c0.26-2.63,0.8-5.21,1.63-7.72c-0.8-0.22-1.61-0.44-2.41-0.66c-1.19,8.2,0.47,16.92,4.56,24.14
				c0.58,1.02,2.46,0.64,2.33-0.63c0.05,0.44-0.26,0.54,0.06,0.17c0.18-0.21,0.32-0.49,0.47-0.72c0.49-0.72,0.99-1.43,1.5-2.13
				c1.2-1.68,2.42-3.35,3.64-5.02c3.46-4.73,6.66-9.65,10.07-14.43c-0.76-0.1-1.52-0.2-2.28-0.3c2.54,7.25,2.91,15.3,1.92,22.87
				c0.83,0,1.67,0,2.5,0c-0.25-7.27,0.05-18.83,8.9-20.96c2.17-0.52,4.48-0.36,6.65,0.07c0.44,0.09,0.93,0.16,1.36,0.3
				c0.95,0.32,0.91,0.65,1,1.59c0.12,1.27,0.25,2.55,0.37,3.82c0.49,5.09,0.98,10.19,1.48,15.28c0.15,1.59,2.65,1.61,2.5,0
				c-0.56-6.04-0.22-12.06,0.67-18.05c-0.51,0.29-1.03,0.58-1.54,0.87c4.64,1.11,10.1,1.99,14.84,0.96c1.84-0.4,3.58-1.19,5.34-1.82
				c1.6-0.57,3.49-1.31,5.2-0.81c-0.31-0.4-0.61-0.8-0.92-1.21c-0.3,6.26-2.66,13.3,0.26,19.32c1.35,2.78,4.36,2.92,6.93,1.64
				c2.42-1.21,3.69-3.77,4.39-6.27c1.34-4.84,2.08-9.82,3.45-14.66c-0.8,0-1.61,0-2.41,0c1.46,3.89,2.08,8,2.77,12.08
				c0.76,4.45,1.67,8.86,2.35,13.32c1.39,9.19,2.08,18.55,1.35,27.83c-0.19,2.41-0.48,4.81-0.88,7.2c-0.17,1-0.48,5.51-2.23,4.2
				c-1.52-1.14-1.78-3.55-2.03-5.28c-0.3-2.07-0.39-4.17-0.31-6.26c0.33-8.76,3.69-17.01,7.58-24.74
				c4.64-9.23,9.14-18.53,14.32-27.47c-0.72-0.42-1.44-0.84-2.16-1.26c-1.34,2.57-0.9,5.93-0.81,8.71
				c0.13,4.02-0.24,7.97,0.64,11.94c0.16,0.72,1.2,1.23,1.84,0.75c4.13-3.14,7.33-7.22,11.06-10.78c3.59-3.43,7.72-6.29,10.65-10.36
				c-0.78-0.21-1.55-0.42-2.33-0.63c0.55,6.97-1.08,14.34,1.21,21.1c0.38,1.12,2.09,1.25,2.41,0c1.17-4.56,0.78-9.42,2.02-13.94
				c0.34-1.22,0.84-2.41,1.65-3.39c0.49-0.6,0.77-0.74,1.3-0.12c0.45,0.53,0.8,1.16,1.06,1.8c0.84,2.08,0.91,4.36,1.07,6.56
				c0.21,2.91,0.52,7.22,3.47,8.76c1.93,1,4.11,0.08,5.69-1.14c2.3-1.76,4.29-3.95,6.31-6.01c4.4-4.47,9.67-9.91,16.37-10.15
				c-0.21-0.78-0.42-1.55-0.63-2.33c-3.92,2.24-7.6,4.48-10.07,8.39c-2.31,3.67-3.2,8.76,0.24,12.09c1.5,1.45,3.48,1.85,5.39,0.97
				c1.87-0.85,3.02-2.67,4.02-4.38c2.58-4.38,4.29-9.15,4.09-14.28c-0.83,0-1.67,0-2.5,0c0.38,6.06,2.62,11.83,3.56,17.81
				c0.97,6.11,1.6,12.25,1.87,18.43c0.2,4.71,0.28,9.49-0.52,14.15c-0.4,2.34-1,4.69-2.01,6.85c-0.43,0.92-0.92,1.81-1.49,2.64
				c-0.65,0.95-1.09,1.67-2.26,1.84c-3.12,0.46-3.42-3.02-3.33-5.33c0.14-3.53,1.36-6.81,2.76-10.02c1.03-2.37,2.17-4.7,3.44-6.95
				c1.09-1.92,2.38-3.71,3.46-5.64c2.08-3.7,3.58-7.68,5.09-11.64c1.6-4.21,3.22-8.46,5.79-12.19c2.81-4.09,6.78-7.01,11.4-8.75
				c1.49-0.56,0.85-2.98-0.66-2.41c-4.48,1.68-8.5,4.29-11.51,8.04c-2.74,3.42-4.57,7.38-6.18,11.43
				c-1.69,4.25-3.15,8.59-5.23,12.68c-1.06,2.08-2.38,3.98-3.59,5.98c-1.47,2.44-2.74,4.99-3.9,7.59c-1.6,3.58-3.01,7.16-3.32,11.1
				c-0.23,2.85,0.03,6.8,2.99,8.21c1.46,0.69,3.87,0.67,5.22-0.25c0.88-0.6,1.61-1.84,2.19-2.73c0.68-1.05,1.24-2.17,1.72-3.33
				c1.98-4.73,2.48-9.98,2.54-15.06c0.09-6.71-0.45-13.46-1.33-20.11c-0.5-3.77-1.05-7.52-1.97-11.21
				c-0.91-3.67-2.02-7.32-2.26-11.12c-0.1-1.59-2.56-1.62-2.5,0c0.15,3.89-0.86,7.54-2.63,10.99c-1.21,2.36-4.39,8.43-7.25,4.15
				c-2.12-3.17-0.32-6.99,1.75-9.66c2.14-2.76,5.23-4.41,8.21-6.11c1.06-0.6,0.62-2.38-0.63-2.33c-5.84,0.21-10.75,3.81-14.87,7.65
				c-2.3,2.15-4.43,4.48-6.7,6.67c-1.2,1.16-4.19,4.68-6.05,2.96c-1.19-1.1-1.42-3.3-1.59-4.82c-0.21-1.87-0.23-3.76-0.52-5.63
				c-0.37-2.44-1.22-5.01-3.18-6.64c-2.37-1.98-4.57,0.97-5.54,2.99c-1.2,2.48-1.42,5.19-1.69,7.89c-0.28,2.8-0.51,5.65-1.21,8.38
				c0.8,0,1.61,0,2.41,0c-2.21-6.53-0.6-13.7-1.12-20.44c-0.1-1.27-1.6-1.65-2.33-0.63c-2.78,3.87-6.84,6.59-10.26,9.86
				c-3.56,3.41-6.61,7.39-10.55,10.39c0.61,0.25,1.22,0.5,1.84,0.75c-0.8-3.63-0.43-7.27-0.54-10.94c-0.04-1.34-0.11-2.67-0.09-4.01
				c0.01-1.21-0.03-2.66,0.55-3.77c0.74-1.42-1.35-2.66-2.16-1.26c-5.14,8.86-9.6,18.08-14.2,27.23c-4.2,8.37-7.82,17.24-8.05,26.73
				c-0.06,2.24,0.1,4.47,0.45,6.67c0.32,2.02,0.76,3.99,2.1,5.59c1.01,1.2,2.58,2.02,4.13,1.37c1.99-0.83,2.27-3.2,2.62-5.05
				c1.86-10.09,1.77-20.42,0.64-30.58c-0.63-5.65-1.57-11.26-2.65-16.84c-1-5.16-1.52-10.46-3.37-15.41c-0.42-1.11-2.05-1.26-2.41,0
				c-1.35,4.76-2.12,9.66-3.39,14.44c-0.67,2.52-2.42,6.02-5.66,5.43c-1.15-0.21-1.48-1.97-1.71-2.94c-0.29-1.25-0.45-2.54-0.5-3.83
				c-0.17-4.18,0.94-8.31,1.14-12.47c0.03-0.55-0.41-1.06-0.92-1.21c-3.53-1.04-7.27,1.23-10.54,2.26
				c-4.62,1.46-10.25,0.52-14.85-0.59c-0.6-0.14-1.44,0.19-1.54,0.87c-0.93,6.22-1.34,12.45-0.76,18.72c0.83,0,1.67,0,2.5,0
				c-0.47-4.82-0.93-9.64-1.4-14.46c-0.21-2.12-0.11-4.55-0.69-6.61c-0.53-1.9-2.76-2.12-4.42-2.42c-3.8-0.68-7.96-0.58-11.26,1.64
				c-3.04,2.05-5,5.39-5.91,8.89c-1.07,4.13-1.23,8.61-1.08,12.86c0.06,1.65,2.3,1.55,2.5,0c1.01-7.77,0.59-16.1-2.01-23.54
				c-0.37-1.06-1.65-1.19-2.28-0.3c-3.5,4.91-6.81,9.97-10.37,14.84c-1.28,1.75-2.56,3.49-3.8,5.26c-0.53,0.75-2.01,2.26-1.91,3.3
				c0.78-0.21,1.55-0.42,2.33-0.63c-3.73-6.58-5.4-14.7-4.31-22.21c0.23-1.56-1.89-2.23-2.41-0.66c-1.4,4.21-1.71,8.47-2.01,12.86
				c-0.14,2.07-0.41,4.22-1.5,6.03c-0.88,1.47-2.47,2.98-4.32,2.87c-2.42-0.13-2-3.71-1.72-5.4c0.35-2.18,1.19-4.26,2.25-6.19
				c1.94-3.52,4.63-6.59,7.86-8.98c1.05-0.78,0.49-2.76-0.96-2.28c-6.6,2.14-12.6,5.5-18.23,9.52c-4.64,3.31-8.92,7.23-13.75,10.26
				c-3.31,2.08-7.64,4.46-11.7,4.05c-1.98-0.2-3.37-1.4-4.02-3.27c-0.96-2.76-0.44-5.45,1.41-7.69c5.02-6.06,12.86-8.5,19.56-12.08
				c1.26-0.68,0.39-2.64-0.96-2.28c-15.95,4.2-32.32,8.48-46.33,17.54c-3.99,2.58-7.73,5.52-11.16,8.79
				C70.11,75.33,71.88,77.09,73.05,75.98L73.05,75.98z"/>
		</g>
	</g>
	<g>
		<g>
			<path class="st0" d="M402.4,74.32c1.57-4.17,3.79-8.08,6.55-11.57c2-2.54,4.26-5.76,7.4-6.94c3.46-1.3,6.14,1.74,6.95,4.84
				c0.64,2.48,0.84,5.18,0.52,7.73c-0.24,1.95-1.03,5.16-3.45,5.43c-2.7,0.31-1.8-2.77-1.09-4.2c0.91-1.84,2.19-3.49,3.47-5.08
				c2.72-3.38,5.28-6.87,7.78-10.42c2.31-3.28,4.53-6.59,6.28-10.21c3.71-7.68,6.28-16.01,7.99-24.35
				c-0.82-0.11-1.64-0.22-2.46-0.33c-1.65,14.4-3.07,28.84-4.06,43.31c-0.27,3.88-0.5,7.77-0.67,11.66
				c-0.05,1.04,1.43,1.7,2.13,0.88c7.59-8.76,17.15-15.71,27.88-20.11c-0.32-0.76-0.64-1.52-0.96-2.28
				c-2.77,1.25-4.54,4.87-5.69,7.5c-1.17,2.69-1.74,5.84-1.52,8.77c0.27,3.48,2.45,6.37,6.12,6.62c4.22,0.29,6.74-3.53,7.51-7.19
				c1.07-5.07-0.06-10.27-2.62-14.72c-0.36,0.63-0.72,1.25-1.08,1.88c4.84-0.18,9.85,0.94,14.62-0.06c-0.53-0.4-1.05-0.8-1.58-1.21
				c0.45,3.8,0.89,7.61,1.39,11.41c0.44,3.33,1.42,6.62,1.17,10c0.63-0.36,1.25-0.72,1.88-1.08c-2.88-1.29-2.01-5.85-1.48-8.28
				c0.67-3.05,1.6-6.09,4.44-7.78c3.14-1.87,7.09-2.07,10.65-2.25c1.71-0.09,3.6-0.41,5.31-0.27c1.49,0.13,1.66,1.6,1.67,2.85
				c0.02,2.17-0.42,4.34-0.5,6.51c-0.11,3.06,0.1,6.12,0.64,9.14c0.09,0.5,0.7,0.96,1.21,0.92c3.04-0.26,6.1-0.65,8.93-1.84
				c2.84-1.2,5.39-3.26,7.81-5.14c2.5-1.94,5.13-4.07,7.01-6.64c1.53-2.08,1.91-5.37-0.76-6.74c-2.25-1.15-4.98,0.03-6.57,1.74
				c-1.77,1.9-2.6,4.56-2.59,7.13c0.01,3.8,1.44,13.25,7.12,11.95c2.2-0.5,4.13-2.37,5.81-3.78c2.08-1.75,3.88-3.84,5.62-5.93
				c1.89-2.27,3.7-4.6,5.62-6.84c0.86-1.01,1.75-2,2.68-2.94c0.52-0.53,2.57-2.91,3.41-2.62c0.39,0.14,0.83,1.32,1,1.62
				c0.35,0.63,0.68,1.27,0.98,1.92c0.71,1.52,1.26,3.12,1.58,4.76c0.54,2.75,0.26,5.72-1.12,8.2c-0.81,1.45-3.27,4.64-4.59,1.97
				c-1.25-2.52,0.94-4.63,2.82-6.03c3.85-2.87,8.26-5.06,12.47-7.33c4.22-2.28,8.52-4.44,12.64-6.9c1.38-0.82,0.13-2.98-1.26-2.16
				c-7.48,4.46-15.48,8.02-22.85,12.68c-3.55,2.24-8.19,5.67-6.23,10.45c0.75,1.82,2.48,3.29,4.55,2.78c2.36-0.58,4.16-3.11,5.1-5.2
				c2.44-5.45,0.83-11.42-1.94-16.41c-0.58-1.05-1.21-2.38-2.45-2.79c-1.42-0.46-2.68,0.44-3.72,1.29
				c-1.99,1.62-3.71,3.57-5.36,5.53c-3.6,4.27-6.85,9.05-11.23,12.59c-1.23,1-3.89,3.8-5.54,2.25c-0.99-0.93-1.49-2.54-1.84-3.79
				c-0.42-1.48-0.67-3.02-0.75-4.56c-0.14-2.7,0.74-6.23,3.56-7.32c1.63-0.63,3.11,0.32,2.36,2.12c-0.65,1.57-2.32,2.9-3.54,4.04
				c-2.65,2.47-5.59,4.66-8.62,6.64c-3.02,1.96-6.6,2.49-10.12,2.79c0.4,0.31,0.8,0.61,1.21,0.92c-0.55-3.08-0.68-6.24-0.51-9.36
				c0.12-2.12,0.6-4.27,0.42-6.4c-0.15-1.76-0.8-3.54-2.56-4.25c-1.77-0.72-4.1-0.2-5.97-0.11c-4.18,0.2-8.7,0.38-12.47,2.43
				c-3.56,1.94-5.03,5.44-5.89,9.21c-0.82,3.57-1.6,9.5,2.57,11.37c0.89,0.4,1.8-0.08,1.88-1.08c0.26-3.37-0.68-6.66-1.16-9.96
				c-0.54-3.8-0.95-7.63-1.39-11.45c-0.1-0.83-0.72-1.39-1.58-1.21c-2.89,0.61-5.78,0.15-8.69,0.08c-1.74-0.04-3.52-0.17-5.26-0.11
				c-0.94,0.04-1.57,1.04-1.08,1.88c1.83,3.17,2.86,6.73,2.67,10.41c-0.14,2.86-1.06,7.29-4.56,7.73c-3.01,0.38-4.47-2.25-4.5-4.85
				c-0.03-2.23,0.31-4.58,1.16-6.65c0.93-2.26,2.46-5.65,4.84-6.71c1.28-0.58,0.35-2.82-0.96-2.28
				c-11.13,4.57-21.1,11.65-28.99,20.75c0.71,0.29,1.42,0.59,2.13,0.88c0.63-14.49,1.96-28.95,3.46-43.38
				c0.4-3.87,0.82-7.73,1.27-11.59c0.16-1.4-2.17-1.7-2.46-0.33c-1.77,8.58-4.39,17.26-8.4,25.08c-2.22,4.33-5.15,8.27-7.99,12.2
				c-1.46,2.02-2.93,4.03-4.51,5.97c-1.47,1.81-2.98,3.65-4.1,5.7c-0.97,1.78-2.04,4.18-1.1,6.18c0.81,1.74,2.9,2.58,4.73,2.22
				c2.98-0.6,4.52-3.56,5.06-6.29c1.12-5.7,0.16-15.83-7.13-16.88c-4.59-0.66-8.21,3.5-10.79,6.7c-3.43,4.26-6.24,8.77-8.17,13.9
				C399.42,75.17,401.84,75.82,402.4,74.32L402.4,74.32z"/>
		</g>
	</g>
	<g>
		<g>
			<path class="st0" d="M507.51,39.07c3.22,0,3.22-5,0-5C504.29,34.07,504.29,39.07,507.51,39.07L507.51,39.07z"/>
		</g>
	</g>
	<g>
		<g>
			<path class="st0" d="M536.79,126.19c3.22,0,3.22-5,0-5C533.57,121.19,533.57,126.19,536.79,126.19L536.79,126.19z"/>
		</g>
	</g>
	<g>
		<g>
			<path class="st0" d="M261.44,40.52c3.22,0,3.22-5,0-5C258.22,35.52,258.22,40.52,261.44,40.52L261.44,40.52z"/>
		</g>
	</g>
	<g>
		<g>
			<path class="st0" d="M198.11,132.71c3.22,0,3.22-5,0-5C194.89,127.71,194.89,132.71,198.11,132.71L198.11,132.71z"/>
		</g>
	</g>
	<g>
		<g>
			<path class="st0" d="M421.2,35.66c15.13-1.02,30.26-2.04,45.39-3.07c1.6-0.11,1.61-2.61,0-2.5c-15.13,1.02-30.26,2.04-45.39,3.07
				C419.6,33.27,419.59,35.77,421.2,35.66L421.2,35.66z"/>
		</g>
	</g>
	<g>
		<g>
			<path class="st0" d="M28.14,168.53c2.16-2.47,4.86-4.42,7.61-6.2c3.58-2.32,7.35-4.34,11.18-6.22c8.19-4.02,16.7-7.42,25.35-10.3
				c3.88-1.29,7.81-2.5,11.8-3.41c-0.22-0.8-0.44-1.61-0.66-2.41c-9.12,2.1-22.49,7.49-20.07,19.21c1.11,5.38,5.96,9.7,11.59,9.41
				c5.96-0.31,10.58-4.7,14.39-8.85c4.69-5.12,9-10.97,14.96-14.71c-0.61-0.25-1.22-0.5-1.84-0.75c1.26,7.88,0.16,15.88,0.1,23.8
				c0.83,0,1.67,0,2.5,0c-0.41-5.74-0.28-11.88,1.85-17.31c0.43-1.09,1.42-3.98,3.01-3.8c1.26,0.14,2.59,1.54,3.56,2.27
				c1.47,1.11,3.05,2.14,4.86,2.61c2.39,0.63,4.98,0.26,7.21-0.72c2.26-0.99,4.5-2.79,5.46-5.13c0.82-2,0.64-4.67-1.64-5.57
				c-2.42-0.96-5.06,0.91-6.57,2.66c-1.68,1.94-2.7,4.36-3.27,6.85c-1.29,5.64-0.62,11.42,2.99,16.07c2,2.57,4.92,4.13,8.09,2.69
				c3-1.36,5.11-4.4,6.87-7.06c4.92-7.48,9.44-18.89,20-19.09c-0.21-0.78-0.42-1.55-0.63-2.33c-6.68,4.41-13.28,9.92-13.76,18.57
				c-0.22,4.05,2.09,8.6,6.61,8.78c4.51,0.18,6.42-4.87,7.68-8.34c1.98-5.46,3.05-11.23,3.27-17.03c-0.82,0.11-1.64,0.22-2.46,0.33
				c1.25,4.9,0.2,10.11,0.94,15.09c0.35,2.35,1.1,4.66,2.65,6.51c1.62,1.93,4.14,3.67,6.69,2.43c2.09-1.02,3.16-3.46,3.76-5.58
				c0.87-3.07,1.45-6.25,2.08-9.37c1.32-6.56,2.46-13.15,3.64-19.73c1.31-7.32,2.65-14.64,4.38-21.88c-0.8-0.22-1.61-0.44-2.41-0.66
				c-1.09,7.35-2.15,14.7-2.93,22.09c-0.79,7.51-1.45,15.16-0.91,22.71c0.3,4.09,0.8,10.82,5.18,12.8c5.27,2.39,8.9-3.24,11.11-7.21
				c3.06-5.51,4.99-11.47,7.27-17.32c-0.82-0.11-1.64-0.22-2.46-0.33c0.4,8.58-1.28,17.11-0.11,25.67c0.16,1.19,1.74,1.05,2.28,0.3
				c5.99-8.35,11.99-16.7,17.98-25.05c-0.76-0.1-1.52-0.2-2.28-0.3c2,8.03-0.5,16.31,0.42,24.44c0.18,1.61,2.31,1.61,2.5,0
				c0.53-4.59,0.99-9.19,1.6-13.77c0.44-3.31,1.99-8.99,6.46-8.45c4.51,0.54,4.23,6.91,4.22,10.14c0,2.2-0.01,4.4-0.01,6.6
				c0,2.09,0.02,4.16,0.79,6.13c0.31,0.79,1.05,1.13,1.84,0.75c2.6-1.26,4.52-3.59,6.21-5.86c1.93-2.59,3.56-5.37,5.45-7.98
				c3.9-5.4,9.99-10.72,16.91-11.13c1.61-0.09,1.61-2.4,0-2.5c-4.07-0.24-7.91,1.86-10.23,5.15c-2.69,3.81-2.87,8.9-1.66,13.26
				c1.01,3.62,3.27,8.3,7.49,8.8c4.4,0.52,6.98-3.89,8.04-7.51c1.62-5.56,0.88-11.45-0.07-17.05c-0.27-1.58-2.67-0.91-2.41,0.66
				c1.53,9.12,2.89,18.27,4.01,27.45c1.56,12.8,3.12,25.96,2.23,38.87c-0.15,2.22-0.4,4.46-0.95,6.62
				c-0.37,1.45-0.91,3.04-1.73,3.86c-0.09,0.09-0.18,0.18-0.27,0.26c-0.27,0.24,0.11-0.07-0.18,0.13c-0.11,0.07-0.23,0.13-0.34,0.19
				c0.17-0.08-0.03,0.02-0.22,0.06c-0.14,0.03-0.37,0.06-0.09,0.03c-0.33,0.04-0.12,0.04-0.27,0.01c-0.41-0.09-0.78-0.23-0.96-0.32
				c-1.24-0.64-1.97-1.78-2.42-3.19c-1.45-4.53-0.47-9.87,0.51-14.4c1.46-6.75,3.78-13.33,6.53-19.65
				c2.88-6.6,6.27-13.02,10.34-18.97c3.15-4.6,6.83-9.35,11.57-12.4c0.88-0.57,1.81-1.09,2.8-1.46c1.49-0.57,0.84-2.99-0.66-2.41
				c-5.22,2-9.3,6.38-12.68,10.68c-4.54,5.78-8.27,12.19-11.46,18.8c-3.22,6.68-5.97,13.65-7.9,20.82
				c-1.46,5.42-2.74,11.35-2.02,16.99c0.43,3.37,2.41,8.25,6.62,8c3.69-0.22,4.98-4.82,5.56-7.77c1.09-5.57,1.03-11.38,0.85-17.02
				c-0.22-7.11-0.84-14.2-1.61-21.27c-1.2-11.08-2.77-22.13-4.6-33.13c-0.08-0.49-0.16-0.97-0.24-1.46
				c-0.8,0.22-1.61,0.44-2.41,0.66c0.86,5.08,1.54,10.45,0.14,15.49c-0.56,2.01-1.48,4.37-3.38,5.48c-1.93,1.13-3.83-0.01-5.07-1.57
				c-2.78-3.51-3.7-9.07-2.39-13.31c1.28-4.15,5.15-7.17,9.55-6.91c0-0.83,0-1.67,0-2.5c-7.25,0.42-13.48,5.31-17.88,10.79
				c-2.04,2.54-3.69,5.35-5.55,8.02c-1.71,2.47-3.64,5.15-6.41,6.5c0.61,0.25,1.22,0.5,1.84,0.75c-0.73-1.86-0.71-3.75-0.7-5.72
				c0-2.2,0-4.4,0.01-6.6c0-3.54,0.03-7.34-2.43-10.16c-2.23-2.56-5.83-2.86-8.6-0.97c-2.99,2.04-4.07,5.51-4.55,8.92
				c-0.68,4.83-1.14,9.7-1.7,14.54c0.83,0,1.67,0,2.5,0c-0.95-8.37,1.55-16.82-0.51-25.11c-0.28-1.13-1.69-1.12-2.28-0.3
				c-5.99,8.35-11.99,16.7-17.98,25.05c0.76,0.1,1.52,0.2,2.28,0.3c-1.13-8.32,0.59-16.67,0.2-25.01c-0.07-1.46-1.95-1.63-2.46-0.33
				c-1.81,4.64-3.36,9.35-5.53,13.84c-1.24,2.57-2.61,5.24-4.52,7.4c-1.27,1.43-2.54,2.41-4.31,1.88c-1.38-0.42-2.23-1.57-2.84-3.12
				c-0.91-2.31-1.23-4.87-1.42-7.33c-0.54-7.01,0.01-14.12,0.69-21.1c0.77-7.8,1.89-15.56,3.03-23.31c0.23-1.55-2.03-2.27-2.41-0.66
				c-2.82,11.78-4.64,23.78-6.87,35.68c-0.55,2.95-1.13,5.89-1.75,8.83c-0.55,2.57-0.93,5.35-1.92,7.8
				c-0.36,0.89-0.85,1.89-1.65,2.47c-1.26,0.91-2.56-0.08-3.48-0.99c-1.59-1.56-2.31-3.65-2.65-5.81c-0.81-5.1,0.3-10.39-0.99-15.44
				c-0.36-1.4-2.4-1.05-2.46,0.33c-0.16,4.21-0.79,8.36-1.92,12.42c-0.55,1.96-1.2,3.89-1.96,5.77c-0.61,1.5-1.36,3.23-2.75,4.16
				c-1.47,0.99-3.25,0.43-4.42-0.75c-1.42-1.42-1.65-3.55-1.47-5.46c0.32-3.35,1.88-6.62,4.06-9.15c2.38-2.76,5.41-4.82,8.42-6.81
				c0.99-0.66,0.67-2.35-0.63-2.33c-8.69,0.16-14.67,7.59-18.66,14.52c-1.66,2.88-3.28,5.83-5.37,8.43c-1.35,1.68-3.54,4.26-6,3.73
				c-1.44-0.31-2.55-1.62-3.34-2.76c-1.53-2.21-2.5-4.65-2.67-7.34c-0.28-4.53,0.78-11.14,5.22-13.52c0.98-0.53,2.36-0.68,2.33,0.77
				c-0.02,1.26-0.89,2.35-1.74,3.18c-1.82,1.75-4.36,2.72-6.88,2.6c-3.42-0.16-5.52-2.97-8.32-4.49c-4.03-2.2-6.35,1.81-7.62,5.14
				c-2.12,5.57-2.29,11.89-1.86,17.78c0.11,1.59,2.49,1.63,2.5,0c0.06-8.17,1.11-16.34-0.19-24.47c-0.13-0.79-1.21-1.14-1.84-0.75
				c-4.62,2.9-8.29,7.01-11.86,11.06c-3.48,3.94-6.94,8.42-11.72,10.85c-2.31,1.17-4.97,1.73-7.49,0.94
				c-2.5-0.78-4.52-2.72-5.55-5.11c-1.95-4.51-0.3-9.09,3.36-12.09c4.02-3.3,9.32-4.99,14.32-6.14c1.57-0.36,0.9-2.77-0.66-2.41
				c-7.94,1.82-15.7,4.6-23.26,7.6c-8.51,3.37-16.99,7.14-24.76,12.01c-3.23,2.03-6.49,4.28-9.01,7.16
				C25.32,167.97,27.08,169.75,28.14,168.53L28.14,168.53z"/>
		</g>
	</g>
	<g>
		<g>
			<path class="st0" d="M158.79,127.25c12.52-0.96,24.93-3.01,37.45-3.98c1.59-0.12,1.61-2.62,0-2.5
				c-12.52,0.96-24.93,3.01-37.45,3.98C157.2,124.87,157.19,127.37,158.79,127.25L158.79,127.25z"/>
		</g>
	</g>
	<g>
		<g>
			<path class="st0" d="M327.69,167.4c7.97-4.21,15.87-8.56,22.33-14.95c1.79-1.77,3.44-3.66,4.98-5.64
				c0.62-0.8,1.69-2.11,2.11-0.49c0.28,1.05,0.1,2.24,0.07,3.31c-0.16,5.87-0.52,11.72-1.05,17.57c0.83,0,1.67,0,2.5,0
				c-0.23-4.59-0.39-9.32,1.05-13.74c1.08-3.31,3.41-7.22,6.91-8.42c5.03-1.72,6.08,7.76,6.09,10.85c0.01,4-0.63,8.07,0.12,12.04
				c0.26,1.36,2,1,2.41,0c2.77-6.72-1.76-16,5.04-21.02c1.32-0.97,2.7-0.74,4.16-0.19c1.56,0.59,2.33,1.34,2.62,2.96
				c0.56,3.15-0.04,6.49-0.02,9.67c0.02,2.92,0.37,6.39,2.49,8.61c1.57,1.65,3.77,1.49,5.67,0.54c2.41-1.21,4.4-3.37,6.09-5.42
				c1.79-2.16,3.43-4.49,4.77-6.96c1.57-2.91,3.33-6.11,4.05-9.36c0.31-1.4,0.41-2.89-0.14-4.24c-0.48-1.19-1.71-2.72-3.1-2.64
				c-6.3,0.37-7.23,9.16-6.35,13.86c0.95,5.08,4.06,11.62,9.19,13.62c6.34,2.48,9.62-5.29,11.5-9.84c1.2-2.9,2.34-5.77,3.78-8.56
				c1.25-2.44,2.51-5.22,4.38-7.26c0.13-0.14,0.62-0.59,0.62-0.59c0.02,0.08-0.69-0.18-0.61-0.24c0.02-0.02,0.18,0.59,0.19,0.63
				c0.33,1.76,0.09,3.72,0.03,5.5c-0.13,4.58-0.42,9.16-0.42,13.74c0,2.12,0.07,4.24,0.26,6.35c0.12,1.34,2.06,1.77,2.46,0.33
				c1.37-5.03,0.13-10.08,0.62-15.17c0.23-2.39,1.06-4.55,2.19-6.65c0.76-1.41,1.76-2.37,3.39-2.7c4.47-0.89,5.12,8.07,5.31,10.88
				c0.3,4.49,0.01,9,0.31,13.48c0.1,1.6,2.41,1.61,2.5,0c0.23-4.29-0.18-8.59,0.19-12.88c0.27-3.11,1.1-7.1,3.92-8.97
				c2.68-1.78,6.46,0.31,7.08,3.25c0.35,1.67-0.04,3.5-0.11,5.18c-0.17,4.45-0.05,10.94,4.24,13.59c2.31,1.42,5.76,0.17,7.76-1.31
				c2.22-1.65,3.76-4.01,5.13-6.37c3.69-6.35,8.51-12.8,16.46-13.37c1.59-0.11,1.61-2.6,0-2.5c-4.98,0.32-8.93,3.35-10.71,7.98
				c-1.56,4.09-1.28,9.21,1.32,12.82c2.59,3.61,8.67,6.17,12.31,2.59c3.96-3.9,4.03-11.36,2.08-16.19c-0.3-0.73-0.6-1.46-0.87-2.21
				c-0.17-0.45-0.72-1.46-0.61-1.93c-0.06,0.24,0.09-0.08,0.26-0.16c0.36-0.16,0.7-0.28,1.1-0.35c0.81-0.14,1.64-0.11,2.46-0.1
				c4.6,0.09,9.31-0.58,13.65-2.16c-0.51-0.29-1.03-0.58-1.54-0.87c1.07,3.78,1.32,7.84,1.47,11.74c0.16,3.89,0.31,8.1-0.74,11.9
				c0.8,0,1.61,0,2.41,0c-0.5-1.87-0.29-4.04-0.21-5.94c0.11-2.85,0.36-5.72,0.81-8.54c0.24-1.52,0.54-4.31,1.45-5.33
				c1.03-1.14,3.14-1.28,4.55-1.34c1.85-0.07,3.7,0.08,5.55,0.08c3.71-0.01,7.58-0.21,11.21-0.96c-0.53-0.4-1.05-0.8-1.58-1.21
				c0.14,2.94,0.18,5.89,0.18,8.83c-0.01,2.61-0.19,5.25,0.5,7.8c0.94,3.45,3.42,6.72,7.01,7.65c6.27,1.62,11.44-4.67,14.2-9.41
				c1.57-2.69,2.83-5.61,3.66-8.61c0.6-2.17,1.2-4.79,0.57-7.02c-0.79-2.82-3.76-2.71-6.08-1.71c-3.14,1.36-3.49,4.75-2.87,7.73
				c0.72,3.42,2.4,6.77,3.9,9.91c1.54,3.22,3.37,6.76,6.27,8.97c6.41,4.9,12.5-4.21,15.39-8.92c2.01-3.28,3.74-6.71,5.55-10.1
				c1.01-1.89,2.02-4.33,3.93-5.46c2.72-1.61,4.13,0.77,4.56,3.15c0.61,3.33,1.21,6.69,1.53,10.06c0.23,2.44,0.82,6.67-1.08,8.66
				c-0.62,0.65-1.87,1.02-2.44,0.12c-0.7-1.12-0.1-3.02,0.27-4.14c0.92-2.78,2.69-4.7,4.87-6.54c4.99-4.21,10.17-8.45,15.73-11.89
				c0.75-0.47,1.62-1.01,2.36-1.23c1.54-0.46,0.88-2.87-0.66-2.41c-2.23,0.66-4.27,2.29-6.14,3.61c-2.86,2.02-5.64,4.16-8.38,6.34
				c-4.54,3.6-9.59,7.1-10.64,13.25c-0.46,2.68,0.28,6.01,3.6,6.03c2.87,0.02,4.45-2.61,4.9-5.13c0.61-3.37,0.16-6.87-0.33-10.22
				c-0.24-1.67-0.53-3.33-0.82-4.99c-0.3-1.73-0.46-3.53-1.32-5.1c-1-1.83-2.89-2.85-4.97-2.56c-2.33,0.33-4.02,1.97-5.26,3.87
				c-1.98,3.04-3.47,6.42-5.22,9.6c-1.9,3.46-3.93,7-6.65,9.88c-1.93,2.05-4.59,4.16-7.27,2.14c-2.85-2.14-4.54-5.92-6-9.06
				c-1.38-2.97-3.11-6.23-3.44-9.53c-0.13-1.28-0.03-2.72,1.12-3.5c0.67-0.46,1.51-0.59,2.3-0.67c0.41-0.04,0.55-0.05,0.61-0.03
				c0.12,0.04,0.03,0.01,0.06,0.05c0.84,1.27,0.2,3.96-0.2,5.53c-1.4,5.58-4.47,11.94-9.25,15.38c-2.35,1.69-5.18,2.35-7.7,0.59
				c-4.04-2.83-3.68-8.03-3.68-12.37c0-2.86-0.04-5.71-0.18-8.56c-0.04-0.85-0.76-1.37-1.58-1.21c-3.46,0.71-7.21,0.89-10.74,0.87
				c-3.63-0.01-8.02-0.76-11.15,1.56c-1.65,1.22-2.03,3.68-2.39,5.57c-0.58,3.05-0.89,6.16-1.07,9.25
				c-0.14,2.52-0.42,5.37,0.24,7.84c0.32,1.2,2.08,1.18,2.41,0c1.11-4.01,0.99-8.44,0.83-12.56c-0.16-4.12-0.44-8.42-1.56-12.41
				c-0.17-0.61-0.9-1.11-1.54-0.87c-3.78,1.38-7.92,2.13-11.95,2.1c-2.23-0.02-5.44-0.39-6.9,1.73c-1.23,1.78,0.48,4.57,1.16,6.28
				c0.96,2.41,1.24,4.98,0.94,7.55c-0.27,2.27-1.03,5.48-3.22,6.69c-1.69,0.93-4.16,0.09-5.67-0.87c-3.22-2.06-4.25-6.34-3.73-9.93
				c0.69-4.76,4.09-8.62,9.03-8.93c0-0.83,0-1.67,0-2.5c-7.33,0.52-13.09,5.47-16.84,11.54c-1.45,2.35-2.62,4.91-4.45,7.01
				c-1.47,1.68-4.93,4.29-7.08,2.63c-1.97-1.51-2.45-4.53-2.65-6.85c-0.2-2.32-0.09-4.65,0.09-6.97c0.18-2.32-0.15-4.65-1.74-6.47
				c-2.02-2.3-5.97-3.25-8.72-1.8c-3.24,1.71-4.79,5.71-5.32,9.12c-0.78,5.02-0.19,10.1-0.46,15.15c0.83,0,1.67,0,2.5,0
				c-0.27-4.11-0.05-8.24-0.24-12.36c-0.18-3.82-0.55-8.15-2.55-11.51c-0.85-1.44-2.22-2.96-3.99-3.1
				c-1.63-0.14-3.47,0.45-4.76,1.43c-2.52,1.92-3.98,5.98-4.45,8.95c-0.85,5.34,0.71,10.8-0.73,16.07c0.82,0.11,1.64,0.22,2.46,0.33
				c-0.37-4.24-0.27-8.5-0.12-12.74c0.15-4.02,0.57-8.14,0.32-12.16c-0.11-1.73-0.93-4.47-3.24-3.32c-1.91,0.95-3.15,3.51-4.15,5.27
				c-1.4,2.44-2.74,4.96-3.84,7.54c-1.3,3.04-2.37,6.18-3.91,9.11c-1.05,1.99-2.69,4.8-5.34,4.5c-2.36-0.27-4.25-2.52-5.48-4.35
				c-1.61-2.41-2.76-5.18-3.26-8.04c-0.49-2.78-0.25-6.29,1.32-8.7c0.5-0.77,1.57-1.86,2.6-1.81c0.34,0.02,0-0.02-0.01-0.03
				c0.12,0.04,0.31,0.25,0.39,0.35c0.2,0.24,0.36,0.47,0.48,0.76c0.25,0.65,0.23,1.39,0.13,2.07c-0.45,3.16-2.31,6.29-3.78,9.08
				c-1.25,2.37-2.8,4.62-4.5,6.68c-1.57,1.89-3.41,4.04-5.7,5.08c-5.43,2.47-4.19-10.18-4.12-12.61c0.07-2.39,0.27-5.78-1.53-7.65
				c-1.78-1.85-5.42-3.05-7.88-2.08c-2.74,1.08-4.74,4.07-5.78,6.7c-1.32,3.34-0.63,7.31-0.69,10.8c-0.03,1.97-0.26,3.87-1.02,5.7
				c0.8,0,1.61,0,2.41,0c-0.76-4.01,0.09-8.2-0.05-12.25c-0.1-2.94-0.69-6-2.01-8.64c-1.26-2.53-3.55-4.51-6.53-3.93
				c-3.79,0.74-6.79,4.5-8.34,7.8c-2.49,5.31-2.44,11.22-2.15,16.96c0.08,1.63,2.36,1.59,2.5,0c0.46-5.1,0.79-10.21,0.97-15.33
				c0.09-2.58,1.09-8.99-3.2-8.88c-2.12,0.05-3.1,1.99-4.29,3.43c-1.42,1.72-2.93,3.36-4.54,4.9c-2.93,2.81-6.17,5.25-9.6,7.42
				c-3.74,2.37-7.65,4.43-11.56,6.5C325.01,166,326.27,168.15,327.69,167.4L327.69,167.4z"/>
		</g>
	</g>
</g>
</svg>
