<?xml version="1.0" encoding="UTF-8" standalone="no"?>
<svg
   xmlns:dc="http://purl.org/dc/elements/1.1/"
   xmlns:cc="http://creativecommons.org/ns#"
   xmlns:rdf="http://www.w3.org/1999/02/22-rdf-syntax-ns#"
   xmlns:svg="http://www.w3.org/2000/svg"
   xmlns="http://www.w3.org/2000/svg"
   xmlns:sodipodi="http://sodipodi.sourceforge.net/DTD/sodipodi-0.dtd"
   xmlns:inkscape="http://www.inkscape.org/namespaces/inkscape"
   width="14in"
   height="8.5in"
   viewBox="0 0 355.6 215.9"
   version="1.1"
   id="svg8"
   inkscape:version="1.0beta2 (2b71d25, 2019-12-03)"
   sodipodi:docname="hero-title.svg">
  <defs
     id="defs2">
    <clipPath
       id="clipPath849"
       clipPathUnits="userSpaceOnUse">
      <path
         inkscape:connector-curvature="0"
         id="path847"
         d="M 0,198.43 H 283.46 V 0 H 0 Z" />
    </clipPath>
  </defs>
  <sodipodi:namedview
     units="in"
     inkscape:pagecheckerboard="false"
     id="base"
     pagecolor="#ffffff"
     bordercolor="#666666"
     borderopacity="1.0"
     inkscape:pageopacity="0"
     inkscape:pageshadow="2"
     inkscape:zoom="0.98994949"
     inkscape:cx="667.54527"
     inkscape:cy="411.23135"
     inkscape:document-units="mm"
     inkscape:current-layer="layer1"
     inkscape:document-rotation="0"
     showgrid="false"
     inkscape:snap-global="true"
     inkscape:window-width="1920"
     inkscape:window-height="1035"
     inkscape:window-x="1440"
     inkscape:window-y="23"
     inkscape:window-maximized="1" />
  <metadata
     id="metadata5">
    <rdf:RDF>
      <cc:Work
         rdf:about="">
        <dc:format>image/svg+xml</dc:format>
        <dc:type
           rdf:resource="http://purl.org/dc/dcmitype/StillImage" />
        <dc:title></dc:title>
      </cc:Work>
    </rdf:RDF>
  </metadata>
  <g
     inkscape:label="Layer 1"
     inkscape:groupmode="layer"
     id="layer1">
    <g
       transform="matrix(1.4939722,0,0,-1.5062264,-32.848018,261.70073)"
       clip-path="url(#clipPath849)"
       id="g845">
      <g
         transform="translate(90.4176,154.5499)"
         id="g851">
        <path
           inkscape:connector-curvature="0"
           id="path853"
           style="fill:none;stroke:#ffffff;stroke-width:0.75;stroke-linecap:butt;stroke-linejoin:miter;stroke-miterlimit:10;stroke-dasharray:none;stroke-opacity:1"
           d="M 0,0 C 2.495,2.542 4.476,5.587 5.788,8.898 5.53,6.654 5.497,4.384 5.692,2.134 5.759,1.358 6.036,0.389 6.81,0.301 7.487,0.224 7.983,0.907 8.287,1.517 c 1.056,2.121 1.721,4.437 1.95,6.795 -0.149,-2.112 0.097,-4.251 0.722,-6.274 0.197,-0.64 0.643,-1.401 1.303,-1.286 0.501,0.086 0.756,0.635 0.93,1.113 0.809,2.217 1.617,4.433 2.426,6.65 0.944,-7.712 1.889,-15.423 2.834,-23.135 -1.106,5.078 -1.752,10.256 -1.926,15.451 -0.082,2.467 0.092,5.279 1.992,6.855 0.172,-2.502 0.705,-4.978 1.578,-7.329 2.083,2.485 4.167,4.97 6.25,7.455 C 25.347,6.853 24.334,5.778 24.067,4.419 23.801,3.06 24.641,1.401 26.023,1.317 c 0.564,-0.035 1.111,0.19 1.608,0.459 2.815,1.523 4.542,4.442 6.13,7.222 C 34.198,8.937 34.384,8.362 34.243,7.944 34.101,7.526 33.756,7.217 33.48,6.872 32.196,5.271 32.6,2.604 34.301,1.455 c 2.197,1.619 3.329,4.274 4.362,6.8 -2.807,-7.294 2.343,-15.659 0.228,-23.183 -0.267,-0.949 -0.845,-2.018 -1.829,-2.07 -0.761,-0.041 -1.41,0.584 -1.744,1.269 -0.7,1.442 -0.423,3.153 -0.02,4.704 1.915,7.366 6.434,14.026 12.569,18.529 C 47.221,8.001 46.214,7.693 45.708,7.053 45.202,6.413 45.078,5.558 45.02,4.744 44.969,4.016 44.963,3.256 45.258,2.589 c 0.62,-1.4 2.442,-1.95 3.919,-1.55 1.478,0.4 2.649,1.521 3.612,2.71 3.31,4.089 4.908,9.521 4.339,14.751 -1.726,-0.453 -2.222,-2.649 -2.23,-4.433 -0.019,-3.846 0.733,-7.695 2.199,-11.251 0.161,-0.389 0.375,-0.818 0.779,-0.941 0.522,-0.158 1.022,0.282 1.367,0.705 1.442,1.769 2.398,3.932 2.735,6.189 0.299,-2.386 0.917,-4.732 1.833,-6.955 1.303,1.954 2.31,4.104 2.979,6.355 1.23,-1.479 1.997,-3.338 2.166,-5.255 0.154,1.774 0.853,3.496 1.979,4.875 0.496,-1.585 0.992,-3.171 1.488,-4.756 0.18,-0.577 0.513,-1.271 1.117,-1.261 0.371,0.007 0.669,0.293 0.926,0.56 l 4.758,4.95 C 78.159,6.404 77.027,5.42 76.748,4.067 c -0.28,-1.352 0.871,-3.019 2.206,-2.666 1.098,0.29 1.516,1.675 1.353,2.798 -0.164,1.124 -0.709,2.178 -0.774,3.311 -0.022,-4.328 2.51,-8.214 3.631,-12.395 0.907,-3.384 0.873,-7.016 -0.098,-10.382 -0.368,-1.276 -0.888,-2.547 -1.807,-3.506 -0.918,-0.959 -2.302,-1.556 -3.594,-1.252 -2.049,0.481 -3.031,3.023 -2.565,5.075 0.465,2.053 1.945,3.701 3.37,5.249 1.218,1.323 2.436,2.646 3.654,3.968 0.762,0.828 1.53,1.663 2.112,2.626 1.957,3.236 1.533,7.319 1.045,11.069" />
      </g>
      <g
         transform="translate(24.0614,121.8955)"
         id="g855">
        <path
           inkscape:connector-curvature="0"
           id="path857"
           style="fill:none;stroke:#ffffff;stroke-width:0.75;stroke-linecap:butt;stroke-linejoin:miter;stroke-miterlimit:10;stroke-dasharray:none;stroke-opacity:1"
           d="M 0,0 C 0.996,3.232 2.115,6.652 4.716,8.813 5.292,9.291 5.976,9.709 6.724,9.706 7.919,9.701 8.827,8.659 9.493,7.666 10.516,6.141 11.407,4.408 11.332,2.574 11.313,2.123 11.228,1.656 10.96,1.293 10.133,0.171 8.095,0.97 7.812,2.335 7.528,3.7 8.473,5.046 9.616,5.846 c 1.142,0.799 2.499,1.242 3.664,2.008 1.165,0.766 2.178,2.036 2.013,3.421 -1.845,0.344 -3.329,-1.883 -3.015,-3.734 0.315,-1.851 1.747,-3.28 3.106,-4.575 1.451,0.879 2.08,2.616 2.994,4.046 0.914,1.429 2.677,2.717 4.2,1.97 -0.386,0.716 -1.472,0.794 -2.13,0.316 C 19.79,8.82 19.5,7.977 19.408,7.169 19.277,6.027 19.487,4.811 20.182,3.895 20.877,2.979 22.106,2.435 23.216,2.732 24.81,3.159 25.529,4.941 26.445,6.314 27.571,8 29.294,9.279 31.234,9.868 29.878,10.19 28.671,8.766 28.475,7.386 28.293,6.101 28.806,4.599 30.014,4.123 c 1.13,-0.446 2.569,0.313 2.84,1.497 0.271,1.184 -0.695,2.493 -1.907,2.583 1.37,0.629 2.741,1.257 4.111,1.886 0.693,-2.082 1.196,-4.227 1.503,-6.4 -0.054,1.301 0.035,2.608 0.265,3.89 0.133,0.744 0.77,1.692 1.407,1.285 0.207,-0.132 0.311,-0.372 0.403,-0.599 0.705,-1.723 1.41,-3.447 2.115,-5.17 0.543,1.312 1.103,2.653 2.052,3.71 0.949,1.056 2.379,1.793 3.777,1.538 -2.42,-0.827 -3.736,-3.955 -2.635,-6.263 0.312,-0.654 0.981,-1.3 1.67,-1.074 0.448,0.147 0.706,0.606 0.902,1.036 2.128,4.665 1.959,10.009 1.749,15.132 -0.727,-5.785 -0.455,-11.695 0.799,-17.389 2.615,0.392 4.803,2.303 6.174,4.564 1.37,2.26 2.049,4.861 2.71,7.421 0.191,0.737 0.383,1.504 0.245,2.253 -0.138,0.75 -0.705,1.478 -1.464,1.542 -0.57,0.049 -1.111,-0.279 -1.511,-0.688 -1.659,-1.693 -1.371,-4.482 -0.563,-6.71 0.809,-2.229 2.04,-4.422 1.912,-6.79 -0.84,2.586 0.725,5.703 3.3,6.575 0.527,-2.167 1.054,-4.334 1.582,-6.5 1.764,2.726 3.777,5.645 6.883,6.593 C 66.5,7.448 65.225,5.47 65.438,3.554 c 0.111,-1.008 1.148,-2.14 1.975,-1.553 0.251,0.179 0.39,0.472 0.509,0.756 0.512,1.224 0.84,2.524 0.968,3.844 0.052,0.526 -0.336,1.301 -0.756,0.981 0.127,-2.079 0.817,-4.122 1.976,-5.852 1.426,0.352 2.003,2.047 2.211,3.501 0.209,1.454 0.399,3.125 1.611,3.954 l 0.282,-6.984 c 0.218,1.617 0.658,3.203 1.301,4.702 0.498,1.157 1.811,2.438 2.795,1.652 0.401,-0.32 0.524,-0.868 0.621,-1.372 0.321,-1.668 0.642,-3.336 0.962,-5.003 2.056,1.844 4.112,3.689 6.168,5.533 -2.215,-1.311 -3.035,-4.521 -1.72,-6.733 1.937,1.721 2.962,4.283 3.315,6.85 0.352,2.567 0.095,5.173 -0.162,7.751 -0.691,-4.058 -0.35,-8.289 0.985,-12.184 0.325,-0.95 0.758,-1.942 1.608,-2.478 0.85,-0.535 2.216,-0.333 2.552,0.613" />
      </g>
      <g
         transform="translate(129.7797,121.8785)"
         id="g859">
        <path
           inkscape:connector-curvature="0"
           id="path861"
           style="fill:none;stroke:#ffffff;stroke-width:0.75;stroke-linecap:butt;stroke-linejoin:miter;stroke-miterlimit:10;stroke-dasharray:none;stroke-opacity:1"
           d="M 0,0 C -0.463,-0.125 -0.54,0.647 -0.357,1.091 0.515,3.214 1.416,5.366 2.855,7.154 4.295,8.942 6.37,10.35 8.663,10.46 7.882,11.023 6.827,10.328 6.154,9.64 5.285,8.75 4.45,7.784 4,6.624 3.55,5.464 3.543,4.069 4.257,3.05 5.207,1.694 7.192,1.387 8.741,1.972 c 1.549,0.586 2.726,1.869 3.694,3.212 2.609,3.618 4.13,8.01 4.319,12.466 0.041,0.948 -0.222,2.19 -1.165,2.294 -0.844,-0.839 -1.003,-2.13 -1.087,-3.317 -0.249,-3.521 -0.255,-7.059 -0.018,-10.581 0.103,-1.524 0.372,-3.256 1.65,-4.091 0.656,1.978 1.72,3.819 3.107,5.374 0.556,0.625 1.459,1.242 2.155,0.778 0.078,0.322 -0.345,0.583 -0.66,0.481 C 20.421,8.486 20.226,8.176 20.08,7.878 19.412,6.514 19.21,4.927 19.515,3.44 19.638,2.842 19.857,2.234 20.312,1.827 20.767,1.42 21.507,1.284 21.99,1.657 c 0.323,0.25 0.47,0.663 0.56,1.061 0.368,1.634 0.012,3.416 -0.955,4.783 2.055,-0.273 4.148,0.987 5.115,2.819 0.968,1.833 0.89,4.111 0.06,6.01 0.795,-4.317 1.59,-8.634 2.385,-12.951 0.046,-0.251 0.096,-0.51 0.234,-0.725 0.496,-0.766 1.748,-0.459 2.35,0.226 0.851,0.969 1.008,2.35 1.059,3.637 0.148,3.733 -0.277,7.487 -1.257,11.092 1.809,-4.831 3.646,-9.825 3.425,-14.979 -0.281,1.664 -0.016,3.415 0.743,4.922 0.145,0.287 0.33,0.585 0.63,0.698 0.697,0.262 1.261,-0.596 1.514,-1.295 l 1.381,-3.821 c 0.118,-0.326 0.251,-0.672 0.536,-0.869 0.224,-0.155 0.509,-0.192 0.781,-0.2 2.776,-0.082 5.23,2.811 4.694,5.537 C 45.14,8.14 44.904,8.699 44.427,8.967 43.545,9.463 42.394,8.59 42.244,7.59 c -0.15,-1.001 0.369,-1.971 0.92,-2.82 0.835,-1.288 2.133,-2.642 3.638,-2.337 1.633,0.331 2.219,2.293 3.162,3.667 1.038,1.512 2.826,2.479 4.659,2.52 1.144,-2.577 1.962,-5.299 2.431,-8.079 -0.582,-0.796 -1.969,0.157 -1.852,1.136 0.116,0.979 1.002,1.651 1.774,2.265 1.969,1.565 3.645,3.496 4.918,5.665" />
      </g>
      <g
         transform="translate(154.4738,136.5285)"
         id="g863">
        <path
           inkscape:connector-curvature="0"
           id="path865"
           style="fill:none;stroke:#ffffff;stroke-width:0.75;stroke-linecap:butt;stroke-linejoin:miter;stroke-miterlimit:10;stroke-dasharray:none;stroke-opacity:1"
           d="M 0,0 C 1.822,0.239 3.673,0.261 5.5,0.065" />
      </g>
      <g
         transform="translate(199.5338,120.4043)"
         id="g867">
        <path
           inkscape:connector-curvature="0"
           id="path869"
           style="fill:none;stroke:#ffffff;stroke-width:0.75;stroke-linecap:butt;stroke-linejoin:miter;stroke-miterlimit:10;stroke-dasharray:none;stroke-opacity:1"
           d="m 0,0 c 0.377,3.348 1.047,6.779 2.945,9.563 1.898,2.785 5.289,4.781 8.599,4.148 -1.508,0.867 -3.472,0.05 -4.708,-1.174 C 4.137,9.862 3.678,5.227 5.8,2.075 c 2.542,2.585 3.534,6.273 4.431,9.786 0.266,-2.676 0.688,-5.337 1.263,-7.965 0.183,-0.835 0.923,-1.904 1.623,-1.413 0.2,0.14 0.305,0.377 0.396,0.603 1.305,3.215 1.88,6.862 4.192,9.45 0.74,-2.816 1.24,-5.695 1.492,-8.595 0.066,1.773 0.222,3.543 0.467,5.301 0.155,1.108 0.543,2.436 1.633,2.69 0.779,-2.738 1.558,-5.476 2.337,-8.214 2.007,3.359 4.334,6.979 8.072,8.136 -0.889,0.184 -1.692,-0.566 -2.186,-1.327 -1.161,-1.791 -1.61,-4.03 -1.229,-6.13 0.069,-0.381 0.175,-0.777 0.446,-1.053 0.57,-0.584 1.626,-0.337 2.154,0.284 0.529,0.622 0.671,1.474 0.792,2.281 0.905,6.027 1.762,12.062 2.57,18.103 C 33.919,18.536 33.585,13.06 33.252,7.584 33.135,5.663 33.104,3.495 34.444,2.114 c 0.202,-0.207 0.454,-0.399 0.743,-0.402 0.313,-0.005 0.581,0.209 0.82,0.411 0.74,0.628 1.48,1.255 2.22,1.883" />
      </g>
      <g
         transform="translate(24.0085,92.8935)"
         id="g871">
        <path
           inkscape:connector-curvature="0"
           id="path873"
           style="fill:none;stroke:#ffffff;stroke-width:0.715;stroke-linecap:butt;stroke-linejoin:miter;stroke-miterlimit:10;stroke-dasharray:none;stroke-opacity:1"
           d="M 0,0 C 0.4,1.192 0.993,2.318 1.749,3.322 1.895,3.517 2.082,3.724 2.325,3.723 2.724,3.721 2.878,3.204 2.889,2.804 2.969,-0.295 1.604,-3.682 3.22,-6.327 4.976,-4.395 6.311,-2.082 7.105,0.405 6.869,-1.282 6.703,-3.214 7.843,-4.48 c 0.17,-0.189 0.388,-0.364 0.642,-0.368 0.346,-0.006 0.609,0.302 0.798,0.593 1.583,2.446 1.681,5.531 1.73,8.443 0.007,-0.854 0.014,-1.708 0.022,-2.562 0.002,-0.302 0.015,-0.632 0.214,-0.859 0.31,-0.352 0.872,-0.263 1.322,-0.134 2.111,0.605 4.159,1.429 6.1,2.455 -2.885,-2.093 -4.238,-6.08 -3.225,-9.496 2.111,1.971 2.717,5.029 3.212,7.874 -0.146,-1.337 -0.046,-2.701 0.294,-4.002 0.165,-0.631 0.519,-1.356 1.169,-1.402 0.461,-0.032 0.857,0.307 1.189,0.629 2.098,2.033 3.987,4.281 5.627,6.698 1.274,-1.674 2.197,-3.613 2.692,-5.658 0.163,-0.673 0.277,-1.396 0.035,-2.045 -0.242,-0.649 -0.958,-1.168 -1.619,-0.963 -0.574,0.177 -0.895,0.828 -0.879,1.429 0.016,0.6 0.295,1.159 0.584,1.686 1.397,2.549 3.175,4.887 4.396,7.524 1.222,2.637 1.849,5.734 0.803,8.446 0.453,-4.744 0.513,-9.526 0.179,-14.28 -0.088,-1.246 -0.158,-2.637 0.65,-3.589 0.946,-1.115 2.776,-1.09 4.002,-0.294 1.227,0.795 1.962,2.153 2.522,3.504 0.726,1.751 1.133,4.04 -0.267,5.317 -2.167,-1.374 -2.427,-4.776 -0.804,-6.764 1.622,-1.987 4.593,-2.538 7.026,-1.725" />
      </g>
      <g
         transform="translate(52.9389,103.6422)"
         id="g875">
        <path
           inkscape:connector-curvature="0"
           id="path877"
           style="fill:none;stroke:#ffffff;stroke-width:0.715;stroke-linecap:butt;stroke-linejoin:miter;stroke-miterlimit:10;stroke-dasharray:none;stroke-opacity:1"
           d="M 0,0 C 2.811,-0.22 5.631,-0.321 8.45,-0.303" />
      </g>
      <g
         transform="translate(82.502,88.0921)"
         id="g879">
        <path
           inkscape:connector-curvature="0"
           id="path881"
           style="fill:none;stroke:#ffffff;stroke-width:0.715;stroke-linecap:butt;stroke-linejoin:miter;stroke-miterlimit:10;stroke-dasharray:none;stroke-opacity:1"
           d="M 0,0 C 1.314,3.527 2.628,7.054 3.942,10.58 5.134,13.779 6.344,17.205 5.58,20.532 4.64,19.178 4.562,17.426 4.516,15.778 4.396,11.457 4.275,7.135 4.155,2.814 4.124,1.708 4.255,0.336 5.278,-0.087 6.422,-0.56 7.561,0.605 8.135,1.701 9.422,4.158 9.969,6.996 9.686,9.755 9.651,10.099 9.574,10.488 9.277,10.665 8.919,10.878 8.457,10.654 8.15,10.372 6.64,8.98 6.864,6.561 7.351,4.566 7.818,2.649 8.922,0.374 10.894,0.416 c 0.846,0.018 1.61,0.494 2.287,1.001 3.39,2.539 5.826,6.324 6.731,10.463 C 19.174,10.363 18.436,8.846 17.697,7.329 17.6,7.129 17.495,6.92 17.309,6.797 16.728,6.414 16.059,7.134 15.736,7.75 15.144,8.878 14.552,10.006 13.96,11.135 15.338,8.026 16.979,5.033 18.859,2.2 c 0.55,-0.827 1.327,-1.74 2.312,-1.613 1.115,0.145 1.584,1.476 1.798,2.579 1.087,5.592 1.675,11.281 1.753,16.977 C 24.12,14.397 24.099,8.59 24.659,2.84 24.728,2.135 24.867,1.33 25.474,0.966 26.12,0.58 27.002,0.932 27.452,1.534 c 0.45,0.603 0.577,1.38 0.691,2.123 0.313,2.046 0.626,4.091 0.94,6.136 -0.136,-2.188 0.064,-4.397 0.591,-6.526 0.279,-1.125 0.991,-2.468 2.143,-2.338 0.536,0.061 0.974,0.448 1.346,0.84 4.061,4.278 4.593,10.706 4.905,16.597 0.043,0.823 0.053,1.744 -0.507,2.349 -1.651,-1.565 -2.046,-4.038 -2.014,-6.313 0.044,-3.14 0.717,-6.233 1.388,-9.301 0.254,-1.164 0.612,-2.47 1.665,-3.028 1.005,-0.533 2.262,-0.149 3.222,0.461 2.192,1.391 3.581,3.963 3.543,6.558 -0.007,0.485 -0.083,1.017 -0.442,1.344 -0.538,0.49 -1.473,0.229 -1.902,-0.36 -0.428,-0.589 -0.467,-1.373 -0.408,-2.099 0.166,-2.076 1.014,-4.091 2.381,-5.663 0.276,-0.317 0.6,-0.632 1.013,-0.713 0.69,-0.135 1.309,0.417 1.775,0.945 1.989,2.254 3.554,4.882 4.586,7.706 1.169,-0.261 1.63,-1.657 1.82,-2.839 0.396,-2.471 0.507,-4.986 0.332,-7.482 -0.023,-0.321 -0.063,-0.671 -0.291,-0.9 -0.57,-0.572 -1.54,0.222 -1.67,1.019 -0.251,1.546 0.832,2.958 1.848,4.149 1.507,1.768 3.015,3.535 4.522,5.303" />
      </g>
      <g
         transform="translate(104.5193,104.6257)"
         id="g883">
        <path
           inkscape:connector-curvature="0"
           id="path885"
           style="fill:none;stroke:#ffffff;stroke-width:0.715;stroke-linecap:butt;stroke-linejoin:miter;stroke-miterlimit:10;stroke-dasharray:none;stroke-opacity:1"
           d="M 0,0 C 1.786,0.233 3.615,0.133 5.365,-0.293" />
      </g>
      <g
         transform="translate(112.5151,104.6667)"
         id="g887">
        <path
           inkscape:connector-curvature="0"
           id="path889"
           style="fill:none;stroke:#ffffff;stroke-width:0.715;stroke-linecap:butt;stroke-linejoin:miter;stroke-miterlimit:10;stroke-dasharray:none;stroke-opacity:1"
           d="M 0,0 C -0.125,-0.038 -0.204,-0.187 -0.164,-0.312" />
      </g>
      <g
         transform="translate(84.2256,104.5808)"
         id="g891">
        <path
           inkscape:connector-curvature="0"
           id="path893"
           style="fill:none;stroke:#ffffff;stroke-width:0.715;stroke-linecap:butt;stroke-linejoin:miter;stroke-miterlimit:10;stroke-dasharray:none;stroke-opacity:1"
           d="M 0,0 C 2.438,0.48 4.98,0.42 7.392,-0.175" />
      </g>
      <g
         transform="translate(152.6681,87.3885)"
         id="g895">
        <path
           inkscape:connector-curvature="0"
           id="path897"
           style="fill:none;stroke:#ffffff;stroke-width:0.715;stroke-linecap:butt;stroke-linejoin:miter;stroke-miterlimit:10;stroke-dasharray:none;stroke-opacity:1"
           d="M 0,0 C 2.488,4.349 4.227,9.124 5.12,14.054 3.606,9.624 4.04,4.567 6.288,0.461 c 1.871,3.43 3.341,7.079 4.367,10.849 0.439,-3.196 0.877,-6.392 1.316,-9.588 -0.18,3.288 0.845,6.629 2.839,9.25 0.65,-1.665 0.451,-3.52 0.532,-5.305 0.081,-1.786 0.589,-3.759 2.113,-4.692 2.248,5.555 3.501,11.511 3.681,17.501 -1.225,-5.919 -0.387,-12.245 2.338,-17.64 1.359,3.338 3.928,6.169 7.119,7.844 -1.183,-1.253 -1.816,-3.007 -1.707,-4.726 0.086,-1.36 1.064,-2.948 2.401,-2.686 0.78,0.153 1.307,0.899 1.572,1.649 0.653,1.847 0.122,4.056 -1.299,5.405 3.863,1.094 7.659,2.424 11.359,3.98" />
      </g>
      <g
         transform="translate(170.1808,103.9437)"
         id="g899">
        <path
           inkscape:connector-curvature="0"
           id="path901"
           style="fill:none;stroke:#ffffff;stroke-width:0.715;stroke-linecap:butt;stroke-linejoin:miter;stroke-miterlimit:10;stroke-dasharray:none;stroke-opacity:1"
           d="M 0,0 C 3.63,0.482 7.307,0.61 10.961,0.381" />
      </g>
      <g
         transform="translate(157.3605,108.721)"
         id="g903">
        <path
           inkscape:connector-curvature="0"
           id="path905"
           style="fill:none;stroke:#ffffff;stroke-width:0.715;stroke-linecap:butt;stroke-linejoin:miter;stroke-miterlimit:10;stroke-dasharray:none;stroke-opacity:1"
           d="M 0,0 C 0.047,0.193 0.296,0.305 0.471,0.212" />
      </g>
      <g
         transform="translate(153.2157,170.7841)"
         id="g907">
        <path
           inkscape:connector-curvature="0"
           id="path909"
           style="fill:none;stroke:#ffffff;stroke-width:0.715;stroke-linecap:butt;stroke-linejoin:miter;stroke-miterlimit:10;stroke-dasharray:none;stroke-opacity:1"
           d="M 0,0 C 0.047,0.193 0.296,0.305 0.471,0.212" />
      </g>
      <g
         transform="translate(204.7892,102.5807)"
         id="g911">
        <path
           inkscape:connector-curvature="0"
           id="path913"
           style="fill:none;stroke:#ffffff;stroke-width:0.715;stroke-linecap:butt;stroke-linejoin:miter;stroke-miterlimit:10;stroke-dasharray:none;stroke-opacity:1"
           d="m 0,0 c -0.404,-3.136 -0.241,-6.344 0.477,-9.423 0.181,-0.778 0.656,-1.732 1.447,-1.62 0.433,0.062 0.742,0.441 0.987,0.804 1.734,2.574 2.52,5.771 2.177,8.856 1.818,-9.228 3.228,-18.536 4.227,-27.888 0.171,-1.598 -0.351,-3.905 -1.94,-3.661 -0.387,0.059 -0.727,0.285 -1.033,0.53 -2.396,1.915 -3.403,5.18 -3.242,8.243 0.16,3.062 1.337,5.976 2.653,8.747 2.359,4.97 5.216,9.703 8.515,14.106 -1.732,-1.506 -2.621,-3.924 -2.278,-6.193 0.206,-1.367 1.166,-2.872 2.544,-2.773 1.036,0.074 1.807,1.082 1.97,2.108 0.162,1.025 -0.137,2.061 -0.434,3.056 -0.189,0.635 -0.378,1.27 -0.567,1.905 -0.144,0.483 -0.325,1.014 -0.767,1.257 -0.442,0.243 -1.163,-0.107 -1.031,-0.594 2.636,-0.942 5.776,-0.285 7.813,1.636 -1.203,-2.859 -0.426,-6.434 1.854,-8.537 1.853,2.606 2.435,6.073 1.534,9.141 -0.065,-2.646 0.485,-5.304 1.594,-7.706 0.165,-0.36 0.367,-0.738 0.722,-0.913 0.963,-0.475 1.808,0.839 2.037,1.889 0.421,1.929 0.62,3.906 0.593,5.881 0.789,-2.911 1.577,-5.822 2.365,-8.734 -0.139,1.51 -0.278,3.02 -0.417,4.53 -0.031,0.338 -0.056,0.702 0.122,0.99 0.217,0.352 0.661,0.476 1.064,0.57 1.697,0.4 3.395,0.799 5.092,1.198" />
      </g>
      <g
         transform="translate(25.605,50.7031)"
         id="g915">
        <path
           inkscape:connector-curvature="0"
           id="path917"
           style="fill:none;stroke:#ffffff;stroke-width:0.715;stroke-linecap:butt;stroke-linejoin:miter;stroke-miterlimit:10;stroke-dasharray:none;stroke-opacity:1"
           d="M 0,0 C -0.105,4.124 1.196,8.271 3.637,11.597 5.325,7.863 6.61,3.947 7.462,-0.061 7.19,3.139 7.779,6.408 9.15,9.312 c 0.225,0.475 0.617,1.018 1.133,0.919 0.524,-0.101 0.679,-0.764 0.722,-1.295 0.235,-2.9 0.48,-5.978 2.205,-8.32 0.573,-0.777 1.504,-1.499 2.424,-1.208 0.757,0.24 1.149,1.052 1.457,1.784 1.241,2.953 2.503,6.218 1.542,9.274 -0.17,0.541 -0.444,1.101 -0.951,1.355 -1.28,0.639 -2.47,-1.101 -2.614,-2.524 -0.347,-3.441 1.338,-7.01 4.215,-8.929 0.928,-0.618 2.05,-1.084 3.142,-0.856 1.852,0.386 2.75,2.504 3.017,4.376 0.352,2.466 0.131,5.013 -0.643,7.381 -0.11,-4.234 1.807,-8.475 5.058,-11.189 1.079,2.483 1.449,5.27 1.056,7.948 0.086,-3.016 1.271,-5.989 3.284,-8.237 1.141,3.436 1.428,7.152 0.828,10.722 2.122,-1.754 5.453,-1.838 7.661,-0.193" />
      </g>
      <g
         transform="translate(74.6355,57.7297)"
         id="g919">
        <path
           inkscape:connector-curvature="0"
           id="path921"
           style="fill:none;stroke:#ffffff;stroke-width:0.715;stroke-linecap:butt;stroke-linejoin:miter;stroke-miterlimit:10;stroke-dasharray:none;stroke-opacity:1"
           d="m 0,0 c 3.333,2.402 5.811,5.967 6.9,9.928 0.574,2.09 0.388,4.939 -1.661,5.644 C 1.757,11.68 2.491,5.742 3.19,0.567 c 1.123,-8.315 1.604,-16.716 1.437,-25.105 -0.009,-0.436 -0.044,-0.927 -0.375,-1.211 -0.654,-0.561 -1.608,0.221 -2.009,0.983 -1.9,3.61 -1.171,8.015 -0.003,11.924 1.854,6.206 4.701,12.115 8.399,17.433 -3.156,-2.61 -3.848,-7.723 -1.5,-11.079 1.937,2.993 2.681,6.737 2.033,10.243 0.244,-2.579 0.884,-5.12 1.891,-7.507 0.283,-0.67 0.864,-1.455 1.552,-1.218 0.405,0.14 0.608,0.584 0.754,0.988 0.895,2.486 0.536,4.614 0.425,7.254 -0.562,-3.09 0.651,-5.822 2.024,-8.647 1.908,2.514 2.985,7.062 1.115,9.604 2.707,-2.483 6.36,-3.097 8.894,-0.437 -1.317,-1.243 -2.715,-2.642 -2.924,-4.441 -0.21,-1.799 1.572,-3.828 3.236,-3.111 0.84,0.362 1.323,1.274 1.488,2.175 0.297,1.62 -0.28,3.373 -1.48,4.501 2.355,-0.486 4.922,0.194 6.727,1.784 -0.897,-2.817 -0.449,-6.03 1.183,-8.495 1.427,2.136 2.185,4.712 2.142,7.28 -0.772,-2.991 0.723,-6.416 3.442,-7.883 0.394,-0.213 0.865,-0.39 1.281,-0.223 0.407,0.163 0.625,0.599 0.788,1.006 0.907,2.266 1.223,4.764 0.911,7.184 l 2.129,-8.36 c -0.317,1.588 -0.634,3.176 -0.951,4.764 2.443,-0.041 4.883,1.015 6.527,2.823 0.254,-2.215 1.018,-4.371 2.216,-6.251 0.592,-0.93 1.564,-1.895 2.629,-1.608 0.905,0.245 1.331,1.264 1.587,2.166 1.967,6.926 1.434,14.283 0.884,21.462 -0.551,-6.209 -0.108,-12.506 1.307,-18.577 0.4,-1.715 1.096,-3.657 2.764,-4.221 2.009,-0.68 3.993,1.096 5.134,2.883 0.793,1.241 1.465,2.643 1.409,4.114 -0.056,1.472 -1.045,2.991 -2.499,3.219 -2.052,-1.56 -1.024,-4.827 0.381,-6.988 1.125,-1.731 2.436,-3.425 4.241,-4.425 1.806,-1.001 4.212,-1.156 5.847,0.103" />
      </g>
      <g
         transform="translate(131.8562,73.1234)"
         id="g923">
        <path
           inkscape:connector-curvature="0"
           id="path925"
           style="fill:none;stroke:#ffffff;stroke-width:0.715;stroke-linecap:butt;stroke-linejoin:miter;stroke-miterlimit:10;stroke-dasharray:none;stroke-opacity:1"
           d="M 0,0 C 3.173,-0.25 6.37,-0.198 9.534,0.153 9.381,-0.054 9.229,-0.26 9.076,-0.466" />
      </g>
      <g
         transform="translate(124.914,72.1824)"
         id="g927">
        <path
           inkscape:connector-curvature="0"
           id="path929"
           style="fill:none;stroke:#ffffff;stroke-width:0.715;stroke-linecap:butt;stroke-linejoin:miter;stroke-miterlimit:10;stroke-dasharray:none;stroke-opacity:1"
           d="M 0,0 C -0.392,-0.039 -0.551,-0.656 -0.228,-0.88" />
      </g>
      <g
         transform="translate(159.6313,52.9984)"
         id="g931">
        <path
           inkscape:connector-curvature="0"
           id="path933"
           style="fill:none;stroke:#ffffff;stroke-width:0.715;stroke-linecap:butt;stroke-linejoin:miter;stroke-miterlimit:10;stroke-dasharray:none;stroke-opacity:1"
           d="M 0,0 C 0.299,0.754 0.711,1.462 1.219,2.094 2.33,3.476 3.86,4.455 5.423,5.291 9.181,7.299 13.264,8.609 17.322,9.909 15.253,9.763 13.159,8.858 11.971,7.159 c -1.187,-1.7 -1.23,-4.242 0.205,-5.739 2.002,1.611 3.241,4.133 3.291,6.702 1.389,-8.42 2.058,-16.959 1.997,-25.493 -0.013,-1.801 -0.605,-4.188 -2.406,-4.211 -2.2,3.718 -2.19,8.352 -1.41,12.6 1.346,7.331 4.826,14.258 9.904,19.713 -3.449,-2.409 -4.487,-7.667 -2.213,-11.207 1.635,2.891 2.422,6.255 2.237,9.571 0.917,-2.119 1.834,-4.238 2.752,-6.357 0.302,-0.699 0.815,-1.525 1.57,-1.421 0.311,0.043 0.574,0.247 0.81,0.455 2.511,2.221 3.665,5.866 2.89,9.127 0.814,-2.858 1.629,-5.716 2.443,-8.574 -1.002,1.415 -1.558,3.14 -1.571,4.874 -0.004,0.54 0.073,1.142 0.487,1.489 0.33,0.276 0.789,0.318 1.216,0.363 2.534,0.27 5.009,1.075 7.216,2.348 0.442,0.255 0.912,0.583 1.01,1.083 0.098,0.501 -0.49,1.074 -0.901,0.773 0.969,-3.094 1.939,-6.189 2.909,-9.283 -0.108,2.65 0.902,5.328 2.733,7.247 1.007,-2.123 1.726,-4.382 2.132,-6.696 0.222,2.362 1.293,4.634 2.972,6.309 0.288,-2.195 0.867,-4.352 1.717,-6.396 0.228,-0.55 0.493,-1.113 0.962,-1.48 0.843,-0.66 2.081,-0.477 3.048,-0.017 3.55,1.688 4.717,6.965 2.209,9.993 -1.055,-1.567 -1.585,-3.482 -1.484,-5.369 0.115,-2.162 1.488,-4.57 3.651,-4.641 1.616,-0.053 2.952,1.2 4.006,2.425 1.509,1.754 2.939,4.112 2.056,6.251 0.399,-2.805 0.797,-5.609 1.196,-8.414 -0.101,1.955 0.544,3.939 1.774,5.462 0.435,-1.183 0.87,-2.365 1.305,-3.548 0.226,-0.615 0.608,-1.343 1.263,-1.333 0.577,0.009 0.949,0.599 1.188,1.124 2.712,5.958 2.483,12.78 2.203,19.319 -0.815,-5.788 -0.362,-11.752 1.317,-17.351 0.334,-1.111 0.963,-2.407 2.121,-2.468 0.648,-0.033 1.235,0.355 1.748,0.751 1.856,1.429 3.469,3.172 4.751,5.131 0.243,0.372 0.499,0.773 0.908,0.946 0.954,0.403 1.854,-0.641 2.367,-1.54 1.559,-2.727 3.173,-5.845 2.308,-8.865 -1.021,-0.22 -2,0.753 -2.14,1.788 -0.139,1.035 0.332,2.052 0.885,2.938 1.631,2.618 4.103,4.704 6.958,5.872" />
      </g>
      <g
         transform="translate(231.6864,72.9149)"
         id="g935">
        <path
           inkscape:connector-curvature="0"
           id="path937"
           style="fill:none;stroke:#ffffff;stroke-width:0.715;stroke-linecap:butt;stroke-linejoin:miter;stroke-miterlimit:10;stroke-dasharray:none;stroke-opacity:1"
           d="M 0,0 C -0.158,-0.195 -0.316,-0.391 -0.474,-0.586 3.219,-1.737 7.179,-2.018 10.997,-1.401" />
      </g>
    </g>
  </g>
</svg>
