<?xml version="1.0" encoding="UTF-8"?>
<svg xmlns="http://www.w3.org/2000/svg" xmlns:xlink="http://www.w3.org/1999/xlink" width="1500px" height="1046px" viewBox="0 0 1500 1046" version="1.1">
<g id="surface1">
<path style="fill:none;stroke-width:0.9013;stroke-linecap:butt;stroke-linejoin:miter;stroke:rgb(100%,100%,100%);stroke-opacity:1;stroke-miterlimit:10;" d="M 88.299791 36.099736 C 91.299673 32.999736 93.700022 29.400358 95.300008 25.400143 C 94.999872 28.100047 94.999872 30.799951 95.199963 33.499856 C 95.300008 34.400071 95.600145 35.600357 96.499813 35.69964 C 97.300176 35.799664 97.899708 35.000214 98.29989 34.200023 C 99.59974 31.700166 100.400103 28.900238 100.600194 26.000286 C 100.400103 28.500143 100.70024 31.100023 101.499862 33.499856 C 101.699953 34.300047 102.300226 35.200262 103.099848 35.000214 C 103.700121 34.90019 104.000257 34.200023 104.200348 33.699903 C 105.200062 30.999999 106.09973 28.400119 107.100184 25.700214 C 108.199943 35.000214 109.399747 44.20019 110.500247 53.50019 C 109.199657 47.400214 108.400034 41.200214 108.199943 34.90019 C 108.099898 31.900214 108.299989 28.600166 110.600293 26.699712 C 110.799643 29.699688 111.399915 32.699664 112.499674 35.500334 C 115.00007 32.500358 117.499724 29.499641 120.000119 26.499665 C 118.800315 27.699951 117.599769 28.900238 117.299633 30.599903 C 117.000237 32.200286 117.999951 34.200023 119.699982 34.300047 C 120.400301 34.300047 120.999832 34.099999 121.600105 33.699903 C 125.000168 31.900214 127.099641 28.400119 128.999763 25.000047 C 129.49999 25.100071 129.700081 25.800238 129.600036 26.300358 C 129.399945 26.799736 128.999763 27.199832 128.700368 27.599927 C 127.199686 29.499641 127.599868 32.699664 129.700081 34.099999 C 132.299781 32.200286 133.699676 29.000262 134.900221 25.900262 C 131.500158 34.700142 137.700012 44.700309 135.200358 53.800261 C 134.900221 54.899783 134.199903 56.200094 133.000099 56.300118 C 132.09969 56.300118 131.300067 55.59995 130.899886 54.799759 C 130.100263 53.100094 130.399658 51.000333 130.899886 49.099879 C 133.20019 40.199975 138.59968 32.200286 146.000079 26.799736 C 145.199715 26.200334 143.999911 26.599688 143.399638 27.299856 C 142.800107 28.100047 142.600016 29.100286 142.600016 30.099784 C 142.49997 30.999999 142.49997 31.900214 142.900152 32.699664 C 143.599729 34.400071 145.799988 35.000214 147.600065 34.600118 C 149.400142 34.099999 150.800037 32.799688 151.899796 31.300071 C 155.900132 26.399641 157.800255 19.90031 157.099937 13.600286 C 154.999723 14.099665 154.400192 16.80031 154.400192 18.900071 C 154.400192 23.499689 155.29986 28.100047 156.999891 32.400334 C 157.199982 32.899712 157.500118 33.399832 157.9003 33.499856 C 158.499832 33.699903 159.100105 33.199784 159.500286 32.699664 C 161.200318 30.599903 162.400122 28.000023 162.800304 25.300119 C 163.199745 28.200071 163.900063 30.999999 164.999822 33.699903 C 166.599808 31.400095 167.800353 28.800214 168.599976 26.10031 C 170.099917 27.899999 171.000326 30.099784 171.199676 32.400334 C 171.399766 30.299832 172.20013 28.200071 173.600025 26.499665 C 174.200298 28.400119 174.79983 30.299832 175.400102 32.200286 C 175.600193 32.899712 175.999634 33.699903 176.699952 33.699903 C 177.100134 33.699903 177.500316 33.299808 177.799711 32.999736 C 179.699834 30.999999 181.599956 29.000262 183.500079 27.099808 C 182.200229 28.200071 180.899638 29.300334 180.500197 30.999999 C 180.200061 32.59964 181.499911 34.600118 183.199942 34.200023 C 184.499792 33.899951 185.000019 32.200286 184.799928 30.799951 C 184.599837 29.400358 183.90026 28.200071 183.90026 26.799736 C 183.90026 32.000238 186.900142 36.699879 188.300037 41.700333 C 189.399796 45.799831 189.29975 50.100118 188.199992 54.200357 C 187.79981 55.699974 187.100233 57.300357 185.999733 58.399879 C 184.899974 59.600165 183.199942 60.300333 181.700001 59.900237 C 179.200347 59.300094 178.099847 56.300118 178.600075 53.800261 C 179.200347 51.299664 180.899638 49.399951 182.699715 47.500238 C 184.199656 45.899855 185.600292 44.300214 187.100233 42.699831 C 187.999901 41.700333 188.90031 40.700094 189.599887 39.499808 C 192.000237 35.600357 191.399964 30.699927 190.899737 26.200334 " transform="matrix(5.271042,0,0,5.272178,2.829834,0)"/>
<path style="fill:none;stroke-width:0.9013;stroke-linecap:butt;stroke-linejoin:miter;stroke:rgb(100%,100%,100%);stroke-opacity:1;stroke-miterlimit:10;" d="M 8.599879 75.400237 C 9.799684 71.500046 11.100274 67.399807 14.300247 64.799926 C 14.999824 64.199783 15.800187 63.699663 16.699855 63.699663 C 18.099751 63.699663 19.200251 64.999974 19.999873 66.200261 C 21.199677 67.99995 22.300177 70.099711 22.200132 72.300237 C 22.200132 72.800356 22.100087 73.399759 21.79995 73.799854 C 20.800237 75.100165 18.399887 74.19995 17.999705 72.500285 C 17.70031 70.899902 18.800069 69.200237 20.199964 68.300022 C 21.599859 67.399807 23.199845 66.799663 24.599741 65.900189 C 25.999636 64.999974 27.200181 63.500357 27.00009 61.79995 C 24.799832 61.399855 22.999754 64.099759 23.399936 66.300285 C 23.800118 68.50007 25.50015 70.199735 27.100136 71.800117 C 28.800167 70.699854 29.59979 68.700117 30.70029 66.899687 C 31.800049 65.200022 33.900262 63.59964 35.700339 64.499855 C 35.200112 63.59964 33.900262 63.500357 33.099899 64.099759 C 32.300276 64.699902 32.00014 65.700141 31.900094 66.699639 C 31.700003 68.099974 32.00014 69.500309 32.799762 70.599831 C 33.600126 71.700093 35.100067 72.400261 36.399916 72.000165 C 38.300039 71.500046 39.199707 69.300261 40.300207 67.699878 C 41.700102 65.700141 43.70027 64.099759 46.099879 63.400333 C 44.499893 63.000237 42.999952 64.699902 42.799861 66.400309 C 42.59977 67.899926 43.200043 69.700356 44.599938 70.299759 C 45.999833 70.799878 47.699865 69.899663 48.000001 68.50007 C 48.300138 67.099735 47.199638 65.500094 45.699697 65.40007 C 47.299683 64.599879 48.999715 63.899711 50.599701 63.100261 C 51.400064 65.600117 52.000337 68.199998 52.399778 70.799878 C 52.299732 69.200237 52.399778 67.699878 52.699914 66.100237 C 52.900005 65.200022 53.600323 64.099759 54.399946 64.599879 C 54.600037 64.799926 54.800128 64.999974 54.900173 65.300046 C 55.699796 67.399807 56.600205 69.400285 57.399827 71.500046 C 58.100145 69.899663 58.699677 68.300022 59.900222 66.999711 C 60.999981 65.700141 62.800058 64.799926 64.400044 65.200022 C 61.500209 66.200261 59.900222 69.999687 61.200072 72.700332 C 61.600254 73.499783 62.399877 74.299974 63.20024 73.999902 C 63.699726 73.799854 63.999863 73.299735 64.299999 72.800356 C 66.899699 67.199759 66.700349 60.799711 66.400212 54.599712 C 65.499803 61.599903 65.899985 68.700117 67.399926 75.500261 C 70.499853 75.000141 73.200339 72.700332 74.800325 69.999687 C 76.400311 67.299783 77.299979 64.199783 78.100343 61.099783 C 78.299693 60.200309 78.599829 59.300094 78.399738 58.399879 C 78.199647 57.499664 77.600115 56.600189 76.599661 56.500166 C 75.900084 56.400142 75.299811 56.800237 74.800325 57.300357 C 72.800157 59.300094 73.200339 62.700165 74.100007 65.40007 C 74.999675 68.099974 76.599661 70.699854 76.400311 73.599807 C 75.399857 70.499807 77.299979 66.699639 80.399906 65.700141 C 81.000179 68.300022 81.699756 70.899902 82.300028 73.499783 C 84.400242 70.199735 86.799851 66.699639 90.600096 65.600117 C 88.399837 66.300285 86.899896 68.700117 87.099987 70.999926 C 87.200032 72.200213 88.499882 73.599807 89.500337 72.899639 C 89.799732 72.700332 89.999823 72.300237 90.099868 72.000165 C 90.700141 70.499807 91.100323 69.000189 91.299673 67.399807 C 91.399718 66.799663 90.900232 65.800165 90.400005 66.200261 C 90.600096 68.700117 91.399718 71.199974 92.800354 73.199711 C 94.499645 72.800356 95.199963 70.699854 95.500099 69.000189 C 95.800236 67.299783 96.000327 65.200022 97.400222 64.199783 C 97.500267 66.999711 97.600313 69.799639 97.700358 72.600308 C 97.999754 70.699854 98.499981 68.800141 99.300344 66.999711 C 99.899876 65.600117 101.499862 64.099759 102.699667 64.999974 C 103.199894 65.40007 103.299939 66.000213 103.399985 66.600356 C 103.800166 68.600093 104.200348 70.599831 104.599789 72.600308 C 107.100184 70.399783 109.499793 68.199998 112.000188 66.000213 C 109.299702 67.599855 108.400034 71.400022 109.899975 74.099926 C 112.200279 72.000165 113.500129 69.000189 113.900311 65.900189 C 114.299751 62.800189 114.000356 59.700189 113.70022 56.600189 C 112.899856 61.499879 113.300038 66.600356 114.900024 71.199974 C 115.300206 72.300237 115.799692 73.499783 116.800147 74.19995 C 117.79986 74.800093 119.499892 74.600046 119.900073 73.499783 " transform="matrix(5.271042,0,0,5.272178,2.829834,0)"/>
<path style="fill:none;stroke-width:0.9013;stroke-linecap:butt;stroke-linejoin:miter;stroke:rgb(100%,100%,100%);stroke-opacity:1;stroke-miterlimit:10;" d="M 135.599799 75.400237 C 135.000267 75.500261 135.000267 74.600046 135.200358 74.099926 C 136.200071 71.500046 137.29983 69.000189 139.099907 66.799663 C 140.899984 64.599879 143.300334 63.000237 146.100124 62.800189 C 145.199715 62.100022 143.899866 63.000237 143.100243 63.799687 C 142.099789 64.89995 141.100075 66.000213 140.499802 67.399807 C 140.000316 68.800141 140.000316 70.499807 140.799939 71.700093 C 141.899698 73.299735 144.300047 73.69983 146.20017 72.999663 C 148.100292 72.300237 149.500188 70.799878 150.599947 69.100213 C 153.699873 64.799926 155.599996 59.500142 155.800087 54.100333 C 155.800087 53.00007 155.49995 51.499712 154.400192 51.299664 C 153.399737 52.299903 153.199646 53.900285 153.100342 55.299879 C 152.800205 59.500142 152.800205 63.799687 153.100342 67.99995 C 153.199646 69.799639 153.499782 71.900141 155.099769 72.899639 C 155.900132 70.499807 157.199982 68.300022 158.799968 66.400309 C 159.500286 65.600117 160.600045 64.89995 161.399668 65.500094 C 161.499713 65.099998 161.000227 64.799926 160.600045 64.89995 C 160.199863 64.999974 159.999773 65.40007 159.799682 65.800165 C 159.000059 67.399807 158.799968 69.300261 159.100105 71.09995 C 159.20015 71.800117 159.500286 72.500285 160.099818 72.999663 C 160.600045 73.499783 161.499713 73.69983 162.099986 73.199711 C 162.500168 72.899639 162.700259 72.400261 162.800304 71.900141 C 163.199745 69.899663 162.800304 67.799902 161.699804 66.200261 C 164.200199 66.500333 166.699853 64.999974 167.800353 62.800189 C 169.000158 60.599664 168.900112 57.899759 167.899658 55.59995 C 168.900112 60.799711 169.79978 66.000213 170.800235 71.199974 C 170.90028 71.500046 170.90028 71.800117 171.09963 72.100189 C 171.699903 72.999663 173.199843 72.700332 173.900162 71.800117 C 174.899875 70.599831 175.099966 69.000189 175.200011 67.399807 C 175.400102 62.900213 174.899875 58.399879 173.700071 54.100333 C 175.90033 59.900237 178.099847 65.900189 177.799711 72.100189 C 177.500316 70.099711 177.799711 67.99995 178.70012 66.200261 C 178.900211 65.900189 179.100302 65.500094 179.499743 65.40007 C 180.300106 65.099998 180.999683 66.100237 181.29982 66.999711 C 181.900092 68.50007 182.40032 70.099711 182.999851 71.600069 C 183.099897 72.000165 183.299988 72.400261 183.600124 72.600308 C 183.90026 72.800356 184.199656 72.800356 184.499792 72.800356 C 187.79981 72.899639 190.799691 69.400285 190.100114 66.100237 C 190.000069 65.500094 189.699932 64.799926 189.099659 64.499855 C 187.999901 63.899711 186.700051 64.999974 186.49996 66.200261 C 186.299869 67.399807 186.900142 68.600093 187.599719 69.600332 C 188.600173 71.09995 190.200159 72.800356 192.000237 72.400261 C 193.999663 72.000165 194.699982 69.600332 195.79974 67.99995 C 197.000286 66.200261 199.199804 64.999974 201.400062 64.999974 C 202.799958 68.099974 203.799671 71.400022 204.299898 74.700069 C 203.600321 75.700308 201.90029 74.500022 202.09964 73.299735 C 202.199685 72.100189 203.300185 71.299998 204.199853 70.599831 C 206.600203 68.700117 208.59963 66.400309 210.100311 63.799687 " transform="matrix(5.271042,0,0,5.272178,2.829834,0)"/>
<path style="fill:none;stroke-width:0.9013;stroke-linecap:butt;stroke-linejoin:miter;stroke:rgb(100%,100%,100%);stroke-opacity:1;stroke-miterlimit:10;" d="M 165.299958 57.799735 C 167.500217 57.499664 169.699735 57.499664 171.899994 57.699711 " transform="matrix(5.271042,0,0,5.272178,2.829834,0)"/>
<path style="fill:none;stroke-width:0.9013;stroke-linecap:butt;stroke-linejoin:miter;stroke:rgb(100%,100%,100%);stroke-opacity:1;stroke-miterlimit:10;" d="M 219.400092 77.199926 C 219.900319 73.199711 220.699942 69.100213 222.900201 65.700141 C 225.199764 62.400094 229.300145 60.000261 233.199694 60.699687 C 231.400359 59.700189 229.000009 60.599664 227.500068 62.100022 C 224.300096 65.300046 223.699823 70.899902 226.300264 74.700069 C 229.400191 71.600069 230.499949 67.199759 231.599708 62.900213 C 231.899845 66.100237 232.400072 69.300261 233.099649 72.500285 C 233.29974 73.499783 234.200149 74.800093 235.099817 74.19995 C 235.299908 73.999902 235.499999 73.69983 235.600044 73.499783 C 237.20003 69.600332 237.900349 65.300046 240.600094 62.100022 C 241.499762 65.500094 242.100034 68.900165 242.400171 72.400261 C 242.500216 70.299759 242.700307 68.099974 242.999702 66.000213 C 243.199793 64.699902 243.70002 63.100261 244.99987 62.800189 C 245.900279 66.100237 246.899993 69.400285 247.799661 72.700332 C 250.20001 68.700117 252.999801 64.299807 257.500364 62.900213 C 256.399864 62.700165 255.500196 63.59964 254.899923 64.499855 C 253.500028 66.699639 252.999801 69.300261 253.399983 71.900141 C 253.500028 72.400261 253.600074 72.800356 253.90021 73.199711 C 254.599787 73.899878 255.899637 73.599807 256.49991 72.899639 C 257.100182 72.200213 257.300273 71.09995 257.500364 70.199735 C 258.600123 63.000237 259.599836 55.699974 260.600291 48.399712 C 260.200109 54.999807 259.799927 61.599903 259.399746 68.099974 C 259.2997 70.399783 259.199655 72.999663 260.799641 74.700069 C 260.999732 74.900117 261.299868 75.200189 261.70005 75.200189 C 262.100232 75.200189 262.400368 74.900117 262.699763 74.700069 C 263.600172 73.899878 264.49984 73.199711 265.400249 72.400261 " transform="matrix(5.271042,0,0,5.272178,2.829834,0)"/>
<path style="fill:none;stroke-width:0.8594;stroke-linecap:butt;stroke-linejoin:miter;stroke:rgb(100%,100%,100%);stroke-opacity:1;stroke-miterlimit:10;" d="M 8.499834 110.199662 C 9.000061 108.800068 9.699638 107.399734 10.600047 106.200188 C 10.800138 106.00014 11.000229 105.700068 11.300365 105.700068 C 11.799851 105.700068 11.999942 106.300212 11.999942 106.800331 C 12.099988 110.499734 10.500002 114.599973 12.400124 117.799996 C 14.500338 115.500188 16.100324 112.700259 17.100037 109.700283 C 16.799901 111.70002 16.59981 113.999829 17.999705 115.600212 C 18.199796 115.800259 18.499932 116.000307 18.800069 116.000307 C 19.200251 116.000307 19.499646 115.600212 19.799782 115.30014 C 21.699905 112.400188 21.79995 108.700044 21.899996 105.199949 C 21.899996 106.200188 21.899996 107.29971 21.899996 108.299949 C 21.899996 108.700044 21.899996 109.10014 22.200132 109.300188 C 22.600314 109.700283 23.199845 109.60026 23.800118 109.500236 C 26.299772 108.800068 28.800167 107.799829 31.099731 106.600284 C 27.600363 109.10014 25.999636 113.899805 27.200181 118.000044 C 29.699835 115.600212 30.500199 112.000092 31.099731 108.499997 C 30.89964 110.099638 30.999685 111.70002 31.499912 113.299662 C 31.700003 114.099853 32.100185 114.900044 32.899808 115.000068 C 33.50008 115.000068 33.900262 114.599973 34.299703 114.199877 C 36.800098 111.800044 39.099661 109.10014 41.099829 106.200188 C 42.59977 108.199925 43.70027 110.499734 44.299802 113.000331 C 44.499893 113.799781 44.599938 114.699996 44.299802 115.500188 C 43.999665 116.299638 43.099997 116.899781 42.399679 116.699734 C 41.700102 116.499686 41.29992 115.700235 41.29992 115.000068 C 41.29992 114.299901 41.700102 113.599734 42.000238 113.000331 C 43.70027 109.900331 45.799742 107.099662 47.299683 103.999662 C 48.800365 100.899662 49.499942 97.100236 48.300138 93.900212 C 48.800365 99.600093 48.899669 105.299973 48.500228 111.099877 C 48.400183 112.600236 48.300138 114.299901 49.299851 115.400164 C 50.400351 116.699734 52.599869 116.699734 54.099809 115.800259 C 55.59975 114.80002 56.500159 113.199638 57.099691 111.599997 C 58.0001 109.500236 58.500327 106.700307 56.800296 105.199949 C 54.199855 106.900355 53.899719 110.899829 55.799841 113.299662 C 57.699964 115.700235 61.300118 116.399662 64.199954 115.400164 " transform="matrix(5.271042,0,0,5.272178,2.829834,0)"/>
<path style="fill:none;stroke-width:0.8594;stroke-linecap:butt;stroke-linejoin:miter;stroke:rgb(100%,100%,100%);stroke-opacity:1;stroke-miterlimit:10;" d="M 43.300088 97.300284 C 46.700151 97.600356 50.100215 97.699638 53.500278 97.699638 " transform="matrix(5.271042,0,0,5.272178,2.829834,0)"/>
<path style="fill:none;stroke-width:0.8594;stroke-linecap:butt;stroke-linejoin:miter;stroke:rgb(100%,100%,100%);stroke-opacity:1;stroke-miterlimit:10;" d="M 78.79992 116.000307 C 80.399906 111.800044 81.999892 107.499758 83.499833 103.300236 C 84.899728 99.500069 86.399669 95.299806 85.500001 91.300332 C 84.400242 92.899973 84.300196 94.999734 84.200151 97.000212 C 84.100105 102.199973 83.900015 107.399734 83.799969 112.600236 C 83.799969 113.899805 83.900015 115.600212 85.099819 116.100331 C 86.499714 116.699734 87.800305 115.30014 88.499882 113.999829 C 89.999823 110.999853 90.700141 107.599782 90.400005 104.299734 C 90.400005 103.899638 90.299959 103.40026 89.899777 103.200212 C 89.500337 102.90014 88.900064 103.200212 88.499882 103.600308 C 86.699805 105.299973 86.999941 108.199925 87.500169 110.599758 C 88.0997 112.900307 89.400291 115.600212 91.7999 115.600212 C 92.800354 115.600212 93.700022 115.000068 94.499645 114.399925 C 98.600026 111.299925 101.499862 106.800331 102.600362 101.799877 C 101.699953 103.600308 100.800285 105.399997 99.899876 107.29971 C 99.799831 107.499758 99.699785 107.799829 99.399649 107.899853 C 98.700072 108.399973 97.899708 107.499758 97.500267 106.800331 C 96.799949 105.399997 96.099631 104.099686 95.400054 102.700092 C 97.100086 106.400236 99.000208 110.000355 101.299771 113.399686 C 102.000089 114.399925 102.899757 115.500188 104.100303 115.30014 C 105.400153 115.100092 105.999684 113.49971 106.299821 112.20014 C 107.59967 105.500021 108.299989 98.599854 108.400034 91.79971 C 107.699716 98.699877 107.699716 105.700068 108.299989 112.600236 C 108.400034 113.399686 108.500079 114.399925 109.299702 114.900044 C 110.100066 115.400164 111.099779 114.900044 111.700052 114.199877 C 112.200279 113.49971 112.40037 112.500212 112.499674 111.599997 C 112.899856 109.10014 113.300038 106.700307 113.600174 104.19971 C 113.400083 106.800331 113.70022 109.500236 114.299751 112.000092 C 114.599888 113.399686 115.500297 115.000068 116.900192 114.80002 C 117.499724 114.699996 118.099996 114.299901 118.500178 113.799781 C 123.400182 108.700044 123.999714 100.899662 124.399895 93.900212 C 124.499941 92.899973 124.499941 91.79971 123.800364 91.100284 C 121.800196 92.999997 121.299969 95.999973 121.400014 98.699877 C 121.50006 102.500045 122.299682 106.200188 123.100046 109.900331 C 123.400182 111.299925 123.800364 112.900307 125.100214 113.49971 C 126.300018 114.099853 127.799959 113.699757 128.999763 112.900307 C 131.600204 111.199901 133.300235 108.099901 133.300235 104.999901 C 133.300235 104.399758 133.20019 103.800355 132.800008 103.40026 C 132.199735 102.800116 130.999931 103.100188 130.499704 103.800355 C 130.000218 104.499782 129.900172 105.399997 130.000218 106.300212 C 130.200308 108.800068 131.200022 111.199901 132.900053 113.100355 C 133.20019 113.49971 133.599631 113.899805 134.099858 113.999829 C 134.900221 114.199877 135.699844 113.49971 136.200071 112.900307 C 138.59968 110.199662 140.499802 106.999638 141.700348 103.600308 C 143.100243 103.899638 143.699775 105.600045 143.899866 106.999638 C 144.400093 110.000355 144.500138 113.000331 144.300047 116.000307 C 144.300047 116.399662 144.200002 116.799757 143.999911 117.099829 C 143.300334 117.799996 142.099789 116.799757 141.999743 115.900283 C 141.700348 113.999829 143.000198 112.300164 144.200002 110.899829 C 146.000079 108.800068 147.800156 106.700307 149.600233 104.499782 " transform="matrix(5.271042,0,0,5.272178,2.829834,0)"/>
<path style="fill:none;stroke-width:0.8594;stroke-linecap:butt;stroke-linejoin:miter;stroke:rgb(100%,100%,100%);stroke-opacity:1;stroke-miterlimit:10;" d="M 105.200062 96.099997 C 107.300275 95.799925 109.499793 95.899949 111.600006 96.500093 " transform="matrix(5.271042,0,0,5.272178,2.829834,0)"/>
<path style="fill:none;stroke-width:0.8594;stroke-linecap:butt;stroke-linejoin:miter;stroke:rgb(100%,100%,100%);stroke-opacity:1;stroke-miterlimit:10;" d="M 114.900024 96.099997 C 114.699933 96.099997 114.699933 96.300045 114.699933 96.500093 " transform="matrix(5.271042,0,0,5.272178,2.829834,0)"/>
<path style="fill:none;stroke-width:0.8594;stroke-linecap:butt;stroke-linejoin:miter;stroke:rgb(100%,100%,100%);stroke-opacity:1;stroke-miterlimit:10;" d="M 80.900133 96.200021 C 83.799969 95.599878 86.899896 95.699901 89.799732 96.400069 " transform="matrix(5.271042,0,0,5.272178,2.829834,0)"/>
<path style="fill:none;stroke-width:0.8594;stroke-linecap:butt;stroke-linejoin:miter;stroke:rgb(100%,100%,100%);stroke-opacity:1;stroke-miterlimit:10;" d="M 163.099699 116.799757 C 166.100322 111.599997 168.199794 105.800092 169.300294 99.900164 C 167.500217 105.199949 167.999703 111.299925 170.700189 116.200355 C 172.899707 112.100116 174.699784 107.699805 175.90033 103.200212 C 176.399816 106.999638 177.000088 110.899829 177.500316 114.699996 C 177.300225 110.699781 178.500029 106.700307 180.899638 103.600308 C 181.700001 105.600045 181.399865 107.799829 181.499911 110.000355 C 181.599956 112.100116 182.200229 114.499949 184.000306 115.600212 C 186.700051 108.900092 188.199992 101.799877 188.400082 94.599639 C 186.900142 101.699853 187.899855 109.300188 191.199873 115.800259 C 192.799859 111.800044 195.899786 108.399973 199.800076 106.400236 C 198.400181 107.899853 197.599817 110.000355 197.699863 112.100116 C 197.799908 113.699757 198.999713 115.600212 200.599699 115.30014 C 201.500108 115.100092 202.199685 114.199877 202.499821 113.299662 C 203.300185 111.099877 202.599867 108.399973 200.899835 106.800331 C 205.499703 105.500021 210.100311 103.899638 214.600133 101.999925 " transform="matrix(5.271042,0,0,5.272178,2.829834,0)"/>
<path style="fill:none;stroke-width:0.8594;stroke-linecap:butt;stroke-linejoin:miter;stroke:rgb(100%,100%,100%);stroke-opacity:1;stroke-miterlimit:10;" d="M 184.199656 96.900188 C 188.600173 96.300045 192.99995 96.200021 197.399727 96.400069 " transform="matrix(5.271042,0,0,5.272178,2.829834,0)"/>
<path style="fill:none;stroke-width:0.8594;stroke-linecap:butt;stroke-linejoin:miter;stroke:rgb(100%,100%,100%);stroke-opacity:1;stroke-miterlimit:10;" d="M 168.700021 91.200308 C 168.800067 91.00026 169.100203 90.800212 169.300294 90.900236 " transform="matrix(5.271042,0,0,5.272178,2.829834,0)"/>
<path style="fill:none;stroke-width:0.8594;stroke-linecap:butt;stroke-linejoin:miter;stroke:rgb(100%,100%,100%);stroke-opacity:1;stroke-miterlimit:10;" d="M 163.800018 16.600262 C 163.900063 16.400215 164.200199 16.200167 164.40029 16.300191 " transform="matrix(5.271042,0,0,5.272178,2.829834,0)"/>
<path style="fill:none;stroke-width:0.8594;stroke-linecap:butt;stroke-linejoin:miter;stroke:rgb(100%,100%,100%);stroke-opacity:1;stroke-miterlimit:10;" d="M 225.699991 98.599854 C 225.199764 102.400021 225.399855 106.200188 226.300264 109.900331 C 226.500355 110.799805 227.099886 112.000092 228.000295 111.800044 C 228.499782 111.70002 228.899963 111.299925 229.2001 110.799805 C 231.300313 107.699805 232.199981 103.899638 231.799799 100.200236 C 234.000058 111.299925 235.70009 122.499638 236.899894 133.700091 C 237.099985 135.599805 236.499712 138.399733 234.600331 138.099661 C 234.100104 137.999637 233.699922 137.80033 233.399785 137.500259 C 230.499949 135.199709 229.300145 131.300259 229.500236 127.600116 C 229.700327 123.899972 231.100222 120.399877 232.700208 117.099829 C 235.499999 111.099877 239.000107 105.399997 242.899657 100.100212 C 240.800184 101.899901 239.79973 104.799853 240.199912 107.499758 C 240.400003 109.10014 241.599807 110.999853 243.299839 110.799805 C 244.499643 110.699781 245.500097 109.500236 245.700188 108.299949 C 245.900279 107.099662 245.500097 105.800092 245.199961 104.599806 C 244.99987 103.800355 244.699734 103.100188 244.499643 102.299997 C 244.300293 101.699853 244.100202 101.09971 243.599975 100.799638 C 243.099748 100.500308 242.20008 100.899662 242.400171 101.499806 C 245.600143 102.600069 249.300342 101.799877 251.799997 99.500069 C 250.400101 102.90014 251.299769 107.199686 254.000255 109.800307 C 256.199773 106.700307 256.900091 102.500045 255.800333 98.799901 C 255.700287 101.999925 256.399864 105.199949 257.699714 108.099901 C 257.899805 108.499997 258.099896 109.000116 258.600123 109.200164 C 259.799927 109.800307 260.799641 108.199925 260.999732 106.900355 C 261.499959 104.599806 261.70005 102.199973 261.70005 99.80014 C 262.599718 103.300236 263.600172 106.800331 264.49984 110.299686 C 264.299749 108.499997 264.199704 106.700307 264.000354 104.899877 C 264.000354 104.499782 263.900309 104.099686 264.099659 103.700331 C 264.399795 103.300236 264.900022 103.100188 265.400249 103.000164 C 267.399676 102.500045 269.49989 101.999925 271.500058 101.59983 " transform="matrix(5.271042,0,0,5.272178,2.829834,0)"/>
<path style="fill:none;stroke-width:0.8594;stroke-linecap:butt;stroke-linejoin:miter;stroke:rgb(100%,100%,100%);stroke-opacity:1;stroke-miterlimit:10;" d="M 1.999844 160.899923 C 1.899798 155.90021 3.399739 150.99978 6.400361 147.000306 C 8.399788 151.4999 9.999774 156.200282 11.000229 160.999947 C 10.700093 157.19978 11.39967 153.200306 12.999656 149.70021 C 13.299792 149.100067 13.699974 148.499924 14.400292 148.599948 C 14.999824 148.699972 15.199915 149.500163 15.29996 150.20033 C 15.600096 153.699685 15.900233 157.399828 17.999705 160.199756 C 18.700023 161.099971 19.799782 162.000186 20.900282 161.700115 C 21.79995 161.400043 22.300177 160.399804 22.700359 159.600354 C 24.2003 156.100258 25.700241 152.100043 24.599741 148.499924 C 24.39965 147.799756 24.100254 147.200354 23.499982 146.900282 C 22.000041 146.100091 20.5001 148.199852 20.400055 149.900258 C 19.999873 153.999756 22.000041 158.300043 25.50015 160.599852 C 26.599909 161.300019 27.999804 161.900162 29.299654 161.600091 C 31.499912 161.099971 32.599671 158.600115 32.899808 156.300306 C 33.29999 153.30033 33.099899 150.300354 32.100185 147.399661 C 32.00014 152.500139 34.299703 157.599876 38.199993 160.799899 C 39.499843 157.799923 39.900025 154.499876 39.499843 151.199828 C 39.599889 154.799947 40.999784 158.400067 43.400134 161.099971 C 44.800029 156.999732 45.100165 152.500139 44.399847 148.199852 C 47.000288 150.300354 50.999883 150.399637 53.600323 148.3999 " transform="matrix(5.271042,0,0,5.272178,2.829834,0)"/>
<path style="fill:none;stroke-width:0.8594;stroke-linecap:butt;stroke-linejoin:miter;stroke:rgb(100%,100%,100%);stroke-opacity:1;stroke-miterlimit:10;" d="M 60.899936 152.500139 C 64.900272 149.600187 67.900153 145.2999 69.200003 140.600259 C 69.900321 138.099661 69.70023 134.70033 67.199835 133.800115 C 63.000149 138.499757 63.899817 145.599972 64.700181 151.799971 C 66.000031 161.800138 66.600303 171.900329 66.400212 181.999779 C 66.400212 182.499899 66.300167 183.100042 65.899985 183.500138 C 65.100363 184.200305 63.999863 183.200066 63.499635 182.299851 C 61.200072 178.000305 62.09974 172.69978 63.499635 168.000138 C 65.699894 160.499828 69.099957 153.400354 73.59978 147.000306 C 69.800276 150.100306 68.999912 156.300306 71.799702 160.29978 C 74.100007 156.699661 74.999675 152.200067 74.200052 147.999804 C 74.500189 151.099804 75.299811 154.199804 76.500357 156.999732 C 76.799752 157.799923 77.50007 158.700139 78.399738 158.500091 C 78.899965 158.300043 79.100056 157.799923 79.300147 157.299804 C 80.399906 154.299828 79.899679 151.799971 79.799633 148.599948 C 79.100056 152.300091 80.599997 155.600139 82.199983 159.00021 C 84.500287 156.000234 85.800137 150.499661 83.499833 147.499685 C 86.799851 150.499661 91.100323 151.199828 94.20025 147.999804 C 92.600263 149.500163 90.900232 151.199828 90.700141 153.30033 C 90.400005 155.500115 92.600263 157.899947 94.59969 156.999732 C 95.600145 156.599637 96.199676 155.500115 96.399767 154.399852 C 96.799949 152.500139 96.099631 150.300354 94.59969 149.000043 C 97.400222 149.600187 100.500149 148.799995 102.699667 146.900282 C 101.599908 150.300354 102.20018 154.09978 104.100303 157.099756 C 105.800334 154.499876 106.700002 151.399876 106.700002 148.3999 C 105.800334 152.000019 107.59967 156.100258 110.799643 157.899947 C 111.29987 158.200019 111.800097 158.400067 112.300324 158.200019 C 112.799811 157.999971 113.099947 157.499852 113.199992 156.999732 C 114.299751 154.299828 114.699933 151.299852 114.299751 148.3999 C 115.20016 151.699948 115.999783 155.100019 116.900192 158.400067 C 116.50001 156.500354 116.099828 154.5999 115.799692 152.700187 C 118.700269 152.700187 121.70015 151.4999 123.600273 149.300115 C 123.899668 152.000019 124.800077 154.5999 126.300018 156.799684 C 127.000336 157.899947 128.20014 159.100234 129.49999 158.700139 C 130.599749 158.400067 131.099976 157.19978 131.400113 156.100258 C 133.799721 147.799756 133.100144 138.899852 132.499872 130.30002 C 131.800295 137.80033 132.399826 145.2999 134.099858 152.600163 C 134.600085 154.699924 135.399708 156.999732 137.399876 157.6999 C 139.800225 158.500091 142.199834 156.40033 143.599729 154.199804 C 144.600184 152.700187 145.399806 150.99978 145.299761 149.300115 C 145.199715 147.499685 143.999911 145.699996 142.299879 145.399924 C 139.800225 147.299637 141.100075 151.199828 142.800107 153.799708 C 144.200002 155.90021 145.699943 157.899947 147.900201 159.100234 C 150.099719 160.29978 153.000296 160.499828 154.899678 159.00021 " transform="matrix(5.271042,0,0,5.272178,2.829834,0)"/>
<path style="fill:none;stroke-width:0.8594;stroke-linecap:butt;stroke-linejoin:miter;stroke:rgb(100%,100%,100%);stroke-opacity:1;stroke-miterlimit:10;" d="M 127.299731 134.000163 C 131.099976 134.300235 135.000267 134.200211 138.799771 133.800115 C 138.59968 134.000163 138.40033 134.300235 138.200239 134.500283 " transform="matrix(5.271042,0,0,5.272178,2.829834,0)"/>
<path style="fill:none;stroke-width:0.8594;stroke-linecap:butt;stroke-linejoin:miter;stroke:rgb(100%,100%,100%);stroke-opacity:1;stroke-miterlimit:10;" d="M 121.299969 135.099685 C 120.799741 135.099685 120.59965 135.899876 120.999832 136.199948 " transform="matrix(5.271042,0,0,5.272178,2.829834,0)"/>
<path style="fill:none;stroke-width:0.8594;stroke-linecap:butt;stroke-linejoin:miter;stroke:rgb(100%,100%,100%);stroke-opacity:1;stroke-miterlimit:10;" d="M 161.899895 158.200019 C 162.300077 157.299804 162.800304 156.40033 163.399836 155.700163 C 164.699685 153.999756 166.599808 152.900234 168.49993 151.899995 C 172.999753 149.500163 177.899756 147.89978 182.79976 146.400163 C 180.300106 146.600211 177.799711 147.699733 176.399816 149.70021 C 174.999921 151.699948 174.899875 154.799947 176.599907 156.599637 C 179.000256 154.699924 180.500197 151.599924 180.600243 148.499924 C 182.300274 158.600115 183.099897 168.900353 182.999851 179.099827 C 182.999851 181.300353 182.300274 184.100281 180.100015 184.200305 C 177.500316 179.699971 177.500316 174.200138 178.399984 169.09966 C 179.99997 160.29978 184.199656 152.000019 190.300205 145.399924 C 186.199824 148.299876 184.899974 154.5999 187.599719 158.900186 C 189.599887 155.400091 190.500296 151.399876 190.300205 147.399661 C 191.399964 149.900258 192.499723 152.500139 193.600223 154.999995 C 193.999663 155.800186 194.599936 156.799684 195.500345 156.699661 C 195.899786 156.599637 196.199922 156.40033 196.500059 156.200282 C 199.49994 153.499637 200.899835 149.200091 200.000167 145.199876 C 200.999881 148.599948 202.000335 152.100043 202.900003 155.500115 C 201.700199 153.799708 200.999881 151.699948 200.999881 149.600187 C 200.999881 149.000043 201.099926 148.199852 201.600153 147.799756 C 202.000335 147.499685 202.499821 147.399661 203.100094 147.399661 C 206.099975 147.10033 209.099857 146.100091 211.800343 144.599733 C 212.299829 144.299661 212.900102 143.900306 213.000147 143.300163 C 213.100193 142.70002 212.399875 141.999852 211.899647 142.399948 C 213.100193 146.100091 214.199952 149.800234 215.399756 153.599661 C 215.299711 150.399637 216.500256 147.200354 218.699774 144.899804 C 219.900319 147.499685 220.799987 150.20033 221.300214 152.900234 C 221.600351 150.100306 222.900201 147.299637 224.900368 145.2999 C 225.199764 147.89978 225.900082 150.499661 226.999841 153.000258 C 227.299977 153.699685 227.600114 154.299828 228.199645 154.799947 C 229.2001 155.600139 230.70004 155.400091 231.899845 154.799947 C 236.200317 152.80021 237.600212 146.400163 234.600331 142.800043 C 233.29974 144.699757 232.700208 147.000306 232.800254 149.300115 C 232.900299 151.899995 234.600331 154.799947 237.20003 154.899971 C 239.100153 154.999995 240.700139 153.499637 241.999989 152.000019 C 243.800066 149.900258 245.500097 147.10033 244.499643 144.499709 C 244.99987 147.89978 245.500097 151.199828 245.900279 154.5999 C 245.800234 152.300091 246.599856 149.900258 247.999752 147.999804 C 248.499979 149.400139 249.000206 150.799732 249.599738 152.300091 C 249.899874 153.000258 250.300056 153.899732 251.099678 153.899732 C 251.799997 153.899732 252.200178 153.200306 252.500315 152.500139 C 255.800333 145.2999 255.500196 137.100163 255.100014 129.299781 C 254.100301 136.299972 254.699833 143.400187 256.700001 150.20033 C 257.100182 151.4999 257.899805 153.100282 259.199655 153.200306 C 260.000018 153.200306 260.700336 152.80021 261.299868 152.300091 C 263.500127 150.599685 265.500295 148.499924 267.000236 146.100091 C 267.299631 145.699996 267.599767 145.199876 268.099994 144.999828 C 269.199753 144.499709 270.300253 145.800019 270.899785 146.900282 C 272.799907 150.20033 274.70003 153.899732 273.700316 157.599876 C 272.499771 157.899947 271.299967 156.699661 271.099876 155.500115 C 270.899785 154.299828 271.500058 153.000258 272.199635 152.000019 C 274.199803 148.900019 277.099639 146.300139 280.599747 144.899804 " transform="matrix(5.271042,0,0,5.272178,2.829834,0)"/>
<path style="fill:none;stroke-width:0.8594;stroke-linecap:butt;stroke-linejoin:miter;stroke:rgb(100%,100%,100%);stroke-opacity:1;stroke-miterlimit:10;" d="M 248.499979 134.200211 C 248.299888 134.400259 248.099797 134.70033 247.899706 134.899637 C 252.300224 136.299972 257.100182 136.600044 261.70005 135.899876 " transform="matrix(5.271042,0,0,5.272178,2.829834,0)"/>
</g>
</svg>
