<?xml version="1.0" encoding="utf-8"?>
<!-- Generator: Adobe Illustrator 19.0.0, SVG Export Plug-In . SVG Version: 6.00 Build 0)  -->
<svg version="1.1" id="Layer_3" xmlns="http://www.w3.org/2000/svg" xmlns:xlink="http://www.w3.org/1999/xlink" x="0px" y="0px"
	 viewBox="0 0 283.5 198.4" style="enable-background:new 0 0 283.5 198.4;" xml:space="preserve">
<style type="text/css">
	.st0{fill:none;stroke:#FFFFFF;stroke-width:0.75;stroke-miterlimit:10;}
	.st1{fill:none;stroke:#FFFFFF;stroke-width:0.7152;stroke-miterlimit:10;}
</style>
<path id="XMLID_17_" class="st0" d="M90.4,43.9c2.5-2.5,4.5-5.6,5.8-8.9c-0.3,2.2-0.3,4.5-0.1,6.8c0.1,0.8,0.3,1.7,1.1,1.8
	c0.7,0.1,1.2-0.6,1.5-1.2c1.1-2.1,1.7-4.4,2-6.8c-0.1,2.1,0.1,4.3,0.7,6.3c0.2,0.6,0.6,1.4,1.3,1.3c0.5-0.1,0.8-0.6,0.9-1.1
	c0.8-2.2,1.6-4.4,2.4-6.7c0.9,7.7,1.9,15.4,2.8,23.1c-1.1-5.1-1.8-10.3-1.9-15.5c-0.1-2.5,0.1-5.3,2-6.9c0.2,2.5,0.7,5,1.6,7.3
	c2.1-2.5,4.2-5,6.3-7.5c-1,1-2,2-2.3,3.4c-0.3,1.4,0.6,3,2,3.1c0.6,0,1.1-0.2,1.6-0.5c2.8-1.5,4.5-4.4,6.1-7.2
	c0.4,0.1,0.6,0.6,0.5,1.1c-0.1,0.4-0.5,0.7-0.8,1.1c-1.3,1.6-0.9,4.3,0.8,5.4c2.2-1.6,3.3-4.3,4.4-6.8c-2.8,7.3,2.3,15.7,0.2,23.2
	c-0.3,0.9-0.8,2-1.8,2.1c-0.8,0-1.4-0.6-1.7-1.3c-0.7-1.4-0.4-3.2,0-4.7c1.9-7.4,6.4-14,12.6-18.5c-0.6-0.5-1.7-0.2-2.2,0.5
	c-0.5,0.6-0.6,1.5-0.7,2.3c-0.1,0.7-0.1,1.5,0.2,2.2c0.6,1.4,2.4,1.9,3.9,1.5c1.5-0.4,2.6-1.5,3.6-2.7c3.3-4.1,4.9-9.5,4.3-14.8
	c-1.7,0.5-2.2,2.6-2.2,4.4c0,3.8,0.7,7.7,2.2,11.3c0.2,0.4,0.4,0.8,0.8,0.9c0.5,0.2,1-0.3,1.4-0.7c1.4-1.8,2.4-3.9,2.7-6.2
	c0.3,2.4,0.9,4.7,1.8,7c1.3-2,2.3-4.1,3-6.4c1.2,1.5,2,3.3,2.2,5.3c0.2-1.8,0.9-3.5,2-4.9c0.5,1.6,1,3.2,1.5,4.8
	c0.2,0.6,0.5,1.3,1.1,1.3c0.4,0,0.7-0.3,0.9-0.6c1.6-1.7,3.2-3.3,4.8-5c-1.1,0.9-2.2,1.9-2.5,3.2c-0.3,1.4,0.9,3,2.2,2.7
	c1.1-0.3,1.5-1.7,1.4-2.8c-0.2-1.1-0.7-2.2-0.8-3.3c0,4.3,2.5,8.2,3.6,12.4c0.9,3.4,0.9,7-0.1,10.4c-0.4,1.3-0.9,2.5-1.8,3.5
	s-2.3,1.6-3.6,1.3c-2-0.5-3-3-2.6-5.1c0.5-2.1,1.9-3.7,3.4-5.2c1.2-1.3,2.4-2.6,3.7-4c0.8-0.8,1.5-1.7,2.1-2.6c2-3.2,1.5-7.3,1-11.1
	"/>
<path id="XMLID_19_" class="st0" d="M24.1,76.5c1-3.2,2.1-6.7,4.7-8.8c0.6-0.5,1.3-0.9,2-0.9c1.2,0,2.1,1,2.8,2
	c1,1.5,1.9,3.3,1.8,5.1c0,0.5-0.1,0.9-0.4,1.3c-0.8,1.1-2.9,0.3-3.1-1c-0.3-1.4,0.7-2.7,1.8-3.5c1.1-0.8,2.5-1.2,3.7-2
	c1.2-0.8,2.2-2,2-3.4c-1.8-0.3-3.3,1.9-3,3.7c0.3,1.9,1.7,3.3,3.1,4.6c1.5-0.9,2.1-2.6,3-4s2.7-2.7,4.2-2c-0.4-0.7-1.5-0.8-2.1-0.3
	c-0.7,0.5-0.9,1.3-1,2.1c-0.1,1.1,0.1,2.4,0.8,3.3c0.7,0.9,1.9,1.5,3,1.2c1.6-0.4,2.3-2.2,3.2-3.6c1.1-1.7,2.8-3,4.8-3.6
	c-1.4-0.3-2.6,1.1-2.8,2.5c-0.2,1.3,0.3,2.8,1.5,3.3c1.1,0.4,2.6-0.3,2.8-1.5c0.3-1.2-0.7-2.5-1.9-2.6c1.4-0.6,2.7-1.3,4.1-1.9
	c0.7,2.1,1.2,4.2,1.5,6.4c-0.1-1.3,0-2.6,0.3-3.9c0.1-0.7,0.8-1.7,1.4-1.3c0.2,0.1,0.3,0.4,0.4,0.6c0.7,1.7,1.4,3.4,2.1,5.2
	c0.5-1.3,1.1-2.7,2.1-3.7c0.9-1.1,2.4-1.8,3.8-1.5c-2.4,0.8-3.7,4-2.6,6.3c0.3,0.7,1,1.3,1.7,1.1c0.4-0.1,0.7-0.6,0.9-1
	c2.1-4.7,2-10,1.7-15.1c-0.7,5.8-0.5,11.7,0.8,17.4c2.6-0.4,4.8-2.3,6.2-4.6c1.4-2.3,2-4.9,2.7-7.4c0.2-0.7,0.4-1.5,0.2-2.3
	S81.6,61,80.8,61c-0.6,0-1.1,0.3-1.5,0.7c-1.7,1.7-1.4,4.5-0.6,6.7c0.8,2.2,2,4.4,1.9,6.8c-0.8-2.6,0.7-5.7,3.3-6.6
	c0.5,2.2,1.1,4.3,1.6,6.5c1.8-2.7,3.8-5.6,6.9-6.6c-1.8,0.6-3.1,2.6-2.9,4.5c0.1,1,1.1,2.1,2,1.6c0.3-0.2,0.4-0.5,0.5-0.8
	c0.5-1.2,0.8-2.5,1-3.8c0.1-0.5-0.3-1.3-0.8-1c0.1,2.1,0.8,4.1,2,5.9c1.4-0.4,2-2,2.2-3.5c0.2-1.5,0.4-3.1,1.6-4
	c0.1,2.3,0.2,4.7,0.3,7c0.2-1.6,0.7-3.2,1.3-4.7c0.5-1.2,1.8-2.4,2.8-1.7c0.4,0.3,0.5,0.9,0.6,1.4c0.3,1.7,0.6,3.3,1,5
	c2.1-1.8,4.1-3.7,6.2-5.5c-2.2,1.3-3,4.5-1.7,6.7c1.9-1.7,3-4.3,3.3-6.9c0.4-2.6,0.1-5.2-0.2-7.8c-0.7,4.1-0.3,8.3,1,12.2
	c0.3,1,0.8,1.9,1.6,2.5c0.8,0.5,2.2,0.3,2.6-0.6"/>
<path id="XMLID_20_" class="st0" d="M129.8,76.6c-0.5,0.1-0.5-0.6-0.4-1.1c0.9-2.1,1.8-4.3,3.2-6.1c1.4-1.8,3.5-3.2,5.8-3.3
	c-0.8-0.6-1.8,0.1-2.5,0.8c-0.9,0.9-1.7,1.9-2.2,3c-0.4,1.2-0.5,2.6,0.3,3.6c0.9,1.4,2.9,1.7,4.5,1.1s2.7-1.9,3.7-3.2
	c2.6-3.6,4.1-8,4.3-12.5c0-0.9-0.2-2.2-1.2-2.3c-0.8,0.8-1,2.1-1.1,3.3c-0.2,3.5-0.3,7.1,0,10.6c0.1,1.5,0.4,3.3,1.7,4.1
	c0.7-2,1.7-3.8,3.1-5.4c0.6-0.6,1.5-1.2,2.2-0.8c0.1-0.3-0.3-0.6-0.7-0.5c-0.3,0.1-0.5,0.4-0.7,0.7c-0.7,1.4-0.9,3-0.6,4.4
	c0.1,0.6,0.3,1.2,0.8,1.6c0.5,0.4,1.2,0.5,1.7,0.2c0.3-0.2,0.5-0.7,0.6-1.1c0.4-1.6,0-3.4-1-4.8c2.1,0.3,4.1-1,5.1-2.8
	c1-1.8,0.9-4.1,0.1-6c0.8,4.3,1.6,8.6,2.4,13c0,0.3,0.1,0.5,0.2,0.7c0.5,0.8,1.7,0.5,2.3-0.2c0.9-1,1-2.3,1.1-3.6
	c0.1-3.7-0.3-7.5-1.3-11.1c1.8,4.8,3.6,9.8,3.4,15c-0.3-1.7,0-3.4,0.7-4.9c0.1-0.3,0.3-0.6,0.6-0.7c0.7-0.3,1.3,0.6,1.5,1.3
	c0.5,1.3,0.9,2.5,1.4,3.8c0.1,0.3,0.3,0.7,0.5,0.9c0.2,0.2,0.5,0.2,0.8,0.2c2.8,0.1,5.2-2.8,4.7-5.5c-0.1-0.5-0.3-1.1-0.8-1.4
	c-0.9-0.5-2,0.4-2.2,1.4s0.4,2,0.9,2.8c0.8,1.3,2.1,2.6,3.6,2.3c1.6-0.3,2.2-2.3,3.2-3.7c1-1.5,2.8-2.5,4.7-2.5
	c1.1,2.6,2,5.3,2.4,8.1c-0.6,0.8-2-0.2-1.9-1.1s1-1.7,1.8-2.3c2-1.6,3.6-3.5,4.9-5.7"/>
<path id="XMLID_21_" class="st0" d="M154.5,61.9c1.8-0.2,3.7-0.3,5.5-0.1"/>
<path id="XMLID_22_" class="st0" d="M199.5,78c0.4-3.3,1-6.8,2.9-9.6s5.3-4.8,8.6-4.1c-1.5-0.9-3.5,0-4.7,1.2
	c-2.7,2.7-3.2,7.3-1,10.5c2.5-2.6,3.5-6.3,4.4-9.8c0.3,2.7,0.7,5.3,1.3,8c0.2,0.8,0.9,1.9,1.6,1.4c0.2-0.1,0.3-0.4,0.4-0.6
	c1.3-3.2,1.9-6.9,4.2-9.5c0.7,2.8,1.2,5.7,1.5,8.6c0.1-1.8,0.2-3.5,0.5-5.3c0.2-1.1,0.5-2.4,1.6-2.7c0.8,2.7,1.6,5.5,2.3,8.2
	c2-3.4,4.3-7,8.1-8.1c-0.9-0.2-1.7,0.6-2.2,1.3c-1.2,1.8-1.6,4-1.2,6.1c0.1,0.4,0.2,0.8,0.4,1.1c0.6,0.6,1.6,0.3,2.2-0.3
	s0.7-1.5,0.8-2.3c0.9-6,1.8-12.1,2.6-18.1c-0.3,5.5-0.7,11-1,16.4c-0.1,1.9-0.1,4.1,1.2,5.5c0.2,0.2,0.5,0.4,0.7,0.4
	c0.3,0,0.6-0.2,0.8-0.4c0.7-0.6,1.5-1.3,2.2-1.9"/>
<path id="XMLID_23_" class="st1" d="M24,105.5c0.4-1.2,1-2.3,1.7-3.3c0.1-0.2,0.3-0.4,0.6-0.4c0.4,0,0.6,0.5,0.6,0.9
	c0.1,3.1-1.3,6.5,0.3,9.1c1.8-1.9,3.1-4.2,3.9-6.7c-0.2,1.7-0.4,3.6,0.7,4.9c0.2,0.2,0.4,0.4,0.6,0.4c0.3,0,0.6-0.3,0.8-0.6
	c1.6-2.4,1.7-5.5,1.7-8.4c0,0.9,0,1.7,0,2.6c0,0.3,0,0.6,0.2,0.9c0.3,0.4,0.9,0.3,1.3,0.1c2.1-0.6,4.2-1.4,6.1-2.5
	c-2.9,2.1-4.2,6.1-3.2,9.5c2.1-2,2.7-5,3.2-7.9c-0.1,1.3,0,2.7,0.3,4c0.2,0.6,0.5,1.4,1.2,1.4c0.5,0,0.9-0.3,1.2-0.6
	c2.1-2,4-4.3,5.6-6.7c1.3,1.7,2.2,3.6,2.7,5.7c0.2,0.7,0.3,1.4,0,2s-1,1.2-1.6,1c-0.6-0.2-0.9-0.8-0.9-1.4c0-0.6,0.3-1.2,0.6-1.7
	c1.4-2.5,3.2-4.9,4.4-7.5s1.8-5.7,0.8-8.4c0.5,4.7,0.5,9.5,0.2,14.3c-0.1,1.2-0.2,2.6,0.6,3.6c0.9,1.1,2.8,1.1,4,0.3
	c1.2-0.8,2-2.2,2.5-3.5c0.7-1.8,1.1-4-0.3-5.3c-2.2,1.4-2.4,4.8-0.8,6.8s4.6,2.5,7,1.7"/>
<path id="XMLID_24_" class="st1" d="M52.9,94.8c2.8,0.2,5.6,0.3,8.5,0.3"/>
<path id="XMLID_25_" class="st1" d="M82.5,110.3c1.3-3.5,2.6-7.1,3.9-10.6c1.2-3.2,2.4-6.6,1.6-10c-0.9,1.4-1,3.1-1.1,4.8
	c-0.1,4.3-0.2,8.6-0.4,13c0,1.1,0.1,2.5,1.1,2.9c1.1,0.5,2.3-0.7,2.9-1.8c1.3-2.5,1.8-5.3,1.6-8.1c0-0.3-0.1-0.7-0.4-0.9
	c-0.4-0.2-0.8,0-1.1,0.3c-1.5,1.4-1.3,3.8-0.8,5.8c0.5,1.9,1.6,4.2,3.5,4.1c0.8,0,1.6-0.5,2.3-1c3.4-2.5,5.8-6.3,6.7-10.5
	c-0.7,1.5-1.5,3-2.2,4.6c-0.1,0.2-0.2,0.4-0.4,0.5c-0.6,0.4-1.2-0.3-1.6-1c-0.6-1.1-1.2-2.3-1.8-3.4c1.4,3.1,3,6.1,4.9,8.9
	c0.5,0.8,1.3,1.7,2.3,1.6c1.1-0.1,1.6-1.5,1.8-2.6c1.1-5.6,1.7-11.3,1.8-17c-0.6,5.7-0.6,11.6-0.1,17.3c0.1,0.7,0.2,1.5,0.8,1.9
	c0.6,0.4,1.5,0,2-0.6c0.5-0.6,0.6-1.4,0.7-2.1c0.3-2,0.6-4.1,0.9-6.1c-0.1,2.2,0.1,4.4,0.6,6.5c0.3,1.1,1,2.5,2.1,2.3
	c0.5-0.1,1-0.4,1.3-0.8c4.1-4.3,4.6-10.7,4.9-16.6c0-0.8,0.1-1.7-0.5-2.3c-1.7,1.6-2,4-2,6.3c0,3.1,0.7,6.2,1.4,9.3
	c0.3,1.2,0.6,2.5,1.7,3c1,0.5,2.3,0.1,3.2-0.5c2.2-1.4,3.6-4,3.5-6.6c0-0.5-0.1-1-0.4-1.3c-0.5-0.5-1.5-0.2-1.9,0.4
	c-0.4,0.6-0.5,1.4-0.4,2.1c0.2,2.1,1,4.1,2.4,5.7c0.3,0.3,0.6,0.6,1,0.7c0.7,0.1,1.3-0.4,1.8-0.9c2-2.3,3.6-4.9,4.6-7.7
	c1.2,0.3,1.6,1.7,1.8,2.8c0.4,2.5,0.5,5,0.3,7.5c0,0.3-0.1,0.7-0.3,0.9c-0.6,0.6-1.5-0.2-1.7-1c-0.3-1.5,0.8-3,1.8-4.1
	c1.5-1.8,3-3.5,4.5-5.3"/>
<path id="XMLID_27_" class="st1" d="M104.5,93.8c1.8-0.2,3.6-0.1,5.4,0.3"/>
<path id="XMLID_29_" class="st1" d="M112.5,93.8c-0.1,0-0.2,0.2-0.2,0.3"/>
<path id="XMLID_36_" class="st1" d="M84.2,93.8c2.4-0.5,5-0.4,7.4,0.2"/>
<path id="XMLID_26_" class="st1" d="M152.7,111c2.5-4.3,4.2-9.1,5.1-14.1c-1.5,4.4-1.1,9.5,1.2,13.6c1.9-3.4,3.3-7.1,4.4-10.8
	c0.4,3.2,0.9,6.4,1.3,9.6c-0.2-3.3,0.8-6.6,2.8-9.2c0.7,1.7,0.5,3.5,0.5,5.3s0.6,3.8,2.1,4.7c2.2-5.6,3.5-11.5,3.7-17.5
	c-1.2,5.9-0.4,12.2,2.3,17.6c1.4-3.3,3.9-6.2,7.1-7.8c-1.2,1.3-1.8,3-1.7,4.7c0.1,1.4,1.1,2.9,2.4,2.7c0.8-0.2,1.3-0.9,1.6-1.6
	c0.7-1.8,0.1-4.1-1.3-5.4c3.9-1.1,7.7-2.4,11.4-4"/>
<path id="XMLID_28_" class="st1" d="M170.2,94.5c3.6-0.5,7.3-0.6,11-0.4"/>
<path id="XMLID_30_" class="st1" d="M157.4,89.7c0-0.2,0.3-0.3,0.5-0.2"/>
<path id="XMLID_33_" class="st1" d="M153.2,27.6c0-0.2,0.3-0.3,0.5-0.2"/>
<path id="XMLID_31_" class="st1" d="M204.8,95.8c-0.4,3.1-0.2,6.3,0.5,9.4c0.2,0.8,0.7,1.7,1.4,1.6c0.4-0.1,0.7-0.4,1-0.8
	c1.7-2.6,2.5-5.8,2.2-8.9c1.8,9.2,3.2,18.5,4.2,27.9c0.2,1.6-0.4,3.9-1.9,3.7c-0.4-0.1-0.7-0.3-1-0.5c-2.4-1.9-3.4-5.2-3.2-8.2
	c0.2-3.1,1.3-6,2.7-8.7c2.4-5,5.2-9.7,8.5-14.1c-1.7,1.5-2.6,3.9-2.3,6.2c0.2,1.4,1.2,2.9,2.5,2.8c1-0.1,1.8-1.1,2-2.1
	s-0.1-2.1-0.4-3.1c-0.2-0.6-0.4-1.3-0.6-1.9c-0.1-0.5-0.3-1-0.8-1.3c-0.4-0.2-1.2,0.1-1,0.6c2.6,0.9,5.8,0.3,7.8-1.6
	c-1.2,2.9-0.4,6.4,1.9,8.5c1.9-2.6,2.4-6.1,1.5-9.1c-0.1,2.6,0.5,5.3,1.6,7.7c0.2,0.4,0.4,0.7,0.7,0.9c1,0.5,1.8-0.8,2-1.9
	c0.4-1.9,0.6-3.9,0.6-5.9c0.8,2.9,1.6,5.8,2.4,8.7c-0.1-1.5-0.3-3-0.4-4.5c0-0.3-0.1-0.7,0.1-1c0.2-0.4,0.7-0.5,1.1-0.6
	c1.7-0.4,3.4-0.8,5.1-1.2"/>
<path id="XMLID_39_" class="st1" d="M17.6,147.7c-0.1-4.1,1.2-8.3,3.6-11.6c1.7,3.7,3,7.6,3.8,11.7c-0.3-3.2,0.3-6.5,1.7-9.4
	c0.2-0.5,0.6-1,1.1-0.9c0.5,0.1,0.7,0.8,0.7,1.3c0.2,2.9,0.5,6,2.2,8.3c0.6,0.8,1.5,1.5,2.4,1.2c0.8-0.2,1.1-1.1,1.5-1.8
	c1.2-3,2.5-6.2,1.5-9.3c-0.2-0.5-0.4-1.1-1-1.4c-1.3-0.6-2.5,1.1-2.6,2.5c-0.3,3.4,1.3,7,4.2,8.9c0.9,0.6,2.1,1.1,3.1,0.9
	c1.9-0.4,2.7-2.5,3-4.4c0.4-2.5,0.1-5-0.6-7.4c-0.1,4.2,1.8,8.5,5.1,11.2c1.1-2.5,1.4-5.3,1.1-7.9c0.1,3,1.3,6,3.3,8.2
	c1.1-3.4,1.4-7.2,0.8-10.7c2.1,1.8,5.5,1.8,7.7,0.2"/>
<path id="XMLID_45_" class="st1" d="M65.6,140.7c3.3-2.4,5.8-6,6.9-9.9c0.6-2.1,0.4-4.9-1.7-5.6c-3.5,3.9-2.7,9.8-2,15
	c1.1,8.3,1.6,16.7,1.4,25.1c0,0.4,0,0.9-0.4,1.2c-0.7,0.6-1.6-0.2-2-1c-1.9-3.6-1.2-8,0-11.9c1.9-6.2,4.7-12.1,8.4-17.4
	c-3.2,2.6-3.8,7.7-1.5,11.1c1.9-3,2.7-6.7,2-10.2c0.2,2.6,0.9,5.1,1.9,7.5c0.3,0.7,0.9,1.5,1.6,1.2c0.4-0.1,0.6-0.6,0.8-1
	c0.9-2.5,0.5-4.6,0.4-7.3c-0.6,3.1,0.7,5.8,2,8.6c1.9-2.5,3-7.1,1.1-9.6c2.7,2.5,6.4,3.1,8.9,0.4c-1.3,1.2-2.7,2.6-2.9,4.4
	c-0.2,1.8,1.6,3.8,3.2,3.1c0.8-0.4,1.3-1.3,1.5-2.2c0.3-1.6-0.3-3.4-1.5-4.5c2.4,0.5,4.9-0.2,6.7-1.8c-0.9,2.8-0.4,6,1.2,8.5
	c1.4-2.1,2.2-4.7,2.1-7.3c-0.8,3,0.7,6.4,3.4,7.9c0.4,0.2,0.9,0.4,1.3,0.2c0.4-0.2,0.6-0.6,0.8-1c0.9-2.3,1.2-4.8,0.9-7.2
	c0.7,2.8,1.4,5.6,2.1,8.4c-0.3-1.6-0.6-3.2-1-4.8c2.4,0,4.9-1,6.5-2.8c0.3,2.2,1,4.4,2.2,6.3c0.6,0.9,1.6,1.9,2.6,1.6
	c0.9-0.2,1.3-1.3,1.6-2.2c2-6.9,1.4-14.3,0.9-21.5c-0.6,6.2-0.1,12.5,1.3,18.6c0.4,1.7,1.1,3.7,2.8,4.2c2,0.7,4-1.1,5.1-2.9
	c0.8-1.2,1.5-2.6,1.4-4.1s-1-3-2.5-3.2c-2.1,1.6-1,4.8,0.4,7c1.1,1.7,2.4,3.4,4.2,4.4s4.2,1.2,5.8-0.1"/>
<path id="XMLID_46_" class="st1" d="M122.9,125.3c3.2,0.2,6.4,0.2,9.5-0.2c-0.2,0.2-0.3,0.4-0.5,0.6"/>
<path id="XMLID_56_" class="st1" d="M115.9,126.2c-0.4,0-0.6,0.7-0.2,0.9"/>
<path id="XMLID_57_" class="st1" d="M147.6,145.4c0.3-0.8,0.7-1.5,1.2-2.1c1.1-1.4,2.6-2.4,4.2-3.2c3.8-2,7.8-3.3,11.9-4.6
	c-2.1,0.1-4.2,1.1-5.4,2.8s-1.2,4.2,0.2,5.7c2-1.6,3.2-4.1,3.3-6.7c1.4,8.4,2.1,17,2,25.5c0,1.8-0.6,4.2-2.4,4.2
	c-2.2-3.7-2.2-8.4-1.4-12.6c1.3-7.3,4.8-14.3,9.9-19.7c-3.4,2.4-4.5,7.7-2.2,11.2c1.6-2.9,2.4-6.3,2.2-9.6c0.9,2.1,1.8,4.2,2.8,6.4
	c0.3,0.7,0.8,1.5,1.6,1.4c0.3,0,0.6-0.2,0.8-0.5c2.5-2.2,3.7-5.9,2.9-9.1c0.8,2.9,1.6,5.7,2.4,8.6c-1-1.4-1.6-3.1-1.6-4.9
	c0-0.5,0.1-1.1,0.5-1.5c0.3-0.3,0.8-0.3,1.2-0.4c2.5-0.3,5-1.1,7.2-2.3c0.4-0.3,0.9-0.6,1-1.1c0.1-0.5-0.5-1.1-0.9-0.8
	c1,3.1,1.9,6.2,2.9,9.3c-0.1-2.7,0.9-5.3,2.7-7.2c1,2.1,1.7,4.4,2.1,6.7c0.2-2.4,1.3-4.6,3-6.3c0.3,2.2,0.9,4.4,1.7,6.4
	c0.2,0.5,0.5,1.1,1,1.5c0.8,0.7,2.1,0.5,3,0c3.6-1.7,4.7-7,2.2-10c-1.1,1.6-1.6,3.5-1.5,5.4c0.1,2.2,1.5,4.6,3.7,4.6
	c1.6,0.1,3-1.2,4-2.4c1.5-1.8,2.9-4.1,2.1-6.3c0.4,2.8,0.8,5.6,1.2,8.4c-0.1-2,0.5-3.9,1.8-5.5c0.4,1.2,0.9,2.4,1.3,3.5
	c0.2,0.6,0.6,1.3,1.3,1.3c0.6,0,0.9-0.6,1.2-1.1c2.7-6,2.5-12.8,2.2-19.3c-0.8,5.8-0.4,11.8,1.3,17.4c0.3,1.1,1,2.4,2.1,2.5
	c0.6,0,1.2-0.4,1.7-0.8c1.9-1.4,3.5-3.2,4.8-5.1c0.2-0.4,0.5-0.8,0.9-0.9c1-0.4,1.9,0.6,2.4,1.5c1.6,2.7,3.2,5.8,2.3,8.9
	c-1,0.2-2-0.8-2.1-1.8c-0.1-1,0.3-2.1,0.9-2.9c1.6-2.6,4.1-4.7,7-5.9"/>
<path id="XMLID_62_" class="st1" d="M219.7,125.5c-0.2,0.2-0.3,0.4-0.5,0.6c3.7,1.2,7.7,1.4,11.5,0.8"/>
</svg>
