<?xml version="1.0" encoding="utf-8"?>
<!-- Generator: Adobe Illustrator 19.0.0, SVG Export Plug-In . SVG Version: 6.00 Build 0)  -->
<svg version="1.1" id="Layer_3" xmlns="http://www.w3.org/2000/svg" xmlns:xlink="http://www.w3.org/1999/xlink" x="0px" y="0px"
	 viewBox="0 0 283.5 198.4" style="enable-background:new 0 0 283.5 198.4;" xml:space="preserve">
<style type="text/css">
	.st0{fill:none;stroke:#FFFFFF;stroke-width:0.9013;stroke-miterlimit:10;}
	.st1{fill:none;stroke:#FFFFFF;stroke-width:0.8594;stroke-miterlimit:10;}
</style>
<path id="XMLID_17_" class="st0" d="M88.3,36.1c3-3.1,5.4-6.7,7-10.7c-0.3,2.7-0.3,5.4-0.1,8.1c0.1,0.9,0.4,2.1,1.3,2.2
	c0.8,0.1,1.4-0.7,1.8-1.5c1.3-2.5,2.1-5.3,2.3-8.2c-0.2,2.5,0.1,5.1,0.9,7.5c0.2,0.8,0.8,1.7,1.6,1.5c0.6-0.1,0.9-0.8,1.1-1.3
	c1-2.7,1.9-5.3,2.9-8c1.1,9.3,2.3,18.5,3.4,27.8c-1.3-6.1-2.1-12.3-2.3-18.6c-0.1-3,0.1-6.3,2.4-8.2c0.2,3,0.8,6,1.9,8.8
	c2.5-3,5-6,7.5-9c-1.2,1.2-2.4,2.4-2.7,4.1c-0.3,1.6,0.7,3.6,2.4,3.7c0.7,0,1.3-0.2,1.9-0.6c3.4-1.8,5.5-5.3,7.4-8.7
	c0.5,0.1,0.7,0.8,0.6,1.3c-0.2,0.5-0.6,0.9-0.9,1.3c-1.5,1.9-1.1,5.1,1,6.5c2.6-1.9,4-5.1,5.2-8.2c-3.4,8.8,2.8,18.8,0.3,27.9
	c-0.3,1.1-1,2.4-2.2,2.5c-0.9,0-1.7-0.7-2.1-1.5c-0.8-1.7-0.5-3.8,0-5.7c2.3-8.9,7.7-16.9,15.1-22.3c-0.8-0.6-2-0.2-2.6,0.5
	c-0.6,0.8-0.8,1.8-0.8,2.8c-0.1,0.9-0.1,1.8,0.3,2.6c0.7,1.7,2.9,2.3,4.7,1.9c1.8-0.5,3.2-1.8,4.3-3.3c4-4.9,5.9-11.4,5.2-17.7
	c-2.1,0.5-2.7,3.2-2.7,5.3c0,4.6,0.9,9.2,2.6,13.5c0.2,0.5,0.5,1,0.9,1.1c0.6,0.2,1.2-0.3,1.6-0.8c1.7-2.1,2.9-4.7,3.3-7.4
	c0.4,2.9,1.1,5.7,2.2,8.4c1.6-2.3,2.8-4.9,3.6-7.6c1.5,1.8,2.4,4,2.6,6.3c0.2-2.1,1-4.2,2.4-5.9c0.6,1.9,1.2,3.8,1.8,5.7
	c0.2,0.7,0.6,1.5,1.3,1.5c0.4,0,0.8-0.4,1.1-0.7c1.9-2,3.8-4,5.7-5.9c-1.3,1.1-2.6,2.2-3,3.9c-0.3,1.6,1,3.6,2.7,3.2
	c1.3-0.3,1.8-2,1.6-3.4c-0.2-1.4-0.9-2.6-0.9-4c0,5.2,3,9.9,4.4,14.9c1.1,4.1,1,8.4-0.1,12.5c-0.4,1.5-1.1,3.1-2.2,4.2
	c-1.1,1.2-2.8,1.9-4.3,1.5c-2.5-0.6-3.6-3.6-3.1-6.1c0.6-2.5,2.3-4.4,4.1-6.3c1.5-1.6,2.9-3.2,4.4-4.8c0.9-1,1.8-2,2.5-3.2
	c2.4-3.9,1.8-8.8,1.3-13.3"/>
<path id="XMLID_19_" class="st0" d="M8.6,75.4c1.2-3.9,2.5-8,5.7-10.6c0.7-0.6,1.5-1.1,2.4-1.1c1.4,0,2.5,1.3,3.3,2.5
	c1.2,1.8,2.3,3.9,2.2,6.1c0,0.5-0.1,1.1-0.4,1.5c-1,1.3-3.4,0.4-3.8-1.3c-0.3-1.6,0.8-3.3,2.2-4.2s3-1.5,4.4-2.4s2.6-2.4,2.4-4.1
	c-2.2-0.4-4,2.3-3.6,4.5c0.4,2.2,2.1,3.9,3.7,5.5c1.7-1.1,2.5-3.1,3.6-4.9c1.1-1.7,3.2-3.3,5-2.4c-0.5-0.9-1.8-1-2.6-0.4
	c-0.8,0.6-1.1,1.6-1.2,2.6c-0.2,1.4,0.1,2.8,0.9,3.9c0.8,1.1,2.3,1.8,3.6,1.4c1.9-0.5,2.8-2.7,3.9-4.3c1.4-2,3.4-3.6,5.8-4.3
	c-1.6-0.4-3.1,1.3-3.3,3c-0.2,1.5,0.4,3.3,1.8,3.9c1.4,0.5,3.1-0.4,3.4-1.8c0.3-1.4-0.8-3-2.3-3.1c1.6-0.8,3.3-1.5,4.9-2.3
	c0.8,2.5,1.4,5.1,1.8,7.7c-0.1-1.6,0-3.1,0.3-4.7c0.2-0.9,0.9-2,1.7-1.5c0.2,0.2,0.4,0.4,0.5,0.7c0.8,2.1,1.7,4.1,2.5,6.2
	c0.7-1.6,1.3-3.2,2.5-4.5c1.1-1.3,2.9-2.2,4.5-1.8c-2.9,1-4.5,4.8-3.2,7.5c0.4,0.8,1.2,1.6,2,1.3c0.5-0.2,0.8-0.7,1.1-1.2
	c2.6-5.6,2.4-12,2.1-18.2c-0.9,7-0.5,14.1,1,20.9c3.1-0.5,5.8-2.8,7.4-5.5c1.6-2.7,2.5-5.8,3.3-8.9c0.2-0.9,0.5-1.8,0.3-2.7
	s-0.8-1.8-1.8-1.9c-0.7-0.1-1.3,0.3-1.8,0.8c-2,2-1.6,5.4-0.7,8.1s2.5,5.3,2.3,8.2c-1-3.1,0.9-6.9,4-7.9c0.6,2.6,1.3,5.2,1.9,7.8
	c2.1-3.3,4.5-6.8,8.3-7.9c-2.2,0.7-3.7,3.1-3.5,5.4c0.1,1.2,1.4,2.6,2.4,1.9c0.3-0.2,0.5-0.6,0.6-0.9c0.6-1.5,1-3,1.2-4.6
	c0.1-0.6-0.4-1.6-0.9-1.2c0.2,2.5,1,5,2.4,7c1.7-0.4,2.4-2.5,2.7-4.2c0.3-1.7,0.5-3.8,1.9-4.8c0.1,2.8,0.2,5.6,0.3,8.4
	c0.3-1.9,0.8-3.8,1.6-5.6c0.6-1.4,2.2-2.9,3.4-2c0.5,0.4,0.6,1,0.7,1.6c0.4,2,0.8,4,1.2,6c2.5-2.2,4.9-4.4,7.4-6.6
	c-2.7,1.6-3.6,5.4-2.1,8.1c2.3-2.1,3.6-5.1,4-8.2c0.4-3.1,0.1-6.2-0.2-9.3c-0.8,4.9-0.4,10,1.2,14.6c0.4,1.1,0.9,2.3,1.9,3
	c1,0.6,2.7,0.4,3.1-0.7"/>
<path id="XMLID_20_" class="st0" d="M135.6,75.4c-0.6,0.1-0.6-0.8-0.4-1.3c1-2.6,2.1-5.1,3.9-7.3s4.2-3.8,7-4c-0.9-0.7-2.2,0.2-3,1
	c-1,1.1-2,2.2-2.6,3.6c-0.5,1.4-0.5,3.1,0.3,4.3c1.1,1.6,3.5,2,5.4,1.3c1.9-0.7,3.3-2.2,4.4-3.9c3.1-4.3,5-9.6,5.2-15
	c0-1.1-0.3-2.6-1.4-2.8c-1,1-1.2,2.6-1.3,4c-0.3,4.2-0.3,8.5,0,12.7c0.1,1.8,0.4,3.9,2,4.9c0.8-2.4,2.1-4.6,3.7-6.5
	c0.7-0.8,1.8-1.5,2.6-0.9c0.1-0.4-0.4-0.7-0.8-0.6c-0.4,0.1-0.6,0.5-0.8,0.9c-0.8,1.6-1,3.5-0.7,5.3c0.1,0.7,0.4,1.4,1,1.9
	c0.5,0.5,1.4,0.7,2,0.2c0.4-0.3,0.6-0.8,0.7-1.3c0.4-2,0-4.1-1.1-5.7c2.5,0.3,5-1.2,6.1-3.4c1.2-2.2,1.1-4.9,0.1-7.2
	c1,5.2,1.9,10.4,2.9,15.6c0.1,0.3,0.1,0.6,0.3,0.9c0.6,0.9,2.1,0.6,2.8-0.3c1-1.2,1.2-2.8,1.3-4.4c0.2-4.5-0.3-9-1.5-13.3
	c2.2,5.8,4.4,11.8,4.1,18c-0.3-2,0-4.1,0.9-5.9c0.2-0.3,0.4-0.7,0.8-0.8c0.8-0.3,1.5,0.7,1.8,1.6c0.6,1.5,1.1,3.1,1.7,4.6
	c0.1,0.4,0.3,0.8,0.6,1c0.3,0.2,0.6,0.2,0.9,0.2c3.3,0.1,6.3-3.4,5.6-6.7c-0.1-0.6-0.4-1.3-1-1.6c-1.1-0.6-2.4,0.5-2.6,1.7
	c-0.2,1.2,0.4,2.4,1.1,3.4c1,1.5,2.6,3.2,4.4,2.8c2-0.4,2.7-2.8,3.8-4.4c1.2-1.8,3.4-3,5.6-3c1.4,3.1,2.4,6.4,2.9,9.7
	c-0.7,1-2.4-0.2-2.2-1.4c0.1-1.2,1.2-2,2.1-2.7c2.4-1.9,4.4-4.2,5.9-6.8"/>
<path id="XMLID_21_" class="st0" d="M165.3,57.8c2.2-0.3,4.4-0.3,6.6-0.1"/>
<path id="XMLID_22_" class="st0" d="M219.4,77.2c0.5-4,1.3-8.1,3.5-11.5c2.3-3.3,6.4-5.7,10.3-5c-1.8-1-4.2-0.1-5.7,1.4
	c-3.2,3.2-3.8,8.8-1.2,12.6c3.1-3.1,4.2-7.5,5.3-11.8c0.3,3.2,0.8,6.4,1.5,9.6c0.2,1,1.1,2.3,2,1.7c0.2-0.2,0.4-0.5,0.5-0.7
	c1.6-3.9,2.3-8.2,5-11.4c0.9,3.4,1.5,6.8,1.8,10.3c0.1-2.1,0.3-4.3,0.6-6.4c0.2-1.3,0.7-2.9,2-3.2c0.9,3.3,1.9,6.6,2.8,9.9
	c2.4-4,5.2-8.4,9.7-9.8c-1.1-0.2-2,0.7-2.6,1.6c-1.4,2.2-1.9,4.8-1.5,7.4c0.1,0.5,0.2,0.9,0.5,1.3c0.7,0.7,2,0.4,2.6-0.3
	c0.6-0.7,0.8-1.8,1-2.7c1.1-7.2,2.1-14.5,3.1-21.8c-0.4,6.6-0.8,13.2-1.2,19.7c-0.1,2.3-0.2,4.9,1.4,6.6c0.2,0.2,0.5,0.5,0.9,0.5
	c0.4,0,0.7-0.3,1-0.5c0.9-0.8,1.8-1.5,2.7-2.3"/>
<path id="XMLID_23_" class="st1" d="M8.5,110.2c0.5-1.4,1.2-2.8,2.1-4c0.2-0.2,0.4-0.5,0.7-0.5c0.5,0,0.7,0.6,0.7,1.1
	c0.1,3.7-1.5,7.8,0.4,11c2.1-2.3,3.7-5.1,4.7-8.1c-0.3,2-0.5,4.3,0.9,5.9c0.2,0.2,0.5,0.4,0.8,0.4c0.4,0,0.7-0.4,1-0.7
	c1.9-2.9,2-6.6,2.1-10.1c0,1,0,2.1,0,3.1c0,0.4,0,0.8,0.3,1c0.4,0.4,1,0.3,1.6,0.2c2.5-0.7,5-1.7,7.3-2.9c-3.5,2.5-5.1,7.3-3.9,11.4
	c2.5-2.4,3.3-6,3.9-9.5c-0.2,1.6-0.1,3.2,0.4,4.8c0.2,0.8,0.6,1.6,1.4,1.7c0.6,0,1-0.4,1.4-0.8c2.5-2.4,4.8-5.1,6.8-8
	c1.5,2,2.6,4.3,3.2,6.8c0.2,0.8,0.3,1.7,0,2.5c-0.3,0.8-1.2,1.4-1.9,1.2c-0.7-0.2-1.1-1-1.1-1.7c0-0.7,0.4-1.4,0.7-2
	c1.7-3.1,3.8-5.9,5.3-9s2.2-6.9,1-10.1c0.5,5.7,0.6,11.4,0.2,17.2c-0.1,1.5-0.2,3.2,0.8,4.3c1.1,1.3,3.3,1.3,4.8,0.4
	c1.5-1,2.4-2.6,3-4.2c0.9-2.1,1.4-4.9-0.3-6.4c-2.6,1.7-2.9,5.7-1,8.1s5.5,3.1,8.4,2.1"/>
<path id="XMLID_24_" class="st1" d="M43.3,97.3c3.4,0.3,6.8,0.4,10.2,0.4"/>
<path id="XMLID_25_" class="st1" d="M78.8,116c1.6-4.2,3.2-8.5,4.7-12.7c1.4-3.8,2.9-8,2-12c-1.1,1.6-1.2,3.7-1.3,5.7
	c-0.1,5.2-0.3,10.4-0.4,15.6c0,1.3,0.1,3,1.3,3.5c1.4,0.6,2.7-0.8,3.4-2.1c1.5-3,2.2-6.4,1.9-9.7c0-0.4-0.1-0.9-0.5-1.1
	c-0.4-0.3-1,0-1.4,0.4c-1.8,1.7-1.5,4.6-1,7c0.6,2.3,1.9,5,4.3,5c1,0,1.9-0.6,2.7-1.2c4.1-3.1,7-7.6,8.1-12.6
	c-0.9,1.8-1.8,3.6-2.7,5.5c-0.1,0.2-0.2,0.5-0.5,0.6c-0.7,0.5-1.5-0.4-1.9-1.1c-0.7-1.4-1.4-2.7-2.1-4.1c1.7,3.7,3.6,7.3,5.9,10.7
	c0.7,1,1.6,2.1,2.8,1.9c1.3-0.2,1.9-1.8,2.2-3.1c1.3-6.7,2-13.6,2.1-20.4c-0.7,6.9-0.7,13.9-0.1,20.8c0.1,0.8,0.2,1.8,1,2.3
	c0.8,0.5,1.8,0,2.4-0.7c0.5-0.7,0.7-1.7,0.8-2.6c0.4-2.5,0.8-4.9,1.1-7.4c-0.2,2.6,0.1,5.3,0.7,7.8c0.3,1.4,1.2,3,2.6,2.8
	c0.6-0.1,1.2-0.5,1.6-1c4.9-5.1,5.5-12.9,5.9-19.9c0.1-1,0.1-2.1-0.6-2.8c-2,1.9-2.5,4.9-2.4,7.6c0.1,3.8,0.9,7.5,1.7,11.2
	c0.3,1.4,0.7,3,2,3.6c1.2,0.6,2.7,0.2,3.9-0.6c2.6-1.7,4.3-4.8,4.3-7.9c0-0.6-0.1-1.2-0.5-1.6c-0.6-0.6-1.8-0.3-2.3,0.4
	c-0.5,0.7-0.6,1.6-0.5,2.5c0.2,2.5,1.2,4.9,2.9,6.8c0.3,0.4,0.7,0.8,1.2,0.9c0.8,0.2,1.6-0.5,2.1-1.1c2.4-2.7,4.3-5.9,5.5-9.3
	c1.4,0.3,2,2,2.2,3.4c0.5,3,0.6,6,0.4,9c0,0.4-0.1,0.8-0.3,1.1c-0.7,0.7-1.9-0.3-2-1.2c-0.3-1.9,1-3.6,2.2-5
	c1.8-2.1,3.6-4.2,5.4-6.4"/>
<path id="XMLID_27_" class="st1" d="M105.2,96.1c2.1-0.3,4.3-0.2,6.4,0.4"/>
<path id="XMLID_29_" class="st1" d="M114.9,96.1c-0.2,0-0.2,0.2-0.2,0.4"/>
<path id="XMLID_36_" class="st1" d="M80.9,96.2c2.9-0.6,6-0.5,8.9,0.2"/>
<path id="XMLID_26_" class="st1" d="M163.1,116.8c3-5.2,5.1-11,6.2-16.9c-1.8,5.3-1.3,11.4,1.4,16.3c2.2-4.1,4-8.5,5.2-13
	c0.5,3.8,1.1,7.7,1.6,11.5c-0.2-4,1-8,3.4-11.1c0.8,2,0.5,4.2,0.6,6.4c0.1,2.1,0.7,4.5,2.5,5.6c2.7-6.7,4.2-13.8,4.4-21
	c-1.5,7.1-0.5,14.7,2.8,21.2c1.6-4,4.7-7.4,8.6-9.4c-1.4,1.5-2.2,3.6-2.1,5.7c0.1,1.6,1.3,3.5,2.9,3.2c0.9-0.2,1.6-1.1,1.9-2
	c0.8-2.2,0.1-4.9-1.6-6.5c4.6-1.3,9.2-2.9,13.7-4.8"/>
<path id="XMLID_28_" class="st1" d="M184.2,96.9c4.4-0.6,8.8-0.7,13.2-0.5"/>
<path id="XMLID_30_" class="st1" d="M168.7,91.2c0.1-0.2,0.4-0.4,0.6-0.3"/>
<path id="XMLID_33_" class="st1" d="M163.8,16.6c0.1-0.2,0.4-0.4,0.6-0.3"/>
<path id="XMLID_31_" class="st1" d="M225.7,98.6c-0.5,3.8-0.3,7.6,0.6,11.3c0.2,0.9,0.8,2.1,1.7,1.9c0.5-0.1,0.9-0.5,1.2-1
	c2.1-3.1,3-6.9,2.6-10.6c2.2,11.1,3.9,22.3,5.1,33.5c0.2,1.9-0.4,4.7-2.3,4.4c-0.5-0.1-0.9-0.3-1.2-0.6c-2.9-2.3-4.1-6.2-3.9-9.9
	c0.2-3.7,1.6-7.2,3.2-10.5c2.8-6,6.3-11.7,10.2-17c-2.1,1.8-3.1,4.7-2.7,7.4c0.2,1.6,1.4,3.5,3.1,3.3c1.2-0.1,2.2-1.3,2.4-2.5
	c0.2-1.2-0.2-2.5-0.5-3.7c-0.2-0.8-0.5-1.5-0.7-2.3c-0.2-0.6-0.4-1.2-0.9-1.5c-0.5-0.3-1.4,0.1-1.2,0.7c3.2,1.1,6.9,0.3,9.4-2
	c-1.4,3.4-0.5,7.7,2.2,10.3c2.2-3.1,2.9-7.3,1.8-11c-0.1,3.2,0.6,6.4,1.9,9.3c0.2,0.4,0.4,0.9,0.9,1.1c1.2,0.6,2.2-1,2.4-2.3
	c0.5-2.3,0.7-4.7,0.7-7.1c0.9,3.5,1.9,7,2.8,10.5c-0.2-1.8-0.3-3.6-0.5-5.4c0-0.4-0.1-0.8,0.1-1.2c0.3-0.4,0.8-0.6,1.3-0.7
	c2-0.5,4.1-1,6.1-1.4"/>
<path id="XMLID_39_" class="st1" d="M2,160.9c-0.1-5,1.4-9.9,4.4-13.9c2,4.5,3.6,9.2,4.6,14c-0.3-3.8,0.4-7.8,2-11.3
	c0.3-0.6,0.7-1.2,1.4-1.1c0.6,0.1,0.8,0.9,0.9,1.6c0.3,3.5,0.6,7.2,2.7,10c0.7,0.9,1.8,1.8,2.9,1.5c0.9-0.3,1.4-1.3,1.8-2.1
	c1.5-3.5,3-7.5,1.9-11.1c-0.2-0.7-0.5-1.3-1.1-1.6c-1.5-0.8-3,1.3-3.1,3c-0.4,4.1,1.6,8.4,5.1,10.7c1.1,0.7,2.5,1.3,3.8,1
	c2.2-0.5,3.3-3,3.6-5.3c0.4-3,0.2-6-0.8-8.9c-0.1,5.1,2.2,10.2,6.1,13.4c1.3-3,1.7-6.3,1.3-9.6c0.1,3.6,1.5,7.2,3.9,9.9
	c1.4-4.1,1.7-8.6,1-12.9c2.6,2.1,6.6,2.2,9.2,0.2"/>
<path id="XMLID_45_" class="st1" d="M60.9,152.5c4-2.9,7-7.2,8.3-11.9c0.7-2.5,0.5-5.9-2-6.8c-4.2,4.7-3.3,11.8-2.5,18
	c1.3,10,1.9,20.1,1.7,30.2c0,0.5-0.1,1.1-0.5,1.5c-0.8,0.7-1.9-0.3-2.4-1.2c-2.3-4.3-1.4-9.6,0-14.3c2.2-7.5,5.6-14.6,10.1-21
	c-3.8,3.1-4.6,9.3-1.8,13.3c2.3-3.6,3.2-8.1,2.4-12.3c0.3,3.1,1.1,6.2,2.3,9c0.3,0.8,1,1.7,1.9,1.5c0.5-0.2,0.7-0.7,0.9-1.2
	c1.1-3,0.6-5.5,0.5-8.7c-0.7,3.7,0.8,7,2.4,10.4c2.3-3,3.6-8.5,1.3-11.5c3.3,3,7.6,3.7,10.7,0.5c-1.6,1.5-3.3,3.2-3.5,5.3
	c-0.3,2.2,1.9,4.6,3.9,3.7c1-0.4,1.6-1.5,1.8-2.6c0.4-1.9-0.3-4.1-1.8-5.4c2.8,0.6,5.9-0.2,8.1-2.1c-1.1,3.4-0.5,7.2,1.4,10.2
	c1.7-2.6,2.6-5.7,2.6-8.7c-0.9,3.6,0.9,7.7,4.1,9.5c0.5,0.3,1,0.5,1.5,0.3c0.5-0.2,0.8-0.7,0.9-1.2c1.1-2.7,1.5-5.7,1.1-8.6
	c0.9,3.3,1.7,6.7,2.6,10c-0.4-1.9-0.8-3.8-1.1-5.7c2.9,0,5.9-1.2,7.8-3.4c0.3,2.7,1.2,5.3,2.7,7.5c0.7,1.1,1.9,2.3,3.2,1.9
	c1.1-0.3,1.6-1.5,1.9-2.6c2.4-8.3,1.7-17.2,1.1-25.8c-0.7,7.5-0.1,15,1.6,22.3c0.5,2.1,1.3,4.4,3.3,5.1c2.4,0.8,4.8-1.3,6.2-3.5
	c1-1.5,1.8-3.2,1.7-4.9c-0.1-1.8-1.3-3.6-3-3.9c-2.5,1.9-1.2,5.8,0.5,8.4c1.4,2.1,2.9,4.1,5.1,5.3c2.2,1.2,5.1,1.4,7-0.1"/>
<path id="XMLID_46_" class="st1" d="M127.3,134c3.8,0.3,7.7,0.2,11.5-0.2c-0.2,0.2-0.4,0.5-0.6,0.7"/>
<path id="XMLID_56_" class="st1" d="M121.3,135.1c-0.5,0-0.7,0.8-0.3,1.1"/>
<path id="XMLID_57_" class="st1" d="M161.9,158.2c0.4-0.9,0.9-1.8,1.5-2.5c1.3-1.7,3.2-2.8,5.1-3.8c4.5-2.4,9.4-4,14.3-5.5
	c-2.5,0.2-5,1.3-6.4,3.3c-1.4,2-1.5,5.1,0.2,6.9c2.4-1.9,3.9-5,4-8.1c1.7,10.1,2.5,20.4,2.4,30.6c0,2.2-0.7,5-2.9,5.1
	c-2.6-4.5-2.6-10-1.7-15.1c1.6-8.8,5.8-17.1,11.9-23.7c-4.1,2.9-5.4,9.2-2.7,13.5c2-3.5,2.9-7.5,2.7-11.5c1.1,2.5,2.2,5.1,3.3,7.6
	c0.4,0.8,1,1.8,1.9,1.7c0.4-0.1,0.7-0.3,1-0.5c3-2.7,4.4-7,3.5-11c1,3.4,2,6.9,2.9,10.3c-1.2-1.7-1.9-3.8-1.9-5.9
	c0-0.6,0.1-1.4,0.6-1.8c0.4-0.3,0.9-0.4,1.5-0.4c3-0.3,6-1.3,8.7-2.8c0.5-0.3,1.1-0.7,1.2-1.3c0.1-0.6-0.6-1.3-1.1-0.9
	c1.2,3.7,2.3,7.4,3.5,11.2c-0.1-3.2,1.1-6.4,3.3-8.7c1.2,2.6,2.1,5.3,2.6,8c0.3-2.8,1.6-5.6,3.6-7.6c0.3,2.6,1,5.2,2.1,7.7
	c0.3,0.7,0.6,1.3,1.2,1.8c1,0.8,2.5,0.6,3.7,0c4.3-2,5.7-8.4,2.7-12c-1.3,1.9-1.9,4.2-1.8,6.5c0.1,2.6,1.8,5.5,4.4,5.6
	c1.9,0.1,3.5-1.4,4.8-2.9c1.8-2.1,3.5-4.9,2.5-7.5c0.5,3.4,1,6.7,1.4,10.1c-0.1-2.3,0.7-4.7,2.1-6.6c0.5,1.4,1,2.8,1.6,4.3
	c0.3,0.7,0.7,1.6,1.5,1.6c0.7,0,1.1-0.7,1.4-1.4c3.3-7.2,3-15.4,2.6-23.2c-1,7-0.4,14.1,1.6,20.9c0.4,1.3,1.2,2.9,2.5,3
	c0.8,0,1.5-0.4,2.1-0.9c2.2-1.7,4.2-3.8,5.7-6.2c0.3-0.4,0.6-0.9,1.1-1.1c1.1-0.5,2.2,0.8,2.8,1.9c1.9,3.3,3.8,7,2.8,10.7
	c-1.2,0.3-2.4-0.9-2.6-2.1c-0.2-1.2,0.4-2.5,1.1-3.5c2-3.1,4.9-5.7,8.4-7.1"/>
<path id="XMLID_62_" class="st1" d="M248.5,134.2c-0.2,0.2-0.4,0.5-0.6,0.7c4.4,1.4,9.2,1.7,13.8,1"/>
</svg>
