<?xml version="1.0" encoding="UTF-8" standalone="no"?>
<svg
   xmlns:dc="http://purl.org/dc/elements/1.1/"
   xmlns:cc="http://creativecommons.org/ns#"
   xmlns:rdf="http://www.w3.org/1999/02/22-rdf-syntax-ns#"
   xmlns:svg="http://www.w3.org/2000/svg"
   xmlns="http://www.w3.org/2000/svg"
   xmlns:sodipodi="http://sodipodi.sourceforge.net/DTD/sodipodi-0.dtd"
   xmlns:inkscape="http://www.inkscape.org/namespaces/inkscape"
   inkscape:version="1.0beta2 (2b71d25, 2019-12-03)"
   sodipodi:docname="1.svg"
   id="svg23"
   style="display:block"
   version="1.1"
   viewBox="0 0 1250 550"
   height="550"
   width="1250"
   y="0"
   x="0">
  <metadata
     id="metadata27">
    <rdf:RDF>
      <cc:Work
         rdf:about="">
        <dc:format>image/svg+xml</dc:format>
        <dc:type
           rdf:resource="http://purl.org/dc/dcmitype/StillImage" />
        <dc:title></dc:title>
      </cc:Work>
    </rdf:RDF>
  </metadata>
  <sodipodi:namedview
     inkscape:current-layer="svg23"
     inkscape:window-maximized="1"
     inkscape:window-y="23"
     inkscape:window-x="1440"
     inkscape:cy="427.5"
     inkscape:cx="733"
     inkscape:zoom="0.63028649"
     showguides="true"
     showgrid="false"
     id="namedview25"
     inkscape:window-height="1035"
     inkscape:window-width="1920"
     inkscape:pageshadow="2"
     inkscape:pageopacity="0"
     guidetolerance="10"
     gridtolerance="10"
     objecttolerance="10"
     borderopacity="1"
     inkscape:document-rotation="0"
     bordercolor="#666666"
     pagecolor="#ffffff" />
  <defs
     id="defs15">
    <clipPath
       id="c_1">
      <path
         inkscape:connector-curvature="0"
         id="path10"
         d="M 0,0 H 1466 V 855 H 0 Z" />
    </clipPath>
    <style
       id="style13"
       type="text/css"><![CDATA[

.g0{
fill: none;
stroke: #FFFFFF;
stroke-width: 19.861;
stroke-linecap: butt;
stroke-linejoin: miter;
}

]]></style>
  </defs>
  <g
     transform="translate(-89.19481,-203.08226)"
     id="g21"
     clip-path="url(#c_1)">
    <path
       inkscape:connector-curvature="0"
       id="path19"
       class="g0"
       d="m 826.9,373.2 c 6.6,12.2 10.3,26.1 10.3,40.8 0,47.3 -38.3,85.6 -85.5,85.6 -47.3,0 -85.6,-38.3 -85.6,-85.6 0,-47.2 38.3,-85.5 85.6,-85.5 17.7,0 34.1,5.4 47.8,14.6 m 496.4,111.7 c 6.6,-12.1 10.4,-26 10.4,-40.8 0,-47.2 -38.4,-85.5 -85.6,-85.5 -47.3,0 -85.6,38.3 -85.6,85.5 0,47.3 38.3,85.6 85.6,85.6 17.7,0 34.2,-5.4 47.8,-14.6 M 115.6,510.3 c -0.9,-70.7 16.3,-181.8 95.2,-181.8 114.6,0 50.4,171.1 148.2,171.1 88.6,0 43.7,-171.1 146.7,-171.1 69.3,0 92.2,87.6 92.2,179.2 m 313.6,2.6 c -1.5,-55 -8.6,-126.8 14.3,-158.9 18.4,-25.7 47.4,-22.3 59.6,-22.9 m 75.6,-10.7 c 1.6,55 5.4,318.3 -14,363.1 -15.9,37 -46.1,42.7 -58.3,43.3 M 1061,226.1 V 246" />
  </g>
</svg>
