<?xml version="1.0" encoding="utf-8"?>
<!-- Generator: Adobe Illustrator 24.0.1, SVG Export Plug-In . SVG Version: 6.00 Build 0)  -->
<svg version="1.1" id="Layer_1" xmlns="http://www.w3.org/2000/svg" xmlns:xlink="http://www.w3.org/1999/xlink" x="0px" y="0px"
	 viewBox="0 0 1069.12 331.01" style="enable-background:new 0 0 1069.12 331.01;" xml:space="preserve">
<style type="text/css">
	.st0{fill:none;stroke:#FFFFFF;stroke-width:22;stroke-miterlimit:10;}
</style>
<g>
	<path class="st0" d="M651.27,86c3.1,8.54,4.47,17.91,3.67,27.69c-2.6,31.89-28.7,57.49-60.64,59.5
		c-39.28,2.47-73.74-29.93-71.24-69.21c2.07-32.5,30.6-58.82,63.11-60.73c12.24-0.72,23.8,1.95,33.84,7.16"/>
	<path class="st0" d="M53.77,187.67c0.51-49.43-8.02-142.32,74.06-144.1c76.76-1.67,75.68,71.86,135.38,78.09
		c58.15,6.07,57.2-77.12,126.74-78.09c82.34-1.15,75.62,98.84,75.99,144.1"/>
	<path class="st0" d="M721.8,187.6c0-31.15,0.18-75.17,0.18-94.13c0-17.16-0.7-50.2,31.55-50.4"/>
	<path class="st0" d="M818.62,105.94c0,31.15-0.35,111.24-0.35,130.2c0,17.08,0.96,55.89-37.07,55.37"/>
	<path class="st0" d="M985.69,163.33c-12,7.78-26.69,11.71-42.29,10.09c-31.97-3.33-57.03-30.19-58.15-62.31
		c-1.34-38.42,30.39-69.33,68.38-67.41c33.39,1.69,60.5,29.09,61.72,62.5c0.22,6-0.37,11.82-1.66,17.35"/>
	<ellipse class="st0" cx="818.75" cy="47.37" rx="7.62" ry="7.87"/>
</g>
</svg>
