<?xml version="1.0" encoding="utf-8"?>
<!-- Generator: Adobe Illustrator 24.0.1, SVG Export Plug-In . SVG Version: 6.00 Build 0)  -->
<svg version="1.1" id="Layer_1" xmlns="http://www.w3.org/2000/svg" xmlns:xlink="http://www.w3.org/1999/xlink" x="0px" y="0px"
	 viewBox="0 0 1478.71 413.88" style="enable-background:new 0 0 1478.71 413.88;" xml:space="preserve">
<style type="text/css">
	.st0{fill:#545554;}
</style>
<g>
	<g>
		<path d="M46.62,109.11c-6.12-22.35-8.3-45.89-7.57-69.02c0.17-5.42,0.24-11.04,2.16-16.18c0.89-2.4,2.25-4.98,4.51-6.35
			c1.91-1.16,4.69-1.69,6.86-0.96c1.56,0.52,3.07,1.91,4.28,2.97c1.53,1.34,2.43,2.95,3.34,4.76c2.15,4.28,4.14,9.93,2.08,14.6
			c-1.88,4.27-5.29,7.31-9.69,8.81c-4.77,1.62-9.91,1.85-14.9,2.24c-1.59,0.12-1.61,2.63,0,2.5c8.99-0.7,19.45-1.12,25.07-9.31
			c1.37-2,2.44-4.26,2.73-6.68c0.34-2.79-0.17-5.65-1.03-8.31c-0.85-2.66-2.06-5.22-3.49-7.61c-1.02-1.69-2.45-2.92-4.01-4.11
			c-1.66-1.28-3.21-2.31-5.33-2.55c-2.53-0.29-5.18,0.21-7.34,1.58c-4.83,3.06-6.48,9.69-7.15,14.99
			c-0.74,5.86-0.73,11.87-0.72,17.76c0.01,6.19,0.24,12.37,0.69,18.54c1.05,14.49,3.25,28.96,7.09,42.98
			C44.63,111.33,47.05,110.67,46.62,109.11L46.62,109.11z"/>
	</g>
</g>
<g>
	<g>
		<path d="M65.4,84.74c-5.16-0.56-11.07,1.74-14.36,5.79c-2.49,3.07-3.02,7.46-2.87,11.3c0.12,3.28,0.95,7.58,4.4,8.94
			c4.38,1.73,8.83-2.02,10.78-5.63c2.8-5.17,2.94-11.49,2.76-17.23c-0.04-1.35-2.17-1.77-2.46-0.33c-0.66,3.25-1,6.6-0.98,9.92
			c0.01,3.11,0.26,6.49,1.69,9.32c1.2,2.37,3.5,3.74,6.17,3.18c1.71-0.36,2.78-2.12,3.52-3.57c2.62-5.13,3.71-11.14,4.78-16.74
			c1.51-7.88,2.57-15.84,3.48-23.81c1.01-8.79,1.8-17.61,2.36-26.44c0.1-1.61-2.38-1.59-2.5,0c-1.36,18.13-3.33,36.39-2.93,54.6
			c0.07,3.19,0.21,6.42,0.78,9.57c0.31,1.7,0.78,4.07,2.44,5.01c0.35,0.2,0.77,0.31,1.18,0.32c0.2,0,0.5,0.02,0.66-0.08
			c0.27-0.16-0.69-0.13-0.36,0c0.11,0.04,0.38,0.06,0.53,0.06c0.98,0,1.81-0.59,2.42-1.31c1.71-2.03,2.54-4.84,3.51-7.27
			c1.29-3.23,2.63-6.69,4.9-9.38c2.32-2.75,5.24-3.58,8.63-2.28c0.22-0.8,0.44-1.61,0.66-2.41c-6.59-1.51-12.68,3.66-14.85,9.57
			c-1.03,2.8-1.13,6.06,0.35,8.73c1.81,3.27,5.52,4.74,9.05,5.22c2.93,0.4,5.96,0.83,8.23-1.36c2.18-2.1,3.59-5.07,4.81-7.79
			c4.02-8.98,6.51-18.7,8.54-28.29c2.19-10.4,3.85-21.08,3.94-31.73c0.01-1.1-0.01-2.2-0.04-3.29c-0.05-1.62-2.41-1.6-2.5,0
			c-0.63,10.95-1.45,21.88-2.06,32.83c-0.59,10.37-1.35,20.89-0.77,31.28c0.08,1.51,0.2,3.03,0.49,4.51c0.17,0.9,0.42,1.95,1.1,2.62
			c0.87,0.85,2.19,0.64,2.84-0.35c0.64-0.97,0.72-2.33,0.84-3.45c0.46-4.03,0.54-8.09,1.2-12.1c0.65-3.91,1.67-8.6,4.84-11.29
			c0.94-0.8,3.02-2.07,4.09-1.29c1.34,0.98,1.28,3.62,1.31,5.09c0.13,5.96-0.91,11.92-0.12,17.87c0.18,1.36,0.45,2.7,0.91,4.01
			c0.17,0.49,0.64,0.96,1.21,0.92c1.86-0.14,3.36-1.38,4.58-2.7c1.81-1.96,3.22-4.3,4.41-6.67c2.66-5.29,4.66-11.44,4.35-17.43
			c-0.83,0-1.67,0-2.5,0c0.23,3.76,0.2,7.52,0.43,11.28c0.22,3.57,0.49,7.4,1.95,10.71c1.15,2.59,3.46,4.3,6.34,3.32
			c3.68-1.25,5.18-6.08,6.05-9.45c1.4-5.43,1.84-11.19,1.66-16.78c-0.05-1.61-2.46-1.61-2.5,0c-0.09,3.74,0.17,7.49,0.72,11.19
			c0.5,3.39,1.22,7.07,3.04,10.04c1.33,2.17,4.04,4.22,6.61,2.66c2.81-1.71,3.11-5.76,3.18-8.69c0.1-4.58-0.61-9.13-0.71-13.7
			c-0.42,0.42-0.83,0.83-1.25,1.25c7.1,0.46,14.05,0.13,21.14-0.36c-0.29-0.71-0.59-1.42-0.88-2.13c-3.06,2.51-5.31,6.11-6.76,9.76
			c-1.4,3.53-2.09,7.93-0.01,11.34c1.12,1.83,2.88,3.06,4.85,3.82c1.22,0.47,2.51,0.73,3.8,0.9c1.46,0.19,3.13,0.4,4.57,0.06
			c4.89-1.15,6.23-6.59,5.93-10.97c-0.37-5.42-2.62-11.68-7.25-14.88c-0.21,0.78-0.42,1.55-0.63,2.33
			c5.31-0.16,11.14-0.51,14.93-4.75c-0.7-0.18-1.39-0.37-2.09-0.55c2.34,9.29,3.31,18.87,5.65,28.16c0.35,1.37,2.47,1.08,2.46-0.33
			c-0.02-2.72-0.61-5.46-1.01-8.15c-0.53-3.57-1.03-7.16-1.13-10.77c-0.07-2.53-0.23-6.1,1.47-8.22c2.16-2.69,6.61-1.35,9.4-0.76
			c3.53,0.74,7.41,1.43,10.47-0.97c2.2-1.72,3.87-4.07,5.09-6.57c2.81-5.73,3.73-12.33,3.81-18.65c0.07-5.76-0.46-11.85-2.45-17.3
			c-0.66-1.82-1.51-3.78-2.96-5.12c-0.56-0.52-1.22-0.94-1.96-1.13c-0.36-0.09-0.71-0.1-1.07-0.09c-0.13,0-0.33,0.05-0.43,0.06
			c0.29-0.03,0.11-0.02,0.05-0.02c-0.23,0.03-0.47,0.05-0.7,0.11c-3.59,0.92-4.46,5.86-4.9,8.92c-0.88,6.18-0.64,12.51-0.24,18.72
			c0.97,15.29,3.32,30.58,6.47,45.57c0.32,1.53,0.66,3.06,1.01,4.58c0.76-0.32,1.52-0.64,2.28-0.96
			c-3.84-5.39-3.65-12.88-0.03-18.34c0.81-1.22,2.01-2.82,3.33-3.52c0.33-0.17,0.74-0.24,1.1-0.21c0.35,0.03,0.36,0.08,0.44,0.21
			c0.09,0.15,0.09,0.32,0.09,0.61c0,0.44-0.11,0.86-0.23,1.28c-0.31,1.06-0.83,2.05-1.41,2.98c-1.08,1.73-3.02,4.35-5.24,4.61
			c-0.86,0.1-1.66,1.01-1.08,1.88c3.08,4.65,6.53,11.25,12.75,11.9c0.65,0.07,1.3,0.06,1.95-0.02c0.95-0.11,1.34-0.5,1.94-1.21
			c1.03-1.21,1.9-2.54,2.63-3.95c1.51-2.94,2.45-6.13,3.21-9.33c0.82-3.49,1.41-7.03,2.38-10.48c-0.51,0.29-1.03,0.58-1.54,0.87
			c5.02,0.87,8.49,5.45,10.63,9.75c2.01,4.04,3.74,9.5,2.36,14.01c-0.26,0.85-0.62,1.74-1.47,2.12c-1.08,0.48-2.53,0.96-3.69,0.45
			c-2.23-0.99-1.77-4.64-1.02-6.45c1.93-4.7,7.56-7.15,12.01-8.74c6.32-2.26,12.97-3.46,19.57-4.61c1.58-0.28,0.91-2.68-0.66-2.41
			c-6.74,1.17-13.56,2.4-20,4.77c-5.31,1.95-11.48,4.97-13.46,10.72c-0.94,2.73-0.82,6.6,1.68,8.48c2.24,1.68,6.6,1.05,8.26-1.2
			c3.15-4.26,1.59-11.01-0.14-15.5c-2.27-5.87-6.7-12.62-13.4-13.79c-0.67-0.12-1.34,0.17-1.54,0.87
			c-1.94,6.91-2.34,14.54-6.21,20.77c-0.43,0.69-0.94,1.66-1.59,2.16c-0.54,0.41-1.31,0.32-2.01,0.2c-1.54-0.25-2.9-1.08-4.04-2.11
			c-2.66-2.39-4.47-5.58-6.42-8.53c-0.36,0.63-0.72,1.25-1.08,1.88c2.96-0.34,5.22-2.72,6.86-5.03c1.4-1.97,3.13-5.03,2.38-7.55
			c-0.33-1.09-1.19-1.82-2.3-2.03c-1.88-0.36-3.25,0.58-4.57,1.81c-2.97,2.76-4.86,6.64-5.47,10.63c-0.71,4.63,0.17,9.47,2.91,13.32
			c0.81,1.13,2.61,0.47,2.28-0.96c-3.24-14.13-5.53-28.57-6.87-43c-0.61-6.62-1.06-13.31-0.75-19.96c0.11-2.39,0.31-4.8,0.86-7.13
			c0.35-1.52,0.88-3.14,1.76-4.06c0.31-0.33,0.12-0.16,0.44-0.36c0.18-0.11,0.27-0.14,0.17-0.1c0.15-0.05,0.3-0.09,0.45-0.13
			c-0.16,0.04,0.03-0.01,0.26-0.03c0.26-0.02-0.08-0.04,0.3-0.02c0.09,0,0.32,0.06,0.37,0.08c0.52,0.25,0.92,0.67,1.25,1.11
			c0.54,0.72,0.96,1.54,1.31,2.37c2.09,4.85,2.64,10.49,2.73,15.72c0.11,6.08-0.54,12.45-2.93,18.1c-1.03,2.43-2.44,4.76-4.42,6.54
			c-2.68,2.42-6.11,1.6-9.33,0.91c-3.34-0.71-7.21-1.56-10.24,0.53c-2.29,1.58-2.95,4.39-3.22,7.01
			c-0.67,6.59,0.89,13.28,1.75,19.78c0.14,1.02,0.26,2.05,0.27,3.08c0.82-0.11,1.64-0.22,2.46-0.33
			c-2.34-9.29-3.31-18.87-5.65-28.16c-0.22-0.88-1.46-1.25-2.09-0.55c-3.33,3.72-8.51,3.88-13.16,4.02
			c-1.29,0.04-1.64,1.64-0.63,2.33c3.46,2.39,5.18,7.12,5.83,11.09c0.52,3.21,0.53,8.36-3.03,9.92c-1.12,0.49-2.37,0.34-3.56,0.25
			c-1.17-0.09-2.32-0.28-3.44-0.62c-1.61-0.49-3.17-1.34-4.13-2.76c-1.8-2.66-1.13-6.22-0.11-9.05c1.26-3.48,3.46-6.89,6.34-9.25
			c0.83-0.68,0.16-2.21-0.88-2.13c-7.09,0.48-14.04,0.82-21.14,0.36c-0.67-0.04-1.26,0.61-1.25,1.25c0.07,3.56,0.52,7.09,0.66,10.65
			c0.11,2.7,0.48,6.59-1.22,8.93c-1.37,1.87-3.15,0.14-3.98-1.29c-1.53-2.62-2.14-5.82-2.6-8.79c-0.57-3.62-0.78-7.32-0.7-10.98
			c-0.83,0-1.67,0-2.5,0c0.15,4.49-0.14,9.04-0.98,13.46c-0.39,2.02-0.88,4.05-1.64,5.97c-0.56,1.43-1.35,3.16-2.64,4.08
			c-4.9,3.51-5.6-8.93-5.75-11.29c-0.23-3.76-0.2-7.52-0.43-11.28c-0.1-1.6-2.58-1.61-2.5,0c0.28,5.34-1.42,10.81-3.72,15.57
			c-1.03,2.14-2.22,4.27-3.74,6.1c-0.81,0.98-2.18,2.54-3.39,2.63c0.4,0.31,0.8,0.61,1.21,0.92c-1.95-5.55-1.01-11.83-0.76-17.57
			c0.14-3.4,0.82-10.2-3.61-11.37c-1.94-0.51-4.23,0.72-5.7,1.9c-1.57,1.26-2.72,2.99-3.55,4.81c-1.89,4.15-2.5,8.78-2.92,13.29
			c-0.19,2-0.31,4.01-0.48,6.01c-0.06,0.73-0.13,1.43-0.22,2.02c-0.04,0.27-0.09,0.54-0.16,0.81c-0.05,0.18-0.22,0.71-0.11,0.43
			c-0.11,0.3-0.04,0.09,0.02,0.07c0.23-0.1,0.46-0.2,0.62-0.15c0.27,0.08,0.13,0.05,0.24,0.12c0.26,0.15-0.04,0.01-0.01-0.04
			c0.01-0.03,0.15,0.31,0.06,0.06c-0.02-0.05-0.17-0.36-0.09-0.16c-0.26-0.66-0.48-2.07-0.57-2.92c-0.42-4.05-0.35-8.17-0.28-12.24
			c0.1-5.64,0.35-11.27,0.64-16.9c0.59-11.34,1.41-22.67,2.11-34c0.07-1.07,0.13-2.15,0.19-3.22c-0.83,0-1.67,0-2.5,0
			c0.32,9.53-0.95,19.13-2.65,28.49c-1.75,9.59-4.04,19.17-7.36,28.34c-1.19,3.29-2.51,6.59-4.32,9.6c-0.6,1-1.2,1.91-2,2.73
			c-0.61,0.63-1.04,0.97-1.73,1.08c0.37-0.06-0.07-0.01-0.17-0.02c-0.4-0.03,0.86-0.01-0.25-0.03c-0.33-0.01-0.67,0.01-1.01,0.01
			c-1.18,0-2.36-0.06-3.53-0.26c-1.74-0.29-3.5-0.81-4.95-1.85c-2.08-1.49-2.91-3.89-2.63-6.37c0.63-5.62,6.4-11.75,12.41-10.37
			c1.59,0.37,2.15-1.84,0.66-2.41c-3.01-1.15-6.26-1.01-8.91,0.92c-2.56,1.86-4.23,4.71-5.57,7.52c-1.33,2.79-2.32,5.71-3.58,8.53
			c-0.37,0.83-1.01,2.12-1.4,2.61c-0.13,0.16-0.27,0.32-0.43,0.46c-0.06,0.05,0-0.09-0.19,0.12c-0.02,0.02,0,0,0.01,0
			c-0.05-0.02-0.4-0.01,0.01,0.02c-0.27-0.01-0.48-0.03-0.75-0.02c-0.06,0-0.15,0.04-0.21,0.05c0.6-0.17,0.05,0.03,0.07-0.02
			c0.1-0.21,0.12,0.22-0.04-0.02c0.06,0.09,0.26,0.14,0.07,0.01c-0.2-0.12,0.18,0.23,0.03,0.03c-0.05-0.07-0.38-0.45-0.16-0.15
			c-0.5-0.7-0.62-1.22-0.85-2.19c-0.68-2.8-0.8-5.75-0.89-8.62c-0.3-8.81,0.19-17.65,0.73-26.44c0.6-9.88,1.43-19.74,2.17-29.61
			c-0.83,0-1.67,0-2.5,0c-0.94,14.82-2.38,29.68-4.82,44.34c-1,6.05-2.1,12.18-4.09,18c-0.58,1.71-1.24,3.51-2.33,4.97
			c-0.29,0.39-0.61,0.73-1.08,0.83c-0.89,0.19-1.77-0.08-2.42-0.69c-2.04-1.93-2.18-5.8-2.26-8.39c-0.1-3.43,0.19-6.9,0.87-10.26
			c-0.82-0.11-1.64-0.22-2.46-0.33c0.15,4.45,0.08,9.06-1.31,13.33c-1.08,3.35-3.96,7.98-8.13,7.39c-2.73-0.38-3.32-3.99-3.47-6.2
			c-0.19-2.9-0.03-6.5,1.43-9.09c2.47-4.39,8.43-6.63,13.27-6.1C67,87.41,66.99,84.91,65.4,84.74L65.4,84.74z"/>
	</g>
</g>
<g>
	<g>
		<path d="M72.4,59.15c6.96-1.75,14.12-2.43,21.29-2.05c1.61,0.09,1.6-2.41,0-2.5c-7.38-0.39-14.79,0.33-21.96,2.14
			C70.17,57.13,70.83,59.54,72.4,59.15L72.4,59.15z"/>
	</g>
</g>
<g>
	<g>
		<path d="M324.17,107.27c5-2.36,8.82-5.97,11.51-10.78c1.86-3.33,3.3-7.2,6.9-9.04c1.22-0.62,2.58-0.96,3.92-1.17
			c0.84-0.13,1.69-0.19,2.55-0.22c0.26-0.01,0.95,0.11,1.16-0.02c0.15-0.09,1.5,0.98-0.56-0.17c0.1-0.76,0.2-1.52,0.3-2.28
			c0.73-0.17-0.35,0.04-0.5,0.06c-0.43,0.06-0.85,0.14-1.28,0.23c-1.39,0.32-2.75,0.83-3.99,1.53c-3.83,2.14-5.94,5.98-6.29,10.3
			c-0.36,4.57,1.01,8.94,4.95,11.58c5.61,3.77,12.4-0.46,15.96-5.09c2.17-2.81,3.16-6.4,1.96-9.84c-1.03-2.98-3.25-5.36-5.83-7.09
			c-0.1,0.76-0.2,1.52-0.3,2.28c6.39-1.46,12.52-4.17,17.75-8.15c4.02-3.06,8.14-7.08,10.05-11.86c1.6-4.01,2.35-8.41,2.86-12.68
			c0.51-4.27,0.87-9-0.36-13.19c-0.4-1.35-1.19-3.41-2.66-3.94c-1.5-0.54-3.39,0.16-4.58,1.06c-3.07,2.31-4.43,6.58-5.38,10.13
			c-0.85,3.21-1.53,6.62-1.64,9.95c-0.07,2.22,0.21,4.47,0.39,6.67c1.64,20.24,3.44,40.47,3.18,60.8
			c-0.07,5.78-0.31,11.57-0.83,17.33c-0.45,5.02-0.9,10.29-2.28,15.16c-0.32,1.13-1.31,4.7-2.94,4.58
			c-1.45-0.11-2.48-3.15-2.87-4.29c-1.22-3.6-1.11-7.53-0.44-11.23c1.66-9.17,6.17-17.76,11.03-25.61
			c4.08-6.59,8.65-13.04,13.95-18.73c0.68-0.73,1.37-1.44,2.12-2.1c1.21-1.07-0.57-2.83-1.77-1.77c-1.91,1.69-3.57,3.67-5.19,5.62
			c-2.57,3.11-5,6.34-7.29,9.66c-5.38,7.78-10.25,16.14-13.34,25.11c-2.49,7.22-4.15,16.17,0.09,23.09
			c1.09,1.78,3.02,3.48,5.22,2.41c1.97-0.96,2.97-3.38,3.62-5.33c0.74-2.23,1.07-4.62,1.43-6.93c0.42-2.65,0.75-5.31,1.01-7.98
			c2.22-22.23,0.7-44.8-1.12-67c-0.52-6.28-1.41-12.63-1.47-18.93c-0.03-2.95,0.61-6,1.3-8.84c0.79-3.23,1.88-7.76,4.77-9.82
			c0.48-0.34,1.02-0.58,1.61-0.63c0.16-0.01,0.38,0.04,0.53,0.01c0.01,0-0.36-0.41-0.11-0.1c0.17,0.21,0.34,0.37,0.49,0.59
			c0.9,1.36,1.15,3.17,1.3,4.76c0.44,4.66-0.11,9.46-0.99,14.04c-0.77,3.97-1.75,7.7-4.17,10.99c-3.75,5.1-9.03,8.98-14.73,11.64
			c-2.94,1.37-6.04,2.39-9.21,3.11c-1.11,0.25-1.14,1.72-0.3,2.28c4.18,2.8,6.7,7.73,3.77,12.38c-2.57,4.09-8.69,8.61-13.44,5.25
			c-5.86-4.14-4.55-14.16,1.43-17.5c1.1-0.61,2.27-1.02,3.51-1.3c0.2-0.04,0.4-0.08,0.61-0.12c0.12-0.02,0.76-0.11,0.29-0.05
			c0.25-0.03,0.52-0.04,0.76-0.09c1.05-0.24,1.22-1.77,0.3-2.28c-0.81-0.45-2.1-0.16-2.95-0.09c-1.48,0.11-2.96,0.32-4.38,0.76
			c-2.14,0.65-4.09,1.81-5.59,3.48c-2.9,3.24-4.14,7.59-6.84,10.98c-2.2,2.77-5.07,4.77-8.26,6.27
			C321.46,105.8,322.72,107.96,324.17,107.27L324.17,107.27z"/>
	</g>
</g>
<g>
	<g>
		<path d="M364.02,113.62c6.36-9.93,14.86-19.68,25.87-24.51c1.47-0.64,0.2-2.8-1.26-2.16c-11.38,4.99-20.19,15.15-26.77,25.41
			C360.99,113.71,363.15,114.97,364.02,113.62L364.02,113.62z"/>
	</g>
</g>
<g>
	<g>
		<path d="M429.95,94.94c3.85-1.11,7.64-2.61,11.2-4.45c3.58-1.85,7.69-4.3,9.62-8.01c1.24-2.38,1.54-6.33-1.27-7.77
			c-1.89-0.97-3.85,0.37-5.12,1.73c-1.83,1.96-3.14,4.42-4.21,6.86c-1.25,2.84-2.25,5.82-2.8,8.89c-0.76,4.25-0.94,11.45,4.99,11.72
			c1.73,0.08,3.82-0.47,5.39-1.14c2.39-1.03,4.36-2.89,6-4.88c4-4.82,6.7-10.61,9.32-16.25c-0.78-0.21-1.55-0.42-2.33-0.63
			c-0.1,7.18-1.83,14.25-1.93,21.43c-0.02,1.43,2.05,1.67,2.46,0.33c1.84-6.13,3.81-12.64,7.2-18.11c0.58-0.93,1.25-1.88,2.1-2.45
			c0.02-0.01,0.29-0.09,0.14-0.08c0.33-0.03-0.04-0.03,0.36,0.04c0.25,0.04-0.05-0.01-0.09-0.08c-0.02-0.04,0.18,0.23,0.18,0.25
			c0.45,1.16,0.41,2.49,0.4,3.71c-0.02,1.8-0.18,3.59-0.36,5.38c-0.35,3.55-1.09,7.19-1,10.77c0.03,1.37,2.13,1.75,2.46,0.33
			c0.6-2.61,1.51-5.16,2.46-7.66c1.1-2.9,2.32-5.84,4.01-8.47c0.5-0.79,1.1-1.66,1.86-2.1c0.1-0.06,0.15-0.05,0.02-0.03
			c0.08-0.01,0-0.09,0.22,0.04c0.18,0.11,0.41,0.28,0.61,0.59c0.62,0.96,0.76,2.31,0.87,3.42c0.16,1.62,0.18,3.26,0.17,4.89
			c-0.01,3.29-0.35,6.71,0.25,9.96c0.25,1.33,2.02,1.04,2.41,0c1.4-3.73,2.51-7.57,4.18-11.19c1.55-3.35,3.6-6.78,7.14-8.29
			c-0.57-0.57-1.14-1.14-1.71-1.71c-2.2,3.19-2.61,7.9-2.44,11.65c0.16,3.51,1.05,8.47,4.93,9.72c1.57,0.51,3.62,0.17,5.13-0.43
			c1.64-0.64,3.03-1.8,4.12-3.16c2.32-2.89,3.68-6.78,3.15-10.49c-0.73-5.15-5.19-7.58-10.02-7.9c0,0.83,0,1.67,0,2.5
			c7.23-0.77,13.35-5.1,17.61-10.85c4.9-6.62,7.02-14.85,8.57-22.81c0.31-1.58-1.88-2.19-2.41-0.66
			c-3.67,10.55-5.62,21.86-6.96,32.93c-0.55,4.5-1.06,9.11-0.81,13.65c0.07,1.31,0.16,2.76,0.74,3.97c0.48,1.01,1.61,1.87,2.76,1.28
			c1.34-0.69,2.47-2.4,3.31-3.6c1.14-1.63,2.05-3.41,2.83-5.23c1.71-4,2.83-8.23,3.46-12.54c-0.82-0.11-1.64-0.22-2.46-0.33
			c-0.03,3.79-0.23,7.57-0.19,11.35c0.02,1.98,0.07,3.97,0.3,5.94c0.17,1.45,0.35,3.02,1.05,4.33c0.53,0.99,1.52,1.8,2.71,1.52
			c1.05-0.25,1.75-1.21,2.27-2.09c1.59-2.71,2.46-5.83,3.77-8.68c1.4-3.05,3.35-7.11,7.04-7.72c-0.32-0.76-0.64-1.52-0.96-2.28
			c-3,1.66-4.49,5.37-5.02,8.58c-0.55,3.32-0.39,7.26,1.9,9.94c2.15,2.52,5.93,2.86,8.5,0.84c2.74-2.16,4.67-5.75,5.27-9.16
			c0.79-4.42-1.12-8.28-5.61-9.48c0,0.8,0,1.61,0,2.41c2.89-0.47,5.64-1.54,8.52-2.07c1.27-0.23,2.59-0.28,3.85,0.02
			c1.31,0.31,3.4,0.97,3.93,2.3c2.17,5.49-0.88,11.49-1.07,17.05c-0.05,1.63,2.35,1.57,2.5,0c0.43-4.57,1.59-9.29,3.2-13.58
			c0.56-1.5,1.38-3.9,2.87-4.67c0.76-0.39,1.89,0.15,2.25,1.04c0.67,1.7,0.42,3.81,0.27,5.57c-0.2,2.28-0.55,4.53-0.8,6.8
			c-0.33,3.03-0.88,8.16,3.57,8.01c3.01-0.1,5.83-2.18,8.09-3.97c2.65-2.08,5.12-4.49,7.18-7.16c0.97-1.26-0.79-3.04-1.77-1.77
			c-1.83,2.37-3.98,4.52-6.28,6.43c-1.92,1.6-4.51,3.76-7.12,3.96c-0.32,0.02-0.79-0.06-0.96-0.1c-0.12-0.03,0.06,0.09-0.13-0.11
			c0.16,0.18-0.05-0.1-0.09-0.2c-0.12-0.3-0.21-1.14-0.21-1.74c-0.02-2.13,0.32-4.26,0.59-6.36c0.29-2.27,0.61-4.57,0.55-6.86
			c-0.04-1.7-0.28-3.66-1.52-4.94c-1.14-1.18-3.29-1.54-4.76-0.82c-1.75,0.86-2.75,2.92-3.49,4.62c-2.14,4.91-3.44,10.51-3.94,15.85
			c0.83,0,1.67,0,2.5,0c0.11-3.22,1.1-6.37,1.52-9.56c0.21-1.6,0.33-3.23,0.18-4.84c-0.15-1.52-0.43-3.47-1.36-4.74
			c-0.92-1.26-3.08-2.06-4.53-2.49c-1.42-0.42-2.92-0.51-4.4-0.35c-3.34,0.38-6.49,1.72-9.8,2.26c-1.26,0.21-1.12,2.11,0,2.41
			c6.63,1.78,3.65,10.15,0.17,13.63c-1.59,1.59-3.92,2.07-5.65,0.27c-1.79-1.87-1.88-5.02-1.57-7.42c0.35-2.66,1.42-6.07,3.93-7.46
			c1.32-0.73,0.36-2.51-0.96-2.28c-3.1,0.52-5.3,3.06-6.84,5.62c-1.75,2.89-2.88,6.09-4.17,9.2c-0.45,1.08-0.9,2.22-1.57,3.18
			c-0.11,0.16-0.46,0.45-0.47,0.5c0.02-0.15,0,0.12,0.27-0.02c0.11-0.05,0.1,0.17-0.02-0.04c-1.28-2.29-1.15-6.01-1.19-8.73
			c-0.06-3.99,0.15-7.96,0.19-11.95c0.01-1.36-2.25-1.76-2.46-0.33c-0.94,6.38-2.79,13.83-7.27,18.73
			c-0.21,0.23-0.42,0.45-0.65,0.66c-0.1,0.1-0.25,0.19-0.33,0.31c-0.2,0.28-0.37,0.07,0.05,0.11c0.24,0.03,0.51-0.02,0.47-0.04
			c0.15,0.08,0.16,0.2,0.09,0.04c-0.14-0.36-0.04,0.04-0.16-0.37c-0.35-1.19-0.39-2.26-0.42-3.55c-0.11-4.3,0.35-8.63,0.87-12.89
			c0.65-5.34,1.55-10.65,2.62-15.92c1.12-5.46,2.4-10.92,4.23-16.19c-0.8-0.22-1.61-0.44-2.41-0.66c-1.44,7.4-3.33,14.96-7.65,21.27
			c-3.69,5.4-9.46,9.84-16.11,10.55c-1.58,0.17-1.63,2.39,0,2.5c3.34,0.22,6.61,1.62,7.44,5.14c0.68,2.88-0.34,6.05-1.95,8.43
			c-1.44,2.13-3.96,3.99-6.68,3.62c-2.84-0.39-3.43-4.6-3.59-6.83c-0.25-3.51-0.01-8,2.06-11c0.8-1.15-0.7-2.14-1.71-1.71
			c-3.79,1.62-6.19,5.29-7.89,8.88c-1.85,3.9-3.06,8.05-4.58,12.09c0.8,0,1.61,0,2.41,0c-0.6-3.2-0.16-6.65-0.16-9.88
			c-0.01-2.88,0.16-6.59-1.48-9.13c-1.46-2.27-3.94-2.04-5.6-0.17c-2.12,2.39-3.43,5.54-4.64,8.46c-1.36,3.26-2.64,6.64-3.43,10.08
			c0.82,0.11,1.64,0.22,2.46,0.33c-0.08-3.53,0.64-7.12,0.99-10.63c0.2-1.99,0.38-4,0.37-6c-0.01-1.41-0.03-3.03-0.67-4.32
			c-1.23-2.51-3.99-1.76-5.6,0.08c-2.39,2.74-3.8,6.4-5.13,9.73c-1.44,3.61-2.69,7.3-3.8,11.03c0.82,0.11,1.64,0.22,2.46,0.33
			c0.1-7.18,1.83-14.25,1.93-21.43c0.02-1.18-1.79-1.79-2.33-0.63c-2.1,4.53-4.26,9.08-7.06,13.22c-1.29,1.91-2.75,3.76-4.53,5.25
			c-1.5,1.27-3.05,1.82-4.92,2.28c-0.98,0.24-1.93,0.38-2.75,0.16c-0.58-0.15-1.07-0.55-1.37-1.03c-0.94-1.5-0.94-3.65-0.76-5.58
			c0.46-5.05,2.4-10.35,5.17-14.59c0.54-0.83,1.05-1.52,1.76-2.21c0.51-0.5,1.03-0.87,1.44-0.97c0.35-0.09-0.17-0.02,0.17-0.03
			c0.37-0.01,0.03-0.02,0.15,0.01c0.32,0.08-0.13-0.1,0.16,0.06c0.22,0.12,0-0.07,0.25,0.2c0.12,0.13,0.35,0.45,0.46,0.91
			c0.16,0.68,0.13,1.39-0.05,2.05c-1.01,3.77-5.45,6.25-8.63,7.94c-3.53,1.87-7.29,3.36-11.13,4.47
			C427.74,92.98,428.4,95.39,429.95,94.94L429.95,94.94z"/>
	</g>
</g>
<g>
	<g>
		<path d="M531.64,71.46c1.61,0,1.61-2.5,0-2.5C530.03,68.96,530.02,71.46,531.64,71.46L531.64,71.46z"/>
	</g>
</g>
<g>
	<g>
		<path d="M508.14,61.01c9.84-0.09,19.68,0.22,29.5,0.94c1.61,0.12,1.6-2.38,0-2.5c-9.82-0.72-19.66-1.03-29.5-0.94
			C506.53,58.53,506.52,61.03,508.14,61.01L508.14,61.01z"/>
	</g>
</g>
<g>
	<g>
		<path d="M599.38,95.82c-3.68,12.4-9.51,24.07-17.18,34.48c-0.96,1.3,1.21,2.54,2.16,1.26c7.8-10.57,13.7-22.48,17.44-35.07
			C602.25,94.94,599.83,94.28,599.38,95.82L599.38,95.82z"/>
	</g>
</g>
<g>
	<g>
		<path d="M633.08,101.99c4.85-1.45,8.32-5.96,10.98-10c3.66-5.56,6.41-11.72,8.82-17.9c2.4-6.14,4.44-12.43,6.09-18.81
			c0.61-2.36,1.17-4.74,1.6-7.15c0.28-1.53,0.6-3.14,0.54-4.71c-0.04-1.19-0.77-2.98-2.3-2.1c-0.9,0.51-1.26,1.89-1.58,2.79
			c-1.47,4.14-2.39,8.5-3.33,12.78c-1.33,6.05-2.47,12.14-3.39,18.26c-0.83,5.5-1.59,11.08-1.65,16.65
			c-0.03,2.42-0.34,7.51,2.49,8.69c2.46,1.02,5.1-2.09,6.4-3.74c2.6-3.3,4.6-7.03,6.86-10.56c0.97-1.52,1.98-3.03,3.2-4.37
			c0.95-1.04-0.25-2.67-1.51-1.96c-4.32,2.42-7.03,6.65-6.65,11.68c0.32,4.2,2.3,8.25,5.83,10.66c3.92,2.67,9.19,1.92,12.43-1.47
			c3.3-3.44,2.64-9.26,0.83-13.3c-1.77-3.95-5.16-6.55-8.78-8.71c-0.21,0.78-0.42,1.55-0.63,2.33c6.35,0.11,12.66-0.95,18.62-3.14
			c-0.51-0.51-1.03-1.03-1.54-1.54c-1.11,3.11-1.53,6.56-1.76,9.84c-0.25,3.5-0.31,7.41,1.07,10.7c0.99,2.36,3.96,4.89,6.46,2.82
			c2.43-2.01,2.87-6.28,3.37-9.16c0.38-2.22,0.68-4.45,1.05-6.67c0.29-1.74,0.56-3.56,1.24-5.2c-0.8-0.22-1.61-0.44-2.41-0.66
			c-1.39,3.46-1.48,7.68-1.35,11.35c0.11,3.02,0.25,7.55,2.74,9.71c2.35,2.04,5-0.13,6.09-2.34c1.58-3.19,2.47-6.68,3.97-9.91
			c1.75-3.77,4.39-7.86,8.95-8.21c0-0.83,0-1.67,0-2.5c-6.3,0.64-9.86,7.29-10.81,12.93c-0.77,4.57,0.04,12.24,6.43,11.47
			c1.67-0.2,3.14-0.79,4.49-2.03c1.58-1.45,2.81-3.32,3.9-5.15c3-5.06,5.15-10.65,7.04-16.21c2.07-6.07,3.78-12.28,4.99-18.57
			c0.83-4.32,1.85-9.2,1.02-13.61c-0.24-1.25-0.83-2.67-2.15-3.1c-1.49-0.47-2.94,0.52-3.86,1.61c-3.08,3.65-3.78,9.33-4.39,13.88
			c-0.89,6.64-1.12,13.37-0.99,20.06c0.11,5.67,0.37,11.46,1.53,17.02c0.3,1.46,0.65,3.12,1.53,4.36c1.11,1.57,3.02,1.3,3.59-0.58
			c0.63-2.05,0.26-4.51,0.16-6.61c-0.14-2.84-0.34-5.75,0.07-8.57c0.28-1.95,0.93-4.45,3.07-4.78c2.41-0.37,3.13,1.07,3.63,3.31
			c0.66,2.99,0.6,6.13,0.71,9.18c0.08,2.52-0.02,5.45,1.04,7.79c2.32,5.15,8.17-1.47,10.1-3.58c4.11-4.49,8.12-9.66,10.45-15.32
			c0.71-1.72,1.5-4.04,0.52-5.81c-1.11-2.01-3.72-1.79-5.62-1.31c-7.87,2-6.06,14.07-4.42,19.78c0.9,3.12,2.82,7.95,6.83,7.62
			c2.42-0.2,4.08-2.39,5.33-4.25c1.69-2.54,3.02-5.31,4.48-7.98c1.43-2.61,2.94-5.38,5.17-7.4c1.69-1.53,3.67-2.01,5.74-0.93
			c0.21-0.78,0.42-1.55,0.63-2.33c-5.08,0-9.23,2.96-11.38,7.49c-1.77,3.74-2.98,8.94-0.35,12.53c1.56,2.13,3.68,3.24,6.33,3.27
			c2.38,0.03,5.06-0.8,6.5-2.8c0.9-1.26,1-2.88,1.26-4.36c0.33-1.93,0.63-3.87,0.89-5.81c0.55-4.14,0.95-8.3,1.17-12.48
			c0.5-9.31,0.16-18.65-0.92-27.91c-0.18-1.55-2.53-1.65-2.5,0c0.2,10.8-1.53,21.59-0.69,32.38c0.32,4.05,1.08,8.15,2.93,11.8
			c1.77,3.49,4.88,6.79,8.82,7.65c2.28,0.5,4.52,0.05,6.36-1.4c1.78-1.4,2.98-3.37,4.7-4.83c1.23-1.05-0.55-2.81-1.77-1.77
			c-2.65,2.26-4.49,6.46-8.62,5.59c-3.66-0.77-6.27-4.06-7.72-7.31c-1.55-3.46-2.08-7.32-2.29-11.08c-0.27-4.84-0.07-9.69,0.2-14.52
			c0.31-5.5,0.68-11,0.58-16.51c-0.83,0-1.67,0-2.5,0c1.67,14.25,1.57,28.73-0.62,42.92c-0.27,1.73-0.49,3.51-0.9,5.22
			c-0.21,0.89-0.75,1.5-1.55,1.95c-1.7,0.97-4.17,1.1-5.92,0.19c-3.7-1.93-2.94-6.72-1.84-9.95c1.51-4.43,4.97-7.76,9.83-7.76
			c1.2,0,1.75-1.74,0.63-2.33c-2.29-1.19-4.79-1.31-7.05,0.02c-2.27,1.34-3.91,3.62-5.3,5.81c-1.6,2.52-2.93,5.21-4.36,7.83
			c-1.11,2.04-2.27,4.41-4.09,5.92c-0.56,0.46-1.21,0.85-2.08,0.58c-1.46-0.46-2.31-2.38-2.83-3.67c-1.3-3.22-1.83-6.84-1.92-10.3
			c-0.08-3.03,0.29-7.44,3.8-8.44c0.83-0.24,1.95-0.4,2.54-0.18c0.24,0.09,0.4,0.31,0.43,0.56c0.22,1.69-0.84,3.77-1.68,5.38
			c-1.33,2.56-2.96,4.98-4.68,7.29c-1.7,2.28-3.54,4.47-5.53,6.5c-1.18,1.21-2.78,2.95-4.24,3.43c-0.28,0.09-0.3,0.02-0.23,0.07
			c-0.04-0.03,0,0.08-0.19-0.18c0.15,0.21-0.13-0.24-0.17-0.32c-0.28-0.61-0.47-1.79-0.56-2.65c-0.29-2.78-0.25-5.59-0.39-8.38
			c-0.14-2.63-0.27-5.5-1.42-7.93c-1.06-2.25-3.18-3.1-5.6-2.76c-5.44,0.77-5.52,7.95-5.45,12.12c0.04,2.49,0.28,4.98,0.27,7.47
			c0,0.96-0.09,1.46-0.23,2.25c-0.01,0.03-0.03,0.01,0,0.02c0.03,0,0.1-0.02-0.04,0.03c-0.08,0.03,0.93-0.3,0.69-0.29
			c0.46-0.02-0.01,0.05,0.35,0.1c-0.13-0.02-0.02,0.07-0.02,0c0-0.06-0.18-0.26-0.01,0.02c-0.06-0.1-0.14-0.2-0.2-0.31
			c-0.05-0.1-0.1-0.2-0.15-0.29c-0.19-0.37-0.02,0-0.13-0.31c-0.26-0.71-0.46-1.44-0.63-2.18c-0.48-2.1-0.76-4.25-0.98-6.39
			c-0.61-5.96-0.74-11.98-0.58-17.97c0.16-5.86,0.55-11.8,1.83-17.54c0.46-2.07,1.02-4.19,2.01-6.03c0.42-0.78,0.7-1.19,1.25-1.74
			c0.24-0.24,0.17-0.2,0.56-0.42c-0.2,0.11,0.58-0.21,0.19-0.09c0.38-0.12-0.05,0.01,0-0.03c0.03-0.02,0.4,0.12,0.12,0.02
			c-0.3-0.12,0.12,0.06,0.1,0.08c-0.11,0.11-0.18-0.29,0.01,0.05c-0.21-0.37,0.11,0.23,0.17,0.35c-0.14-0.29,0.12,0.42,0.16,0.62
			c0.16,0.71,0.18,1.06,0.21,1.95c0.03,0.94-0.01,1.88-0.07,2.81c-0.35,5.12-1.49,10.2-2.75,15.17c-1.5,5.86-3.32,11.65-5.56,17.27
			c-1.74,4.36-3.75,9.07-6.69,12.71c-0.53,0.65-1.1,1.28-1.75,1.81c-0.19,0.16-0.29,0.24-0.65,0.45c-0.13,0.08-0.26,0.15-0.4,0.22
			c-0.21,0.1,0.1-0.02-0.28,0.1c-0.11,0.04-0.23,0.06-0.35,0.09c-0.29,0.07,0.22-0.03,0.03,0c-0.15,0.03-0.32,0.03-0.46,0.05
			c-0.5,0.08-0.99,0.17-1.49,0.11c-0.77-0.1-1.39-0.5-1.84-1.09c-1.37-1.8-1.3-4.59-1.03-6.71c0.35-2.73,1.32-5.45,2.86-7.74
			c1.29-1.92,3.23-3.67,5.62-3.91c1.58-0.16,1.62-2.62,0-2.5c-8.21,0.62-11.26,9.32-13.68,15.91c-0.48,1.31-0.94,2.64-1.61,3.87
			c-0.25,0.47-0.44,0.78-0.72,1.05c-0.11,0.1-0.66,0.4-0.86,0.43c-0.2,0.03-0.3-0.04-0.2,0c-0.29-0.12-0.28-0.15-0.46-0.35
			c-0.31-0.35-0.59-0.97-0.77-1.49c-0.56-1.6-0.77-3.32-0.88-5.01c-0.25-3.82-0.24-8.24,1.21-11.86c0.6-1.5-1.8-2.12-2.41-0.66
			c-1.18,2.8-1.39,6.07-1.84,9.04c-0.48,3.14-0.79,6.73-2.23,9.61c-0.21,0.41-0.43,0.84-0.79,1.14c-0.19,0.16-0.27,0.18-0.68,0.08
			c-0.93-0.2-1.51-1.08-1.88-1.94c-1.21-2.8-1.08-6.25-0.91-9.23c0.19-3.24,0.6-6.64,1.7-9.72c0.31-0.86-0.67-1.86-1.54-1.54
			c-5.77,2.12-11.81,3.16-17.96,3.05c-1.26-0.02-1.68,1.7-0.63,2.33c2.44,1.46,4.84,3.06,6.52,5.42c1.13,1.59,1.87,3.38,2.21,5.29
			c0.32,1.79,0.56,4.29-0.28,5.97c-1.56,3.12-5.75,4.6-8.92,3.3c-3.33-1.36-5.27-4.76-5.92-8.15c-0.87-4.56,1.27-8.47,5.25-10.7
			c-0.5-0.65-1.01-1.31-1.51-1.96c-2.51,2.75-4.35,6.09-6.29,9.25c-1.71,2.79-3.49,6.26-6.2,8.23c-0.43,0.32-0.87,0.41-1.32,0.64
			c0.02-0.01,0.21,0.12,0.03-0.01c0.27,0.2-0.19-0.28-0.02-0.02c-0.06-0.09-0.12-0.18-0.17-0.28c-0.15-0.3-0.04-0.06-0.08-0.15
			c-0.55-1.43-0.56-2.57-0.61-4.1c-0.16-4.84,0.43-9.72,1.07-14.5c0.78-5.79,1.8-11.56,2.96-17.28c0.96-4.7,1.98-9.41,3.29-14.02
			c0.22-0.78,0.45-1.56,0.7-2.32c0.1-0.31,0.21-0.62,0.32-0.92c0.07-0.2,0.33-0.82,0.21-0.56c0.08-0.17,0.17-0.34,0.24-0.51
			c0.15-0.34,0.08-0.13,0.07-0.12c-0.36,0.17-0.93,0.48-1.48-0.03c-0.31-0.29-0.04-0.42-0.16-0.11c0.09-0.24,0.01-0.02,0,0.29
			c0,0.3-0.01,0.59-0.03,0.89c-0.06,0.8-0.13,1.28-0.24,1.97c-0.33,2.08-0.78,4.14-1.27,6.19c-1.37,5.69-3.1,11.31-5.08,16.82
			c-2.18,6.06-4.68,12.04-7.84,17.65c-2.35,4.17-5.2,8.81-9.34,11.44c-0.78,0.49-1.53,0.86-2.39,1.12
			C630.88,100.04,631.54,102.45,633.08,101.99L633.08,101.99z"/>
	</g>
</g>
<g>
	<g>
		<path d="M639.21,65.1c11.43-1.78,22.86-3.57,34.29-5.35c1.58-0.25,0.91-2.66-0.66-2.41c-11.43,1.78-22.86,3.57-34.29,5.35
			C636.96,62.94,637.63,65.34,639.21,65.1L639.21,65.1z"/>
	</g>
</g>
<g>
	<g>
		<path d="M831.18,96.17c4.55-5.25,8.64-10.9,12.56-16.63c4.4-6.42,8.58-13.02,12.41-19.8c1.32-2.35,13.94-23.66,5.54-23.82
			c-3.89-0.08-6.91,4.04-8.59,7.03c-2.67,4.75-4.2,10.17-5.32,15.47c-1.28,6.07-1.99,12.29-2.12,18.5
			c-0.1,5.02,0.06,10.33,1.54,15.16c0.87,2.84,2.68,6.52,6.19,6.31c2.94-0.18,4.61-3.07,5.2-5.66c0.87-3.84,0.39-7.98-0.35-11.8
			c-0.37-1.9-0.85-3.77-1.45-5.61c-0.7,0.41-1.39,0.81-2.09,1.22c2.53,2.84,7.58,2.93,10.79,1.36c-0.61-0.47-1.22-0.94-1.84-1.41
			c-0.94,3.48-1.68,7.08-1.83,10.69c-0.12,2.87,0.09,6.54,2.48,8.53c2.1,1.75,5.05,1.17,6.86-0.7c2.02-2.09,2.97-5.15,3.66-7.9
			c0.82-3.27,1.25-6.62,1.64-9.96c-0.82,0.11-1.64,0.22-2.46,0.33c3.06,11.52,4.59,23.37,5.53,35.23c0.48,6.03,0.81,12.07,1.1,18.11
			c0.14,2.9,0.27,5.8,0.4,8.7c0.12,2.52,0.45,5.31-0.54,7.71c-1.55,3.78-5.99,3.99-9.26,2.43c-4.35-2.08-5.9-6.44-5.74-11.06
			c0.21-5.84,2.64-11.55,4.64-16.97c2.05-5.54,4.25-11.02,6.61-16.43c5.37-12.29,11.53-24.23,18.42-35.74
			c0.83-1.38-1.33-2.64-2.16-1.26c-6.58,10.98-12.49,22.35-17.68,34.05c-2.61,5.88-5.04,11.83-7.29,17.85
			c-2.11,5.67-4.55,11.54-5,17.63c-0.37,5.02,1.01,10.14,5.28,13.12c3.13,2.19,7.67,3.14,11.14,1.19c4.78-2.69,4.23-8.78,4.02-13.44
			c-0.3-6.46-0.58-12.92-0.99-19.38c-0.91-14.26-2.4-28.58-6.08-42.42c-0.39-1.46-2.3-0.99-2.46,0.33
			c-0.57,4.85-1.05,10.36-3.54,14.66c-0.78,1.36-2.31,3.1-4.07,2.28c-2.16-1-2.1-4.66-2.05-6.61c0.1-3.5,0.84-6.97,1.75-10.34
			c0.3-1.11-0.88-1.88-1.84-1.41c-2.25,1.1-6.01,1-7.76-0.97c-0.82-0.93-2.47,0.05-2.09,1.22c1.17,3.58,1.96,7.34,2.12,11.11
			c0.11,2.6,0.19,6.74-2.25,8.45c-0.19,0.13-0.37,0.21-0.57,0.29c-0.08,0.03-0.48,0.08-0.16,0.05c-0.19,0.02-0.89-0.02-0.6,0.03
			c-0.54-0.09-0.87-0.28-1.09-0.46c-0.97-0.81-1.57-2.06-2.01-3.32c-1.46-4.17-1.68-8.78-1.7-13.16
			c-0.03-5.63,0.48-11.27,1.45-16.81c0.91-5.18,2.16-10.43,4.31-15.24c0.84-1.89,1.83-3.79,3.12-5.4c0.98-1.23,2.25-2.38,3.48-2.83
			c0.31-0.12,0.64-0.22,0.97-0.27c-0.31,0.05,0.65,0.04,0.28,0c0.23,0.03,0.22,0.05,0.07,0c0.26,0.09,0.12,0.2,0.05,0.01
			c0.11,0.29,0.03-0.02,0.03,0c0,0.01,0.2,0.49,0.07,0.09c0.04,0.11,0.08,0.23,0.1,0.35c0.04,0.28,0-0.23,0.02,0.15
			c0.02,0.31,0.01,0.63-0.01,0.94c-0.04,0.54-0.25,1.44-0.46,2.2c-1.42,5.04-4.03,9.81-6.53,14.37
			c-6.66,12.14-14.36,23.96-23.05,34.75c-0.86,1.06-1.73,2.11-2.62,3.14C828.37,95.61,830.13,97.39,831.18,96.17L831.18,96.17z"/>
	</g>
</g>
<g>
	<g>
		<path d="M925.65,98.85c3.74-4.07,6.98-8.61,10.05-13.18c3.72-5.53,7.19-11.25,10.45-17.07c3.02-5.39,5.88-10.89,8.37-16.55
			c1.71-3.89,3.58-8.03,4.1-12.29c0.3-2.44-0.61-5.26-3.64-4.5c-2.78,0.7-4.74,3.37-6.01,5.77c-1.68,3.16-2.71,6.68-3.43,10.17
			c-0.58,2.82-0.86,5.69-1.32,8.53c-0.53,3.24-1.14,6.46-1.7,9.69c-1.08,6.13-2.4,12.53-2.1,18.79c0.09,1.92,0.31,4.24,1.66,5.74
			c1.37,1.53,3.41,1.41,5.12,0.56c2.98-1.48,5.01-4.47,6.43-7.37c1.71-3.52,2.81-7.32,3.59-11.14c0.38-1.84,0.67-3.7,0.92-5.56
			c0.19-1.46-2.04-1.6-2.46-0.33c-1.14,3.44-5.84,28,2.97,24.79c1.65-0.6,2.88-2.06,3.94-3.39c1.41-1.78,2.63-3.69,3.78-5.65
			c3-5.13,5.49-10.55,7.77-16.02c2.36-5.68,4.48-11.49,6.13-17.42c1.19-4.27,2.5-8.99,2.18-13.47c-0.1-1.37-0.35-2.93-1.36-3.96
			c-2.29-2.35-6.08,0.51-7.69,2.28c-3.01,3.33-3.27,7.78-3.69,12.07c-0.53,5.41-0.48,10.86-0.15,16.27
			c0.67,11.08,2.44,22.06,3.22,33.14c0.79,11.21,0.88,22.46,0.25,33.68c-0.16,2.8-0.36,5.61-0.6,8.4c0.83,0,1.67,0,2.5,0
			c0.13-2.84,0.25-5.67,0.38-8.51c0.07-1.61-2.43-1.6-2.5,0c-0.13,2.84-0.25,5.67-0.38,8.51c-0.07,1.62,2.36,1.58,2.5,0
			c0.9-10.45,1.21-20.95,0.89-31.44c-0.32-10.39-1.45-20.69-2.6-31.02c-1.12-10.1-2.04-20.33-0.86-30.46
			c0.24-2.05,0.36-4.53,1.18-6.45c0.61-1.43,1.75-2.76,2.97-3.71c0.54-0.42,1.19-0.85,1.86-1.01c0.46-0.11,0.81-0.08,0.94,0.01
			c0.16,0.11,0.29,0.43,0.43,0.95c0.81,3.02-0.22,7.25-0.97,10.45c-1.26,5.37-3.03,10.64-4.98,15.79
			c-2.04,5.39-4.34,10.69-6.96,15.82c-1.94,3.8-4.02,7.79-6.87,11c-0.45,0.5-0.92,1.03-1.46,1.43c0.16-0.12-0.28,0.17-0.38,0.22
			c-0.19,0.09-0.26,0.13-0.4,0.17c-0.34,0.11-0.26,0.08-0.52,0.03c0.21,0.04-0.09-0.04-0.19-0.12c0.19,0.14-0.13-0.16-0.17-0.2
			c0.01,0.01-0.28-0.52-0.33-0.67c-0.34-0.87-0.48-1.85-0.56-2.78c-0.45-5.04,0.27-10.35,1.39-15.27c0.21-0.94,0.45-1.88,0.76-2.8
			c-0.82-0.11-1.64-0.22-2.46-0.33c-0.47,3.55-1.2,7.09-2.26,10.51c-0.99,3.19-2.3,6.53-4.53,9.08c-0.89,1.02-2.02,2.07-3.32,2.52
			c-0.61,0.21-1.02,0.15-1.29,0c-0.28-0.16-0.6-0.62-0.79-1.13c-0.29-0.79-0.42-1.64-0.49-2.48c-0.46-5.55,0.67-11.29,1.6-16.74
			c0.97-5.68,2.06-11.33,2.83-17.04c0.43-3.19,1.17-6.36,2.25-9.39c0.94-2.64,2.26-5.76,4.64-7.41c0.39-0.27,0.8-0.48,1.24-0.63
			c0.1-0.03,0.2-0.05,0.31-0.07c0.29-0.06-0.23,0.02,0.1,0c0.43-0.03-0.2,0.04,0.23,0.04c-0.09,0-0.16-0.13-0.04,0.03
			c-0.18-0.24,0.01,0.12-0.02,0c0.06,0.19,0.12,0.64,0.1,0.38c0.05,0.54,0.02,1.09-0.05,1.62c0.03-0.2-0.03,0.21-0.05,0.29
			c-0.03,0.18-0.06,0.36-0.1,0.53c-0.08,0.39-0.17,0.77-0.27,1.15c-0.23,0.89-0.5,1.76-0.79,2.63c-0.69,2.05-1.5,4.06-2.36,6.04
			c-2.28,5.23-4.89,10.32-7.64,15.32c-5.53,10.06-11.57,20.16-18.93,29c-0.68,0.82-1.38,1.62-2.1,2.41
			C922.79,98.26,924.56,100.04,925.65,98.85L925.65,98.85z"/>
	</g>
</g>
<g>
	<g>
		<path d="M961.64,108.69c7.87-5.37,15.6-11.04,22.1-18.06c2.96-3.2,5.85-6.62,8.06-10.4c1.4-2.39,3.36-6.15,1.45-8.79
			c-0.94-1.3-2.54-1.75-4.07-1.89c-2.22-0.2-4.63,0.05-6.65,1.03c-3.46,1.67-4.51,5.45-4.56,9.01c-0.04,3.45,0.2,7.08,2.62,9.73
			c2.27,2.49,5.59,3.91,8.72,4.97c7.09,2.4,15.05,2.96,22.09,3.95c1.57,0.22,2.25-2.19,0.66-2.41c-5.75-0.81-11.51-1.26-17.18-2.57
			c-3.22-0.75-6.49-1.68-9.39-3.31c-2.17-1.22-4.25-2.92-4.69-5.5c-0.52-3.02-0.93-7.19,0.84-9.89c0.89-1.36,2.35-2.04,3.91-2.35
			c1.49-0.29,3.66-0.51,5.07,0.23c2.16,1.14-0.04,4.87-0.86,6.3c-1.96,3.41-4.5,6.48-7.13,9.39c-6.51,7.19-14.29,12.96-22.27,18.41
			C959.05,107.43,960.3,109.6,961.64,108.69L961.64,108.69z"/>
	</g>
</g>
<g>
	<g>
		<path d="M958.07,60.03c1.61,0,1.61-2.5,0-2.5C956.46,57.53,956.46,60.03,958.07,60.03L958.07,60.03z"/>
	</g>
</g>
<g>
	<g>
		<path d="M1066,75.2c-0.38,2.58-1.81,4.98-3.21,7.13c-1.85,2.83-4.04,5.44-6.48,7.77c-2.1,2-4.54,4.04-7.33,4.98
			c-1.59,0.54-4.16,0.82-5.34-0.7c-1.51-1.94-1-5.29-0.61-7.49c0.69-3.96,2.04-7.81,3.58-11.52c1.85-4.44,4.14-8.62,6.51-12.8
			c1.3-2.29,1.72-4.97,1.94-7.55c0.53-6.33-0.24-13.3-2.68-19.2c-0.89-2.15-2.28-5.13-4.63-5.99c-1.75-0.64-3.68-1.02-5.54-0.78
			c-5.02,0.65-6.54,5.74-6.68,10.13c-0.26,7.86,1.97,15.79,5.9,22.56c7.79,13.41,20.77,23.13,27.73,37.09
			c0.84,1.69,1.56,3.43,2.15,5.22c0.5,1.52,2.92,0.87,2.41-0.66c-4.9-14.85-17.61-25.09-26.53-37.4c-2.22-3.07-4.25-6.3-5.81-9.77
			c-1.64-3.64-2.56-7.53-3.05-11.49c-0.47-3.77-1.31-11.76,3.51-13.07c1.56-0.42,3.32-0.07,4.92,0.47c0.72,0.24,1.41,1.12,1.96,1.98
			c0.72,1.13,1.27,2.35,1.72,3.61c2.11,5.9,2.87,12.85,1.91,19.05c-0.19,1.24-0.46,2.53-0.95,3.69c-0.75,1.74-1.91,3.35-2.81,5.01
			c-2.18,4.04-4.12,8.23-5.68,12.55c-1.26,3.49-2.32,7.13-2.64,10.85c-0.21,2.42-0.09,5.29,1.57,7.23c1.46,1.72,4.01,2.11,6.15,1.79
			c2.76-0.42,5.25-2.03,7.41-3.72c4.95-3.86,9.49-9.25,11.99-15.04c0.45-1.05,0.85-2.13,1.02-3.27
			C1068.64,74.29,1066.23,73.61,1066,75.2L1066,75.2z"/>
	</g>
</g>
<g>
	<g>
		<path d="M427.75,205.99c-0.38,2.58-1.81,4.98-3.21,7.13c-1.85,2.83-4.04,5.44-6.48,7.77c-2.1,2-4.54,4.04-7.33,4.98
			c-1.59,0.54-4.16,0.82-5.34-0.7c-1.51-1.94-1-5.29-0.61-7.49c0.69-3.96,2.04-7.81,3.58-11.52c1.85-4.44,4.14-8.62,6.51-12.8
			c1.3-2.29,1.72-4.97,1.94-7.55c0.53-6.33-0.24-13.3-2.68-19.2c-0.89-2.15-2.28-5.13-4.63-5.99c-1.75-0.64-3.68-1.02-5.54-0.78
			c-5.02,0.65-6.54,5.74-6.68,10.13c-0.26,7.86,1.97,15.79,5.9,22.56c7.79,13.41,20.77,23.13,27.73,37.09
			c0.84,1.69,1.56,3.43,2.15,5.22c0.5,1.52,2.92,0.87,2.41-0.66c-4.9-14.85-17.61-25.09-26.53-37.4c-2.22-3.07-4.25-6.3-5.81-9.77
			c-1.64-3.64-2.56-7.53-3.05-11.49c-0.47-3.77-1.31-11.76,3.51-13.07c1.56-0.42,3.32-0.07,4.92,0.47c0.72,0.24,1.41,1.12,1.96,1.98
			c0.72,1.13,1.27,2.35,1.72,3.61c2.11,5.9,2.87,12.85,1.91,19.05c-0.19,1.24-0.46,2.53-0.95,3.69c-0.75,1.74-1.91,3.35-2.81,5.01
			c-2.18,4.04-4.12,8.23-5.68,12.55c-1.26,3.49-2.32,7.13-2.64,10.85c-0.21,2.42-0.09,5.29,1.57,7.23c1.46,1.72,4.01,2.11,6.15,1.79
			c2.76-0.42,5.25-2.03,7.41-3.72c4.95-3.86,9.49-9.25,11.99-15.04c0.45-1.05,0.85-2.13,1.02-3.27
			C430.39,205.08,427.98,204.4,427.75,205.99L427.75,205.99z"/>
	</g>
</g>
<g>
	<g>
		<path d="M1092.79,99.42c3.8,0.37,7.35-3.36,9.65-5.89c4.1-4.51,7.45-9.71,10.46-14.99c3.37-5.91,6.33-12.1,8.71-18.48
			c1.87-5.01,3.63-10.41,3.73-15.81c0.06-3.34-0.89-7.43-4.72-8.13c-7.54-1.37-9.24,9.9-10.28,15.05
			c-1.11,5.47-1.01,11.15-0.79,16.71c0.29,7.23,0.92,14.62,2.74,21.65c0.89,3.43,3.02,11.05,8.01,10.04
			c3.64-0.74,6.25-4.5,7.85-7.56c2.19-4.18,3.51-8.84,4.25-13.48c0.36-2.23,0.59-4.49,0.63-6.75c0.02-1.37-2.21-1.75-2.46-0.33
			c-0.7,4.12-1.36,8.26-1.77,12.42c-0.4,4.04-0.95,8.78,0.39,12.72c0.46,1.35,1.29,2.73,2.75,3.16c1.47,0.43,2.89-0.18,3.95-1.19
			c1.36-1.29,2.26-3.08,3.02-4.77c1.03-2.3,1.85-4.7,2.55-7.12c1.53-5.27,2.74-10.78,3.13-16.27c0.1-1.39-2.23-1.73-2.46-0.33
			c-0.69,4.24-1.13,8.54-1.33,12.84c-0.19,4.14-0.44,8.92,1.09,12.86c0.53,1.36,1.38,2.72,2.86,3.16c1.54,0.45,3.04-0.28,4.05-1.43
			c2.86-3.21,3.42-8.43,3.87-12.51c0.57-5.07,0.78-10.41-0.05-15.47c-0.4,0.53-0.8,1.05-1.21,1.58c3.65-0.19,8.06,1.7,10.36-2.2
			c-0.78-0.21-1.55-0.42-2.33-0.63c-0.85,6.65-1.62,13.68-2.6,20.08c-0.4,2.62-0.83,5.25-1.04,7.9c-0.13,1.67-0.47,4.39,1.82,4.65
			c2.62,0.29,5.15-2.55,6.9-4.15c2.05-1.87,3.33-4.27,4.35-6.82c2.7-6.76,3.38-14.07,5.03-21.1c-0.82-0.11-1.64-0.22-2.46-0.33
			c-0.59,9.18-1.19,18.36-1.78,27.54c-0.08,1.31-0.17,2.62-0.25,3.93c-0.1,1.48,2.01,1.59,2.46,0.33c0.97-2.7,1.22-5.73,1.68-8.54
			c0.65-3.96,1.32-7.92,2.37-11.8c0.73-2.71,1.64-6.47,3.98-8.31c0.33-0.26,0.69-0.45,1.08-0.53c0.13-0.03,0.36-0.06,0.64-0.03
			c-0.17-0.02-0.03,0.08-0.12-0.02c0.14,0.17,0.36,0.45,0.44,0.63c0.23,0.54,0.36,1.13,0.46,1.7c0.6,3.23,0.37,6.68,0.23,9.94
			c-0.16,3.76-0.45,7.52-0.54,11.28c-0.04,1.88-0.46,5.21,1,6.72c0.93,0.96,2.44,0.51,3.39-0.17c1.31-0.94,2.07-2.48,2.68-3.94
			c1.75-4.21,2.39-8.78,3.63-13.15c1.36-4.74,5.63-10.59,11.1-10.16c0-0.83,0-1.67,0-2.5c-5.8,0.67-9.33,7.15-11.28,11.98
			c-1.21,2.99-2.03,6.17-2.26,9.39c-0.18,2.54,0.02,5.43,1.45,7.62c2.9,4.42,9.15,3.49,12.36,0.01c3.73-4.05,5.12-10.09,5.55-15.42
			c0.23-2.84,0.19-5.82-0.55-8.58c-0.51-1.91-1.52-4.09-3.59-4.66c-1.11-0.31-1.88,0.89-1.41,1.84c2.56,5.2,3.08,11.18,3.31,16.88
			c0.25,5.99,0.13,11.98,0.58,17.96c0.32,4.35,0.62,8.73,0.36,13.09c-0.24,4.14-0.96,8.52-3.31,12.03c-1.1,1.64-2.59,2.97-4.34,3.88
			c-1.04,0.54-2.86,1.48-3.73,0.53c-0.75-0.82-0.7-2.47-0.67-3.54c0.07-1.91,0.44-3.81,0.89-5.67c0.84-3.46,1.83-7.29,3.59-10.41
			c1.74-3.09,4.32-5.75,6.73-8.31c6.1-6.5,12.91-12.3,19-18.8c1.1-1.17-0.67-2.95-1.77-1.77c-5.81,6.21-12.29,11.77-18.16,17.92
			c-2.74,2.87-5.6,5.84-7.68,9.24c-1.97,3.22-3.05,7.28-3.97,10.9c-0.84,3.32-2.12,8.09-0.35,11.33c2.08,3.8,7.04,1.29,9.52-0.66
			c7.43-5.82,7.16-17.17,6.67-25.65c-0.17-3.01-0.45-6.02-0.56-9.04c-0.13-3.65-0.12-7.29-0.23-10.94c-0.19-6.85-0.65-14-3.73-20.24
			c-0.47,0.61-0.94,1.22-1.41,1.84c0.29,0.08,0.68,0.38,0.92,0.72c0.46,0.67,0.66,1.25,0.89,2.04c0.56,1.98,0.66,4.07,0.61,6.11
			c-0.11,4.72-1.1,9.83-3.63,13.89c-0.98,1.58-2.35,3.11-4.16,3.72c-1.59,0.53-3.69,0.38-4.98-0.79c-1.46-1.33-1.74-3.6-1.76-5.46
			c-0.03-2.71,0.54-5.41,1.37-7.99c0.96-2.98,2.33-5.89,4.22-8.4c1.3-1.73,3.21-3.81,5.5-4.07c1.58-0.18,1.63-2.37,0-2.5
			c-5.51-0.43-10.4,4.56-12.54,9.23c-1.61,3.52-2.1,7.56-3.09,11.27c-0.48,1.81-0.99,3.68-1.86,5.35c-0.31,0.61-0.67,1.27-1.2,1.72
			c-0.14,0.12-0.29,0.24-0.49,0.33c-0.32,0.14-0.31-0.06,0.02,0.16c0.27,0.18,0.12,0.28,0.13,0.04c-0.01,0.29-0.01-0.04-0.05-0.21
			c-0.13-0.61-0.15-0.78-0.2-1.44c-0.09-1.44-0.05-2.88,0-4.32c0.13-3.83,0.43-7.65,0.56-11.48c0.11-3.3,0.28-6.82-0.52-10.05
			c-0.64-2.57-2.48-4.24-5.18-3.03c-2.76,1.24-4.1,4.58-5.04,7.24c-1.52,4.31-2.3,8.87-3.06,13.36c-0.55,3.29-0.79,6.87-1.93,10.03
			c0.82,0.11,1.64,0.22,2.46,0.33c0.59-9.18,1.19-18.36,1.78-27.54c0.08-1.31,0.17-2.62,0.25-3.93c0.09-1.41-2.14-1.7-2.46-0.33
			c-1.36,5.82-2.09,11.76-3.79,17.5c-0.8,2.69-1.77,5.48-3.46,7.76c-1.32,1.76-3.44,3.66-5.38,4.67c-0.17,0.09-0.59,0.18-0.7,0.3
			c-0.33,0.31-0.04-0.37-0.02,0.21c0,0,0.14,0.21,0.15,0.21c0.15,0.07-0.07,0.04-0.01-0.08c0.05-0.08-0.03-0.21-0.03-0.32
			c-0.07-0.99,0.04-2.01,0.14-2.99c0.24-2.39,0.63-4.76,0.99-7.14c0.42-2.74,0.72-5.51,1.07-8.26c0.5-3.92,1-7.83,1.51-11.75
			c0.17-1.29-1.75-1.62-2.33-0.63c-0.8,1.35-2.03,1.38-3.47,1.28c-1.59-0.12-3.14-0.4-4.74-0.31c-0.88,0.05-1.34,0.76-1.21,1.58
			c0.63,3.87,0.49,7.95,0.22,11.84c-0.27,4.02-0.66,8.54-2.48,12.21c-0.31,0.62-0.66,1.25-1.15,1.74c-0.37,0.36-0.75,0.58-1.05,0.58
			c-0.33,0-0.46-0.04-0.73-0.29c-0.34-0.31-0.59-0.81-0.79-1.33c-1.33-3.42-1.1-7.6-0.97-11.19c0.16-4.35,0.57-8.71,1.27-13.01
			c-0.82-0.11-1.64-0.22-2.46-0.33c-0.31,4.24-1.19,8.47-2.23,12.58c-1.05,4.16-2.24,8.61-4.55,12.28c-0.35,0.55-0.72,1.08-1.2,1.53
			c-0.4,0.37-0.77,0.57-1.09,0.59c-0.34,0.02-0.56-0.07-0.72-0.23c-0.28-0.29-0.53-0.73-0.71-1.23c-1.22-3.44-0.7-7.67-0.38-11.21
			c0.38-4.23,1.05-8.42,1.76-12.6c-0.82-0.11-1.64-0.22-2.46-0.33c-0.08,4.4-0.85,8.78-2.14,12.98c-1.15,3.72-2.74,7.73-5.59,10.5
			c-0.86,0.84-2.07,1.8-3.27,1.88c-0.37,0.03-0.96-0.26-1.4-0.69c-1.4-1.36-2.21-3.56-2.83-5.5c-1.97-6.22-2.64-12.89-3.06-19.37
			c-0.37-5.74-0.62-11.66,0.08-17.39c0.28-2.29,0.94-5.14,1.57-7.55c0.47-1.78,1.02-3.57,1.89-5.19c0.63-1.16,1.51-2.51,2.87-2.87
			c0.88-0.23,1.37-0.11,2.08,0.15c0.08,0.03-0.07-0.05,0.23,0.11c0.12,0.07,0.24,0.14,0.36,0.22c-0.09-0.06,0-0.02,0.15,0.13
			c0.14,0.13,0.27,0.27,0.39,0.41c-0.17-0.21,0.03,0.05,0.09,0.14c0.09,0.14,0.17,0.29,0.25,0.43c0.16,0.3,0.15,0.3,0.3,0.8
			c0.26,0.9,0.3,1.34,0.34,2.27c0.18,4.68-1.3,9.44-2.8,13.81c-2,5.83-4.57,11.47-7.47,16.91c-2.78,5.22-5.87,10.36-9.55,15.01
			c-1.45,1.83-2.99,3.6-4.73,5.17c-1.17,1.05-2.69,2.17-3.96,2.58c-0.73,0.23-0.74,0.26-1.54,0.18
			C1091.19,96.77,1091.2,99.27,1092.79,99.42L1092.79,99.42z"/>
	</g>
</g>
<g>
	<g>
		<path d="M1160.72,58.3c0,0.01-0.01,0.01-0.01,0.02c0.07-0.08,0.13-0.17,0.2-0.25c-0.04,0.06-0.09,0.11-0.15,0.15
			c0.08-0.07,0.17-0.13,0.25-0.2c-0.04,0.03-0.09,0.06-0.13,0.08c0.1-0.04,0.2-0.08,0.3-0.13c-0.05,0.02-0.1,0.04-0.16,0.05
			c0.11-0.01,0.22-0.03,0.33-0.04c-0.07,0.01-0.13,0.01-0.2,0c0.11,0.01,0.22,0.03,0.33,0.04c-0.07-0.01-0.14-0.03-0.21-0.06
			c0.1,0.04,0.2,0.08,0.3,0.13c-0.08-0.03-0.15-0.08-0.22-0.13c0.08,0.07,0.17,0.13,0.25,0.2c-0.08-0.06-0.15-0.13-0.22-0.22
			c0.07,0.08,0.13,0.17,0.2,0.25c-0.06-0.09-0.12-0.18-0.16-0.28c0.04,0.1,0.08,0.2,0.13,0.3c-0.04-0.1-0.07-0.21-0.09-0.32
			c0.01,0.11,0.03,0.22,0.04,0.33c-0.01-0.1-0.01-0.21,0-0.31c-0.01,0.11-0.03,0.22-0.04,0.33c0.01-0.1,0.04-0.2,0.08-0.3
			c-0.04,0.1-0.08,0.2-0.13,0.3c0.03-0.08,0.08-0.16,0.13-0.23c-0.07,0.08-0.13,0.17-0.2,0.25c0.05-0.06,0.11-0.12,0.17-0.17
			c-0.08,0.07-0.17,0.13-0.25,0.2c0.07-0.05,0.14-0.09,0.22-0.13c-0.1,0.04-0.2,0.08-0.3,0.13c0.08-0.03,0.15-0.05,0.24-0.06
			c-0.11,0.01-0.22,0.03-0.33,0.04c0.07-0.01,0.15-0.01,0.22,0c-0.11-0.01-0.22-0.03-0.33-0.04c0.07,0.01,0.15,0.03,0.21,0.06
			c-0.1-0.04-0.2-0.08-0.3-0.13c0.06,0.03,0.12,0.06,0.17,0.1c-0.08-0.07-0.17-0.13-0.25-0.2c0.05,0.04,0.1,0.09,0.14,0.14
			c-0.07-0.08-0.13-0.17-0.2-0.25c0.05,0.07,0.09,0.13,0.12,0.21c-0.04-0.1-0.08-0.2-0.13-0.3c0.01,0.03,0.02,0.06,0.03,0.1
			c0.1,0.31,0.29,0.58,0.57,0.75c0.14,0.09,0.3,0.14,0.46,0.15c0.17,0.04,0.33,0.03,0.5-0.02c0.3-0.1,0.59-0.29,0.75-0.57
			c0.15-0.29,0.23-0.64,0.13-0.96c-0.06-0.18-0.13-0.37-0.24-0.54c-0.08-0.12-0.17-0.23-0.26-0.34c-0.03-0.03-0.06-0.06-0.09-0.09
			c-0.13-0.12-0.28-0.24-0.44-0.32c-0.16-0.08-0.33-0.16-0.5-0.19c-0.17-0.03-0.36-0.07-0.54-0.05c-0.18,0.01-0.37,0.03-0.55,0.09
			c-0.17,0.06-0.35,0.12-0.5,0.22c-0.12,0.07-0.23,0.17-0.34,0.25c-0.03,0.03-0.07,0.06-0.1,0.09c-0.06,0.07-0.12,0.14-0.17,0.21
			c-0.06,0.08-0.12,0.15-0.17,0.23c-0.02,0.04-0.04,0.08-0.06,0.12c-0.06,0.14-0.13,0.28-0.17,0.42c-0.01,0.04-0.02,0.09-0.03,0.13
			c-0.03,0.16-0.05,0.33-0.06,0.49c-0.01,0.2,0.03,0.41,0.07,0.61c0.04,0.2,0.13,0.39,0.21,0.56c0.04,0.09,0.09,0.17,0.15,0.25
			c0.11,0.15,0.23,0.32,0.37,0.44c0.14,0.12,0.29,0.25,0.46,0.33c0.17,0.08,0.35,0.17,0.54,0.21c0.34,0.06,0.56,0.07,0.9,0
			c0.04-0.01,0.09-0.02,0.13-0.04c0.14-0.05,0.29-0.1,0.41-0.19c0.3-0.19,0.44-0.36,0.64-0.64c0.09-0.14,0.14-0.3,0.15-0.46
			c0.04-0.17,0.03-0.33-0.02-0.5c-0.04-0.16-0.11-0.3-0.22-0.43c-0.09-0.14-0.2-0.24-0.35-0.32c-0.29-0.15-0.64-0.23-0.96-0.13
			c-0.1,0.04-0.2,0.08-0.3,0.13C1160.98,57.96,1160.83,58.11,1160.72,58.3L1160.72,58.3z"/>
	</g>
</g>
<g>
	<g>
		<path d="M1131.98,59.25c-0.02,0.02-0.05,0.04-0.07,0.06c0.08-0.07,0.17-0.13,0.25-0.2c-0.05,0.04-0.1,0.07-0.16,0.09
			c0.1-0.04,0.2-0.08,0.3-0.13c-0.07,0.03-0.14,0.05-0.21,0.06c0.11-0.01,0.22-0.03,0.33-0.04c-0.08,0.01-0.16,0.01-0.24,0
			c0.11,0.01,0.22,0.03,0.33,0.04c-0.09-0.01-0.18-0.04-0.27-0.07c0.1,0.04,0.2,0.08,0.3,0.13c-0.09-0.04-0.18-0.09-0.26-0.15
			c0.08,0.07,0.17,0.13,0.25,0.2c-0.07-0.05-0.13-0.11-0.18-0.18c0.07,0.08,0.13,0.17,0.2,0.25c-0.04-0.06-0.08-0.12-0.11-0.19
			c0.04,0.1,0.08,0.2,0.13,0.3c-0.03-0.06-0.04-0.12-0.05-0.19c0.01,0.11,0.03,0.22,0.04,0.33c-0.01-0.06-0.01-0.12,0-0.18
			c-0.01,0.11-0.03,0.22-0.04,0.33c0.01-0.06,0.03-0.13,0.05-0.19c-0.04,0.1-0.08,0.2-0.13,0.3c0.03-0.06,0.06-0.11,0.09-0.16
			c-0.07,0.08-0.13,0.17-0.2,0.25c0.04-0.05,0.09-0.1,0.14-0.14c-0.08,0.07-0.17,0.13-0.25,0.2c0.06-0.05,0.13-0.09,0.21-0.12
			c-0.1,0.04-0.2,0.08-0.3,0.13c0.09-0.04,0.19-0.06,0.28-0.08c-0.11,0.01-0.22,0.03-0.33,0.04c0.1-0.01,0.21-0.01,0.31,0
			c-0.11-0.01-0.22-0.03-0.33-0.04c0.08,0.01,0.17,0.03,0.25,0.07c-0.1-0.04-0.2-0.08-0.3-0.13c0.07,0.03,0.13,0.06,0.19,0.11
			c-0.08-0.07-0.17-0.13-0.25-0.2c0.04,0.04,0.08,0.07,0.12,0.12c-0.07-0.08-0.13-0.17-0.2-0.25c0.04,0.05,0.07,0.1,0.1,0.16
			c0.08,0.15,0.19,0.26,0.32,0.35c0.12,0.11,0.26,0.19,0.43,0.22c0.17,0.05,0.33,0.06,0.5,0.02c0.17-0.01,0.32-0.06,0.46-0.15
			c0.27-0.17,0.5-0.43,0.57-0.75c0.01-0.11,0.03-0.22,0.04-0.33c0-0.23-0.06-0.44-0.17-0.63c-0.07-0.16-0.19-0.3-0.3-0.43
			c-0.11-0.13-0.26-0.23-0.4-0.33c-0.14-0.1-0.32-0.16-0.48-0.22c-0.12-0.04-0.25-0.06-0.37-0.07c-0.13-0.02-0.25-0.04-0.38-0.03
			c-0.18,0.01-0.36,0.03-0.54,0.07c-0.17,0.04-0.34,0.12-0.5,0.2c-0.16,0.08-0.29,0.19-0.43,0.3c-0.14,0.11-0.23,0.25-0.34,0.39
			c-0.1,0.14-0.17,0.31-0.23,0.47c-0.06,0.17-0.08,0.36-0.09,0.54c0,0.04,0,0.08,0,0.12c0.01,0.15,0.03,0.3,0.06,0.44
			c0.01,0.03,0.02,0.07,0.03,0.1c0.05,0.13,0.1,0.27,0.17,0.4c0.09,0.15,0.2,0.3,0.33,0.43c0.12,0.13,0.28,0.24,0.42,0.34
			c0.15,0.1,0.34,0.17,0.51,0.24c0.09,0.03,0.17,0.06,0.26,0.07c0.19,0.03,0.39,0.07,0.58,0.05c0.35-0.04,0.54-0.08,0.86-0.23
			c0.17-0.08,0.33-0.21,0.46-0.35c0.23-0.23,0.37-0.56,0.37-0.88c0.01-0.17-0.03-0.33-0.11-0.48c-0.05-0.15-0.14-0.29-0.26-0.4
			c-0.24-0.22-0.55-0.38-0.88-0.37C1132.53,58.9,1132.21,59.01,1131.98,59.25L1131.98,59.25z"/>
	</g>
</g>
<g>
	<g>
		<path d="M44.02,238.23c0.9-11.53,1.79-23.06,2.69-34.59c0.45-5.77,0.9-11.53,1.34-17.3c0.19-2.41,0.01-5.3,0.96-7.57
			c0.91-2.16,3.21-3.05,5.29-3.71c6.06-1.9,12.2-3.6,18.3-5.4c1.54-0.45,0.88-2.87-0.66-2.41c-5.8,1.71-11.61,3.41-17.41,5.13
			c-2.14,0.64-4.33,1.36-6.02,2.87c-1.83,1.64-2.35,3.97-2.58,6.33c-1.13,11.94-1.86,23.93-2.79,35.89
			c-0.54,6.92-1.07,13.84-1.61,20.75C41.4,239.83,43.9,239.83,44.02,238.23L44.02,238.23z"/>
	</g>
</g>
<g>
	<g>
		<path d="M48.19,204.03c3.74-1.94,7.84-3.23,12.02-3.75c0.67-0.08,1.25-0.52,1.25-1.25c0-0.61-0.58-1.33-1.25-1.25
			c-4.65,0.58-9.12,1.94-13.28,4.09C45.5,202.61,46.76,204.77,48.19,204.03L48.19,204.03z"/>
	</g>
</g>
<g>
	<g>
		<path d="M49.14,239.3c3.72-3.56,5.66-8.43,7.92-12.95c1.89-3.79,4.33-8.32,9.05-8.72c-0.11-0.82-0.22-1.64-0.33-2.46
			c-5.62,1.8-9.17,6.6-10.34,12.26c-0.9,4.39-0.68,10.33,3.7,12.8c1.81,1.02,3.93,1.21,5.97,1.19c1.87-0.02,3.79,0.08,5.52-0.76
			c4.11-2,4.46-7.43,4.12-11.4c-0.23-2.69-0.77-5.35-1.53-7.93c-0.54-1.83-1.15-3.75-2.12-5.41c-0.36,0.63-0.72,1.25-1.08,1.88
			c6-0.66,13.03,1.77,18.29-2.18c-0.61-0.25-1.22-0.5-1.84-0.75c1.07,3.96,0.96,8.26,0.85,12.32c-0.11,4.16-0.42,8.3-0.75,12.45
			c0.82-0.11,1.64-0.22,2.46-0.33c-1.37-5.42-1.01-11.76,0.54-17.1c0.64-2.22,1.64-4.83,3.66-6.16c2.57-1.69,6.15-1.36,9.07-1.52
			c3.32-0.19,6.71-0.82,8.57-3.88c0.84-1.38-1.32-2.64-2.16-1.26c-1.66,2.74-5.34,2.61-8.16,2.72c-3.03,0.12-6.48,0.21-9.02,2.1
			c-2.15,1.6-3.36,4.17-4.17,6.66c-0.99,3.05-1.41,6.31-1.54,9.5c-0.13,3.2,0.01,6.5,0.79,9.62c0.36,1.43,2.35,1.02,2.46-0.33
			c0.33-4.27,0.66-8.54,0.76-12.82c0.1-4.17,0.15-8.56-0.95-12.62c-0.19-0.71-1.18-1.24-1.84-0.75c-4.79,3.6-11.54,1.24-17.03,1.84
			c-0.91,0.1-1.6,0.99-1.08,1.88c1.64,2.78,2.42,6.34,2.97,9.5c0.56,3.23,1.2,8.02-1.12,10.76c-1.04,1.23-2.49,1.44-4.01,1.45
			c-1.57,0.01-3.15,0.14-4.69-0.2c-4.21-0.95-4.93-5.53-4.46-9.25c0.66-5.27,3.56-10.17,8.82-11.85c1.27-0.41,1.14-2.58-0.33-2.46
			c-5.18,0.44-8.26,4.35-10.54,8.65c-2.48,4.69-4.28,10.01-8.2,13.75C46.21,238.65,47.98,240.42,49.14,239.3L49.14,239.3z"/>
	</g>
</g>
<g>
	<g>
		<path d="M127.3,236.9c2.65,0.29,5.34-0.43,7.79-1.39c3.14-1.23,6.08-2.88,8.93-4.67c6.07-3.82,11.7-8.28,17.5-12.49
			c2.47-1.8,4.99-3.64,7.73-5.02c1.38-0.69,0.32-2.47-0.96-2.28c-5.8,0.85-10.42,4.29-12.49,9.82c-1.49,3.98-2.2,9.28-0.43,13.26
			c0.97,2.18,2.88,3.65,5.24,4.01c2.51,0.39,4.91,0.64,7.3-0.42c4.26-1.88,6.26-6.7,7.02-11.01c0.81-4.55,0.95-10.19-1.28-14.4
			c-0.65,0.5-1.31,1.01-1.96,1.51c0.99,0.76,1.37,2.03,1.68,3.22c0.47,1.8,0.73,3.65,1.04,5.48c0.69,4.04,1.51,8.34,3.99,11.71
			c2.34,3.19,5.61,4.58,9.41,5.13c4.32,0.63,8.75,0.65,13.09,0.17c3.75-0.41,8.95-1,11.62-4.04c1.06-1.21-0.7-2.98-1.77-1.77
			c-2.09,2.38-6.33,2.88-9.26,3.24c-4.15,0.51-8.43,0.57-12.57,0.04c-3.42-0.43-6.52-1.4-8.58-4.36c-2.24-3.22-2.91-7.27-3.55-11.05
			c-0.5-2.98-0.7-7.52-3.33-9.55c-1.08-0.83-2.67,0.18-1.96,1.51c1.57,2.96,1.59,7.03,1.31,10.33c-0.32,3.7-1.37,8.09-4.35,10.58
			c-1.43,1.19-3.22,1.65-5.06,1.53c-1.9-0.12-4.09-0.37-5.26-2.04c-2.14-3.04-1.28-7.92-0.31-11.24c0.52-1.77,1.31-3.38,2.56-4.92
			c2.16-2.65,5.26-3.87,8.57-4.36c-0.32-0.76-0.64-1.52-0.96-2.28c-5.26,2.63-9.9,6.63-14.61,10.11
			c-5.58,4.13-11.29,8.39-17.64,11.26c-2.62,1.18-5.53,2.17-8.43,1.85C125.7,234.22,125.71,236.72,127.3,236.9L127.3,236.9z"/>
	</g>
</g>
<g>
	<g>
		<path d="M233.18,233.39c4.58-0.33,8.61-3.69,11.85-6.66c4.81-4.43,8.95-9.6,12.78-14.87c4.23-5.82,8.09-11.92,11.53-18.23
			c2.81-5.14,5.48-10.49,7.22-16.1c0.81-2.62,2.32-7.32-0.12-9.55c-2.88-2.64-6.5,0.23-7.96,2.91c-1.74,3.2-2.17,7.19-3.01,10.71
			c-1.91,7.95-3.9,15.89-5.53,23.91c-1.38,6.81-2.95,14.07-2.46,21.07c0.15,2.09,0.48,4.48,1.91,6.12c1.28,1.47,3.31,1.77,5.11,1.17
			c3.5-1.17,5.36-5.36,6.27-8.61c1.24-4.41,1.45-9.13,1.32-13.69c-0.06-2.13-0.22-4.25-0.46-6.37c-0.71,0.29-1.42,0.59-2.13,0.88
			c2.59,3.15,5.56,7.15,9.75,8.18c4.79,1.18,9.46-2.07,13.01-4.87c1.55-1.22,2.73-2.95,2.11-5c-0.54-1.79-2.16-3.01-3.85-3.63
			c-4.3-1.58-8.74,0.88-10.71,4.78c-2.04,4.05-2.21,8.94-1.74,13.36c0.47,4.39,1.54,8.92,3.76,12.78c1.22,2.13,3.11,4.38,5.83,3.85
			c2.31-0.45,4.27-2.39,5.6-4.22c1.73-2.39,2.8-5.44,3.94-8.15c1.24-2.94,2.38-5.93,3.42-8.95c4.81-14,7.65-28.62,9.66-43.26
			c0.21-1.56-2.13-2.27-2.41-0.66c-1.72,10-2.82,20.11-3.38,30.25c-0.29,5.19-0.44,10.38-0.45,15.58
			c-0.01,4.88-0.13,9.92,0.41,14.78c0.2,1.83,1.24,3.71,3.32,3.69c1.81-0.02,3.29-1.55,4.23-2.94c0.98-1.46,1.52-3.26,2.12-4.89
			c0.65-1.76,1.25-3.53,1.82-5.31c2.6-8.11,4.61-16.42,6.26-24.78c1.74-8.84,3.13-17.81,3.6-26.82c0.08-1.63-2.35-1.58-2.5,0
			c-1.37,14.12-2.76,28.24-3.54,42.41c-0.18,3.32-0.33,6.64-0.39,9.96c-0.06,2.9-0.34,6.02,0.75,8.77c1.15,2.91,4.08,4.47,6.86,2.44
			c1.98-1.45,3.51-3.78,4.94-5.74c3.11-4.3,5.97-8.95,7.85-13.93c1.11-2.94,2.54-8.16-1.29-9.8c-4.34-1.86-8.35,1.88-9.54,5.79
			c-1.58,5.18-0.51,11.2,1.06,16.25c0.81,2.58,1.82,5.28,3.32,7.55c0.92,1.4,2.28,2.77,4.07,2.8c1.73,0.03,2.99-1.21,3.88-2.56
			c2.12-3.21,3.66-6.9,5.09-10.45c1.53-3.79,2.85-7.67,4-11.59c0.54-1.82,1.04-3.66,1.52-5.5c-0.8,0-1.61,0-2.41,0
			c2.06,9.46,1.46,19.62,0.33,29.17c0.83,0,1.67,0,2.5,0c0.07-3.84,0.39-7.67,0.67-11.5c0.29-3.85,0.44-7.69,0.62-11.54
			c0.08-1.62,0.31-3.58,1.66-4.67c0.79-0.63,1.85-0.84,2.84-0.9c2.47-0.14,4.91,0.43,7.38,0.36c2.8-0.08,5.06-1.25,5.97-4.02
			c0.5-1.53-1.91-2.19-2.41-0.66c-0.74,2.27-3.07,2.26-5.1,2.15c-2.51-0.14-5.05-0.63-7.54-0.11c-2.92,0.62-4.65,2.96-5.1,5.83
			c-0.31,1.94-0.22,3.93-0.31,5.89c-0.09,1.95-0.22,3.89-0.36,5.84c-0.32,4.44-0.73,8.88-0.81,13.34c-0.03,1.65,2.32,1.56,2.5,0
			c1.15-9.79,1.69-20.14-0.42-29.83c-0.27-1.22-2.11-1.16-2.41,0c-1.77,6.85-3.9,13.67-6.82,20.13c-0.71,1.57-1.46,3.12-2.28,4.63
			c-0.55,1.02-1.54,3.56-2.98,3.5c-1.36-0.06-2.24-2.04-2.78-3.07c-0.54-1.03-1.01-2.09-1.42-3.18c-1.73-4.55-2.84-9.62-2.37-14.51
			c0.31-3.19,2.07-7.69,6.09-7c1.12,0.19,1.5,0.83,1.56,1.93c0.1,1.69-0.49,3.41-1.07,4.97c-1.63,4.39-4.18,8.51-6.85,12.35
			c-1.16,1.66-2.37,3.28-3.71,4.8c-0.78,0.88-2.09,2.4-3.37,1.51c-0.91-0.64-1.25-2.05-1.45-3.06c-0.49-2.52-0.18-5.31-0.11-7.85
			c0.08-3.01,0.22-6.01,0.39-9.01c0.71-12.67,1.9-25.31,3.13-37.94c0.13-1.3,0.25-2.6,0.38-3.9c-0.83,0-1.67,0-2.5,0
			c-0.38,7.28-1.39,14.53-2.67,21.71c-1.41,7.9-3.16,15.74-5.35,23.46c-0.98,3.47-2.06,6.92-3.28,10.31
			c-0.55,1.53-1.04,3.21-1.86,4.62c-0.71,1.22-2.86,3.5-3.19,0.79c-0.27-2.17-0.22-4.43-0.28-6.61c-0.07-2.36-0.1-4.72-0.11-7.08
			c-0.01-4.8,0.1-9.61,0.34-14.4c0.52-10.61,1.6-21.21,3.4-31.68c-0.8-0.22-1.61-0.44-2.41-0.66c-1.54,11.23-3.58,22.41-6.6,33.35
			c-1.5,5.44-3.25,10.82-5.33,16.06c-1.02,2.57-2.12,5.1-3.32,7.59c-1.01,2.1-2.18,4.08-4.25,5.3c-0.81,0.48-1.65,0.77-2.5,0.21
			c-0.9-0.59-1.5-1.67-2.01-2.59c-0.88-1.58-1.51-3.28-2.02-5.01c-1.18-3.99-1.71-8.23-1.37-12.38c0.28-3.36,1.26-7.48,4.44-9.27
			c1.55-0.88,3.48-1.01,5.12-0.29c0.98,0.43,2.28,1.41,1.97,2.64c-0.27,1.07-1.56,1.81-2.37,2.4c-1.17,0.86-2.39,1.68-3.68,2.36
			c-1.65,0.87-3.56,1.6-5.46,1.33c-3.96-0.55-6.88-4.82-9.22-7.66c-0.66-0.8-2.25-0.17-2.13,0.88c0.48,4.2,0.64,8.46,0.33,12.68
			c-0.28,3.79-0.9,7.96-3.04,11.19c-0.71,1.07-1.73,2.16-3,2.51c-0.4,0.11-0.44,0.11-0.92,0.09c-0.12,0-0.56-0.12-0.61-0.14
			c-0.54-0.22-0.78-0.57-1.13-1.28c-0.29-0.59-0.56-1.73-0.68-2.58c-0.35-2.57-0.16-5.23,0.08-7.8c0.32-3.41,0.88-6.8,1.5-10.17
			c1.42-7.62,3.25-15.17,5.08-22.7c0.78-3.24,1.58-6.47,2.31-9.72c0.41-1.81,0.75-3.62,1.67-5.26c0.47-0.83,1.06-1.72,1.91-2.22
			c0.28-0.16,0.57-0.3,0.9-0.32c0.23-0.01,0.41,0.03,0.63,0.08c0.14,0.04,0.75,0.28,0.32,0.1c0.08,0.03,0.17,0.07,0.24,0.13
			c0.27,0.2-0.19-0.18,0.06,0.05c0.17,0.16,0.11,0.12,0.04,0.03c0.07,0.1,0.15,0.22,0.19,0.34c0.04,0.12-0.06-0.24,0.02,0.09
			c0.03,0.12,0.06,0.24,0.09,0.36c0.08,0.31,0.03,0.11,0.04,0.2c0.02,0.16,0.03,0.32,0.03,0.48c0.05,1.6-0.3,3-0.78,4.67
			c-1.43,5.03-3.76,9.81-6.19,14.42c-3.08,5.86-6.55,11.52-10.3,16.97c-3.58,5.19-7.45,10.23-11.82,14.78
			c-3.03,3.15-6.71,6.76-10.8,8.22c-0.37,0.13-0.75,0.25-1.13,0.34c-0.49,0.12-0.63,0.13-0.99,0.16
			C231.59,231,231.57,233.5,233.18,233.39L233.18,233.39z"/>
	</g>
</g>
<g>
	<g>
		<path d="M295.04,188.49c15.29,4.37,31.47,3.62,47.17,4.89c1.6,0.13,1.6-2.37,0-2.5c-15.48-1.25-31.44-0.5-46.51-4.8
			C294.15,185.64,293.49,188.05,295.04,188.49L295.04,188.49z"/>
	</g>
</g>
<g>
	<g>
		<path d="M463.36,220.17c5.52,0.56,10.41-3.64,14.17-7.13c4.66-4.33,8.75-9.41,13.9-13.19c2.24-1.64,4.82-3.16,7.68-3.13
			c1.44,0.01,1.66-2.03,0.33-2.46c-9.8-3.12-16.23,7.83-16.97,16.13c-0.31,3.5,0.32,8.04,3.76,9.86c1.7,0.9,4.15,1.06,5.97,0.51
			c2.44-0.74,4.2-2.8,5.41-4.96c1.63-2.91,2.55-6.23,3.1-9.5c0.54-3.19,0.81-6.48,0.46-9.71c-0.17-1.56-2.56-1.64-2.5,0
			c0.4,10.48,0.81,20.96,0.93,31.45c0.13,11.43,0.13,22.97-1.21,34.34c-0.45,3.87-1.03,7.88-2.45,11.52
			c-0.21,0.53-0.5,1.15-0.83,1.71c-0.36,0.61-0.46,0.73-0.89,1.18c-0.08,0.08-0.17,0.16-0.26,0.23c0,0,0.11-0.06-0.09,0.06
			c-0.23,0.14-0.53,0.29-0.42,0.23c-0.06,0.03-0.26,0.03-0.29,0.08c0.14-0.18,0.53,0.22,0.12-0.08c-0.15-0.11-0.53-0.32-0.76-0.52
			c-1.58-1.44-2.42-3.8-3.09-5.77c-0.94-2.72-1.61-5.54-2.12-8.37c-0.41-2.26-0.75-4.57-0.81-6.87c-0.1-3.89,1.35-7.59,3.1-11
			c1.82-3.56,3.86-6.99,5.64-10.57c1.82-3.65,3.53-7.34,5.23-11.04c3.45-7.54,6.77-15.15,10.55-22.54c0.86-1.67,1.74-3.33,2.66-4.97
			c-0.78-0.21-1.55-0.42-2.33-0.63c0.26,4.61,0.17,9.26,0.11,13.88c-0.06,4.62-0.1,9.26-0.45,13.87c0.82-0.11,1.64-0.22,2.46-0.33
			c-0.91-3.33-1.19-6.9-1.25-10.33c-0.06-3.34,0.45-6.25,2.14-9.18c0.77-1.34,1.82-2.96,3.3-3.6c1.47-0.63,2.25,0.76,3,1.82
			c0.88,1.24,1.72,2.63,3.09,3.36c1.86,0.98,4.06,1.53,6.16,1.48c3.63-0.08,6.56-2.04,8.57-4.97c1.57-2.29,2.32-5.68-0.55-7.3
			c-2.53-1.43-6.3-0.79-8.56,0.9c-2.14,1.61-3.26,4.17-3.82,6.73c-0.62,2.83-0.7,5.77-0.65,8.66c0.06,3.34,0.09,6.81,1.81,9.79
			c1.71,2.96,5.66,5.12,9.11,4.27c3.15-0.77,5.57-4.15,7.6-6.48c2.55-2.91,4.96-5.95,7.18-9.12c2.01-2.87,3.96-5.89,5.18-9.2
			c0.56-1.53,0.85-3.23-0.12-4.66c-0.92-1.36-2.63-1.81-4.19-1.63c-1.7,0.2-3.12,1.16-4.41,2.24c-1.61,1.35-2.32,3.34-2.98,5.29
			c-1.53,4.55-1.64,9.47-0.39,14.1c0.92,3.39,3.16,8.2,7.54,6.91c3.78-1.11,5.37-5.87,6.74-9.1c1.75-4.13,3.34-8.32,5.02-12.47
			c0.79-1.94,1.6-3.87,2.48-5.78c-0.78-0.21-1.55-0.42-2.33-0.63c0.52,9.23-1.54,18.47-1.02,27.7c0.08,1.48,1.92,1.6,2.46,0.33
			c0.47-1.12,0.54-2.44,0.69-3.63c0.23-1.89,0.39-3.79,0.59-5.68c0.45-4.24,0.94-8.63,2.45-12.65c0.52-1.38,1.26-2.95,2.46-3.84
			c0.43-0.32,0.98-0.54,1.46-0.6c0.31-0.03,0.68-0.04,0.98,0.04c-0.23-0.06-0.15-0.14,0.03,0.06c0.1,0.11,0.12,0.13,0.23,0.31
			c0.88,1.42,0.82,3.5,0.81,5.11c-0.01,2.5-0.24,4.99-0.48,7.48c-0.26,2.72-0.56,5.44-0.62,8.17c-0.04,1.91-0.06,4.18,0.98,5.87
			c0.35,0.57,1.12,0.81,1.71,0.45c4.1-2.48,7.58-6.07,10.6-9.75c2.94-3.58,5.89-7.62,7.26-12.1c0.45-1.47,0.74-3.15,0.2-4.63
			c-0.61-1.68-2.09-2.39-3.76-2.67c-2.14-0.36-4.99-0.76-6.79,0.81c-1.3,1.14-1.48,2.9-1.53,4.52c-0.08,2.81-0.21,5.63-0.09,8.44
			c0.14,3.24,0.28,6.78,1.36,9.87c0.76,2.16,2.24,5.2,4.89,5.35c2.4,0.13,3.97-2.55,4.94-4.37c2.11-3.98,3.12-8.43,4.44-12.7
			c0.72-2.32,1.45-4.65,2.43-6.87c0.38-0.85,0.78-1.72,1.32-2.48c0.16-0.23,0.33-0.42,0.52-0.62c0.14-0.15,0.2-0.19,0.2-0.17
			c0,0,0,0.04,0.01,0.02c-0.06,0.13-0.27-0.32-0.09,0.07c0.17,0.37,0.46,0.71,0.64,1.09c0.41,0.86,0.66,1.81,0.86,2.74
			c0.52,2.41,0.64,4.9,0.66,7.35c0.05,5.09-0.42,10.18-1.05,15.23c-0.11,0.85-0.22,1.7-0.34,2.55c0.82,0.11,1.64,0.22,2.46,0.33
			c0.52-4.97,0.06-10.02,0.42-15.01c0.19-2.67,0.52-5.37,1.38-7.91c0.62-1.82,1.65-3.79,3.48-4.55c2.66-1.09,5.97,0.62,8.29,2
			c1.39,0.82,2.64-1.34,1.26-2.16c-2.7-1.61-5.95-3.12-9.17-2.52c-2.39,0.44-4.21,2.17-5.31,4.28c-2.73,5.23-2.62,11.85-2.66,17.6
			c-0.02,2.75,0.1,5.54-0.19,8.28c-0.15,1.39,2.26,1.73,2.46,0.33c0.6-4.29,1.09-8.59,1.33-12.92c0.26-4.73,0.42-9.77-0.81-14.38
			c-0.39-1.47-1.08-3.7-2.45-4.58c-1.28-0.82-2.7,0.02-3.54,1.03c-1.17,1.41-1.88,3.2-2.54,4.88c-0.85,2.16-1.55,4.37-2.23,6.59
			c-1.23,4.04-2.17,8.27-4.31,11.95c-0.42,0.72-1.12,2.12-1.98,2.39c-0.84,0.27-1.57-0.85-1.95-1.46c-1.53-2.47-1.78-5.48-2.02-8.31
			c-0.28-3.23-0.21-6.43-0.13-9.66c0.03-1.18-0.25-3.14,0.48-4.1c1.06-1.38,4.38-0.71,5.7-0.3c0.95,0.29,1.22,0.88,1.2,1.91
			c-0.02,1.87-0.94,3.76-1.79,5.38c-1.19,2.27-2.63,4.41-4.2,6.44c-3.09,4.01-6.76,8.02-11.13,10.66c0.57,0.15,1.14,0.3,1.71,0.45
			c-0.8-1.3-0.67-3.49-0.62-5.09c0.08-2.62,0.37-5.23,0.62-7.83c0.25-2.64,0.5-5.3,0.46-7.95c-0.03-1.9-0.14-4.08-1.15-5.76
			c-1-1.66-2.85-1.96-4.63-1.43c-1.7,0.51-2.97,1.87-3.86,3.35c-2.28,3.81-2.88,8.6-3.44,12.92c-0.32,2.46-0.54,4.93-0.8,7.4
			c-0.15,1.43-0.19,2.99-0.75,4.34c0.82,0.11,1.64,0.22,2.46,0.33c-0.53-9.23,1.54-18.47,1.02-27.7c-0.06-1.13-1.77-1.84-2.33-0.63
			c-3.2,6.91-5.59,14.17-8.75,21.1c-1.04,2.27-3.9,7.55-6.71,4.04c-1.19-1.5-1.69-3.59-2.08-5.42c-0.45-2.11-0.57-4.28-0.38-6.43
			c0.19-2.16,0.75-4.29,1.55-6.29c0.67-1.68,1.41-2.71,2.93-3.69c0.92-0.6,2.61-1.33,3.56-0.37c0.87,0.88,0.03,2.53-0.36,3.46
			c-2.52,5.95-6.93,11.3-11.12,16.14c-0.94,1.09-1.9,2.15-2.89,3.2c-1,1.05-2.07,2.31-3.45,2.86c-1.37,0.54-3.03,0.02-4.29-0.59
			c-1.5-0.72-2.49-2.1-3.07-3.63c-0.95-2.53-0.86-5.38-0.88-8.05c-0.02-2.5,0.05-5.03,0.63-7.48c0.47-2.03,1.32-4.2,3.15-5.37
			c1.34-0.85,5.44-1.85,6.19,0.21c0.7,1.91-2.05,4.62-3.39,5.59c-1.51,1.09-3.4,1.43-5.23,1.24c-1.55-0.16-3.54-0.61-4.62-1.82
			c-1.62-1.8-2.8-5.05-5.67-5c-2.92,0.05-5.04,2.87-6.34,5.17c-1.39,2.47-2.23,5.11-2.37,7.94c-0.15,3.16,0.13,6.35,0.57,9.48
			c0.18,1.3,0.4,2.61,0.75,3.88c0.39,1.41,2.35,1.03,2.46-0.33c0.35-4.61,0.39-9.25,0.45-13.87c0.06-4.62,0.15-9.27-0.11-13.88
			c-0.07-1.19-1.69-1.76-2.33-0.63c-8.27,14.71-13.82,30.77-22.09,45.47c-2.2,3.91-4.46,7.99-5.18,12.48
			c-0.41,2.54-0.22,5.03,0.12,7.57c0.72,5.48,1.84,11.49,4.65,16.33c0.89,1.54,2.61,3.89,4.68,3.58c1.18-0.18,2.17-1.05,2.88-1.95
			c2.07-2.65,2.83-6.32,3.43-9.55c2.09-11.13,2.12-22.71,2.12-34c0-11.53-0.39-23.06-0.84-34.58c-0.04-1.05-0.08-2.11-0.12-3.16
			c-0.83,0-1.67,0-2.5,0c0.55,5.07-0.21,10.52-1.99,15.29c-1.38,3.7-3.9,7.53-8.35,6.51c-2.84-0.65-3.49-4.13-3.43-6.81
			c0.08-3.78,1.4-7.64,3.57-10.73c2.4-3.43,6.13-5.5,10.31-4.17c0.11-0.82,0.22-1.64,0.33-2.46c-5.59-0.05-10.33,4.28-14.12,7.9
			c-4.56,4.36-8.68,9.43-13.92,13.01c-2.29,1.57-4.87,2.83-7.72,2.54C461.76,217.51,461.77,220.01,463.36,220.17L463.36,220.17z"/>
	</g>
</g>
<g>
	<g>
		<path d="M659.33,218.05c9.36,0.66,17.24-4.51,22.82-11.65c6.12-7.83,10.01-17.25,13.19-26.59c1.61-4.72,3-9.51,4.36-14.3
			c0.38-1.32-1.69-2.29-2.28-0.96c-2.82,6.31-5.55,12.65-8.07,19.09c-2.53,6.45-4.97,13.02-6.54,19.78c-0.57,2.45-1.07,5-1.06,7.53
			c0,1.7,0.22,3.67,1.44,4.98c1.49,1.6,3.81,1.44,5.55,0.33c2.83-1.8,4.13-5.41,5.32-8.37c1.28-3.2,2.73-6.3,3.98-9.51
			c0.81-2.09,2.39-6.75,5.39-6.1c-0.29-0.51-0.58-1.03-0.87-1.54c-2.01,4.77-4.76,9.16-5.67,14.34c-0.74,4.21-0.28,9.26,3.76,11.66
			c3.43,2.04,7.57,0.87,10.33-1.73c3.34-3.15,5.43-8.22,5.28-12.8c-0.09-2.67-0.94-5.27-2.59-7.38c-1.53-1.95-3.61-3.34-5.61-4.76
			c0,0.72,0,1.44,0,2.16c1.38-0.98,3.2-1.03,4.83-1.01c1.9,0.02,3.79,0.24,5.68,0.4c2.18,0.19,4.37,0.22,6.54,0.47
			c2.77,0.31,5.5,0.88,8.16,1.69c0.22-0.8,0.44-1.61,0.66-2.41c-5.12-1.47-9.3,2.96-11.77,6.88c-2.65,4.2-4.71,9.45-3.35,14.45
			c0.76,2.78,2.76,5.24,5.71,5.77c3.16,0.56,6.43-0.96,8.44-3.37c2.35-2.82,3.3-6.44,4.12-9.94c0.97-4.14,1.7-8.34,2.27-12.55
			c1.28-9.52,1.69-19.13,1.95-28.73c-0.83,0-1.67,0-2.5,0c-0.03,7.72-1.34,15.34-2.28,22.98c-0.67,5.39-1.59,10.69-2.5,16.04
			c-0.44,2.55-0.85,5.11-1.06,7.69c-0.15,1.81-0.26,3.75,0.2,5.52c0.39,1.48,1.36,2.8,3.02,2.83c2.64,0.03,3.79-2.74,4.51-4.84
			c2.3-6.74,3.91-15.15,10.45-19.21c1.36-0.85,0.13-2.97-1.26-2.16c-4.52,2.63-7.29,7.38-8.38,12.4
			c-0.99,4.58-1.14,10.61,3.71,13.06c3.95,1.99,8.26-0.04,11.23-2.82c2.8-2.61,5.2-6.37,5.03-10.33c-0.11-2.55-0.83-5.07-1.86-7.4
			c-0.94-2.14-2.27-4.27-4.29-5.54c-0.56-0.35-1.4-0.13-1.71,0.45c-0.88,1.66,0.94,3.45,1.93,4.59c0.65,0.74,1.33,1.45,1.95,2.22
			c0.67,0.83,0.76,1.3,0.96,2.41c0.26,1.47,0.4,2.97,0.36,4.46c-0.04,1.6-0.34,3.18-0.41,4.78c-0.09,2.1-0.01,4.55,1.24,6.35
			c1.02,1.47,2.93,2.31,4.72,2.01c1.48-0.25,2.49-1.43,3.11-2.73c1.53-3.22,1.65-7.13,1.76-10.63c0.02-0.69,0.03-1.37,0.05-2.06
			c0.01-0.2,0.01-0.4,0.03-0.6c-0.06,0.83,0.12-0.72,0.12-0.71c0.07-0.48,0.15-0.95,0.22-1.43c0.64-4.29,1.18-8.59,1.97-12.86
			c0.29-1.56-1.97-2.24-2.41-0.66c-1.47,5.21-2.86,10.57-2.75,16.02c0.09,4.36,1.05,9.57,4.68,12.43c2.88,2.27,7.08,2.03,9.26-1.04
			c2.05-2.88,2.08-6.84,2.19-10.23c0.19-5.96-0.05-12.01,1.48-17.83c-0.82-0.11-1.64-0.22-2.46-0.33
			c-0.15,14.77,2.54,29.33,4.89,43.86c0.54,3.31,1.28,6.59,1.79,9.9c0.59,3.87,1.15,8.12,0.32,12c-0.28,1.31-0.74,2.77-1.82,3.64
			c-1.33,1.07-3.66,1.07-5.29,1.02c-2.66-0.08-4.64-1.34-5.01-4.08c-0.44-3.29,0.8-6.82,2-9.83c1.35-3.38,3.1-6.64,5.09-9.68
			c2.75-4.21,6.46-7.66,9.69-11.48c4-4.73,7.15-9.98,8.77-16c0.42-1.56-1.99-2.22-2.41-0.66c-1.54,5.71-4.52,10.67-8.34,15.14
			c-3.13,3.67-6.68,7.02-9.4,11.02c-2.19,3.23-4.04,6.7-5.54,10.3c-1.37,3.3-2.63,7.01-2.42,10.64c0.18,3.13,1.75,5.81,4.87,6.74
			c1.94,0.58,4.03,0.44,6.01,0.14c1.92-0.3,3.49-0.93,4.67-2.55c2.18-3,2.12-7.38,1.9-10.91c-0.25-4.15-1.01-8.25-1.81-12.31
			c-1.34-6.8-2.36-13.69-3.37-20.54c-1.28-8.73-2.19-17.52-2.1-26.35c0.01-1.4-2.09-1.7-2.46-0.33c-1.14,4.33-1.36,8.82-1.45,13.28
			c-0.08,3.74,0.2,7.73-0.74,11.38c-0.7,2.74-2.72,5.17-5.8,3.74c-3.71-1.71-4.56-7.04-4.69-10.62c-0.2-5.4,1.19-10.68,2.65-15.83
			c-0.8-0.22-1.61-0.44-2.41-0.66c-0.61,3.32-1.08,6.66-1.56,9.99c-0.29,2.07-0.8,4.18-0.87,6.27c-0.09,2.9-0.11,5.83-0.68,8.68
			c-0.38,1.9-1.37,5.79-3.95,3.82c-1.35-1.04-1.3-3.4-1.27-4.91c0.05-2.74,0.59-5.37,0.3-8.12c-0.13-1.29-0.24-2.72-0.68-3.95
			c-0.28-0.79-0.87-1.45-1.4-2.07c-0.7-0.83-1.45-1.61-2.15-2.44c-0.29-0.35-0.59-0.7-0.83-1.08c-0.33-0.52-0.09-0.56-0.35-0.07
			c-0.57,0.15-1.14,0.3-1.71,0.45c2.89,1.82,4.26,6.18,4.76,9.36c0.51,3.25-0.69,6.07-2.78,8.54c-1.95,2.3-5.08,4.87-8.33,4.28
			c-4.64-0.84-4.62-6.29-3.95-9.94c0.86-4.66,3.17-9.17,7.37-11.62c-0.42-0.72-0.84-1.44-1.26-2.16c-5.25,3.25-8,9.32-9.79,14.99
			c-0.47,1.49-0.93,2.98-1.4,4.46c-0.37,1.17-0.7,2.46-1.4,3.48c-0.34,0.49-0.96,0.93-1.25,0.74c-0.26-0.17-0.44-0.83-0.53-1.3
			c-0.34-1.73-0.13-3.62,0.04-5.36c0.24-2.4,0.65-4.78,1.06-7.16c0.84-4.78,1.69-9.52,2.26-14.33c0.95-8.11,2.42-16.19,2.45-24.38
			c0.01-1.61-2.46-1.61-2.5,0c-0.39,14.53-0.91,29.51-4.88,43.59c-0.81,2.87-2.04,5.99-4.71,7.62c-2.34,1.43-5.45,1.46-7.1-1
			c-2.5-3.72-0.9-8.72,0.95-12.34c1.79-3.51,5.47-9.3,10.21-7.94c1.55,0.45,2.2-1.94,0.66-2.41c-2.73-0.83-5.53-1.38-8.36-1.73
			c-2.43-0.3-4.88-0.33-7.31-0.55c-3.55-0.32-8.33-1.25-11.47,0.98c-0.8,0.57-0.8,1.59,0,2.16c3.13,2.21,6.06,4.4,6.79,8.41
			c0.73,3.96-0.81,8.36-3.31,11.44c-1.94,2.4-5.24,4.26-8.25,2.58c-3.57-2-3.25-6.84-2.47-10.25c1.05-4.61,3.58-8.67,5.4-13
			c0.25-0.6-0.28-1.41-0.87-1.54c-6.14-1.34-7.87,6.96-9.7,11.03c-1.34,2.98-2.49,6.06-3.89,9c-0.66,1.38-1.41,2.85-2.59,3.86
			c-0.74,0.64-1.75,1.07-2.45,0.78c0.05,0.02-0.39-0.25-0.32-0.19c-0.29-0.25-0.24-0.21-0.43-0.59c-0.21-0.42-0.38-1.24-0.43-1.87
			c-0.16-2.2,0.22-4.42,0.67-6.57c1.34-6.4,3.59-12.62,5.92-18.72c2.68-7.02,5.64-13.93,8.71-20.8c-0.76-0.32-1.52-0.64-2.28-0.96
			c-2.44,8.59-5,17.19-8.63,25.36c-3.6,8.1-8.35,16.74-15.92,21.77c-4.02,2.67-8.6,3.91-13.42,3.57
			C657.73,215.43,657.73,217.93,659.33,218.05L659.33,218.05z"/>
	</g>
</g>
<g>
	<g>
		<path d="M679.34,172.78c10.61-2.29,21.59-2.69,32.34-1.14c1.57,0.23,2.25-2.18,0.66-2.41c-11.21-1.62-22.59-1.25-33.67,1.14
			C677.1,170.71,677.76,173.12,679.34,172.78L679.34,172.78z"/>
	</g>
</g>
<g>
	<g>
		<path d="M811.41,209.15c0.35,2.22-0.24,4.64-0.77,6.79c-0.73,2.96-1.71,5.85-2.75,8.72c-2.01,5.57-4.4,11.02-6.22,16.66
			c-0.49,1.54,1.92,2.19,2.41,0.66c1.88-5.86,4.39-11.51,6.45-17.31c1.04-2.93,2.03-5.89,2.72-8.93c0.54-2.37,0.95-4.84,0.57-7.26
			C813.57,206.9,811.16,207.57,811.41,209.15L811.41,209.15z"/>
	</g>
</g>
<g>
	<g>
		<path d="M841.67,221.02c8.2,0.99,13.4-6.53,16.3-13.12c4.18-9.5,6.06-19.96,7.61-30.16c0.82-5.39,1.48-10.81,2.15-16.23
			c0.17-1.39-2.19-1.71-2.46-0.33c-1.44,7.39-2.52,14.86-3.45,22.32c-1,8.03-1.86,16.12-2,24.21c-0.05,2.91-0.02,5.86,0.43,8.74
			c0.24,1.53,0.64,3.84,2.16,4.67c2.15,1.18,4.46-0.65,5.65-2.3c1.7-2.36,2.67-5.28,3.62-8c1.33-3.81,2.49-7.7,4.05-11.43
			c1.22-2.92,2.76-6.39,5.52-8.19c-0.5-0.65-1.01-1.31-1.51-1.96c-1.59,1.47-2.67,3.47-3.52,5.44c-1.12,2.59-1.91,5.32-2.42,8.1
			c-0.9,4.92-1.41,11.03,1.24,15.54c2.42,4.13,8.11,5.07,11.75,1.91c4.05-3.52,4.76-10.17,4.64-15.17
			c-0.14-5.45-1.36-13.18-6.54-16.23c-0.32,0.76-0.64,1.52-0.96,2.28c2.85,0.78,5.75,1.47,8.72,1.62c2.94,0.15,5.86-0.34,8.66-1.21
			c-0.53-0.4-1.05-0.8-1.58-1.21c0.07,3.63-0.24,7.28-0.43,10.9c-0.25,4.93-0.53,9.85-0.75,14.78c-0.07,1.66-0.17,3.33-0.14,5
			c0.02,1.17,1.77,1.8,2.33,0.63c0.69-1.43,0.96-3.05,1.23-4.6c0.4-2.31,0.71-4.63,1.05-6.95c0.74-5.1,1.44-10.37,3.25-15.22
			c0.58-1.57,1.37-3.42,2.76-4.46c0.42-0.31,0.95-0.51,1.46-0.52c0.18,0,0.4,0.02,0.31,0.01c-0.05,0-0.04-0.1,0.09,0.05
			c-0.19-0.23,0.1,0.1,0.13,0.14c0.09,0.11,0.01-0.01,0.15,0.22c0.86,1.43,1.01,3.61,1.13,5.35c0.2,2.71,0.16,5.44,0.06,8.15
			c-0.2,5.28-0.66,10.56-1.33,15.8c-0.16,1.26,1.77,1.66,2.33,0.63c1.76-3.26,2.53-7.2,3.52-10.74c1.28-4.59,2.47-9.24,4.2-13.68
			c0.51-1.32,1.21-2.95,2.03-3.86c0.08-0.09,0.19-0.17,0.28-0.26c-0.15,0.16,0.01,0.05,0.06-0.02c-0.06,0.07-0.19,0.02-0.19,0.02
			c0.05,0.07,0.29,0.11,0.29,0.12c0.24,0.2,0.29,0.28,0.46,0.63c0.7,1.4,0.7,3.39,0.71,4.98c0.02,2.49-0.19,4.97-0.43,7.45
			c-0.27,2.77-0.61,5.54-0.86,8.31c-0.19,2.02-0.39,4.07-0.12,6.1c0.06,0.42,0.5,0.76,0.87,0.87c4.28,1.3,6.98-4.06,8.44-7.14
			c2.51-5.29,4.24-10.92,6.79-16.19c1.09-2.25,2.31-4.68,4.32-6.25c-0.59-0.59-1.18-1.18-1.77-1.77
			c-4.54,4.04-6.29,10.14-6.23,16.07c0.03,2.68,0.3,5.4,0.87,8.02c0.52,2.39,1.32,4.91,2.93,6.8c4.01,4.71,8.98-0.58,11.33-4.2
			c1.58-2.43,2.91-5.27,3.08-8.2c0.12-1.99-0.06-4.02-0.3-5.99c-0.52-4.34-1.64-12.36-7.24-12.86c0,0.83,0,1.67,0,2.5
			c5.36,0.08,10.97,0.32,15.57-2.89c-0.61-0.25-1.22-0.5-1.84-0.75c0.71,1.8,0.79,3.85,0.87,5.76c0.12,2.81,0.05,5.64-0.08,8.45
			c-0.22,4.84-0.6,9.69-1.18,14.5c0.82-0.11,1.64-0.22,2.46-0.33c-1.08-4.05-0.89-8.6-0.19-12.69c0.73-4.27,2.2-9.34,5.89-12.02
			c2.05-1.49,4.54-1.81,6.99-1.32c-0.31-0.4-0.61-0.8-0.92-1.21c0.19,9.41-0.49,18.83-0.29,28.25c0.82-0.11,1.64-0.22,2.46-0.33
			c-0.64-1.79-0.61-3.81-0.58-5.68c0.05-2.72,0.33-5.44,0.78-8.12c0.45-2.62,1.05-5.25,2-7.74c0.63-1.65,1.45-3.49,3.05-4.25
			c4.04-1.93,8.66-0.16,12.9-0.14c0-0.83,0-1.67,0-2.5c-5.55,0.22-9.12,5-10.64,9.92c-1.56,5.03-1.56,11.41,1.52,15.9
			c1.5,2.18,3.71,3.78,6.33,4.3c2.48,0.49,5.22,0.61,7.45-0.77c4.55-2.84,5.55-9.32,5.46-14.23c-0.09-5-1.34-12.68-6.73-14.73
			c0.1,0.76,0.2,1.52,0.3,2.28c5.14-2.58,11.21-0.76,16.42,0.64c-0.31-0.4-0.61-0.8-0.92-1.21c0,1.57-0.44,3.16-0.81,4.73
			c-0.56,2.4-1.19,4.78-1.77,7.18c-1.04,4.31-2.42,9.2-1.69,13.67c0.26,1.58,1.02,3.15,2.59,3.76c1.51,0.59,3.53,0.32,4.92-0.48
			c3.72-2.14,4.78-7.55,5.44-11.41c0.49-2.83,0.77-5.7,0.99-8.57c0.15-1.94,0.26-4.41,0.49-6.06c0.22-1.54-1.99-2.27-2.41-0.66
			c-0.9,3.46-1.14,7.19-1.28,10.74c-0.16,4.15-0.2,8.84,1.53,12.72c0.64,1.43,1.69,2.78,3.25,3.25c1.71,0.51,3.55-0.09,4.92-1.15
			c3.7-2.87,4.38-8.5,4.82-12.82c0.3-3.03,0.39-6.07,0.48-9.1c0.07-2.29,0.04-4.64,0.46-6.9c-0.29,0.29-0.58,0.58-0.87,0.87
			c5.17-0.78,10.36-1.49,15.55-2.17c2.21-0.29,4.41-0.58,6.62-0.84c0.7-0.09,1.41-0.17,2.12-0.24c0.19-0.02,0.39-0.02,0.58-0.06
			c0.24-0.04,0.46,0.09-0.02-0.06c-0.31-0.4-0.61-0.8-0.92-1.21c0,0,0,0,0,0c0.21-0.36,0.41-0.72,0.62-1.08
			c0.34-0.2,0.33-0.13,0.16-0.09c-1.57,0.35-0.9,2.77,0.66,2.41c0.15-0.03,0.3-0.08,0.44-0.17c0.37-0.22,0.63-0.64,0.62-1.08
			c0,0,0,0,0,0c-0.01-0.57-0.38-1.04-0.92-1.21c-0.9-0.28-2.25,0.14-3.14,0.24c-2.28,0.27-4.55,0.57-6.82,0.87
			c-5.41,0.71-10.82,1.44-16.21,2.26c-0.39,0.06-0.8,0.49-0.87,0.87c-0.77,4.12-0.53,8.44-0.74,12.62
			c-0.22,4.31-0.39,9.38-2.67,13.18c-0.74,1.24-1.95,2.43-3.41,2.52c-1.06,0.07-1.72-0.59-2.28-1.65c-1.68-3.2-1.55-7.51-1.47-11.01
			c0.08-3.65,0.29-7.5,1.22-11.06c-0.8-0.22-1.61-0.44-2.41-0.66c-0.53,3.83-0.58,7.71-1.04,11.55c-0.27,2.3-0.65,4.6-1.26,6.84
			c-0.48,1.77-1.1,3.67-2.29,5.11c-0.93,1.12-2.16,1.62-3.62,1.44c-0.36-0.04-0.62-0.19-0.86-0.5c-0.26-0.35-0.45-1-0.54-1.6
			c-0.61-3.99,0.72-8.45,1.64-12.29c0.58-2.44,1.23-4.87,1.8-7.31c0.41-1.75,0.9-3.59,0.9-5.4c0-0.55-0.39-1.06-0.92-1.21
			c-5.96-1.6-12.51-3.32-18.35-0.39c-1.05,0.53-0.62,1.93,0.3,2.28c3.43,1.3,4.5,7.08,4.79,10.36c0.37,4.21,0.11,9.79-2.96,13.06
			c-1.41,1.5-3.08,1.84-5.06,1.66c-2.23-0.2-4.16-0.75-5.73-2.44c-3.06-3.28-3.35-8.64-2.5-12.81c0.89-4.42,3.59-9.92,8.75-10.13
			c1.6-0.06,1.62-2.49,0-2.5c-4.09-0.02-8.27-1.48-12.31-0.25c-2.55,0.77-4.1,2.21-5.24,4.58c-2.51,5.19-3.38,11.4-3.64,17.11
			c-0.11,2.48-0.22,5.28,0.63,7.66c0.45,1.27,2.49,1.15,2.46-0.33c-0.19-9.41,0.49-18.83,0.29-28.25c-0.01-0.52-0.38-1.1-0.92-1.21
			c-12.39-2.49-16.43,11.97-16.55,21.55c-0.03,2.52,0.14,5.11,0.79,7.56c0.39,1.46,2.3,0.99,2.46-0.33
			c0.59-4.92,0.98-9.87,1.19-14.82c0.12-2.8,0.18-5.6,0.05-8.4c-0.1-2.03-0.19-4.24-0.95-6.15c-0.27-0.69-1.11-1.25-1.84-0.75
			c-4.24,2.95-9.39,2.62-14.31,2.55c-1.63-0.02-1.58,2.36,0,2.5c1.53,0.13,2.45,1.88,2.99,3.11c0.88,2.01,1.32,4.24,1.64,6.4
			c0.27,1.87,0.42,3.76,0.43,5.65c0.01,2.09-0.53,4.01-1.47,5.89c-1.13,2.25-2.64,4.49-4.62,6.08c-1.33,1.07-2.54,1.48-3.81,0.15
			c-1.35-1.4-1.95-3.48-2.4-5.32c-0.56-2.29-0.83-4.64-0.91-7c-0.21-5.64,1.1-11.44,5.47-15.33c1.23-1.09-0.53-2.73-1.77-1.77
			c-1.66,1.3-2.83,3.19-3.82,5.02c-1.32,2.43-2.37,4.99-3.4,7.55c-1.92,4.76-3.48,9.97-6.42,14.22c-0.49,0.71-1.12,1.46-1.79,1.89
			c-0.64,0.4-1.03,0.46-1.69,0.26c0.29,0.29,0.58,0.58,0.87,0.87c-0.2-1.47,0.05-3.72,0.21-5.43c0.25-2.63,0.56-5.25,0.82-7.88
			c0.26-2.61,0.48-5.24,0.47-7.87c-0.01-1.98-0.09-4.14-0.93-5.97c-0.59-1.29-1.92-2.54-3.46-2.19c-1.34,0.31-2.19,1.68-2.8,2.81
			c-2.21,4.11-3.35,8.86-4.61,13.32c-0.77,2.73-1.51,5.48-2.31,8.2c-0.54,1.82-1.05,3.79-1.91,5.38c0.78,0.21,1.55,0.42,2.33,0.63
			c0.62-4.87,1.06-9.78,1.28-14.69c0.13-2.93,0.2-5.87,0.02-8.79c-0.13-2.2-0.31-4.6-1.26-6.62c-0.78-1.66-2.21-2.41-4.03-2.03
			c-1.84,0.38-3.19,1.83-4.13,3.37c-2.67,4.35-3.45,9.93-4.25,14.88c-0.48,3-0.87,6.02-1.34,9.02c-0.18,1.16-0.37,2.31-0.62,3.46
			c-0.09,0.43-0.2,0.87-0.32,1.29c-0.12,0.4-0.25,0.75-0.3,0.86c0.78,0.21,1.55,0.42,2.33,0.63c-0.07-3.63,0.24-7.28,0.43-10.9
			c0.25-4.93,0.53-9.85,0.75-14.78c0.07-1.66,0.17-3.33,0.14-5c-0.01-0.79-0.79-1.45-1.58-1.21c-2.61,0.81-5.26,1.25-8,1.12
			c-2.74-0.14-5.42-0.81-8.05-1.53c-1.37-0.37-2.19,1.56-0.96,2.28c3.78,2.23,4.84,8.02,5.19,12c0.41,4.63,0.17,10.36-2.67,14.27
			c-2.08,2.86-6.52,3.34-8.65,0.26c-2.46-3.55-2.08-8.93-1.45-12.97c0.43-2.79,1.14-5.56,2.19-8.18c0.77-1.92,1.75-3.92,3.29-5.34
			c1.04-0.95-0.32-2.74-1.51-1.96c-2.41,1.57-4.02,4.08-5.29,6.61c-1.54,3.09-2.68,6.37-3.78,9.63c-1.03,3.05-1.96,6.16-3.27,9.1
			c-0.5,1.12-1.04,2.27-1.8,3.24c-0.52,0.66-1.04,1.15-1.66,1.28c-0.14,0.03-0.45,0.03-0.69-0.03c0.4,0.11,0.13,0.22,0.08-0.02
			c-0.01-0.04,0.03,0.08-0.11-0.18c-0.3-0.56-0.52-1.31-0.68-2.18c-0.49-2.54-0.49-5.2-0.47-7.78c0.06-7.64,0.83-15.28,1.72-22.86
			c0.95-8.04,2.1-16.07,3.65-24.02c-0.82-0.11-1.64-0.22-2.46-0.33c-1.18,9.59-2.37,19.18-4.42,28.63c-1.04,4.8-2.3,9.58-4.05,14.18
			c-1.41,3.69-3.18,7.46-5.86,10.41c-2.45,2.69-5.55,4.24-9.22,3.79C840.07,218.32,840.09,220.82,841.67,221.02L841.67,221.02z"/>
	</g>
</g>
<g>
	<g>
		<path d="M848.75,181.31c9.96-4.22,21.55-3.5,32.05-2.48c1.6,0.16,1.59-2.35,0-2.5c-11.04-1.07-22.88-1.6-33.31,2.82
			C846.01,179.78,847.29,181.93,848.75,181.31L848.75,181.31z"/>
	</g>
</g>
<g>
	<g>
		<path class="st0" d="M612.9,345.21c0.37-10.29,1.95-20.43,2.66-30.68c0.52-7.51,0.47-15.05,0.97-22.57
			c0.22-3.28,0.4-6.66,1.21-9.86c0.28-1.12,0.45-1.73,1.49-2.42c1.6-1.08,3.72-1.46,5.62-1.39c1.59,0.06,3.08,0.47,3.94,1.87
			c0.58,0.95,1.11,1.95,1.54,2.98c1.02,2.45,1.56,5.09,1.44,7.75c-0.42,9.98-9.78,16.66-17.8,20.85c-1.22,0.64-0.48,2.19,0.63,2.33
			c3.07,0.38,6.52,0.75,9.2,2.43c2.41,1.51,3.28,4.22,3.52,6.93c0.51,5.77-0.14,12.87-4.33,17.26c-2.84,2.98-6.88,4.08-10.89,4.26
			c-1.6,0.07-1.61,2.57,0,2.5c4.15-0.18,8.24-1.22,11.5-3.91c2.69-2.22,4.39-5.43,5.3-8.75c0.93-3.39,1.17-7.03,0.98-10.53
			c-0.18-3.38-1.02-6.91-3.76-9.15c-3.17-2.58-7.62-3.05-11.53-3.54c0.21,0.78,0.42,1.55,0.63,2.33
			c8.1-4.24,17.01-10.72,18.74-20.35c0.55-3.06,0.34-6.21-0.56-9.19c-0.72-2.37-1.91-5.72-4-7.23c-3.22-2.33-8.78-1.58-11.84,0.68
			c-2.43,1.8-2.62,5.18-2.97,7.95c-0.9,7.15-0.93,14.37-1.16,21.56c-0.41,12.69-2.57,25.21-3.03,37.9
			C610.35,346.82,612.85,346.82,612.9,345.21L612.9,345.21z"/>
	</g>
</g>
<g>
	<g>
		<path class="st0" d="M634.42,341.95c2.45-1.61,4.63-3.71,6.71-5.76c2.68-2.64,5.23-5.42,7.52-8.41c1.61-2.1,3.66-4.7,3.92-7.44
			c0.25-2.65-2.09-3.62-4.38-3.38c-2.07,0.21-4.14,1.87-5.48,3.36c-1.56,1.73-2.67,3.78-3.54,5.93c-0.93,2.29-1.56,4.69-2.04,7.1
			c-0.48,2.4-1.24,5.2-0.75,7.64c0.42,2.07,1.79,3.71,3.46,4.92c1.66,1.21,3.52,1.26,5.41,0.55c2.18-0.81,4.24-2.26,5.7-4.07
			c1.11-1.38,1.77-3.11,2.52-4.71c3.43-7.32,8.41-18.31,18.38-15.32c1.37,0.41,2.17-1.56,0.96-2.28c-5.85-3.5-11.13,1.26-14.4,5.92
			c-2.77,3.96-5.89,9.01-5.46,14.05c0.23,2.63,1.52,5.02,3.94,6.23c3.17,1.59,6.53,1.14,9.46-0.74c2.19-1.41,4.16-3.36,5.94-5.25
			c2.25-2.4,3.97-5.23,5.49-8.13c2.68-5.09,5.19-12.71,12.06-12.8c0-0.83,0-1.67,0-2.5c-5.37,0.2-9.61,3.7-12.11,8.29
			c-1.98,3.63-3.35,8.03-2.75,12.19c0.51,3.53,2.36,7.35,6.21,8.06c4.99,0.92,8.96-4.04,10.8-8.11c1.31-2.91,2.29-6.15,2.95-9.27
			c0.75-3.56,0.9-7.31-0.5-10.74c-0.76,0.32-1.52,0.64-2.28,0.96c0.75,1.23,0.75,3.14,0.75,4.67c0,2.38-0.21,4.75-0.42,7.12
			c-0.37,4.23-1.26,8.98-0.26,13.18c0.33,1.39,1.1,2.77,2.59,3.11c1.43,0.33,3.19,0.28,4.55-0.61c1.61-1.04,2.65-2.81,3.43-4.51
			c1.05-2.32,1.77-4.78,2.37-7.26c1.33-5.51,1.96-11.15,3.21-16.68c-0.8-0.22-1.61-0.44-2.41-0.66c-0.87,4.17-1.37,8.45-1.61,12.69
			c-0.24,4.3-0.43,9.24,1.32,13.28c0.62,1.43,1.63,2.76,3.16,3.27c1.41,0.46,3.25,0.14,4.47-0.67c1.48-0.98,2.23-2.87,2.8-4.47
			c0.84-2.37,1.32-4.86,1.72-7.34c0.87-5.46,1.39-11.07,1.3-16.6c-0.02-1.35-2.2-1.77-2.46-0.33c-0.6,3.38-0.73,6.85-0.75,10.28
			c-0.02,3.97,0.16,7.97,0.83,11.89c0.41,2.38,1.01,5.91,3.29,7.29c2.42,1.46,4.6-0.96,5.72-2.89c1.66-2.86,2.53-6.2,3.35-9.37
			c0.93-3.64,1.68-7.32,2.67-10.95c0.37-1.37,0.76-2.75,1.32-4.05c0.21-0.5,0.46-0.99,0.75-1.45c0.19-0.29,0.49-0.6,0.58-0.67
			c0.2-0.14-0.03-0.12,0.31-0.12c-0.31,0,0.06,0.03,0.2,0.08c0.42,0.14,0.8,0.33,1.17,0.66c1,0.88,1.63,2.2,2.09,3.43
			c1.52,4.04,1.89,8.52,1.78,12.8c-0.09,3.67-0.44,7.95-2.48,11.12c0.36-0.21,0.72-0.41,1.08-0.62c-0.82,0-2.01-0.16-2.26-0.65
			c-0.37-0.73,0.04-1.9,0.34-2.7c1.03-2.72,2.88-5.2,4.64-7.48c1.43-1.86,2.93-4.26,5.25-5.01c4.03-1.29,8.38-1.16,12.43-2.45
			c2.99-0.95,5.71-2.21,6.86-5.28c0.73-1.93,0.78-4.38-0.48-6.11c-1.66-2.28-4.67-2.02-7.01-1.09c-0.89,0.36-1.74,0.79-2.56,1.28
			c-1.1,0.66-1.78,1.51-2.49,2.57c-1.15,1.71-2.05,3.65-2.45,5.68c-1.92,9.91,7.26,17.36,15.23,21.1c1.45,0.68,2.72-1.48,1.26-2.16
			c-7.54-3.53-17.28-11.13-13.37-20.64c0.44-1.07,1.04-2.09,1.71-3.03c0.78-1.1,1.86-1.71,3.07-2.26c1.1-0.5,2.68-1.08,3.86-0.58
			c1.65,0.7,1.42,3.27,0.74,4.75c-0.51,1.11-1.26,1.73-2.34,2.28c-2.37,1.19-5.01,1.77-7.62,2.19c-3.53,0.57-8.26,0.49-10.87,3.35
			c-1.94,2.13-3.73,4.45-5.34,6.83c-1.56,2.29-3.5,5.17-3.49,8.06c0,1.23,0.52,2.39,1.57,3.08c0.98,0.64,3.25,1.27,4.2,0.39
			c0.94-0.87,1.42-2.69,1.78-3.87c0.47-1.57,0.75-3.19,0.95-4.81c0.45-3.63,0.4-7.32-0.08-10.94c-0.41-3.1-1.08-6.36-2.71-9.07
			c-1.06-1.76-3.2-3.94-5.5-3.28c-1.98,0.57-2.89,3.01-3.52,4.73c-2.2,6.01-2.94,12.47-4.92,18.55c-0.7,2.15-1.53,4.84-3.38,6.31
			c-0.44,0.35-0.6,0.3-0.98-0.07c-0.57-0.57-0.97-1.67-1.24-2.56c-0.94-3.1-1.19-6.41-1.34-9.63c-0.17-3.53-0.14-7.09,0.13-10.62
			c0.09-1.22,0.21-2.44,0.43-3.64c-0.82-0.11-1.64-0.22-2.46-0.33c0.07,4.35-0.27,8.73-0.8,13.04c-0.29,2.41-0.68,4.81-1.24,7.17
			c-0.42,1.77-0.9,3.64-1.87,5.21c-0.29,0.46-0.65,0.88-0.94,1.01c-0.35,0.17-1.13,0.38-1.64,0.37c-0.42-0.01-0.8-0.15-1.12-0.42
			c-0.47-0.39-0.77-0.91-1.04-1.5c-1.54-3.41-1.32-7.77-1.16-11.41c0.19-4.34,0.68-8.7,1.57-12.96c0.33-1.57-2.05-2.24-2.41-0.66
			c-1.02,4.54-1.6,9.17-2.55,13.72c-0.51,2.46-1.08,4.91-1.88,7.29c-0.59,1.75-1.29,3.63-2.49,5.06c-1.08,1.28-1.84,1.29-3.31,1.2
			c-0.4-0.02-0.23,0.05-0.5-0.03c0.1,0.03-0.04,0.01-0.2-0.23c0.11,0.15-0.19-0.42-0.18-0.37c-0.13-0.32-0.21-0.67-0.27-1.01
			c-0.34-1.78-0.22-3.68-0.12-5.47c0.12-2.29,0.35-4.58,0.55-6.86c0.22-2.5,0.44-5.02,0.4-7.54c-0.03-1.79-0.13-3.81-1.09-5.38
			c-0.7-1.16-2.84-0.39-2.28,0.96c2.13,5.23,0.34,10.9-1.43,15.96c-0.7,2.01-1.52,3.82-2.83,5.52c-1.07,1.39-2.69,3.32-4.55,3.6
			c-3.43,0.5-5.15-2.7-5.69-5.55c-0.59-3.08,0.25-6.25,1.43-9.1c1.9-4.59,5.62-8.8,10.89-9c1.6-0.06,1.62-2.52,0-2.5
			c-5.44,0.07-8.78,3.81-11.24,8.27c-2.89,5.25-5.12,10.62-9.54,14.82c-1.7,1.62-3.33,3.34-5.53,4.29
			c-2.39,1.04-5.72,0.59-7.24-1.72c-2.45-3.72,0.34-8.7,2.23-12c2.44-4.25,7.27-11.73,13.04-8.28c0.32-0.76,0.64-1.52,0.96-2.28
			c-3.66-1.1-7.5-0.76-10.72,1.4c-3,2.01-5.19,5.03-6.98,8.12c-1.78,3.07-3.16,6.33-4.72,9.5c-0.84,1.69-1.95,2.99-3.54,4.04
			c-1.34,0.88-3.4,2.04-4.96,1.09c-1.46-0.9-2.67-2.36-2.85-4.11c-0.22-2.16,0.52-4.69,0.97-6.79c0.9-4.15,2.23-8.73,5.39-11.75
			c1.13-1.08,2.64-2.18,4.27-2.03c0.31,0.03,0.44,0.04,0.72,0.23c-0.09-0.06,0,0.13,0,0.08c-0.08,1.85-1.59,4.05-2.83,5.76
			c-2.18,3.01-4.73,5.78-7.36,8.4c-2.08,2.08-4.25,4.26-6.73,5.89C631.82,340.67,633.07,342.84,634.42,341.95L634.42,341.95z"/>
	</g>
</g>
<g>
	<g>
		<path class="st0" d="M876.3,342.07c4.61-2.52,7.98-7.1,11.28-11.05c3.53-4.24,7.2-9.08,12.13-11.77c2.29-1.24,4.76-1.68,7.27-0.87
			c0.11-0.82,0.22-1.64,0.33-2.46c-5.37-0.38-10.3,1.93-13.19,6.52c-2.35,3.72-3.33,8.57-2.44,12.89c0.34,1.63,1.04,3.34,2.34,4.44
			c1.74,1.48,4.39,1.94,6.59,1.57c5.13-0.87,8.83-5.9,11.7-9.8c3.87-5.25,7.18-11.44,12.35-15.56c0.97-0.78-0.08-2.5-1.22-2.09
			c-4.1,1.47-7.15,5.5-9.26,9.12c-2.16,3.7-4.23,8.56-3.21,12.93c1.1,4.68,6.4,5.89,10.53,4.72c5.19-1.46,8.31-6.26,9.33-11.33
			c1-4.92,0.7-11.53-3.08-15.3c-1.02-1.02-2.63,0.27-1.96,1.51c0.4,0.74,0.58,2.27,0.66,3.37c0.14,1.85,0.16,3.71,0.19,5.56
			c0.05,3.85-0.04,7.8,0.73,11.59c0.5,2.5,1.92,5.68,5.04,5.04c1.86-0.38,3.48-2.1,4.59-3.53c1.48-1.91,2.54-4.08,3.43-6.32
			c1.98-5.01,3.03-10.38,3.69-15.71c-0.83,0-1.67,0-2.5,0c-0.19,8.42,0.74,16.83,0.56,25.25c0.82-0.11,1.64-0.22,2.46-0.33
			c-0.42-1-0.35-2.09-0.35-3.25c0.01-1.81,0.14-3.62,0.33-5.43c0.41-3.95,1.04-7.94,2.21-11.74c0.37-1.2,0.91-2.73,1.56-3.58
			c0.05-0.06,0.43-0.46,0.22-0.24c0.15-0.15,0.03-0.09,0.19-0.06c0.19,0.03,0.56,0.24,0.94,0.6c2.45,2.33,3.86,5.57,6.88,7.32
			c4.04,2.35,8.93,0,11.47-3.5c1.25-1.71,1.73-4.06,0.06-5.68c-1.4-1.35-3.62-1.92-5.51-1.6c-4.07,0.69-6.83,4.86-8.5,8.29
			c-1.54,3.18-2.88,6.88-2.44,10.47c0.45,3.75,2.51,7.39,5.9,9.22c5.18,2.79,11.3,0.75,16.11-1.83c1.42-0.76,0.16-2.92-1.26-2.16
			c-3.84,2.07-8.9,4.02-13.17,2.04c-2.73-1.26-4.42-3.95-4.99-6.83c-0.61-3.08,0.5-6.36,1.77-9.13c1.31-2.85,3.6-7.09,7.08-7.63
			c1.15-0.18,3.76,0.36,3.62,1.91c-0.19,1.96-2.8,3.71-4.41,4.42c-3.45,1.52-5.97-1.04-7.97-3.57c-1.41-1.78-3.37-5.37-6.15-4.79
			c-2.38,0.5-3.29,3.9-3.87,5.87c-1.2,4.03-1.84,8.27-2.26,12.45c-0.18,1.81-0.31,3.64-0.3,5.46c0.01,1.16-0.02,2.53,0.44,3.62
			c0.51,1.23,2.42,1.18,2.46-0.33c0.19-8.42-0.74-16.83-0.56-25.25c0.04-1.65-2.31-1.55-2.5,0c-0.53,4.27-1.39,8.54-2.73,12.62
			c-0.71,2.17-1.57,4.29-2.74,6.25c-0.91,1.52-2.17,3.32-3.85,4.09c-0.81,0.37-1.16,0.2-1.57-0.4c-0.69-0.99-0.9-2.34-1.09-3.51
			c-0.55-3.49-0.45-7.1-0.5-10.62c-0.03-1.89-0.05-3.78-0.23-5.66c-0.13-1.37-0.29-2.8-0.95-4.03c-0.65,0.5-1.31,1.01-1.96,1.51
			c2.7,2.69,3.05,7.37,2.73,10.95c-0.38,4.23-2.23,8.78-6.17,10.84c-2.71,1.41-7.84,1.77-9.03-1.82c-1.12-3.37,0.68-7.51,2.24-10.44
			c1.78-3.35,4.6-7.67,8.35-9.01c-0.41-0.7-0.81-1.39-1.22-2.09c-4.09,3.26-7,7.9-9.95,12.15c-2.81,4.03-5.75,8.85-10.06,11.45
			c-1.61,0.97-3.42,1.45-5.27,0.96c-1.59-0.43-2.46-1.07-3.07-2.54c-1.34-3.29-0.69-7.5,0.73-10.65c2.21-4.91,6.67-7.53,12.04-7.15
			c1.46,0.1,1.62-2.04,0.33-2.46c-5.24-1.69-10.1,1.15-13.9,4.58c-4.54,4.1-8.1,9.14-12.18,13.67c-1.93,2.14-3.99,4.3-6.53,5.7
			C873.63,340.69,874.89,342.85,876.3,342.07L876.3,342.07z"/>
	</g>
</g>
<g>
	<g>
		<path class="st0" d="M983.42,336.5c-2.35,6.97-4.39,13.99-6.33,21.08c-0.42,1.55,1.99,2.22,2.41,0.66
			c1.94-7.09,3.98-14.11,6.33-21.08C986.35,335.63,983.94,334.98,983.42,336.5L983.42,336.5z"/>
	</g>
</g>
<g>
	<g>
		<path class="st0" d="M1020.56,344.33c8.61,0.15,17.85-1.48,23.36-8.72c1.76-2.31,2.96-4.93,4.07-7.6
			c1.23-2.92,2.38-6.12,4.53-8.51c3.39-3.77,8.66-3.72,13.33-3.13c0-0.83,0-1.67,0-2.5c-7.37-0.66-13.49,4.86-16.66,11.04
			c-2.42,4.71-4.67,12.79-0.02,16.97c2.89,2.6,7.31,2.27,10.66,0.85c4.24-1.8,7.44-5.1,8.77-9.52c1.09-3.63,1.55-7.46,1.93-11.23
			c0.47-4.64,0.69-9.3,0.84-13.96c0.3-9.33,0.06-18.67,0.49-27.99c-0.83,0-1.67,0-2.5,0c-0.5,14.92-0.32,29.85-0.74,44.77
			c-0.08,2.73-0.11,5.44,0.17,8.15c0.26,2.51,0.58,5.83,2.47,7.73c2.09,2.08,5.6,0.35,7.36-1.33c2.01-1.91,3.15-4.57,4.02-7.15
			c1.01-2.98,1.52-6.08,2.47-9.07c0.43-1.37,1.07-2.67,2.16-3.64c1.48-1.32,3.5-1.81,5.41-2.11c-0.22-0.8-0.44-1.61-0.66-2.41
			c-2.86,0.93-5.42,2.6-6.83,5.33c-1.15,2.24-1.46,4.76-1.53,7.24c-0.08,2.56,0.12,5.2,0.97,7.64c0.99,2.83,3.75,5.58,6.48,6.78
			c4.8,2.12,9.71-0.68,12.56-4.6c2.3-3.17,2.43-7.2,1.96-10.97c-0.32-2.55-1.04-5.15-2.58-7.24c-1.78-2.41-4.34-3.66-7.29-3.91
			c-1.39-0.12-1.72,2.21-0.33,2.46c5.46,0.98,11.05,1.3,16.58,1.6c5.4,0.3,10.84,0.55,16.24,0.37c1.6-0.05,1.61-2.55,0-2.5
			c-5.29,0.18-10.61-0.07-15.9-0.35c-5.42-0.29-10.91-0.57-16.26-1.53c-0.11,0.82-0.22,1.64-0.33,2.46
			c4.32,0.37,6.47,3.86,7.23,7.79c0.52,2.71,0.82,6.42-0.47,8.96c-1.57,3.08-5,6.19-8.7,5.69c-2.68-0.36-4.8-2.57-6.23-4.69
			c-1.15-1.7-1.45-4.3-1.44-6.32c0-2.21,0.06-4.47,0.78-6.58c0.93-2.7,3.13-4.36,5.78-5.21c1.56-0.5,0.9-2.66-0.66-2.41
			c-3.14,0.51-6.15,1.72-7.95,4.47c-1.52,2.32-1.91,5.2-2.56,7.85c-0.55,2.27-1.26,4.63-2.26,6.75c-0.59,1.26-1.31,2.48-2.31,3.46
			c-0.78,0.77-2.37,1.9-3.56,1.63c-1.54-0.35-1.92-4.55-2.07-5.88c-0.3-2.63-0.3-5.26-0.22-7.9c0.21-7.15,0.27-14.3,0.35-21.45
			c0.09-7.95,0.14-15.91,0.4-23.86c0.05-1.61-2.43-1.6-2.5,0c-0.72,15.7,0.54,31.63-2,47.21c-0.5,3.07-1.04,6.65-3.04,9.14
			c-2.62,3.25-7.32,5.8-11.54,4.66c-5.28-1.42-3.83-8.86-2.45-12.57c2.39-6.4,8.14-12.76,15.53-12.11c1.62,0.14,1.56-2.3,0-2.5
			c-4.37-0.55-9.33-0.59-13.08,2.08c-3.02,2.15-4.68,5.52-6.11,8.84c-2.34,5.45-4.54,10.84-9.98,13.92
			c-4.85,2.74-10.66,3.22-16.12,3.12C1018.95,341.8,1018.95,344.3,1020.56,344.33L1020.56,344.33z"/>
	</g>
</g>
<g>
	<g>
		<path class="st0" d="M1163.18,337.54c7.09,0.61,15.51,0.5,21.2-4.44c3.45-3,4.84-7.36,5.75-11.69c0.36-1.73,0.74-3.9,1.41-5.2
			c-0.76-0.32-1.52-0.64-2.28-0.96c-0.61,3.29-0.74,6.72-0.57,10.06c0.17,3.46,0.58,7.61,2.94,10.35c2.01,2.33,5.49,2.51,7.94,0.8
			c3.09-2.16,5.03-5.85,6.62-9.17c1.86-3.88,3.29-7.93,4.85-11.94c-0.82-0.11-1.64-0.22-2.46-0.33c0.01,14.38,0.52,28.79-0.82,43.13
			c-0.66,7.05-1.78,14.07-3.74,20.88c-0.96,3.35-2.11,6.65-3.54,9.84c-0.59,1.32-1.16,2.76-1.96,3.98c-0.5,0.77-1.17,1.45-1.78,2.14
			c-0.79,0.88-1.6,1.75-2.46,2.57c-0.53,0.5-1.04,1.15-1.85,0.97c-1.16-0.26-1.84-1.86-2.17-2.85c-0.51-1.56-0.45-3.17-0.36-4.8
			c0.42-7.81,3.26-15.28,6.75-22.2c2.7-5.35,5.85-10.44,8.41-15.86c2.38-5.04,4.6-10.16,6.99-15.2c2.24-4.73,4.58-9.48,7.56-13.78
			c1.86-2.68,4.48-6.18,7.95-6.75c0.61-0.1,1.24-0.07,1.85,0.06c0.22-0.8,0.44-1.61,0.66-2.41c-4-0.74-7.56,0.99-9.59,4.51
			c-2.17,3.75-2.46,8.42-1.71,12.61c0.36,2.06,0.97,4.89,2.42,6.48c1.32,1.44,3.5,1.77,5.37,1.66c2.01-0.12,4.15-0.67,5.79-1.88
			c2.21-1.63,4.14-4.38,5.26-6.86c2.22-4.92,0.91-9.73-2.34-13.81c-0.29,0.71-0.59,1.42-0.88,2.13c3.1-0.33,6.17-0.82,9.27-1.15
			c-0.42-0.42-0.83-0.83-1.25-1.25c0.04,3.84-0.98,7.64-1.46,11.43c-0.35,2.8-0.89,6.94,1.58,8.99c2.11,1.76,5.06,1.29,6.88-0.6
			c2.2-2.28,3.22-5.67,3.96-8.67c0.89-3.59,1.41-7.32,1.58-11.01c0.08-1.62-2.38-1.59-2.5,0c-0.45,6.18-0.82,13.71,3.68,18.64
			c3.38,3.71,9.48,4.75,14.25,4.77c2.97,0.01,5.99-0.43,8.68-1.74c1.45-0.7,0.18-2.86-1.26-2.16c-2.62,1.27-5.7,1.5-8.56,1.37
			c-2.99-0.14-6.12-0.74-8.78-2.14c-6.58-3.45-5.95-12.44-5.49-18.74c-0.83,0-1.67,0-2.5,0c-0.13,2.82-0.49,5.62-1.05,8.38
			c-0.57,2.79-1.29,5.71-2.76,8.17c-0.89,1.49-2.46,3.11-4.29,1.97c-0.86-0.54-1.05-1.68-1.13-2.62c-0.13-1.59,0.04-3.2,0.24-4.78
			c0.49-3.74,1.48-7.49,1.44-11.27c-0.01-0.62-0.57-1.32-1.25-1.25c-3.1,0.33-6.17,0.82-9.27,1.15c-1.13,0.12-1.58,1.26-0.88,2.13
			c2.18,2.74,3.42,6.07,2.39,9.54c-0.64,2.14-1.95,4.06-3.41,5.72c-1.36,1.54-2.6,2.43-4.62,2.85c-1.35,0.28-3.23,0.44-4.45-0.36
			c-0.61-0.4-0.84-1.13-1.1-1.78c-0.39-0.98-0.69-1.99-0.93-3.01c-0.76-3.37-0.7-7.12,0.62-10.35c1.28-3.1,3.92-5.3,7.41-4.66
			c1.56,0.29,2.25-2.06,0.66-2.41c-3.79-0.83-7.1,1.34-9.59,4.01c-3.51,3.76-6.02,8.43-8.33,12.97c-2.76,5.43-5.19,11.03-7.73,16.56
			c-1.16,2.53-2.34,5.06-3.61,7.55c-1.45,2.85-3.12,5.59-4.65,8.4c-3.9,7.19-7.28,14.86-8.41,23.02c-0.48,3.45-0.91,7.21,0.64,10.46
			c1.08,2.27,3.6,4.36,6.16,2.87c1.87-1.08,3.45-3.19,4.83-4.82c1.84-2.17,2.92-4.76,4.01-7.37c2.89-6.91,4.68-14.24,5.81-21.64
			c2.32-15.25,2-30.73,1.89-46.11c-0.01-1.87-0.02-3.74-0.02-5.61c0-1.49-1.97-1.59-2.46-0.33c-1.19,3.06-2.28,6.16-3.6,9.17
			c-1.39,3.18-2.95,6.56-5.32,9.15c-1.51,1.65-3.9,3.09-5.91,1.3c-2.11-1.87-2.39-5.7-2.57-8.3c-0.22-3.33-0.16-6.8,0.45-10.08
			c0.24-1.31-1.59-2.31-2.28-0.96c-1.61,3.12-1.68,6.87-2.79,10.17c-1.54,4.57-4.83,7.7-9.46,9.08c-4.5,1.34-9.33,1.25-13.96,0.85
			C1161.58,334.9,1161.59,337.4,1163.18,337.54L1163.18,337.54z"/>
	</g>
</g>
<g>
	<g>
		<path class="st0" d="M1318.22,339.08c5.38-0.24,10.77-1.33,15.52-3.97c3.86-2.15,7.07-5.26,9.53-8.92
			c4.81-7.17,6.64-15.89,8.22-24.24c0.78-4.1,1.45-8.27,2.72-12.26c0.42-1.33-1.66-2.25-2.28-0.96c-2.75,5.7-4.21,12.05-5.26,18.26
			c-1.13,6.65-1.85,13.52-1.4,20.27c0.24,3.6,0.64,9.72,4.47,11.54c1.91,0.91,4.19,0.12,5.83-1.02c2.34-1.62,3.98-4.06,5.45-6.46
			c3.19-5.2,6.48-13.26,13.6-13.57c0-0.83,0-1.67,0-2.5c-7.91,0.41-9.43,11.09-8.41,17.21c0.37,2.2,1.26,4.46,3.15,5.77
			c1.87,1.3,4.33,1.45,6.48,0.81c4.94-1.47,7.27-6.59,7.57-11.39c0.29-4.65-1.3-10.72-5.92-12.81c-0.21,0.78-0.42,1.55-0.63,2.33
			c3.23,0.05,6.33,1.2,9.55,1.33c1.61,0.06,3.21-0.28,4.8-0.45c1.88-0.2,3.76-0.37,5.64-0.61c1.25-0.16,1.86-2.18,0.33-2.46
			c-5.33-0.96-8.89,4.89-9.74,9.42c-0.82,4.37,0.01,9.83,3.52,12.89c3.27,2.85,8.07,2.89,11.68,0.61c3.41-2.15,5.42-6.01,5.63-9.98
			c0.27-5.03-2.67-10.46-7.01-13c-0.21,0.78-0.42,1.55-0.63,2.33c5.88,0.45,12.11-0.36,17.14-3.63c1.34-0.87,0.09-3.04-1.26-2.16
			c-4.69,3.05-10.41,3.71-15.88,3.29c-1.27-0.1-1.65,1.73-0.63,2.33c5.82,3.41,7.87,12.23,3.04,17.3c-2.14,2.24-5.67,3.44-8.63,2.19
			c-3.36-1.42-4.64-5.34-4.74-8.71c-0.06-2.14,0.36-4.3,1.32-6.21c1.01-2,2.94-4.72,5.53-4.26c0.11-0.82,0.22-1.64,0.33-2.46
			c-1.8,0.23-3.6,0.39-5.41,0.58c-1.67,0.18-3.35,0.54-5.04,0.47c-3.22-0.12-6.32-1.28-9.55-1.33c-1.17-0.02-1.79,1.8-0.63,2.33
			c3.26,1.47,4.49,5.42,4.68,8.75c0.21,3.71-0.88,8.34-4.36,10.3c-1.54,0.87-3.58,1.23-5.23,0.45c-1.72-0.81-2.35-2.76-2.67-4.5
			c-0.48-2.67-0.25-5.59,0.43-8.2c0.73-2.77,2.31-5.89,5.53-6.06c1.6-0.08,1.61-2.57,0-2.5c-6.31,0.28-10.12,5.36-13.11,10.34
			c-1.49,2.48-2.84,5.09-4.61,7.4c-1.25,1.64-3.11,3.5-5.14,3.71c-0.51,0.05-0.82-0.01-1.34-0.4c-0.31-0.23-0.75-0.85-1.07-1.47
			c-0.94-1.84-1.26-4.12-1.47-6.18c-0.61-6.24-0.08-12.64,0.85-18.82c1-6.7,2.4-13.72,5.36-19.86c-0.76-0.32-1.52-0.64-2.28-0.96
			c-2.29,7.19-2.93,14.81-4.87,22.1c-2.1,7.91-5.59,15.97-12.61,20.7c-4.76,3.2-10.42,4.51-16.1,4.76
			C1316.62,336.66,1316.61,339.16,1318.22,339.08L1318.22,339.08z"/>
	</g>
</g>
<g>
	<g>
		<path class="st0" d="M1435.48,292.01c1.4-1.86,3.13-3.57,5.02-4.93c1.31-0.95,3.4-2.46,5.16-2.12c2.08,0.4,1.76,3.74,1.77,5.26
			c0.03,2.15-0.06,4.44-1.08,6.39c-0.54,1.03-1.28,1.9-2.15,2.67c-0.99,0.87-2.2,1.44-3.17,2.34c-1.76,1.64-2.67,4.1-3.17,6.4
			c-0.7,3.19-1.77,8.9,1.94,10.67c3.08,1.47,8.01-0.5,10.09-2.99c1.02-1.23-0.74-3-1.77-1.77c-0.87,1.04-2.23,1.74-3.48,2.2
			c-1.15,0.43-2.99,1-4.08,0.12c-1.29-1.04-0.83-3.58-0.69-5.02c0.23-2.31,0.74-4.8,2.03-6.77c0.72-1.09,1.73-1.62,2.76-2.37
			c1.02-0.74,1.97-1.57,2.76-2.56c1.44-1.81,2.13-3.93,2.38-6.21c0.4-3.58,0.78-10.74-4.4-10.87c-2.33-0.06-4.61,1.32-6.41,2.66
			c-2.16,1.6-4.06,3.5-5.67,5.65C1432.35,292.04,1434.52,293.28,1435.48,292.01L1435.48,292.01z"/>
	</g>
</g>
<g>
	<g>
		<path class="st0" d="M1331.04,299.87c12.47-1.64,25.14-1.55,37.57,0.35c1.57,0.24,2.25-2.17,0.66-2.41
			c-12.67-1.94-25.53-2.11-38.24-0.44C1329.47,297.58,1329.45,300.08,1331.04,299.87L1331.04,299.87z"/>
	</g>
</g>
<g>
	<g>
		<path d="M1229.91,90.92c-0.72,1.02-1.22,2.26-1.3,3.51c-0.09,1.4,0.76,2.86,2.24,3.1c0.96,0.15,1.81-0.14,2.56-0.73
			c0.61-0.48,1.04-1.21,1.23-1.96c0.23-0.95,0.14-1.91-0.04-2.86c-0.04-0.19-0.08-0.37-0.12-0.56c-0.02-0.08-0.03-0.17-0.06-0.26
			c-0.13-0.45-0.46-0.71-0.87-0.87c-0.34-0.13-0.72-0.18-1.09-0.21c-0.79-0.05-1.65,0.19-2.32,0.6c-0.8,0.49-1.34,1.18-1.69,2.04
			c-0.11,0.28-0.02,0.72,0.13,0.96c0.15,0.26,0.45,0.51,0.75,0.57c0.32,0.07,0.68,0.06,0.96-0.13c0.29-0.19,0.44-0.43,0.57-0.75
			c-0.16,0.39-0.04,0.1,0.01,0.02c0.04-0.07,0.09-0.14,0.13-0.21c0.11-0.18-0.22,0.25-0.01,0.01c0.05-0.06,0.11-0.12,0.17-0.18
			c0.06-0.06,0.13-0.11,0.19-0.16c-0.28,0.27-0.1,0.08,0,0.01c0.07-0.04,0.14-0.09,0.22-0.13c0.04-0.02,0.3-0.14,0.08-0.04
			c-0.22,0.09,0.04-0.01,0.08-0.03c0.08-0.03,0.16-0.05,0.24-0.07c0.08-0.02,0.16-0.03,0.24-0.05c-0.39,0.1-0.15,0.02-0.02,0.01
			c0.08,0,0.17,0,0.25,0c0.04,0,0.08,0,0.12,0.01c0.13,0.01,0.08,0.01-0.15-0.02c0.16,0.05,0.32,0.07,0.48,0.13
			c-0.29-0.29-0.58-0.58-0.87-0.87c0.05,0.23,0.1,0.46,0.15,0.68c0.02,0.11,0.05,0.23,0.06,0.35c0,0.02,0.04,0.14,0.03,0.17
			c-0.02-0.17-0.03-0.21-0.02-0.12c0.01,0.04,0.01,0.09,0.01,0.13c0.02,0.22,0.03,0.43,0.03,0.65c0,0.11-0.01,0.23-0.02,0.34
			c-0.01,0.17,0.05-0.25,0.01-0.08c-0.02,0.07-0.03,0.14-0.04,0.21c-0.03,0.11-0.06,0.21-0.09,0.31c-0.06,0.2,0.04-0.13,0.05-0.12
			c0,0-0.05,0.1-0.06,0.12c-0.04,0.08-0.09,0.15-0.14,0.22c-0.1,0.16,0.06-0.08,0.08-0.09c-0.05,0.04-0.09,0.1-0.13,0.15
			c-0.06,0.06-0.13,0.12-0.19,0.18c-0.09,0.08-0.11,0.02,0.1-0.07c-0.03,0.02-0.08,0.05-0.11,0.07c-0.07,0.05-0.15,0.09-0.22,0.13
			c-0.04,0.02-0.15,0.07,0.03-0.01c0.2-0.09,0.02-0.01-0.03,0c-0.04,0.01-0.08,0.02-0.12,0.03c-0.2,0.06,0.16-0.02,0.15-0.01
			c-0.05,0.03-0.19,0.01-0.25,0.01c-0.21,0.01,0.16,0.02,0.15,0.02c-0.01,0.01-0.1-0.02-0.12-0.03c-0.03-0.01-0.09-0.04-0.12-0.04
			c0.21,0.02,0.24,0.11,0.09,0.03c-0.02-0.01-0.16-0.12-0.18-0.11c0.01,0,0.25,0.22,0.14,0.1c-0.02-0.02-0.05-0.04-0.07-0.07
			c-0.01-0.01-0.06-0.07-0.06-0.07c0.01,0,0.19,0.28,0.11,0.14c-0.04-0.06-0.07-0.12-0.11-0.18c-0.07-0.12,0.11,0.3,0.07,0.17
			c-0.01-0.03-0.02-0.06-0.03-0.09c-0.02-0.05-0.03-0.11-0.04-0.17c-0.01-0.03-0.01-0.07-0.02-0.1c-0.04-0.17,0.03,0.18,0.02,0.18
			c0.03-0.04-0.01-0.21-0.01-0.26c0-0.07,0-0.14,0.01-0.22c0.01-0.12,0.07-0.36-0.01,0.05c0.03-0.16,0.06-0.32,0.1-0.49
			c0.05-0.19,0.11-0.37,0.18-0.55c0.01-0.04,0.03-0.08,0.04-0.11c0.07-0.19-0.11,0.24-0.04,0.1c0.04-0.08,0.08-0.17,0.12-0.25
			c0.17-0.34,0.36-0.66,0.57-0.97c0.38-0.54,0.11-1.41-0.45-1.71C1230.98,90.13,1230.32,90.35,1229.91,90.92L1229.91,90.92z"/>
	</g>
</g>
<g>
	<g>
		<path d="M600.77,80.99c-0.72,1.02-1.22,2.26-1.3,3.51c-0.09,1.4,0.76,2.86,2.24,3.1c0.96,0.15,1.81-0.14,2.56-0.73
			c0.61-0.48,1.04-1.21,1.23-1.96c0.23-0.95,0.14-1.91-0.04-2.86c-0.04-0.19-0.08-0.37-0.12-0.56c-0.02-0.08-0.03-0.17-0.06-0.26
			c-0.13-0.45-0.46-0.71-0.87-0.87c-0.34-0.13-0.72-0.18-1.09-0.21c-0.79-0.05-1.65,0.19-2.32,0.6c-0.8,0.49-1.34,1.18-1.69,2.04
			c-0.11,0.28-0.02,0.72,0.13,0.96c0.15,0.26,0.45,0.51,0.75,0.57c0.32,0.07,0.68,0.06,0.96-0.13c0.29-0.19,0.44-0.43,0.57-0.75
			c-0.16,0.39-0.04,0.1,0.01,0.02c0.04-0.07,0.09-0.14,0.13-0.21c0.11-0.18-0.22,0.25-0.01,0.01c0.05-0.06,0.11-0.12,0.17-0.18
			c0.06-0.06,0.13-0.11,0.19-0.16c-0.28,0.27-0.1,0.08,0,0.01c0.07-0.04,0.14-0.09,0.22-0.13c0.04-0.02,0.3-0.14,0.08-0.04
			c-0.22,0.09,0.04-0.01,0.08-0.03c0.08-0.03,0.16-0.05,0.24-0.07c0.08-0.02,0.16-0.03,0.24-0.05c-0.39,0.1-0.15,0.02-0.02,0.01
			c0.08,0,0.17,0,0.25,0c0.04,0,0.08,0,0.12,0.01c0.13,0.01,0.08,0.01-0.15-0.02c0.16,0.05,0.32,0.07,0.48,0.13
			c-0.29-0.29-0.58-0.58-0.87-0.87c0.05,0.23,0.1,0.46,0.15,0.68c0.02,0.11,0.05,0.23,0.06,0.35c0,0.02,0.04,0.14,0.03,0.17
			c-0.02-0.17-0.03-0.21-0.02-0.12c0.01,0.04,0.01,0.09,0.01,0.13c0.02,0.22,0.03,0.43,0.03,0.65c0,0.11-0.01,0.23-0.02,0.34
			c-0.01,0.17,0.05-0.25,0.01-0.08c-0.02,0.07-0.03,0.14-0.04,0.21c-0.03,0.11-0.06,0.21-0.09,0.31c-0.06,0.2,0.04-0.13,0.05-0.12
			c0,0-0.05,0.1-0.06,0.12c-0.04,0.08-0.09,0.15-0.14,0.22c-0.1,0.16,0.06-0.08,0.08-0.09c-0.05,0.04-0.09,0.1-0.13,0.15
			c-0.06,0.06-0.13,0.12-0.19,0.18c-0.09,0.08-0.11,0.02,0.1-0.07c-0.03,0.02-0.08,0.05-0.11,0.07c-0.07,0.05-0.15,0.09-0.22,0.13
			c-0.04,0.02-0.15,0.07,0.03-0.01c0.2-0.09,0.02-0.01-0.03,0c-0.04,0.01-0.08,0.02-0.12,0.03c-0.2,0.06,0.16-0.02,0.15-0.01
			c-0.05,0.03-0.19,0.01-0.25,0.01c-0.21,0.01,0.16,0.02,0.15,0.02c-0.01,0.01-0.1-0.02-0.12-0.03c-0.03-0.01-0.09-0.04-0.12-0.04
			c0.21,0.02,0.24,0.11,0.09,0.03c-0.02-0.01-0.16-0.12-0.18-0.11c0.01,0,0.25,0.22,0.14,0.1c-0.02-0.02-0.05-0.04-0.07-0.07
			c-0.01-0.01-0.06-0.07-0.07-0.07c0.01,0,0.19,0.28,0.11,0.14c-0.04-0.06-0.07-0.12-0.11-0.18c-0.07-0.12,0.11,0.3,0.07,0.17
			c-0.01-0.03-0.02-0.06-0.03-0.09c-0.02-0.05-0.03-0.11-0.04-0.17c-0.01-0.03-0.01-0.07-0.02-0.1c-0.04-0.17,0.03,0.18,0.02,0.18
			c0.02-0.04-0.01-0.21-0.01-0.26c0-0.07,0-0.14,0.01-0.22c0.01-0.12,0.07-0.36-0.01,0.05c0.03-0.16,0.06-0.32,0.1-0.49
			c0.05-0.19,0.11-0.37,0.18-0.55c0.01-0.04,0.03-0.08,0.04-0.11c0.07-0.19-0.11,0.24-0.04,0.1c0.04-0.08,0.08-0.17,0.12-0.25
			c0.16-0.34,0.36-0.66,0.57-0.97c0.38-0.54,0.11-1.41-0.45-1.71C601.84,80.2,601.17,80.42,600.77,80.99L600.77,80.99z"/>
	</g>
</g>
<g>
	<g>
		<path d="M1059.41,211.31c-0.17-0.46-0.43-0.86-0.88-1.09c-0.46-0.24-0.94-0.27-1.45-0.18c-0.7,0.12-1.42,0.64-1.72,1.28
			c-0.71,1.5-0.1,3.2,1.22,4.13c1.27,0.9,3.07,0.59,4.09-0.55c1.02-1.14,1.36-2.91,0.43-4.22c-0.5-0.71-1.18-1.21-2.01-1.48
			c-0.73-0.24-1.61-0.25-2.32,0.04c-0.31,0.13-0.57,0.27-0.75,0.57c-0.16,0.27-0.22,0.66-0.13,0.96c0.1,0.3,0.29,0.59,0.57,0.75
			c0.28,0.15,0.66,0.25,0.96,0.13c0.17-0.07,0.34-0.12,0.53-0.14c-0.11,0.01-0.22,0.03-0.33,0.04c0.22-0.03,0.43-0.03,0.65,0
			c-0.11-0.01-0.22-0.03-0.33-0.04c0.13,0.02,0.25,0.04,0.38,0.08c0.14,0.04,0.44,0.21,0.06,0c0.11,0.06,0.21,0.1,0.31,0.17
			c0.02,0.01,0.16,0.09,0.16,0.11c0-0.01-0.28-0.24-0.08-0.06c0.08,0.07,0.16,0.15,0.23,0.23c0.18,0.21-0.09-0.14-0.05-0.06
			c0.03,0.05,0.07,0.1,0.1,0.16c0.03,0.05,0.05,0.1,0.08,0.14c0.1,0.19-0.1-0.3-0.04-0.1c0.04,0.13,0.07,0.25,0.09,0.38
			c-0.01-0.11-0.03-0.22-0.04-0.33c0.02,0.19,0.02,0.37,0,0.56c0.01-0.11,0.03-0.22,0.04-0.33c-0.02,0.11-0.04,0.22-0.07,0.33
			c-0.02,0.05-0.04,0.11-0.05,0.16c-0.07,0.21,0.14-0.28,0.04-0.09c-0.06,0.1-0.11,0.2-0.17,0.29c-0.07,0.1-0.18,0.17,0.06-0.07
			c-0.04,0.04-0.07,0.09-0.11,0.13c-0.04,0.04-0.19,0.23-0.25,0.23c0.04,0,0.28-0.2,0.07-0.07c-0.05,0.03-0.09,0.06-0.14,0.08
			c-0.02,0.01-0.14,0.08-0.15,0.07c-0.01-0.01,0.35-0.12,0.12-0.06c-0.12,0.03-0.23,0.06-0.35,0.08c0.11-0.01,0.22-0.03,0.33-0.04
			c-0.15,0.02-0.29,0.02-0.44,0c0.11,0.01,0.22,0.03,0.33,0.04c-0.11-0.02-0.21-0.04-0.31-0.07c-0.12-0.04-0.19-0.12,0.1,0.05
			c-0.05-0.03-0.1-0.05-0.14-0.07c-0.05-0.03-0.09-0.05-0.14-0.08c-0.04-0.03-0.18-0.14,0,0c0.19,0.14,0.02,0.01-0.02-0.02
			c-0.04-0.04-0.08-0.07-0.11-0.11c-0.03-0.03-0.06-0.07-0.09-0.1c0.26,0.25,0.13,0.18,0.07,0.08c-0.06-0.09-0.11-0.18-0.16-0.28
			c-0.1-0.19,0.11,0.3,0.04,0.1c-0.02-0.05-0.04-0.1-0.05-0.15c-0.03-0.1-0.05-0.2-0.07-0.31c0.01,0.11,0.03,0.22,0.04,0.33
			c-0.02-0.16-0.02-0.31,0-0.47c-0.01,0.11-0.03,0.22-0.04,0.33c0.01-0.07,0.02-0.14,0.04-0.21c0.03-0.13,0.15-0.28-0.04,0.05
			c0.03-0.05,0.07-0.11,0.09-0.17c-0.15,0.19-0.19,0.23-0.11,0.14c0.02-0.02,0.04-0.05,0.07-0.07c0.21-0.2-0.23,0.14-0.06,0.05
			c0.06-0.03,0.12-0.06,0.17-0.09c-0.32,0.19-0.21,0.08-0.07,0.04c0.06-0.02,0.12-0.03,0.18-0.04c-0.11,0.01-0.22,0.03-0.33,0.04
			c0.07-0.01,0.15-0.01,0.22,0c-0.11-0.01-0.22-0.03-0.33-0.04c0.04,0.01,0.08,0.02,0.12,0.02c0.18,0.02-0.32-0.17-0.13-0.05
			c-0.09-0.05-0.15-0.12-0.22-0.2c-0.08-0.11-0.09-0.13-0.05-0.06c0.06,0.11,0.03,0.05-0.07-0.18c0.12,0.31,0.28,0.57,0.57,0.75
			c0.27,0.16,0.66,0.22,0.96,0.13C1059.14,212.66,1059.66,211.97,1059.41,211.31L1059.41,211.31z"/>
	</g>
</g>
<g>
	<g>
		<path class="st0" d="M1442.44,330.66c-1.59,0.49-2.65,2.12-2.22,3.77c0.36,1.4,1.77,2.6,3.25,2.5c0.75-0.05,1.44-0.35,1.98-0.87
			c0.45-0.44,0.81-1.06,0.93-1.68c0.15-0.74,0.08-1.47-0.27-2.14c-0.34-0.66-0.96-1.09-1.63-1.36c-0.63-0.25-1.38-0.25-2.03-0.08
			c-0.76,0.2-1.42,0.68-1.84,1.35c-0.34,0.56-0.14,1.4,0.45,1.71c0.61,0.32,1.34,0.15,1.71-0.45c0.03-0.05,0.06-0.1,0.1-0.15
			c-0.07,0.08-0.13,0.17-0.2,0.25c0.09-0.11,0.19-0.22,0.31-0.31c-0.08,0.07-0.17,0.13-0.25,0.2c0.13-0.1,0.27-0.17,0.41-0.24
			c-0.1,0.04-0.2,0.08-0.3,0.13c0.18-0.07,0.36-0.12,0.55-0.15c-0.11,0.01-0.22,0.03-0.33,0.04c0.19-0.02,0.38-0.02,0.58,0
			c-0.11-0.01-0.22-0.03-0.33-0.04c0.19,0.03,0.37,0.08,0.55,0.15c-0.1-0.04-0.2-0.08-0.3-0.13c0.15,0.06,0.28,0.14,0.41,0.24
			c-0.08-0.07-0.17-0.13-0.25-0.2c0.1,0.08,0.19,0.17,0.28,0.28c-0.07-0.08-0.13-0.17-0.2-0.25c0.08,0.11,0.15,0.22,0.21,0.35
			c-0.04-0.1-0.08-0.2-0.13-0.3c0.06,0.14,0.1,0.28,0.12,0.43c-0.01-0.11-0.03-0.22-0.04-0.33c0.02,0.16,0.02,0.33,0,0.49
			c0.01-0.11,0.03-0.22,0.04-0.33c-0.03,0.2-0.08,0.39-0.15,0.57c0.04-0.1,0.08-0.2,0.13-0.3c-0.08,0.18-0.18,0.35-0.3,0.51
			c0.07-0.08,0.13-0.17,0.2-0.25c-0.1,0.13-0.22,0.25-0.35,0.35c0.08-0.07,0.17-0.13,0.25-0.2c-0.12,0.09-0.25,0.17-0.39,0.23
			c0.1-0.04,0.2-0.08,0.3-0.13c-0.14,0.06-0.29,0.1-0.44,0.12c0.11-0.01,0.22-0.03,0.33-0.04c-0.15,0.02-0.3,0.02-0.45,0
			c0.11,0.01,0.22,0.03,0.33,0.04c-0.15-0.02-0.29-0.06-0.43-0.12c0.1,0.04,0.2,0.08,0.3,0.13c-0.17-0.07-0.33-0.17-0.48-0.28
			c0.08,0.07,0.17,0.13,0.25,0.2c-0.15-0.12-0.28-0.25-0.39-0.39c0.07,0.08,0.13,0.17,0.2,0.25c-0.12-0.16-0.22-0.33-0.3-0.52
			c0.04,0.1,0.08,0.2,0.13,0.3c-0.06-0.16-0.1-0.31-0.13-0.48c0.01,0.11,0.03,0.22,0.04,0.33c-0.02-0.15-0.02-0.3,0-0.44
			c-0.01,0.11-0.03,0.22-0.04,0.33c0.02-0.16,0.07-0.3,0.13-0.45c-0.04,0.1-0.08,0.2-0.13,0.3c0.07-0.15,0.15-0.29,0.25-0.42
			c-0.07,0.08-0.13,0.17-0.2,0.25c0.11-0.14,0.24-0.27,0.39-0.38c-0.08,0.07-0.17,0.13-0.25,0.2c0.13-0.1,0.27-0.18,0.42-0.24
			c-0.1,0.04-0.2,0.08-0.3,0.13c0.07-0.03,0.14-0.05,0.21-0.07c0.62-0.19,1.08-0.88,0.87-1.54
			C1443.77,330.91,1443.11,330.46,1442.44,330.66L1442.44,330.66z"/>
	</g>
</g>
<g>
	<g>
		<path class="st0" d="M821.21,281.5c-1.02,19.47-2.05,38.95-3.07,58.42c-0.08,1.61,2.42,1.6,2.5,0
			c1.02-19.47,2.05-38.95,3.07-58.42C823.8,279.89,821.3,279.89,821.21,281.5L821.21,281.5z"/>
	</g>
</g>
<g>
	<g>
		<path class="st0" d="M813.73,283.5c8.42-1.44,16.9-2.4,25.43-2.88c1.6-0.09,1.61-2.59,0-2.5c-8.75,0.49-17.46,1.49-26.09,2.97
			C811.48,281.36,812.15,283.77,813.73,283.5L813.73,283.5z"/>
	</g>
</g>
<g>
	<g>
		<path class="st0" d="M812.69,344.09c4.03-0.56,7.64-2.52,11.23-4.31c3.53-1.76,7.2-3.4,11.23-2.95c1.6,0.18,1.58-2.32,0-2.5
			c-8.52-0.95-15.02,6.22-23.13,7.35C810.44,341.89,811.11,344.3,812.69,344.09L812.69,344.09z"/>
	</g>
</g>
</svg>
