<?xml version="1.0" encoding="utf-8"?>
<!-- Generator: Adobe Illustrator 24.0.1, SVG Export Plug-In . SVG Version: 6.00 Build 0)  -->
<svg version="1.1" id="Layer_1" xmlns="http://www.w3.org/2000/svg" xmlns:xlink="http://www.w3.org/1999/xlink" x="0px" y="0px"
	 viewBox="0 0 443.54 172.07" style="enable-background:new 0 0 443.54 172.07;" xml:space="preserve">
<style type="text/css">
	.st0{fill:#F7931E;}
</style>
<g>
	<g>
		<g>
			<path class="st0" d="M15.29,67.22c27.21,1.16,54.52-0.84,81.26-5.95c6.74-1.29,13.44-2.78,20.09-4.46
				c1.66-0.42,3.31-0.9,4.98-1.3c0.66-0.16,1.76-0.56,2.38-0.07c0.52,0.41,0.64,1.68,0.77,2.28c0.78,3.38,1.44,6.79,2.04,10.2
				c2.41,13.73,3.55,27.63,4.41,41.53c0.96,15.59,1.56,31.2,3.06,46.75c1.23-0.17,2.46-0.33,3.68-0.5
				c-3.5-11.57-4.53-23.58-4.97-35.61c-0.42-11.2-0.78-22.36-1.52-33.55c-0.52-7.96-0.86-16.21,0.46-24.12
				c0.46-2.76,1.06-5.9,2.74-8.23c0.74-1.02,2.62-2.6,3.63-1.51c0.93,1,1.21,2.9,1.49,4.18c0.43,2,0.71,4.03,0.99,6.06
				c0.57,4.1,1.01,8.34,2.5,12.24c0.68,1.78,2.93,1.76,3.62,0c3.33-8.51,6.66-17.02,9.99-25.53c-1.21,0-2.41,0-3.62,0
				c1.69,7.44,3.39,14.89,5.08,22.33c0.5,2.2,3.49,1.48,3.68-0.5c0.7-7.16-2.14-14.25-1.45-21.4c-1.07,0.44-2.13,0.88-3.2,1.33
				c6.53,5.36,15.28,4.01,22.85,2c2.34-0.62,1.35-4.14-1-3.62c-8.11,1.81-12.14,12.55-8.11,19.57c2.01,3.51,6.9,6.36,11.02,5.4
				c4.16-0.98,5.84-5.7,6.27-9.47c0.6-5.36-0.99-11.47-5.31-14.97c-0.76,0.98-1.51,1.96-2.27,2.94c7.93,3.83,19.15,3.51,25.53-3.15
				c-1.04-0.28-2.09-0.55-3.13-0.83c6.69,25.28,11.01,51.15,12.81,77.23c0.22,3.18,0.4,6.36,0.55,9.55c0.14,3.16,0.48,6.43,0.22,9.6
				c-0.18,2.2-0.91,4.81-3.37,5.37c-3.1,0.7-3.19-4.15-3.53-6.17c-2.06-11.97-2.28-24.28-0.81-36.34
				c1.45-11.96,4.62-23.9,9.55-34.91c2.82-6.29,6.44-12.21,8.8-18.71c1.6-4.41,2.76-11.88-4.12-11.72
				c-9.85,0.23-10.29,13.2-8.17,20.19c1.11,3.68,3.94,12.25,9.07,11.28c2.15-0.4,3.61-2.48,4.84-4.12c1.23-1.63,2.32-3.36,3.41-5.09
				c2.3-3.64,4.51-7.43,7.46-10.6c2.5-2.69,5.51-4.77,9.23-3.33c1.96,0.76,3.39-2.58,1.44-3.43c-2.28-0.99-4.71-0.02-6.84,0.96
				c-2.22,1.01-4.73,2.39-6.29,4.31c-3.87,4.77-3.82,14.51,1.6,18.14c5.61,3.76,12.12,2.25,17.15-1.65c2.72-2.11,4.63-4.57,5.6-7.89
				c1.36-4.6,2.37-9.29,3.25-14.01c1.97-10.57,3.33-21.26,6.46-31.58c-1.23-0.17-2.46-0.33-3.68-0.5
				c-1.51,11.91-2.86,23.84-4.19,35.77c-0.57,5.1-1.25,10.5,0.88,15.35c1.59,3.62,5.05,6.46,9.02,6.96
				c9.33,1.18,12.01-11.34,17.07-16.61c0.71-0.74,2.26-2.61,3.41-2.59c0.73,0.01,1.04,0.84,1.32,1.5c1.05,2.52,1.52,5.47,2.21,8.11
				c0.58,2.21,0.97,4.61,0.61,6.9c-0.17,1.1-0.58,2.84-1.77,3.32c-1.1,0.45-3.32-0.57-3.76-1.68c-0.47-1.19,0.36-2.78,0.88-3.82
				c1.66-3.29,3.64-7.1,7.25-8.52c4.01-1.58,8.67-0.43,12.78,0.12c16.46,2.23,32.83,5.19,49.38,6.65c22.01,1.94,44,0.74,65.81-2.67
				c2.38-0.37,1.37-3.99-1-3.62c-21.09,3.3-42.39,4.42-63.68,2.63c-17.76-1.49-35.3-4.77-52.96-7.08c-4.5-0.59-9.07-1.08-13.22,1.18
				c-3.61,1.96-5.81,5.85-7.6,9.4c-1.41,2.8-2.44,6.36,0.05,8.9c2.42,2.47,6.7,3.33,9.29,0.72c2.86-2.87,2.65-7.71,2.01-11.37
				c-0.56-3.19-1.47-6.8-2.56-9.87c-0.82-2.3-2.29-4.67-5.05-4.57c-3.9,0.15-7.31,4.72-9.25,7.65c-2.34,3.55-4.66,11.17-9.69,11.64
				c-6.3,0.59-8.36-6.95-8.28-11.77c0.12-6.96,1.37-14.03,2.17-20.95c0.83-7.24,1.69-14.47,2.6-21.7c0.27-2.16-3.09-2.44-3.68-0.5
				c-4.41,14.53-5.25,29.83-9.37,44.42c-0.83,2.93-1.93,4.93-4.33,6.88c-1.9,1.54-4.38,3.06-6.87,3.3c-2.3,0.22-5.26-0.58-6.96-2.19
				c-1.71-1.63-1.96-5.09-1.73-7.3c0.32-3.11,1.67-5.14,4.22-6.72c1.08-0.67,2.22-1.29,3.41-1.76c0.52-0.21,1.07-0.41,1.62-0.52
				c0.32-0.06,1.18-0.01,0.8-0.17c0.48-1.14,0.96-2.28,1.44-3.43c-7.26-2.82-12.95,3.79-16.67,9.1c-2.19,3.13-4.1,6.44-6.23,9.61
				c-0.78,1.16-1.57,2.32-2.53,3.34c-1.37,1.46-2.1,0.56-2.97-0.88c-0.73-1.2-1.38-2.47-1.93-3.76c-1.78-4.16-2.87-9.12-1.5-13.55
				c0.44-1.45,1.41-3.69,2.83-4.46c0.8-0.44,2.74-0.63,3.51-0.16c1.04,0.63,0.11,3.91-0.32,5.27c-1.04,3.33-2.59,6.49-4.13,9.61
				c-3.94,7.95-7.65,15.79-10.23,24.31c-3.41,11.24-5.26,22.98-5.53,34.72c-0.14,5.91,0.14,11.84,0.83,17.71
				c0.33,2.86,0.76,5.71,1.28,8.54c0.43,2.35,0.85,4.99,2.92,6.5c3.75,2.73,8.7-0.15,10.22-3.96c0.86-2.15,0.95-4.49,0.9-6.78
				c-0.06-3.4-0.24-6.8-0.42-10.2c-1.52-28.56-6.02-56.95-13.33-84.59c-0.36-1.35-2.16-1.84-3.13-0.83
				c-5.16,5.38-14.56,5.67-20.99,2.56c-1.78-0.86-4.04,1.52-2.27,2.94c3.67,2.96,4.89,8.12,4.16,12.65c-0.27,1.7-0.86,3.88-2.3,4.98
				c-1.36,1.04-3.31,0.4-4.72-0.24c-7.3-3.35-4.54-15.36,2.65-16.96c-0.33-1.21-0.66-2.41-1-3.62c-6.03,1.61-13.89,3.33-19.2-1.03
				c-1.31-1.07-3.04-0.35-3.2,1.33c-0.7,7.16,2.14,14.25,1.45,21.4c1.23-0.17,2.46-0.33,3.68-0.5c-1.69-7.44-3.39-14.89-5.08-22.33
				c-0.45-1.97-3-1.58-3.62,0c-3.33,8.51-6.66,17.02-9.99,25.53c1.21,0,2.41,0,3.62,0c-1.43-3.74-1.88-7.8-2.43-11.74
				c-0.49-3.55-0.78-7.48-2.41-10.74c-1.27-2.53-3.54-3.59-6.28-2.8c-2.85,0.82-4.6,3.4-5.68,5.99c-3.14,7.54-2.92,16.62-2.7,24.63
				c0.12,4.53,0.51,9.04,0.83,13.55c0.47,6.65,0.62,13.32,0.8,19.99c0.41,14.68,1.05,29.49,5.33,43.64c0.59,1.93,3.89,1.69,3.68-0.5
				c-2.77-28.68-2.45-57.64-7.07-86.13c-0.58-3.55-1.23-7.09-1.97-10.61c-0.55-2.58-0.82-6.1-3.45-7.47
				c-2.64-1.38-6.12,0.24-8.74,0.91c-3.45,0.89-6.92,1.72-10.39,2.5c-14.13,3.17-28.46,5.46-42.87,6.84
				c-16.03,1.53-32.16,1.93-48.25,1.24C12.88,63.36,12.89,67.11,15.29,67.22L15.29,67.22z"/>
		</g>
	</g>
	<g>
		<g>
			<path class="st0" d="M204.35,31.68c-0.61-0.58-1.39-0.89-2.23-0.9c-0.09,0-0.17,0.01-0.26,0.02c-0.24,0.03-0.5,0.05-0.74,0.12
				c-0.23,0.07-0.45,0.17-0.66,0.27c-0.08,0.04-0.16,0.08-0.23,0.14c-0.42,0.3-0.72,0.58-1,1.02c-0.18,0.28-0.31,0.61-0.36,0.94
				c-0.03,0.23-0.09,0.49-0.08,0.73c0.01,0.25,0.05,0.51,0.1,0.76c0.02,0.09,0.05,0.17,0.08,0.25c0.09,0.22,0.18,0.46,0.3,0.67
				c0.29,0.46,0.61,0.77,1.04,1.08c0.08,0.06,0.17,0.11,0.26,0.15c0.22,0.1,0.48,0.23,0.73,0.27c0.25,0.08,0.5,0.09,0.75,0.03
				c0.25-0.01,0.48-0.09,0.7-0.22c0.22-0.12,0.39-0.28,0.53-0.48c0.17-0.18,0.28-0.39,0.34-0.64c0.11-0.48,0.09-1.02-0.19-1.44
				c-0.25-0.39-0.65-0.78-1.12-0.86c-0.1-0.02-0.19-0.04-0.28-0.08c0.15,0.06,0.3,0.13,0.45,0.19c-0.1-0.04-0.19-0.1-0.27-0.16
				c0.13,0.1,0.25,0.2,0.38,0.29c-0.1-0.08-0.19-0.17-0.27-0.27c0.1,0.13,0.2,0.25,0.29,0.38c-0.08-0.11-0.15-0.23-0.21-0.36
				c0.06,0.15,0.13,0.3,0.19,0.45c-0.05-0.13-0.09-0.26-0.11-0.4c0.02,0.17,0.04,0.33,0.07,0.5c-0.01-0.12-0.02-0.23,0-0.35
				c-0.02,0.17-0.04,0.33-0.07,0.5c0.01-0.11,0.04-0.21,0.08-0.31c-0.06,0.15-0.13,0.3-0.19,0.45c0.04-0.1,0.09-0.19,0.16-0.27
				c-0.1,0.13-0.2,0.25-0.29,0.38c0.07-0.09,0.15-0.17,0.24-0.24c-0.13,0.1-0.25,0.2-0.38,0.29c0.1-0.07,0.21-0.13,0.32-0.18
				c-0.15,0.06-0.3,0.13-0.45,0.19c0.12-0.05,0.25-0.09,0.38-0.11c-0.17,0.02-0.33,0.04-0.5,0.07c0.14-0.02,0.28-0.02,0.43,0
				c-0.17-0.02-0.33-0.04-0.5-0.07c0.12,0.02,0.24,0.05,0.35,0.09c-0.15-0.06-0.3-0.13-0.45-0.19c0.1,0.04,0.2,0.1,0.29,0.17
				c-0.13-0.1-0.25-0.2-0.38-0.29c0.03,0.02,0.06,0.05,0.09,0.08c0.36,0.34,0.83,0.55,1.33,0.55c0.26,0.01,0.5-0.04,0.72-0.16
				c0.23-0.08,0.43-0.2,0.6-0.39c0.33-0.36,0.57-0.83,0.55-1.33C204.88,32.51,204.72,32.02,204.35,31.68L204.35,31.68z"/>
		</g>
	</g>
	<g>
		<g>
			<path class="st0" d="M247.75,33.44c13.91-1.43,27.93-1.73,41.89-0.89c2.41,0.14,2.4-3.61,0-3.75
				c-13.96-0.84-27.97-0.54-41.89,0.89c-1.01,0.1-1.88,0.79-1.88,1.88C245.88,32.5,246.74,33.55,247.75,33.44L247.75,33.44z"/>
		</g>
	</g>
</g>
</svg>
