<?xml version="1.0" encoding="utf-8"?>
<!-- Generator: Adobe Illustrator 24.0.1, SVG Export Plug-In . SVG Version: 6.00 Build 0)  -->
<svg version="1.1" id="Layer_1" xmlns="http://www.w3.org/2000/svg" xmlns:xlink="http://www.w3.org/1999/xlink" x="0px" y="0px"
	 viewBox="0 0 241.8 465.5" style="enable-background:new 0 0 241.8 465.5;" xml:space="preserve">
<style type="text/css">
	.st0{fill:#FFFFFF;}
</style>
<g>
	<g>
		<g>
			<path class="st0" d="M84.06,295.34c7.11,22.43,14.55,44.76,22.32,66.98c3.87,11.07,7.83,22.11,11.87,33.12
				c3.86,10.52,7.5,21.21,12.02,31.46c3.93,8.91,9.95,19.07,20.2,21.4c2.58,0.59,5.07-0.78,5.87-3.34
				c6.45-20.59,11.88-41.5,16.28-62.63c4.5-21.59,7.92-43.4,10.33-65.31c1.34-12.22,2.35-24.48,3.04-36.76
				c0.14-2.5-2.3-4.89-4.78-4.78c-2.71,0.12-4.63,2.1-4.78,4.78c-0.61,10.84-1.46,21.67-2.58,32.48
				c-0.56,5.39-1.18,10.78-1.87,16.16c-0.08,0.63-0.16,1.26-0.25,1.9c-0.05,0.39-0.1,0.79-0.16,1.18c-0.02,0.11-0.15,1.09-0.07,0.55
				c0.07-0.55-0.06,0.44-0.07,0.55c-0.04,0.32-0.09,0.63-0.13,0.95c-0.1,0.71-0.2,1.42-0.3,2.13c-0.38,2.68-0.77,5.36-1.18,8.03
				c-3.26,21.3-7.52,42.44-12.82,63.33c-2.97,11.73-6.27,23.37-9.89,34.92c1.96-1.11,3.92-2.22,5.87-3.34
				c-0.46-0.1-0.91-0.22-1.36-0.36c-0.2-0.06-0.39-0.14-0.59-0.2c-0.94-0.32,0.15,0.04,0.14,0.07c-0.06,0.11-2.27-1.26-2.45-1.38
				c-0.17-0.12-0.34-0.25-0.52-0.37c-0.52-0.36-0.07,0.14,0.21,0.16c-0.25-0.02-0.8-0.68-0.98-0.85c-0.78-0.71-1.51-1.48-2.19-2.29
				c-0.11-0.13-0.99-1.25-0.6-0.72c0.46,0.62-0.22-0.31-0.26-0.36c-0.14-0.19-0.27-0.38-0.41-0.58c-0.62-0.89-1.2-1.81-1.75-2.74
				c-1.11-1.88-2.11-3.84-3.03-5.82c-0.45-0.98-0.89-1.97-1.31-2.96c0.44,1.02-0.13-0.34-0.25-0.62c-0.24-0.58-0.47-1.17-0.7-1.76
				c-0.99-2.51-1.92-5.04-2.88-7.57c-2-5.33-3.99-10.66-5.95-16c-7.94-21.58-15.56-43.27-22.86-65.07
				c-4.1-12.25-8.11-24.54-12.01-36.86c-0.75-2.38-3.35-4.15-5.87-3.34C85.01,290.23,83.25,292.79,84.06,295.34L84.06,295.34z"/>
		</g>
	</g>
	<g>
		<g>
			<path class="st0" d="M121.84,29.7c-1.57,53.6-1.51,107.25,0.2,160.84c1.7,53.27,5.03,106.5,9.99,159.57
				c1.4,14.99,2.93,29.96,4.59,44.92c1.63,14.71,3.19,29.54,7.21,43.83c1.66,5.91,10.88,3.4,9.21-2.54
				c-3.51-12.44-5.07-25.27-6.51-38.09c-1.47-13.09-2.84-26.19-4.11-39.29c-2.57-26.51-4.73-53.06-6.49-79.64
				c-3.51-53.22-5.4-106.55-5.66-159.89c-0.14-29.91,0.23-59.82,1.11-89.72C131.58,23.55,122.02,23.56,121.84,29.7L121.84,29.7z"/>
		</g>
	</g>
</g>
<g>
	<g>
		<path class="st0" d="M110.22,284.5c-16.47-19.85-26.88-44.72-29.36-70.4c-0.31-3.21-0.92-6.91,0.56-9.91
			c0.97-1.97,2.69-3.35,4.67-4.23c4.47-1.99,9.81-1.83,14.56-1.37c2.67,0.26,5.95,0.57,7.91,2.64c1.24,1.3,1.58,4.2-0.07,5.39
			c-1.02,0.73-2.27,0.07-3.19-0.51c-1.38-0.88-2.67-1.94-3.92-2.99c-2.22-1.87-4.3-3.91-6.23-6.09
			c-8.89-10.07-14.25-23.2-14.8-36.62c-0.07-1.62-2.38-1.59-2.5,0c-0.39,5.04,2.92,9.82,7.39,11.95c5.26,2.5,11.54,1.61,16.61-0.91
			c4.58-2.27,8.54-6.58,7.85-12.03c-0.7-5.6-5.29-9.81-9.66-12.88c-5.47-3.85-11.78-6.49-18.35-7.76c0,0.8,0,1.61,0,2.41
			c10.38-2.61,20.86-4.84,31.41-6.67c1.2-0.21,1.19-2.19,0-2.41c-2.88-0.54-5.87-0.01-8.71,0.55c-3.33,0.65-6.61,1.52-9.96,2.06
			c-2,0.33-5.3,0.99-7.05-0.45c-1.29-1.06-1.95-3.39-2.43-4.91c-0.74-2.35-0.89-4.7-0.84-7.15c0.11-5.88,1.33-11.68,1.35-17.57
			c-0.78,0.21-1.55,0.42-2.33,0.63c2.4,5.53,7.38,9.65,13.33,10.76c4.95,0.92,10.67-0.09,14.2-3.94c3.3-3.6,4.27-10.1,1.32-14.22
			c-3.08-4.31-9.03-5.98-14.09-6.06c-6.18-0.09-12.67,2.51-14.76,8.76c0.82,0.11,1.64,0.22,2.46,0.33
			c0.79-8.18-5.63-15.32-11.44-20.19c-6.83-5.73-14.87-10.32-23.28-13.29c-2.7-0.95-13.29-4.64-13.45,1.2
			c-0.06,2.03,1.94,3.89,3.46,4.95c2.26,1.59,5.03,2.48,7.69,3.13c6.71,1.66,13.82,2.05,20.7,2.11c8.68,0.07,17.37-0.73,25.89-2.37
			c3.47-0.67,7.18-1.23,10.25-3.1c2.32-1.41,4.39-3.76,3.8-6.66c-0.34-1.65-1.48-2.92-2.72-3.99c-1.44-1.22-2.96-2.36-4.5-3.46
			c-3.25-2.31-6.68-4.37-10.2-6.26c-6.46-3.47-13.23-6.72-20.08-9.34c-5.26-2.01-10.75-3.48-16.29-4.45
			c-4.57-0.8-9.71-1.6-14.3-0.44c-1.5,0.38-3.06,1.1-3.91,2.45c-0.95,1.52-0.56,3.2,0.24,4.69c1.87,3.47,6.07,4.98,9.68,5.79
			c5.18,1.17,10.59,1.33,15.89,1.31c5.7-0.02,11.39-0.34,17.08-0.62c6.6-0.32,13.47-0.01,19.85-1.95
			c6.23-1.89,11.76-6.45,12.93-13.14c0.51-2.89,0.08-5.82-1.54-8.31c-0.88-1.34-3.04-0.09-2.16,1.26c3.26,4.98,0.4,11.58-3.96,14.89
			c-5.49,4.17-13.05,4.3-19.63,4.51c-10.02,0.31-20.06,1.29-30.08,0.65c-4.14-0.27-8.69-0.69-12.45-2.6
			c-1.28-0.65-2.52-1.5-3.28-2.75c-0.32-0.53-0.54-1.09-0.67-1.7c-0.11-0.51-0.1,0.28-0.01-0.13c0.03-0.13,0.06-0.27,0.11-0.4
			c0.03-0.08,0.2-0.33,0.34-0.48c0.81-0.85,2.35-1.16,3.54-1.33c2.04-0.28,4.15-0.19,6.2-0.02c5.09,0.42,10.13,1.54,15.03,2.94
			c5.49,1.58,10.63,3.83,15.82,6.21c6.59,3.02,13.1,6.26,19.11,10.33c1.47,1,2.91,2.04,4.3,3.14c1.2,0.95,2.91,2.07,3.23,3.69
			c0.51,2.6-2.87,4.32-4.83,5.06c-3.33,1.25-7.08,1.75-10.58,2.33c-3.92,0.65-7.86,1.11-11.82,1.4c-7.46,0.53-15,0.45-22.44-0.36
			c-4.96-0.54-10.93-1.25-15.08-4.3c-0.71-0.52-1.36-1.15-1.79-1.92c-0.15-0.27-0.26-0.48-0.32-0.71c-0.06-0.28,0.01,0.16,0.05-0.28
			c-0.03,0.3,0.16-0.15-0.04,0.06c0.23-0.23,0.12-0.14,0.13-0.14c0.1-0.08,0.24-0.15,0.35-0.19c-0.34,0.12,0.28-0.07,0.39-0.09
			c0.28-0.07,0.55-0.09,1.1-0.09c0.54,0,1.09,0.04,1.63,0.11c1.16,0.15,2.61,0.5,3.85,0.85c7.49,2.14,14.64,5.98,20.98,10.47
			c5.84,4.14,12.41,9.75,14.34,16.97c0.4,1.49,0.53,3.01,0.38,4.55c-0.14,1.47,2.03,1.6,2.46,0.33c1.52-4.56,6.21-6.61,10.71-6.89
			c4.33-0.27,9.48,0.71,12.71,3.83c2.97,2.87,2.85,8.17,0.52,11.4c-2.51,3.48-7.2,4.61-11.27,4.19c-5.84-0.6-10.63-4.45-12.93-9.77
			c-0.52-1.19-2.33-0.52-2.33,0.63c-0.04,9.92-4.17,21.41,1.84,30.42c1.49,2.23,4.23,2.6,6.72,2.48c3.44-0.16,6.84-1.03,10.2-1.77
			c3.37-0.74,7.25-1.9,10.72-1.25c0-0.8,0-1.61,0-2.41c-10.55,1.83-21.03,4.05-31.41,6.67c-1.15,0.29-1.23,2.17,0,2.41
			c5.01,0.97,9.82,2.72,14.24,5.27c4.18,2.41,8.55,5.51,10.85,9.88c5.31,10.07-9.11,16.53-17.18,14.68
			c-4.87-1.12-9.01-5.38-8.6-10.6c-0.83,0-1.67,0-2.5,0c0.54,13.2,5.48,25.98,13.74,36.27c2.07,2.58,4.35,4.98,6.82,7.18
			c1.22,1.08,2.48,2.11,3.78,3.09c1.37,1.03,2.82,2.18,4.56,2.44c2.51,0.37,4.5-1.38,5.11-3.73c0.63-2.47-0.13-5.05-2.08-6.69
			c-2.44-2.05-5.69-2.52-8.75-2.83c-2.78-0.28-5.59-0.4-8.38-0.17c-5.05,0.41-10.8,2-13.33,6.84c-1.66,3.18-1.38,6.78-1.07,10.23
			c0.31,3.54,0.77,7.07,1.37,10.58c1.2,7.08,2.99,14.05,5.33,20.84c4.67,13.54,11.48,26.34,20.21,37.7
			c1.07,1.39,2.17,2.77,3.29,4.12C109.48,287.51,111.24,285.73,110.22,284.5L110.22,284.5z"/>
	</g>
</g>
<g>
	<g>
		<path class="st0" d="M186.28,232.22c-13.04-12.62-21.42-28.99-28.41-45.53c-2.02-4.78-3.93-9.59-5.84-14.42
			c-0.76,0.32-1.52,0.64-2.28,0.96c2.84,6.44,7.41,11.99,13.04,16.2c2.76,2.07,5.78,3.75,8.98,5.06c1.66,0.68,3.36,1.25,5.1,1.69
			c1.62,0.41,3.4,0.77,5.05,0.29c3.29-0.95,4.18-4.77,2.8-7.62c-1.61-3.33-5.65-5.14-8.76-6.76c-7.88-4.1-16.31-6.99-24.63-10.03
			c-9.98-3.64-19.97-7.28-29.95-10.92c-1.32-0.48-2.26,1.71-0.96,2.28c15.24,6.75,31.39,11.35,47.93,13.46
			c2.71,0.35,5.69,0.3,8.17-0.95c2.45-1.23,3.77-3.94,2.92-6.61c-0.95-2.97-3.96-4.87-6.42-6.5c-2.41-1.59-4.92-3.01-7.34-4.58
			c-2.03-1.32-4.04-2.8-5.36-4.87c-1.68-2.64-2.12-5.8-2.24-8.87c-0.82,0.11-1.64,0.22-2.46,0.33c0.88,2.56,0.57,5.58,2.19,7.87
			c2.69,3.8,8.93,4.1,13.09,4.2c2.98,0.07,5.75-1.41,7.84-3.45c1.73-1.69,3.41-4.06,3.46-6.57c0.05-2.62-1.54-5.07-3.17-6.98
			c-1.69-1.98-3.85-3.81-6.26-4.84c-2.72-1.17-5.53-0.19-8.09,0.98c-2.81,1.28-5.38,3.02-8.1,4.46c0.61,0.25,1.22,0.5,1.84,0.75
			c-2.48-7.76-3.56-15.89-6.04-23.65c-0.61,0.47-1.22,0.94-1.84,1.41c3.98,1.83,8.05,3.5,12.25,4.74c4.05,1.2,9.08,2.5,13.24,1.06
			c1.74-0.6,3.22-1.74,3.99-3.44c0.8-1.75,1.15-3.99-0.05-5.62c-1.18-1.59-3.06-2.59-4.83-3.4c-2.44-1.11-5-1.96-7.56-2.72
			c-5.79-1.74-11.82-2.87-17.47-5.04c-0.22,0.8-0.44,1.61-0.66,2.41c4.9,0.66,9.71,1.8,14.63,2.36c4.67,0.52,10.09,0.71,14.22-1.95
			c1.44-0.93,2.5-2.22,2.74-3.95c0.2-1.5,0.04-3.4-0.5-4.8c-2.17-5.58-8.42-6.04-13.56-6.44c-6.16-0.48-12.66,0.01-18.61-1.91
			c0,0.8,0,1.61,0,2.41c2.01-0.69,3.97-1.74,5.02-3.68c1-1.85,1.28-4.4,0.87-6.45c-0.18-0.91-0.65-1.72-1-2.57
			c-0.53-1.26-0.96-2.5-1.76-3.63c-1.49-2.09-3.59-3.63-5.02-5.78c-0.36,0.63-0.72,1.25-1.08,1.88c9.92-0.62,19.85-0.86,29.78-0.74
			c1.37,0.02,1.76-2.24,0.33-2.46c-9.73-1.5-21.72-3.63-27.03-12.99c-0.36,0.63-0.72,1.25-1.08,1.88c4.69,0,9.38-0.16,14.07-0.49
			c3.97-0.28,8.42-0.29,12.14-1.86c8.3-3.51,5.13-13.45,3.63-20.11c-1.18-5.26-2.36-10.52-3.55-15.78
			c-0.35-1.57-2.76-0.91-2.41,0.66c0.95,4.22,1.9,8.45,2.85,12.67c0.87,3.85,2.05,7.77,2.45,11.7c0.35,3.38-0.26,6.79-3.59,8.4
			c-3.28,1.59-7.49,1.51-11.04,1.78c-4.84,0.36-9.69,0.53-14.55,0.53c-0.96,0-1.55,1.06-1.08,1.88c5.68,10,18.07,12.52,28.52,14.14
			c0.11-0.82,0.22-1.64,0.33-2.46c-9.93-0.12-19.87,0.13-29.78,0.74c-0.89,0.06-1.64,1.04-1.08,1.88c1.18,1.79,2.7,3.18,4.14,4.74
			c1.5,1.62,2.23,3.61,3.06,5.62c0.61,1.47,0.5,3.35-0.01,4.85c-0.59,1.76-2.14,2.64-3.81,3.22c-1.17,0.4-1.21,2.02,0,2.41
			c4.54,1.47,9.44,1.51,14.17,1.71c2.6,0.11,5.2,0.23,7.79,0.54c2.47,0.29,5.11,0.53,6.99,2.32c1.86,1.76,3.14,5.96,0.66,7.79
			c-3.43,2.52-8.44,2.25-12.44,1.86c-4.96-0.49-9.81-1.69-14.74-2.35c-1.58-0.21-2.2,1.82-0.66,2.41c4.47,1.71,9.22,2.73,13.83,4
			c4.43,1.22,9.35,2.35,13.22,4.93c0.53,0.35,1.08,0.78,1.45,1.28c0.43,0.58,0.34,1.1,0.2,1.86c-0.26,1.44-1.06,2.59-2.42,3.2
			c-3.41,1.52-7.98,0.28-11.37-0.66c-4.32-1.2-8.49-2.88-12.56-4.74c-0.92-0.42-2.2,0.28-1.84,1.41c2.48,7.76,3.56,15.89,6.04,23.65
			c0.25,0.79,1.1,1.14,1.84,0.75c2.07-1.1,4.04-2.38,6.11-3.47c1.88-1,4.15-2.24,6.35-2.19c1.89,0.05,3.76,1.59,5.1,2.78
			c1.71,1.53,3.44,3.48,4.09,5.73c0.59,2.06-0.5,3.93-1.84,5.45c-1.62,1.84-3.89,3.42-6.42,3.45c-2.58,0.03-5.35-0.29-7.83-1.01
			c-1.25-0.36-2.66-0.94-3.45-1.95c-1.46-1.88-1.16-4.98-1.94-7.27c-0.44-1.27-2.51-1.15-2.46,0.33c0.18,4.92,1.34,9.69,5.1,13.11
			c3.75,3.42,8.57,5.55,12.69,8.48c1.87,1.33,5.22,4.02,3.29,6.61c-1.45,1.94-4.72,1.97-6.89,1.84c-3.8-0.24-7.64-1.04-11.38-1.76
			c-3.86-0.75-7.7-1.63-11.5-2.64c-8.62-2.29-17.06-5.26-25.22-8.87c-0.32,0.76-0.64,1.52-0.96,2.28c7.95,2.9,15.91,5.8,23.86,8.7
			c7.68,2.8,15.46,5.43,22.98,8.64c3.56,1.52,7.05,3.2,10.39,5.14c2.19,1.27,6.3,3.86,4.59,7c-0.83,1.52-2.88,1.22-4.3,0.9
			c-1.51-0.34-2.99-0.79-4.44-1.32c-2.97-1.09-5.79-2.58-8.4-4.37c-5.91-4.05-10.61-9.72-13.5-16.27c-0.57-1.28-2.81-0.36-2.28,0.96
			c6.76,17.06,13.66,34.45,24.66,49.3c3.1,4.18,6.49,8.13,10.23,11.74C185.67,235.11,187.44,233.34,186.28,232.22L186.28,232.22z"/>
	</g>
</g>
</svg>
