<?xml version="1.0" encoding="utf-8"?>
<!-- Generator: Adobe Illustrator 24.0.1, SVG Export Plug-In . SVG Version: 6.00 Build 0)  -->
<svg version="1.1" id="Layer_1" xmlns="http://www.w3.org/2000/svg" xmlns:xlink="http://www.w3.org/1999/xlink" x="0px" y="0px"
	 viewBox="0 0 1539 397" style="enable-background:new 0 0 1539 397;" xml:space="preserve">
<style type="text/css">
	.st0{fill:#F7931E;}
</style>
<g>
	<g>
		<path class="st0" d="M51.71,230.53c19.58-26.64,43.25-50.45,69.83-70.13c6.51-4.82,13.28-10.27,20.82-13.39
			c6.2-2.56,12.45-2.47,17.81,0.83c9.92,6.12,14.57,19.85,16.74,31.09c1.34,6.97,2.28,14.53,0.62,21.52
			c-0.73,3.07-1.96,6.19-4.04,8.59c-1.55,1.8-3.58,3.01-5.61,3.68c-2.54,0.83-4.39,1.13-7.29,0.73c0.75,0.1-0.89-0.21-1.03-0.24
			c-0.56-0.14-1.12-0.31-1.66-0.52c0.58,0.23-0.63-0.32-0.88-0.47c-0.24-0.14-0.48-0.29-0.71-0.44c-0.81-0.53,0.22,0.26-0.43-0.34
			c-0.11-0.1-1.19-1.25-0.71-0.65c-0.39-0.5-0.72-1.07-0.99-1.64c0.02,0.04-0.18-0.5-0.34-1.14c-0.21-0.82-0.26-1.6-0.2-2.45
			c0.2-2.93,1.95-5.71,3.75-7.96c4.75-5.93,11.11-10.54,16.51-15.85c5.53-5.44,10.74-11.2,15.6-17.25
			c9.69-12.05,18.09-25.08,24.95-38.94c13.72-27.72,21.52-58.35,22.17-89.3c0.08-3.77,0.04-7.54-0.09-11.31
			c-0.08-2.37-1.95-4.38-4.38-4.38c-2.6,0-4.11,2.02-4.38,4.38c-5.75,49.99-8.71,100.29-8.8,150.61c-0.02,14.1,0.18,28.2,0.6,42.29
			c0.17,5.63,8.89,5.66,8.77,0c-0.27-12.11,0.52-24.39,2.5-36.23c1.86-11.14,4.46-22.65,10.41-31.94c0.34-0.53,0.69-1.04,1.05-1.56
			c-0.04,0.05,0.76-1.02,0.38-0.53c-0.31,0.4,0.34-0.41,0.4-0.49c0.78-0.92,1.6-1.79,2.49-2.6c0.19-0.17,1.43-1.13,0.65-0.57
			c0.47-0.34,0.96-0.67,1.46-0.97c0.49-0.29,1-0.55,1.52-0.8c-0.94,0.44,0.56-0.18,0.86-0.28c-0.78,0-1.55,0-2.33,0
			c0.55,0.11,0.98,0.5,0.06-0.1c0.22,0.15,0.49,0.23,0.7,0.4c0.08,0.07-0.79-0.54-0.08,0.01c0.77,0.59-0.15-0.47,0.17,0.23
			c0.13,0.29,0.33,0.57,0.48,0.85c0.09,0.17,0.17,0.36,0.25,0.53c-0.07-0.15-0.29-0.92-0.1-0.19c0.23,0.88,0.55,1.74,0.75,2.63
			c0.2,0.88,0.35,1.77,0.47,2.67c-0.12-0.88,0.07,0.74,0.09,0.92c0.06,0.59,0.11,1.18,0.15,1.77c0.18,2.5,0.24,5.01,0.25,7.52
			c0.06,10.74-0.9,21.52-0.18,32.25c0.69,10.39,3.94,25.88,16.7,27.03c13.87,1.25,18.19-15.64,23.5-25.01
			c7.28-12.84,18.26-23.23,31.39-29.95c-1.77-2.29-3.54-4.59-5.31-6.88c-7.8,6.15-12.8,15.93-16.22,25.05
			c-1.82,4.86-3.1,9.89-3.69,15.05c-0.46,3.99-0.46,8.38,1,12.19c1.53,3.98,4.43,7.23,8.7,8.27c4.35,1.06,9.38,0.22,13.17-2.14
			c8.29-5.17,11.17-15.9,11.1-25.12c-0.08-11.17-4.39-23.5-14.42-29.46c-0.35,2.67-0.7,5.34-1.05,8.01
			c14.69-3.62,28.64-10.13,40.8-19.14c-2.15-0.87-4.29-1.75-6.44-2.62c11.39,45.08,18.24,91.23,20.33,137.68
			c0.6,13.26,0.81,26.54,0.65,39.81c2.87-0.39,5.74-0.78,8.61-1.17c-1.8-11.03-3.02-21.61-4.07-33.15
			c-1.17-12.84-1.97-25.71-2.44-38.59c-0.91-24.64-0.92-49.52,1.81-74.05c0.15-1.32,0.3-2.63,0.47-3.95
			c0.03-0.27,0.23-1.76,0.12-0.97c0.09-0.7,0.19-1.39,0.3-2.09c0.35-2.38,0.74-4.76,1.19-7.12c0.76-4,1.66-7.98,2.88-11.87
			c0.27-0.87,0.56-1.73,0.87-2.58c0.13-0.36,0.26-0.72,0.4-1.08c0.16-0.43,0.65-1.55,0.18-0.49c0.6-1.37,1.24-2.73,2.01-4.02
			c0.32-0.54,0.7-1.04,1.03-1.57c0.5-0.8-0.68,0.74-0.06,0.07c0.22-0.24,0.42-0.5,0.65-0.74c0.35-0.38,0.81-0.7,1.14-1.08
			c0.25-0.29-1,0.59-0.12,0.11c0.24-0.13,0.48-0.29,0.71-0.44c0.16-0.1,0.98-0.5,0.13-0.1c-0.82,0.39,0,0,0.22-0.05
			c0.63-0.15,1.22-0.35,1.84-0.56c0.43-0.14,0.88-0.21,1.32-0.35c0.56-0.17-0.9,0.02-0.33,0.04c0.18,0,0.36-0.04,0.54-0.03
			c0.62,0.03,1.32,0.35,0.27-0.04c0.39,0.14,0.82,0.23,1.22,0.36c-0.85-0.26-0.43-0.15,0.1,0.14c0.98,0.55-0.34-0.49,0.29,0.21
			c0.28,0.32,0.61,0.62,0.9,0.93c0.16,0.16,0.49,0.65-0.12-0.18c0.16,0.21,0.32,0.43,0.46,0.65c0.53,0.84,0.99,1.68,1.44,2.56
			c0.11,0.22,0.21,0.45,0.31,0.68c-0.35-0.79,0,0.01,0.08,0.22c0.24,0.65,0.48,1.3,0.7,1.95c1.88,5.72,2.78,11.76,3.44,17.72
			c0.88,8.03,1.3,16.11,1.6,24.19c0.16,4.4,0.28,8.8,0.37,13.2c0.1,4.73,0.59,8.98,2.5,13.35c3.13,7.12,8.75,13.39,16.06,16.24
			c13.54,5.28,29.3-1.79,40.74-8.92c3.03-1.88,5.94-3.93,8.77-6.1c1.88-1.44,2.87-3.77,1.57-6c-1.08-1.85-4.11-3.02-6-1.57
			c-5.89,4.52-12.22,8.56-19.01,11.6c-5.93,2.65-12.62,4.64-19.09,3.81c-2.47-0.32-5.26-1.32-7.56-2.94
			c-2.74-1.94-5.03-5.03-6.68-8.02c-2.05-3.71-2.46-7.29-2.55-11.45c-0.1-4.52-0.22-9.05-0.38-13.57
			c-0.3-8.15-0.74-16.32-1.65-24.43c-0.73-6.46-1.6-13.03-3.61-19.23c-1.48-4.57-3.63-9.37-7.72-12.17
			c-3.68-2.52-7.66-2.1-11.69-0.87c-5.84,1.78-9.23,6.86-11.52,12.23c-3.39,7.93-5.05,16.49-6.3,24.99
			c-3.55,24.23-3.87,48.94-3.31,73.37c0.59,25.47,2.35,50.97,5.93,76.2c0.37,2.63,0.77,5.26,1.2,7.88c0.81,4.99,8.55,3.63,8.61-1.17
			c0.57-47.26-3.69-94.56-12.63-140.96c-2.51-13.03-5.41-25.99-8.66-38.86c-0.64-2.52-4.15-4.31-6.44-2.62
			c-11.61,8.6-24.67,14.8-38.7,18.26c-3.72,0.92-4.22,6.13-1.05,8.01c0.4,0.24,0.78,0.49,1.17,0.74c0.1,0.06,0.76,0.55,0.36,0.24
			c-0.37-0.28,0.14,0.12,0.18,0.15c0.81,0.68,1.58,1.42,2.28,2.22c0.16,0.17,0.86,1.04,0.68,0.8c-0.16-0.21,0.45,0.64,0.61,0.88
			c0.57,0.86,1.1,1.75,1.57,2.67c0.22,0.43,0.43,0.88,0.64,1.32c0.37,0.79,0.13,0.29,0.06,0.12c0.11,0.26,0.21,0.53,0.31,0.79
			c0.38,1,0.71,2.02,0.99,3.06c0.27,0.97,0.5,1.96,0.69,2.95c0.1,0.5,0.18,1,0.26,1.5c-0.11-0.76,0.09,0.76,0.11,1
			c0.2,2.15,0.23,4.31,0.08,6.47c-0.03,0.49-0.08,0.99-0.13,1.48c-0.1,0.98,0.03-0.02-0.1,0.7c-0.18,1.01-0.38,2.01-0.64,3.01
			c-0.25,0.96-0.56,1.9-0.9,2.83c-0.07,0.18-0.14,0.36-0.21,0.54c-0.25,0.63,0.28-0.6-0.01,0.01c-0.22,0.45-0.43,0.9-0.67,1.35
			c-0.41,0.75-0.86,1.46-1.35,2.16c-0.37,0.53,0.45-0.53,0.04-0.04c-0.11,0.13-0.22,0.27-0.34,0.4c-0.31,0.34-0.62,0.69-0.96,1.01
			c-0.33,0.32-0.67,0.62-1.03,0.9c0.67-0.53-0.05,0-0.36,0.19c-0.34,0.21-0.69,0.39-1.03,0.58c-0.08,0.04-0.6,0.3-0.1,0.06
			c0.58-0.26-0.31,0.12-0.43,0.16c-0.39,0.12-0.78,0.24-1.17,0.34c-0.36,0.09-1.3,0.22-0.42,0.12c-0.93,0.11-1.86,0.03-2.78,0.09
			c-0.72,0.05,0.76,0.27-0.2-0.03c-0.3-0.09-0.66-0.21-0.97-0.26c-0.64-0.11,0.68,0.48-0.08-0.04c-0.19-0.13-1.13-0.7-0.56-0.29
			c0.65,0.46-1.17-1.32-0.7-0.69c0.44,0.58-0.18-0.3-0.26-0.45c-0.18-0.33-0.34-0.66-0.51-0.99c0.56,1.1,0.02-0.02-0.08-0.32
			c-0.11-0.34-0.2-0.69-0.28-1.04c-0.09-0.36-0.15-0.73-0.22-1.1c-0.02-0.11-0.1-0.67-0.02-0.07c0.09,0.69-0.02-0.29-0.03-0.43
			c-0.13-1.86-0.1-3.72,0.08-5.58c0.02-0.22,0.16-1.41,0.11-1.02c-0.05,0.33,0.13-0.79,0.17-1.06c0.18-1.06,0.4-2.12,0.65-3.17
			c0.52-2.2,1.16-4.38,1.9-6.52c2.9-8.38,7.48-17.32,14.59-22.93c1.69-1.34,1.57-4.22,0.34-5.76c-1.4-1.76-3.66-2.15-5.65-1.13
			c-9.59,4.91-18.28,11.74-25.27,19.95c-3.48,4.08-6.62,8.47-9.27,13.14c-2.4,4.23-4.12,8.77-6.43,13.03
			c-1.78,3.28-4.13,6.92-7.35,7.62c-1.32,0.29-2.56,0-3.71-0.68c-0.37-0.22-0.71-0.48-1.28-1.08c-0.68-0.71-1.03-1.24-1.62-2.3
			c-3.74-6.64-3.72-14.89-3.71-22.54c0.01-8.72,0.56-17.45,0.38-26.17c-0.12-6.23-0.11-14.08-3.89-19.4c-2.03-2.86-5.45-5-9.02-3.69
			c-3.16,1.16-5.96,3.05-8.34,5.43c-5.32,5.34-8.56,12.54-11.01,19.55c-3.32,9.54-5.1,19.58-6.34,29.58
			c-1.21,9.78-1.74,19.66-1.52,29.51c2.92,0,5.84,0,8.77,0c-1.49-50.3-0.17-100.67,4.02-150.82c1.17-14.05,2.57-28.08,4.18-42.09
			c-2.92,0-5.84,0-8.77,0c1.15,32.27-5.77,64.68-19.72,93.79c-6.92,14.44-15.46,28.18-25.58,40.59
			c-5.18,6.36-10.75,12.4-16.67,18.06c-5.97,5.71-12.87,10.72-17.39,17.76c-4.22,6.57-5.05,15.23,0.28,21.43
			c3.96,4.6,10.64,6.28,16.5,5.61c7-0.81,13.06-4.18,16.93-10.14c4.54-6.98,5.45-15.76,4.86-23.88
			c-1.06-14.47-5.16-30.03-14.72-41.29c-4.27-5.03-10.13-8.95-16.71-10.06c-8.93-1.51-17.32,1.81-24.78,6.49
			c-15.06,9.46-29.12,21.04-42.19,33.07c-13.08,12.03-25.22,25.09-36.25,39.03c-2.78,3.52-5.5,7.08-8.16,10.7
			c-1.4,1.91-0.32,4.89,1.57,6C47.94,233.4,50.31,232.44,51.71,230.53L51.71,230.53z"/>
	</g>
</g>
<g>
	<g>
		<path class="st0" d="M575.22,219.77c15.68-21.89,31.29-44.05,50.92-62.64c5.57-5.28,11.42-10.26,17.58-14.84
			c-1.77-2.29-3.54-4.59-5.31-6.88c-8.59,8.42-15.45,18.4-19.85,29.6c-2.24,5.71-3.65,11.66-4.35,17.75
			c-0.44,3.82,0.06,7.68,1.67,11.18c4.45,9.73,17.41,10.9,26.36,7.33c11.01-4.39,14.88-16.99,15.76-27.91
			c1.03-12.8-3.13-25.62-11.3-35.48c-1.42,2.44-2.84,4.88-4.27,7.33c19.65,5.25,41.48-0.72,55.68-15.3
			c-2.49-1.03-4.99-2.07-7.48-3.1c1.28,52.38,0.11,104.85-2.23,157.19c-0.63,14.17-1.38,28.34-2.26,42.5c2.92,0,5.84,0,8.77,0
			c-1.36-17.92-1.47-35.94-1.2-53.89c0.32-21.27,1.32-42.55,3.22-63.75c1.66-18.55,3.66-36.32,8.14-54.52
			c0.84-3.43,1.79-6.83,2.91-10.18c0.49-1.46,1.02-2.91,1.58-4.35c0.11-0.28,0.23-0.56,0.34-0.83c-0.48,1.17,0.02-0.05,0.13-0.29
			c0.27-0.59,0.54-1.18,0.82-1.75c0.56-1.13,1.16-2.24,1.83-3.3c0.26-0.42,0.55-0.81,0.82-1.22c0.41-0.62,0.27-0.34-0.1,0.11
			c0.18-0.21,0.34-0.43,0.52-0.63c0.3-0.34,0.61-0.67,0.93-0.99c0.15-0.15,0.33-0.28,0.48-0.44c0.63-0.65-0.16,0.12-0.2,0.13
			c0.33-0.16,0.68-0.43,0.98-0.63c0.15-0.1,0.36-0.14,0.5-0.25c0.37-0.31-1.13,0.26-0.32,0.15c0.26-0.03,0.81-0.14,1.03-0.26
			c-0.34,0.19-1.22,0-0.49,0.08c0.18,0.02,0.43,0.02,0.61,0c0.89-0.11-1.1-0.35,0.07,0.02c0.38,0.12,0.8,0.29,1.19,0.38
			c-1.15-0.27-0.41-0.11,0.25,0.21c0.42,0.2,1.84,0.89,1.12,0.48c-0.93-0.54,0.81,0.7,0.01,0.02c-0.63-0.53,0.18,0.17,0.23,0.32
			c-0.2-0.65-0.33-0.49-0.05,0.07c0.22,0.45,0.34,0.87,0.09,0.11c0.13,0.4,0.27,0.79,0.38,1.19c0.1,0.38,0.18,0.77,0.27,1.16
			c0.07,0.31,0.22,1.35,0.1,0.48c0.14,1.02,0.2,2.06,0.24,3.09c0.09,2.34,0.03,4.68-0.11,7.02c-0.31,5.61-1,11.19-1.7,16.76
			c-1.44,11.37-3.35,22.81-3.18,34.31c0.11,7.25,1.59,14.89,7.51,19.7c4.89,3.97,11.35,5.63,17.59,4.95
			c14.21-1.55,23.6-13.9,28.79-26.21c4.07-9.66,6.52-20.1,8.02-30.45c1.24-8.56,2.97-19.31-0.83-27.49
			c-1.43-3.08-4.33-5.46-7.87-5.32c-0.51,0.02-2.65,0.36-0.88,0.11c-0.5,0.07-1.03,0.09-1.52,0.23c-1.12,0.31-2.08,0.9-2.96,1.65
			c-1.11,0.94-2,2.14-2.71,3.41c-2,3.59-3.05,7.75-3.87,11.74c-1.12,5.45-1.79,11.01-2.26,16.55c-0.94,11.15-1.15,22.56,0.22,33.68
			c0.83,6.77,2.67,14.46,10.11,16.7c6.24,1.88,12.37-2.08,16.39-6.55c5.13-5.7,7.6-12.59,10.41-19.6c3.33-8.32,6.66-16.65,10-24.97
			c3.22-8.04,6.43-16.07,9.65-24.11c-2.87-0.39-5.74-0.78-8.61-1.17c1.51,23.65,3.03,47.3,4.54,70.95c0.32,4.94,7.01,5.95,8.61,1.17
			c2.86-8.55,2.63-18.07,2.65-26.97c0.01-4.87-0.03-9.74,0.18-14.6c0.1-2.31,0.25-4.61,0.51-6.9c0.03-0.28,0.22-1.72,0.1-0.89
			c0.08-0.53,0.16-1.07,0.25-1.6c0.18-1.03,0.38-2.05,0.63-3.06c0.23-0.97,0.5-1.92,0.82-2.86c0.13-0.4,0.29-0.79,0.42-1.18
			c0.05-0.13,0.34-0.83,0.11-0.29c-0.24,0.57,0.15-0.32,0.2-0.43c0.38-0.75,0.76-1.5,1.21-2.21c0.09-0.14,0.85-1.23,0.5-0.76
			c-0.29,0.39,0.51-0.6,0.69-0.79c0.29-0.31,0.61-0.6,0.91-0.89c0.15-0.15,0.32-0.28,0.48-0.42c-0.02,0.02-0.66,0.48-0.25,0.2
			c0.77-0.54,1.55-0.99,2.39-1.41c0.6-0.3-0.6,0.14,0.54-0.19c0.4-0.12,0.79-0.25,1.2-0.35c0.48-0.12,0.97-0.22,1.46-0.31
			c0.67-0.12-0.71,0.07-0.01,0c0.33-0.04,0.67-0.07,1-0.09c2.46-0.16,4.75,0.05,6.76,0.43c0.35,0.07,0.71,0.15,1.06,0.21
			c0.05,0.01,0.97,0.22,0.36-0.03c0.21,0.09,1.1,0.72,0.72,0.43c-0.38-0.29,0.59,0.57,0.73,0.71c0.17,0.17,0.32,0.35,0.47,0.53
			c0.41,0.48-0.52-0.84,0.07,0.13c0.26,0.43,0.52,0.86,0.76,1.29c0.1,0.17,0.17,0.35,0.26,0.52c0.3,0.61-0.23-0.6,0.04,0.05
			c0.46,1.14,0.79,2.33,1.07,3.52c0.6,2.62,0.77,4.66,0.9,7.53c0.38,8.1-0.21,16.23-0.68,24.31c-0.58,9.87-1.12,19.75-1.09,29.64
			c0.01,4.6,5.77,5.63,8.17,2.21c16.67-23.69,30.42-49.26,41.19-76.14c-2.82-0.78-5.64-1.55-8.45-2.33
			c-3.49,11.86-5.5,24.16-5.99,36.52c-0.24,6.13-0.09,12.27,0.46,18.38c0.48,5.42,0.82,11.36,2.86,16.46
			c1.85,4.62,5.54,8.51,10.63,9.32c4.86,0.77,9.28-1.32,13-4.3c8.61-6.89,12.09-17.65,16.26-27.43c5.66-13.3,11.32-26.6,16.98-39.89
			c-2.72-0.74-5.45-1.47-8.17-2.21c0.03,21.18-3.92,42.19-3.89,63.38c0.01,5.73,8.26,5.53,8.77,0c0.08-0.83,0.17-1.65,0.27-2.47
			c0.09-0.77-0.1,0.65,0.05-0.41c0.08-0.56,0.16-1.12,0.25-1.69c0.35-2.27,0.76-4.53,1.21-6.78c1.05-5.29,2.29-10.54,3.74-15.74
			c1.47-5.28,3.15-10.52,5.23-15.59c0.21-0.51,0.71-1.65,1.15-2.6c0.52-1.12,1.07-2.23,1.67-3.31c0.48-0.88,0.99-1.74,1.53-2.59
			c0.24-0.37,0.49-0.72,0.73-1.09c0.69-1.04-0.2,0.13,0.59-0.78c0.62-0.7,1.26-1.36,1.96-1.98c-0.69,0.6-0.22,0.13,0.22-0.12
			c0.21-0.12,1.31-0.62,0.6-0.35c-0.73,0.27,0.44-0.05,0.62-0.12c-1.06,0.43-0.54-0.03,0.1,0.08c-0.48-0.08-0.74-0.16,0.12,0.09
			c0.62,0.18-0.4-0.06-0.34-0.16c0.01-0.02,0.68,0.37,0.71,0.39c-0.52-0.52-1.05-1.05-1.57-1.57c2.6,4.57,2.66,10.17,2.45,15.28
			c-0.23,5.93-1.13,11.8-1.86,17.68c-0.69,5.54-0.78,10.86,0.95,16.25c1.71,5.31,4.68,10.35,9.3,13.6
			c4.69,3.3,10.57,3.47,15.64,0.95c5.1-2.54,9.44-7.92,12.27-12.78c4.66-8.01,6.16-17.26,8.72-26.04
			c2.79-9.6,7.15-17.04,17.48-19.92c4.72-1.32,3.84-8.66-1.17-8.61c-22.74,0.24-28.92,29.92-27.97,47.73
			c0.42,7.82,1.84,18.6,9.04,23.31c4.77,3.12,11.6-0.34,15.41-3.6c4.51-3.85,7.21-9.52,9.31-14.94c5.32-13.74,6.62-28.62,10.2-42.83
			c-2.87-0.39-5.74-0.78-8.61-1.17c-1.14,26.1-3.37,52.16-6.11,78.13c-2.78,26.41-6.07,52.82-10.82,78.96
			c-1.79,9.84-3.75,19.68-6.47,29.31c-0.95,3.36-2.04,6.66-3.31,9.91c-0.27,0.7,0.43-0.93-0.05,0.1c-0.13,0.28-0.26,0.57-0.39,0.86
			c-0.28,0.58-0.57,1.16-0.88,1.73c-0.25,0.44-0.51,0.87-0.78,1.29c-0.12,0.19-0.29,0.36-0.39,0.56c-0.11,0.22,0.8-0.79,0.1-0.16
			c-0.22,0.19-0.63,0.51-0.78,0.75c0.14-0.23,1.07-0.72,0.4-0.34c-0.75,0.42,0.7-0.22,0.47-0.16c-1.32,0.32,2.77,0.25,0.92-0.06
			c-0.92-0.16,0.47,0.42,0.11,0.08c-0.17-0.17-0.6-0.4-0.82-0.5c0.63,0.29,0.6,0.62,0.18,0.05c-0.59-0.79,0.33,0.64,0.08,0.13
			c-0.11-0.23-0.26-0.49-0.4-0.69c-0.57-0.84,0.16,0.89-0.04-0.14c-0.12-0.61-0.31-1.22-0.42-1.83c0.26,1.37,0.03,0.26,0.02-0.12
			c-0.02-0.46-0.05-0.93-0.05-1.39c0-0.81,0.04-1.62,0.11-2.43c0.04-0.44,0.09-0.87,0.14-1.31c0.09-0.82,0,0.01-0.02,0.15
			c0.05-0.35,0.11-0.7,0.16-1.05c0.37-2.19,0.87-4.36,1.45-6.51c1.4-5.22,3.2-10.33,5.14-15.38c9.18-23.84,21.37-46.63,33.1-69.35
			c1.22-2.36,2.43-4.71,3.64-7.07c2.57-5.01-5-9.45-7.57-4.42c-12.16,23.76-24.8,47.33-35.02,72.01
			c-4.19,10.12-8.35,20.67-9.65,31.62c-0.44,3.71-0.39,7.62,1.19,11.08c1.44,3.15,4.78,5.9,8.4,5.88
			c5.99-0.03,8.92-7.86,10.65-12.39c3.1-8.13,5-16.74,6.79-25.24c5.53-26.35,8.98-53.16,12.05-79.89
			c3.18-27.75,5.73-55.59,7.23-83.48c0.16-2.89,0.3-5.77,0.42-8.66c0.22-4.95-7.41-5.95-8.61-1.17c-2.33,9.27-3.73,18.74-5.87,28.06
			c-1.07,4.66-2.29,9.3-3.95,13.79c-0.75,2.02-1.37,3.47-2.41,5.44c-0.44,0.83-0.91,1.64-1.42,2.43c-0.24,0.38-0.5,0.76-0.76,1.13
			c-0.36,0.52-0.47,0.63-0.51,0.68c-0.67,0.8-1.4,1.55-2.18,2.25c-0.15,0.13-0.31,0.27-0.46,0.39c-0.54,0.43,0.49-0.35-0.07,0.04
			c-0.38,0.26-0.77,0.51-1.17,0.74c-0.21,0.12-1.19,0.61-0.89,0.47c0.27-0.12-0.84,0.29-1.15,0.37c-0.45,0.13-0.91,0.23-1.37,0.31
			c0.84-0.14-0.69,0.03-0.91,0.04c0.74,0.2,1.47,0.4,2.21,0.6c-0.33-0.14-0.62-0.35-0.94-0.49c-0.92-0.39,0.43,0.58-0.09-0.05
			c-0.21-0.26-0.51-0.52-0.75-0.75c-0.79-0.76,0.36,0.7-0.31-0.42c-0.47-0.77-0.89-1.53-1.29-2.34c-0.28-0.56,0.22,0.66-0.15-0.37
			c-0.2-0.56-0.4-1.12-0.58-1.7c-0.33-1.06-0.6-2.14-0.83-3.22c-0.12-0.55-0.22-1.09-0.32-1.64c-0.05-0.31-0.1-0.63-0.15-0.94
			c-0.16-0.96,0.07,0.7-0.06-0.38c-0.31-2.6-0.46-5.22-0.44-7.85c0.02-5.93,0.53-10.2,2.01-15.85c0.35-1.33,0.74-2.64,1.19-3.94
			c0.21-0.6,0.43-1.2,0.66-1.8c0.1-0.26,0.2-0.52,0.31-0.78c-0.32,0.76,0.24-0.52,0.31-0.67c0.96-2.07,2.58-4.85,3.62-6.17
			c0.31-0.39,1.62-1.83,2.42-2.55c0.22-0.2,0.46-0.39,0.68-0.59c0.24-0.2,0.18-0.16-0.18,0.13c0.19-0.14,0.38-0.28,0.58-0.42
			c0.49-0.33,0.99-0.65,1.5-0.94c1.7-0.95,4.04-1.55,6.19-1.57c-0.39-2.87-0.78-5.74-1.17-8.61c-8.09,2.26-14.85,7.1-18.99,14.47
			c-3.66,6.5-5.23,13.88-7.1,21.03c-1.89,7.22-4.05,13.87-8.87,19.31c-1.54,1.73-3.16,3.61-5.27,4.66
			c-1.51,0.76-3.18,0.92-4.33,0.62c-2.98-0.78-5.35-3.77-6.92-6.91c-3.97-7.95-1.72-16.68-0.73-25.05
			c1.08-9.13,2.29-20.28-2.57-28.62c-3.37-5.79-11.22-3.64-15.16,0.09c-4.5,4.25-7.13,10.45-9.4,16.08
			c-3.1,7.66-5.36,15.68-7.24,23.72c-1.6,6.85-2.99,13.82-3.64,20.84c2.92,0,5.84,0,8.77,0c-0.03-21.18,3.92-42.19,3.89-63.38
			c-0.01-4.02-6.39-6.4-8.17-2.21c-4.58,10.75-9.15,21.5-13.73,32.25c-2.23,5.23-4.46,10.47-6.68,15.7
			c-1.8,4.24-3.53,8.43-6.26,12.18c-1.97,2.71-4.71,5.7-7.84,6.91c-1.36,0.53-2.19,0.65-3.36,0.22c-1.37-0.5-2.48-1.84-3.14-3.3
			c-1.84-4.08-1.98-9.3-2.38-13.69c-0.48-5.38-0.65-10.79-0.53-16.19c0.29-12.35,2.26-24.53,5.74-36.38
			c0.67-2.27-0.81-4.77-3.06-5.39c-2.5-0.69-4.51,0.86-5.39,3.06c-10.48,26.15-24.1,51.01-40.31,74.05
			c2.72,0.74,5.45,1.47,8.17,2.21c-0.05-17.32,2.28-34.61,1.84-51.91c-0.15-5.95-0.67-12.14-3.28-17.57
			c-1.06-2.21-2.62-4.15-4.55-5.64c-2.64-2.03-5.83-2.39-9.07-2.76c-9.62-1.08-18.81,2.62-22.99,11.72
			c-4.12,8.96-4.2,19.35-4.26,29.04c-0.04,5.74,0.06,11.49-0.18,17.23c-0.06,1.42-0.14,2.84-0.26,4.26
			c-0.05,0.62-0.11,1.23-0.17,1.85c-0.04,0.34-0.08,0.67-0.11,1c-0.1,0.86,0.05-0.3-0.03,0.21c-0.35,2.37-0.83,4.72-1.59,6.99
			c2.87,0.39,5.74,0.78,8.61,1.17c-1.51-23.65-3.03-47.3-4.54-70.95c-0.33-5.13-6.79-5.71-8.61-1.17
			c-6.38,15.93-12.75,31.86-19.13,47.78c-2.5,6.23-4.57,12.79-9.33,17.73c-1.6,1.66-3.6,3.4-5.81,3.74c-0.26,0.04-1.15-0.04-1.3-0.1
			c-1.13-0.48-1.9-1.38-2.41-2.48c-1.18-2.52-1.27-5.02-1.52-7.31c-0.27-2.5-0.44-5.02-0.56-7.53c-0.26-5.59-0.23-11.19,0.01-16.77
			c0.42-9.69,1.09-19.56,4.18-28.8c0.14-0.42,0.3-0.84,0.45-1.26c0.06-0.17,0.13-0.34,0.2-0.51c0.24-0.61-0.31,0.66-0.04,0.09
			c0.31-0.65,0.64-1.28,1.01-1.9c0.63-1.08-0.26,0.47,0.48-0.59c0.46-0.67-0.09,0.07-0.15,0.1c0.78-0.41-0.98,0.38-0.19,0.07
			c0.41-0.16-0.83,0.11-0.72,0.09c0.19-0.03,0.39-0.05,0.58-0.08c0.81-0.11,0.78-0.11-0.11,0c0.13-0.08,0.52-0.03,0.67-0.02
			c-0.59-0.05-0.92-0.17-0.24,0.02c-0.39-0.11-0.5-0.14-0.5-0.24c0-0.22-0.34-0.23,0.11,0.17c-0.08-0.07-0.39-0.78-0.05-0.04
			c0.12,0.27,0.29,0.55,0.43,0.8c-0.02-0.03-0.2-0.69,0.03,0.15c0.2,0.74,0.42,1.46,0.56,2.21c0.07,0.35,0.13,0.71,0.18,1.07
			c-0.15-0.99,0.04,0.49,0.07,0.76c0.18,2.06,0.2,4.14,0.14,6.21c-0.14,4.88-0.7,9.51-1.5,14.2c-0.87,5.1-2,10.17-3.41,15.15
			c-1.22,4.33-2.78,8.98-4.4,12.42c-4.71,9.97-13.81,21.77-26.38,18.79c-5.61-1.33-8.86-5.28-9.65-10.97
			c-0.78-5.62-0.24-11.6,0.28-17.23c1.03-11.13,2.92-22.17,3.94-33.31c0.42-4.54,0.76-9.15,0.41-13.7c-0.29-3.74-0.9-7.9-3.51-10.8
			c-0.56-0.62-1.21-1.18-1.92-1.62c-0.2-0.12-0.4-0.21-0.6-0.31c-0.4-0.2-0.86-0.31-1.26-0.52c0.04,0.02,0.99,0.45,0.5,0.18
			c-0.98-0.55-2.04-1.03-3.13-1.32c-2-0.53-4.22-0.54-6.19,0.13c-4.44,1.5-7.51,5.38-9.71,9.34c-2.93,5.28-4.86,11.16-6.46,16.96
			c-4.61,16.67-6.8,34.05-8.6,51.22c-2.14,20.41-3.33,40.92-3.91,61.43c-0.52,18.48-0.59,37,0.29,55.46
			c0.17,3.55,0.38,7.1,0.65,10.64c0.42,5.61,8.42,5.67,8.77,0c3.25-52.3,4.94-104.74,4.97-157.14c0.01-14.19-0.13-28.37-0.48-42.56
			c-0.09-3.72-4.77-5.88-7.48-3.1c-12.04,12.37-30.45,17.5-47.15,13.04c-4.5-1.2-6.94,4.1-4.27,7.33
			c5.64,6.79,8.64,15.63,8.87,24.41c0.12,4.5-0.47,8.92-1.8,13.23c-1.12,3.65-2.64,7.85-5.93,10.08c-3.29,2.23-7.59,2.73-11.47,2.37
			c-3.32-0.31-5.33-1.67-6.53-4.25c0.25,0.54-0.05-0.13-0.08-0.21c-0.16-0.42-0.28-0.85-0.39-1.29c-0.07-0.29-0.13-0.58-0.2-0.86
			c-0.3-1.34,0.02,0.46-0.07-0.33c-0.17-1.49-0.1-2.99,0.08-4.48c0.58-4.78,1.85-9.52,3.51-14.03
			c3.81-10.31,10.31-19.46,18.12-27.12c3.44-3.38-1.23-9.93-5.31-6.88c-22.68,16.89-40.75,38.26-57.42,60.93
			c-4.8,6.53-9.5,13.12-14.22,19.7c-1.38,1.93-0.34,4.88,1.57,6C571.42,222.63,573.83,221.7,575.22,219.77L575.22,219.77z"/>
	</g>
</g>
<g>
	<g>
		<path class="st0" d="M897.28,75.44c-0.84,0.81-1.68,1.62-2.52,2.43c-0.43,0.4-0.73,0.87-0.91,1.41c-0.27,0.52-0.4,1.09-0.38,1.69
			c-0.02,0.6,0.1,1.17,0.38,1.69c0.18,0.54,0.48,1.01,0.91,1.41c0.3,0.23,0.59,0.46,0.89,0.69c0.68,0.4,1.42,0.6,2.21,0.6
			c0.39-0.05,0.78-0.1,1.17-0.16c0.74-0.21,1.39-0.58,1.93-1.13c0.84-0.81,1.68-1.62,2.52-2.43c0.43-0.4,0.73-0.87,0.91-1.41
			c0.27-0.52,0.4-1.09,0.38-1.69c0.02-0.6-0.1-1.17-0.38-1.69c-0.18-0.54-0.48-1.01-0.91-1.41c-0.3-0.23-0.59-0.46-0.89-0.69
			c-0.68-0.4-1.42-0.6-2.21-0.6c-0.39,0.05-0.78,0.1-1.17,0.16C898.48,74.52,897.83,74.9,897.28,75.44L897.28,75.44z"/>
	</g>
</g>
<g>
	<g>
		<path class="st0" d="M1144.35,230.12c2.89-13.37,6.24-27.11,14.31-38.42c6.74-9.44,17.95-16.21,29.4-15.81
			c2.6,0.09,5.31,0.61,8,1.74c0.45,0.19,1.42,0.68,2.04,1.08c0.3,0.19,0.58,0.4,0.87,0.61c-1.07-0.76,0.09,0.12,0.35,0.36
			c0.55,0.51,1.02,1.09,1.53,1.64c0.37,0.4-0.4-0.61,0.2,0.27c0.28,0.41,0.56,0.82,0.83,1.24c0.44,0.7,0.84,1.43,1.21,2.17
			c0.19,0.38,0.37,0.77,0.55,1.16c0.09,0.2,0.18,0.4,0.26,0.6c-0.46-1.05-0.01,0,0.06,0.17c0.68,1.84,1.27,3.69,1.74,5.6
			c0.23,0.93,0.43,1.87,0.6,2.81c0.09,0.48,0.17,0.96,0.25,1.44c0.04,0.24,0.07,0.48,0.11,0.72c0.21,1.21-0.1-0.93,0.04,0.29
			c0.48,4.16,0.65,8.35,0.37,12.53c-0.06,0.95-0.15,1.9-0.25,2.85c-0.02,0.23-0.06,0.47-0.08,0.7c0.02-0.15,0.15-0.95,0.02-0.13
			c-0.09,0.56-0.17,1.13-0.27,1.69c-0.32,1.81-0.74,3.6-1.29,5.35c-0.24,0.76-0.53,1.5-0.8,2.25c-0.25,0.7,0.4-0.8-0.12,0.26
			c-0.2,0.41-0.39,0.82-0.61,1.22c-0.33,0.6-0.69,1.18-1.07,1.75c-0.57,0.86,0.33-0.29-0.04,0.07c-0.28,0.26-0.5,0.58-0.78,0.85
			c-0.21,0.21-0.45,0.39-0.65,0.6c-0.44,0.46,0.93-0.52,0.03-0.05c-0.24,0.13-0.49,0.28-0.72,0.42c-0.86,0.52,0.9-0.19-0.09,0.02
			c-0.25,0.05-0.55,0.11-0.79,0.2c-0.55,0.21,1.15,0.03,0.14-0.04c-0.27-0.02-0.59-0.03-0.85-0.02c-0.6,0.04,1.18,0.18-0.06-0.03
			c-0.7-0.12-1.36-0.18-2.06-0.2c-0.67-0.01-0.98-0.39-0.01,0.04c-0.23-0.1-0.58-0.13-0.83-0.18c-0.9-0.18-0.2-0.26,0.07,0.08
			c-0.03-0.04-0.7-0.36-0.67-0.39c0.09-0.12,0.91,0.91,0.27,0.15c-0.42-0.5,0.71,1.04,0.21,0.25c-0.48-0.76,0.1-0.01,0.07,0.24
			c0.02-0.13-0.15-0.62-0.19-0.74c-0.21-0.52,0,1.23,0.06,0.27c0.02-0.25,0-0.52,0.01-0.77c0-0.93,0.08-0.29-0.03,0.02
			c0.45-1.31,0.71-2.7,1.19-4.02c0.2-0.54-0.37,0.8-0.12,0.27c0.08-0.17,0.15-0.35,0.24-0.53c0.19-0.4,0.38-0.81,0.58-1.21
			c0.4-0.81,0.83-1.6,1.28-2.38c0.99-1.72,2.06-3.4,3.2-5.03c0.57-0.83,1.16-1.64,1.76-2.45c0.35-0.47,0.69-0.93,1.05-1.39
			c-0.52,0.67,0.52-0.65,0.65-0.81c1.43-1.78,2.91-3.52,4.43-5.21c3.03-3.38,6.24-6.6,9.64-9.61c0.76-0.67,1.52-1.33,2.3-1.97
			c0.38-0.31,0.76-0.62,1.14-0.93c0.19-0.15,0.38-0.3,0.57-0.45c0.25-0.19,0.19-0.15-0.18,0.14c0.14-0.11,0.28-0.21,0.42-0.32
			c1.49-1.11,3.01-2.19,4.61-3.15c0.67-0.4,1.34-0.79,2.03-1.15c0.32-0.17,0.65-0.32,0.98-0.48c1.13-0.57-0.29,0.05,0.25-0.12
			c3.73-1.17,7.35-2.82,11.05-4.11c14.85-5.15,30.15-8.99,45.67-11.45c3.72-0.59,7.45-1.09,11.2-1.51c2.17-0.24,4.03-1.48,4.31-3.8
			c0.23-1.92-0.96-4.51-3.14-4.81c-15.95-2.18-28.65,13.01-32.94,26.89c-2.15,6.96-1.55,13.79,0.15,20.76
			c1.42,5.82,3.79,11.87,8.17,16.13c5.22,5.06,12.23,6.23,19.19,4.99c6.34-1.13,12.03-3.56,15.75-8.91
			c2.89-4.14,4.52-9.28,5.59-14.16c1.29-5.87,1.88-11.95,1.75-17.96c-0.22-9.79-2.39-26.22-14.91-27.21c0,2.92,0,5.84,0,8.77
			c19.06,1.28,37.96-1.8,57-2c-0.39-2.87-0.78-5.74-1.17-8.61c-15.09,4.03-23.21,18.89-25.12,33.46
			c-1.63,12.4,1.04,29.28,13.26,35.77c8.9,4.73,20.98,2.59,28.23-4.26c5.33-5.03,6.83-11.56,7.74-18.54
			c1.02-7.85,0.98-15.89-0.42-23.69c-1.22-6.85-3.99-14.5-10.26-18.28c-2.19-1.32-4.78-2.08-7.12-0.67
			c-3.07,1.86-3.31,6.27-0.77,8.64c2.09,1.94,5.45,3.1,8.05,4.17c2.39,0.98,4.84,1.78,7.35,2.4c10.45,2.56,21.78,2.23,31.95-1.38
			c2.6-0.92,5.14-2.04,7.57-3.33c-2.2-1.26-4.4-2.52-6.6-3.79c-0.48,8.35-0.38,16.74,0.17,25.09c0.58,8.65,1.55,17.43,3.91,25.79
			c1.3,4.62,8.93,3.9,8.61-1.17c-0.32-5,0.22-10.29,0.96-14.81c0.96-5.84,2.33-11.64,4.25-17.24c1.45-4.22,3.22-8.7,6.3-11.72
			c1.04-1.02,1.25-1.19,2.35-1.92c0.52-0.34,1.05-0.66,1.59-0.96c0.27-0.15,0.55-0.29,0.82-0.43c-0.02,0.01,1.23-0.56,0.64-0.32
			c1.13-0.47,2.31-0.82,3.5-1.09c0.29-0.06,1.68-0.29,1.06-0.22c0.66-0.08,1.33-0.12,1.99-0.12c0.59-0.01,1.16,0.03,1.75,0.07
			c0.73,0.05-0.6-0.12,0.12,0.01c0.28,0.05,0.56,0.1,0.84,0.16c0.55,0.12,1.09,0.28,1.63,0.46c0.1,0.03,0.9,0.37,0.45,0.17
			c-0.44-0.2,0.52,0.28,0.61,0.33c0.13,0.07,1.45,0.94,0.86,0.49c0.45,0.34,0.87,0.75,1.26,1.17c0.68,0.72,1.31,1.64,1.85,3
			c2.29,5.77,0.77,12.58,0.98,18.64c0.45,13.24,5.46,26.76,16.33,34.89c10.95,8.18,27.8,8.53,37.88-1.24
			c4.06-3.94-2.15-10.13-6.2-6.2c-7.39,7.17-20.4,5.93-28.02-0.8c-4.51-3.99-7.55-9.25-9.3-14.97c-1.89-6.21-2.03-12.23-1.83-18.71
			c0.23-7.12-0.16-14.43-4.91-20.15c-3.6-4.32-9.45-6.32-14.96-6.07c-5.87,0.27-11.42,2.54-15.95,6.23
			c-4.33,3.52-6.79,8.44-8.83,13.52c-2.46,6.13-4.1,12.62-5.26,19.12c-1.09,6.13-1.94,12.48-1.54,18.71
			c2.87-0.39,5.74-0.78,8.61-1.17c-2.22-7.89-3.11-15.91-3.63-24.05c-0.52-8.15-0.61-16.34-0.13-24.5c0.2-3.48-3.83-5.25-6.6-3.79
			c-6.99,3.69-14.85,5.36-22.73,5.16c-3.9-0.1-7.72-0.68-11.47-1.71c-1.91-0.52-3.8-1.15-5.63-1.91c-0.84-0.35-1.66-0.74-2.47-1.15
			c-0.44-0.22-0.88-0.45-1.32-0.68c-0.17-0.1-0.35-0.19-0.52-0.29c-0.96-0.64-0.81-0.26,0.46,1.15c0,0.78,0,1.55,0,2.33
			c-0.68,0.65-1.36,1.3-2.04,1.96c-0.78,0-1.55,0-2.33,0c1.18,0.23-0.53-0.33,0.06-0.06c0.24,0.11,0.47,0.23,0.7,0.36
			c0.37,0.21,0.71,0.45,1.06,0.68c-0.95-0.64,0.35,0.35,0.57,0.57c0.23,0.23,1.24,1.46,0.61,0.62c0.63,0.84,1.18,1.75,1.66,2.68
			c0.11,0.22,0.22,0.44,0.33,0.66c-0.01-0.01,0.49,1.1,0.24,0.5c-0.26-0.6,0.22,0.57,0.21,0.54c0.14,0.37,0.27,0.74,0.39,1.11
			c0.82,2.45,1.35,4.99,1.73,7.54c0.12,0.83-0.12-1.04,0.05,0.36c0.03,0.29,0.07,0.59,0.1,0.88c0.06,0.59,0.12,1.19,0.16,1.78
			c0.12,1.5,0.18,3,0.21,4.5c0.05,2.8-0.05,5.61-0.29,8.4c-0.05,0.56-0.1,1.12-0.16,1.69c-0.04,0.34-0.08,0.69-0.12,1.03
			c-0.02,0.22-0.14,1.12-0.02,0.25c-0.17,1.2-0.36,2.41-0.6,3.6c-0.2,1.02-0.43,2.03-0.69,3.03c-0.09,0.34-0.18,0.69-0.29,1.03
			c-0.17,0.52-0.45,1-0.03,0.15c-0.45,0.89-0.87,1.78-1.42,2.63c-0.18,0.28-0.37,0.56-0.57,0.83c-0.46,0.64,0.67-0.76-0.24,0.31
			c-0.51,0.59-1.04,1.17-1.62,1.69c-2.28,2.09-5.95,3.48-9.27,3.96c-2.81,0.4-4.66,0.15-7.34-0.83c-0.69-0.25,0.85,0.47-0.18-0.08
			c-0.21-0.11-0.43-0.21-0.64-0.32c-0.4-0.21-0.78-0.44-1.16-0.68c-0.27-0.17-1.52-1.22-0.55-0.35c-0.35-0.31-0.71-0.61-1.04-0.93
			c-0.34-0.33-0.67-0.68-0.99-1.03c-0.19-0.21-1.08-1.39-0.43-0.49c-0.65-0.9-1.25-1.82-1.78-2.79c-0.22-0.4-0.42-0.8-0.62-1.21
			c-0.12-0.26-0.24-0.52-0.36-0.78c-0.29-0.64,0.35,0.99-0.03-0.08c-0.38-1.07-0.77-2.12-1.08-3.22c-0.3-1.07-0.55-2.15-0.75-3.24
			c-0.1-0.56-0.19-1.11-0.28-1.67c0.14,0.97-0.08-0.77-0.11-1.11c-0.22-2.47-0.23-4.96-0.06-7.44c0.04-0.6,0.1-1.19,0.16-1.78
			c0.04-0.33,0.07-0.66,0.12-0.99c-0.02,0.18-0.14,0.84,0.01-0.02c0.23-1.31,0.46-2.62,0.77-3.92c0.31-1.29,0.68-2.57,1.1-3.83
			c0.23-0.69,0.49-1.37,0.75-2.05c0.07-0.2,0.42-1,0.08-0.23c0.13-0.3,0.26-0.6,0.4-0.9c0.57-1.24,1.21-2.45,1.91-3.62
			c0.33-0.55,0.68-1.09,1.04-1.62c0.18-0.26,0.37-0.52,0.55-0.78c0.11-0.16,0.22-0.31,0.34-0.46c-0.26,0.33-0.3,0.38-0.1,0.13
			c0.83-1.03,1.71-2.02,2.67-2.94c0.45-0.43,0.92-0.85,1.4-1.25c-0.02,0.01,0.95-0.74,0.44-0.36c-0.41,0.31,0.51-0.36,0.62-0.43
			c1.09-0.75,2.24-1.41,3.43-1.98c0.23-0.11,0.46-0.22,0.7-0.32c-0.86,0.37,0.19-0.06,0.38-0.13c0.74-0.27,1.49-0.49,2.24-0.7
			c4.75-1.27,3.82-8.66-1.17-8.61c-19.04,0.2-37.94,3.28-57,2c-2.36-0.16-4.38,2.13-4.38,4.38c0,2.53,2.01,4.2,4.38,4.38
			c0.83,0.07-1.07-0.35-0.32-0.05c0.13,0.05,0.28,0.05,0.41,0.09c0.18,0.06,0.41,0.15,0.6,0.18c0.4,0.06,0.25,0.49-0.47-0.2
			c0.18,0.18,0.68,0.39,0.91,0.51c0.92,0.49-0.63-0.7,0.22,0.19c0.26,0.27,0.52,0.55,0.78,0.82c0.64,0.64-0.47-0.78,0.11,0.15
			c0.51,0.81,0.97,1.62,1.4,2.49c0.54,1.1-0.2-0.68,0.21,0.51c0.14,0.42,0.3,0.83,0.44,1.26c0.34,1.04,0.61,2.11,0.85,3.18
			c0.24,1.09,0.42,2.2,0.59,3.3c-0.18-1.16,0.07,0.63,0.1,0.92c0.06,0.59,0.11,1.19,0.16,1.79c0.19,2.6,0.22,5.21,0.11,7.82
			c-0.05,1.2-0.13,2.4-0.23,3.6c-0.05,0.57-0.11,1.13-0.17,1.7c-0.04,0.38-0.09,0.75-0.14,1.13c0.1-0.79,0-0.03-0.05,0.33
			c-0.36,2.4-0.84,4.79-1.48,7.14c-0.3,1.1-0.64,2.19-1.01,3.27c-0.18,0.52-0.39,1.02-0.57,1.54c-0.26,0.74,0.02-0.04,0.08-0.16
			c-0.14,0.33-0.29,0.67-0.45,1c-0.4,0.85-0.83,1.68-1.32,2.49c-0.24,0.4-0.5,0.78-0.75,1.17c-0.06,0.09-0.59,0.82-0.13,0.2
			c0.46-0.62-0.22,0.26-0.31,0.36c-0.27,0.31-0.56,0.61-0.85,0.9c-0.16,0.16-1.08,0.91-0.45,0.43c0.63-0.48-0.3,0.19-0.49,0.3
			c-0.36,0.21-0.72,0.39-1.1,0.55c-3.12,1.36-6.67,2.27-9.45,2.35c-0.7,0.02-1.4-0.03-2.1-0.05c-1.27-0.03,0.8,0.21-0.4-0.04
			c-0.25-0.05-0.5-0.09-0.75-0.15c-0.61-0.14-1.18-0.35-1.77-0.51c-0.76-0.21-0.12-0.04,0.05,0.04c-0.37-0.17-0.74-0.35-1.1-0.55
			c-0.51-0.28-0.99-0.6-1.46-0.93c-0.55-0.38,0.72,0.71-0.06-0.06c-0.16-0.16-0.35-0.3-0.52-0.46c-0.43-0.4-0.81-0.83-1.21-1.25
			c-0.11-0.12-0.83-1.04-0.2-0.21c-0.21-0.29-0.42-0.58-0.62-0.87c-0.65-0.96-1.22-1.97-1.73-3.01c-0.14-0.28-0.26-0.57-0.4-0.85
			c-0.52-1.09,0.2,0.52-0.08-0.17c-0.26-0.66-0.51-1.32-0.74-1.98c-0.85-2.49-1.46-5.06-1.95-7.64c-0.12-0.65-0.23-1.3-0.34-1.95
			c-0.06-0.39-0.12-0.77-0.18-1.16c0.03,0.19,0.07,0.85,0-0.05c-0.12-1.59-0.13-3.16,0.04-4.75c0.01-0.11,0.12-0.85,0.02-0.17
			c0.07-0.45,0.15-0.9,0.24-1.35c0.19-0.92,0.41-1.82,0.68-2.72c0.48-1.63,1.08-3.2,1.62-4.36c1.55-3.31,3.61-6.53,5.78-8.98
			c2.49-2.81,4.59-4.64,7.76-6.28c0.26-0.13,0.52-0.26,0.78-0.39c0.48-0.21,0.53-0.24,0.14-0.08c0.2-0.08,0.4-0.16,0.6-0.23
			c0.73-0.25,1.46-0.49,2.22-0.66c0.34-0.08,0.68-0.14,1.02-0.2c0.32-0.05,0.27-0.05-0.14,0.02c0.27-0.03,0.55-0.05,0.82-0.06
			c0.27-0.01,0.55-0.02,0.82-0.02c0.17,0,1.83,0.14,0.89,0.01c0.39-2.87,0.78-5.74,1.17-8.61c-17.17,1.93-34.13,5.36-50.63,10.47
			c-7.36,2.28-14.96,4.63-21.95,7.92c-3.75,1.77-7.12,4.32-10.34,6.9c-7.77,6.25-14.63,13.72-20.55,21.73
			c-2.51,3.39-4.87,6.95-6.64,10.79c-1.43,3.1-2.79,6.56-2.51,10.04c0.31,3.87,2.65,6.93,6.4,8.08c0.92,0.28,1.91,0.4,2.87,0.48
			c0.23,0.02,1.49-0.01,0.66,0c-0.74,0-0.09,0,0.11,0.03c0.53,0.09,1.07,0.17,1.61,0.22c1.56,0.12,3.17-0.09,4.63-0.64
			c7.46-2.8,10.47-11.65,11.72-18.83c1.61-9.25,1.35-18.99-0.99-28.1c-1.06-4.12-2.62-8.31-5.02-11.85c-2.7-4-6.08-6.7-10.57-8.47
			c-13.19-5.2-28.13-0.13-38.59,8.5c-11.77,9.71-17.63,24.91-21.36,39.27c-0.93,3.59-1.75,7.21-2.53,10.84
			c-0.5,2.31,0.69,4.74,3.06,5.39C1141.15,233.78,1143.85,232.44,1144.35,230.12L1144.35,230.12z"/>
	</g>
</g>
</svg>
