<svg id="Layer_1" data-name="Layer 1" xmlns="http://www.w3.org/2000/svg" viewBox="0 0 1713.86 643.53"><defs><style>.cls-1{fill:#f7931e;}</style></defs><title>shop opening soon</title><path class="cls-1" d="M246.71,240.53a332.83,332.83,0,0,1,69.83-70.13c6.51-4.82,13.28-10.27,20.82-13.39,6.21-2.56,12.45-2.47,17.81.84,9.92,6.12,14.57,19.84,16.74,31.08,1.34,7,2.28,14.53.62,21.52a20.22,20.22,0,0,1-4,8.59,12.58,12.58,0,0,1-5.61,3.68,14.32,14.32,0,0,1-7.29.73c.75.1-.89-.21-1-.24a16,16,0,0,1-1.66-.53c.58.23-.63-.32-.88-.46l-.71-.44c-.81-.53.21.26-.43-.34-.11-.11-1.19-1.25-.71-.66a8.09,8.09,0,0,1-1-1.64s-.18-.5-.34-1.14a7.72,7.72,0,0,1-.19-2.45c.2-2.93,1.94-5.71,3.75-8,4.75-5.93,11.1-10.54,16.51-15.85a200.69,200.69,0,0,0,15.59-17.25A213,213,0,0,0,431.61,46.25c.08-3.77,0-7.54-.09-11.3a4.48,4.48,0,0,0-4.39-4.39c-2.59,0-4.11,2-4.38,4.39A1339.24,1339.24,0,0,0,414,185.56q0,21.15.6,42.29c.17,5.63,8.89,5.66,8.77,0a194.73,194.73,0,0,1,2.5-36.23c1.86-11.14,4.46-22.65,10.41-31.94.33-.53.68-1,1-1.55,0,.05.76-1,.39-.54s.34-.41.4-.48a26.62,26.62,0,0,1,2.49-2.6c.2-.18,1.43-1.13.65-.57.48-.34,1-.67,1.46-1s1-.55,1.52-.8c-.93.44.57-.18.86-.28h-2.33c.55.11,1,.5.07-.1.22.15.48.23.7.4s-.8-.54-.08,0-.15-.47.17.23c.14.28.33.56.48.84s.16.36.25.54c-.07-.15-.29-.92-.1-.19.23.89.55,1.74.75,2.64s.35,1.77.47,2.66c-.12-.88.07.74.09.93q.09.88.15,1.77c.18,2.5.24,5,.26,7.51.06,10.74-.9,21.52-.19,32.25.7,10.4,3.95,25.88,16.71,27,13.86,1.26,18.19-15.64,23.5-25a75.66,75.66,0,0,1,31.4-29.95L512,166.59c-7.79,6.15-12.79,15.93-16.21,25a62.86,62.86,0,0,0-3.69,15.05c-.46,4-.46,8.38,1,12.18,1.52,4,4.43,7.23,8.69,8.27A17.73,17.73,0,0,0,515,225c8.29-5.17,11.17-15.9,11.1-25.11-.08-11.17-4.39-23.5-14.42-29.47l-1,8a114.86,114.86,0,0,0,40.79-19.14L545,156.68a688.49,688.49,0,0,1,20.34,137.68q.88,19.89.64,39.81l8.61-1.17c-1.79-11-3-21.61-4.07-33.15q-1.75-19.25-2.44-38.58c-.91-24.64-.92-49.52,1.81-74,.14-1.32.3-2.64.47-3.95,0-.27.23-1.76.12-1,.1-.7.19-1.39.3-2.09.35-2.38.74-4.76,1.18-7.12a105.23,105.23,0,0,1,2.88-11.87q.41-1.31.87-2.58c.13-.36.26-.72.4-1.08s.65-1.55.18-.49a37.75,37.75,0,0,1,2-4c.32-.53.7-1,1-1.57.49-.8-.68.74-.06.07.22-.24.42-.51.65-.75s.8-.69,1.13-1.08-1,.59-.12.11c.24-.13.48-.29.72-.44s1-.5.13-.09,0,0,.22-.06c.64-.15,1.22-.35,1.84-.56.43-.14.89-.21,1.32-.34s-.9,0-.33,0c.18,0,.36,0,.55,0,.62,0,1.31.34.26,0,.39.14.82.23,1.22.36-.85-.26-.43-.15.1.14,1,.55-.34-.49.29.22.28.31.6.62.9.92s.49.65-.12-.18c.16.22.32.43.46.65A28,28,0,0,1,589.9,153c.12.22.21.45.32.68-.36-.79,0,0,.08.21.24.65.48,1.3.7,2a86.88,86.88,0,0,1,3.43,17.72c.88,8,1.3,16.11,1.6,24.18.16,4.4.27,8.8.37,13.2.1,4.72.58,9,2.5,13.35,3.13,7.12,8.75,13.39,16.06,16.24,13.54,5.28,29.3-1.79,40.75-8.92,3-1.88,5.94-3.93,8.77-6.09,1.87-1.44,2.87-3.78,1.57-6-1.08-1.85-4.11-3-6-1.57a95.72,95.72,0,0,1-19,11.59c-5.92,2.65-12.61,4.64-19.09,3.81a17.5,17.5,0,0,1-7.56-2.94,24.34,24.34,0,0,1-6.68-8c-2.05-3.71-2.46-7.29-2.55-11.45q-.13-6.78-.38-13.57c-.3-8.15-.74-16.31-1.65-24.43-.73-6.45-1.6-13-3.61-19.23-1.48-4.57-3.63-9.37-7.72-12.17-3.68-2.53-7.66-2.1-11.69-.87-5.84,1.77-9.22,6.85-11.52,12.23-3.39,7.92-5.05,16.49-6.3,25-3.55,24.23-3.87,48.94-3.31,73.37a649.55,649.55,0,0,0,5.93,76.2q.55,3.94,1.2,7.88c.81,5,8.55,3.64,8.61-1.16a701,701,0,0,0-12.63-141q-3.76-19.56-8.66-38.86c-.64-2.52-4.16-4.32-6.44-2.62A108.56,108.56,0,0,1,508.29,170c-3.72.92-4.22,6.13-1.05,8,.4.24.78.5,1.17.75.1.06.76.54.36.24l.18.14a23.9,23.9,0,0,1,2.28,2.22c.15.17.86,1,.68.8s.45.64.61.88a29.47,29.47,0,0,1,1.57,2.66c.22.44.43.88.64,1.32.36.79.13.3.06.12l.31.79c.38,1,.71,2,1,3.06s.5,2,.69,2.95c.09.5.18,1,.25,1.5-.11-.75.09.77.11,1a38.82,38.82,0,0,1,.08,6.47c0,.49-.08,1-.13,1.48a2.47,2.47,0,0,1-.1.7c-.18,1-.37,2-.64,3s-.55,1.9-.89,2.84c-.07.18-.14.36-.22.54-.25.63.28-.6,0,0-.21.45-.43.9-.67,1.34a23.1,23.1,0,0,1-1.35,2.17c-.37.53.45-.54,0-.05l-.34.41c-.32.34-.63.68-1,1s-.67.62-1,.91c.67-.53-.06,0-.36.19s-.69.39-1,.58c-.08.05-.6.3-.09.07s-.31.11-.44.15a11.26,11.26,0,0,1-1.17.34c-.36.09-1.3.22-.42.13-.93.1-1.85,0-2.78.08-.72.05.76.27-.19,0a8.64,8.64,0,0,0-1-.25c-.64-.11.68.48-.08,0-.19-.13-1.13-.7-.56-.29s-1.17-1.32-.7-.7-.17-.29-.26-.45c-.18-.33-.34-.66-.51-1,.56,1.1,0,0-.07-.33s-.21-.69-.29-1-.15-.73-.22-1.09c0-.11-.1-.67,0-.08s0-.29,0-.43a33.55,33.55,0,0,1,.08-5.58c0-.22.16-1.4.11-1s.13-.79.17-1.06c.19-1.06.4-2.12.65-3.17a67.28,67.28,0,0,1,1.9-6.51c2.9-8.38,7.48-17.32,14.59-22.94,1.69-1.33,1.57-4.22.35-5.75a4.44,4.44,0,0,0-5.66-1.13,83,83,0,0,0-25.27,19.95A84.84,84.84,0,0,0,478.37,199c-2.4,4.23-4.12,8.77-6.43,13-1.78,3.28-4.13,6.92-7.35,7.62a5,5,0,0,1-3.7-.68,5.92,5.92,0,0,1-1.28-1.08,9.91,9.91,0,0,1-1.63-2.3c-3.73-6.64-3.71-14.89-3.7-22.54,0-8.73.55-17.45.38-26.17-.13-6.24-.11-14.08-3.89-19.4-2-2.87-5.45-5-9-3.69a23,23,0,0,0-8.34,5.42c-5.32,5.34-8.56,12.54-11,19.56-3.32,9.54-5.1,19.58-6.33,29.58a203.56,203.56,0,0,0-1.52,29.51h8.77a1338.62,1338.62,0,0,1,4-150.81Q429.1,56,431.52,35h-8.77A201.41,201.41,0,0,1,403,128.74a203.71,203.71,0,0,1-25.57,40.59,200.54,200.54,0,0,1-16.67,18.06c-6,5.71-12.88,10.73-17.4,17.76-4.22,6.57-5.05,15.23.28,21.44,4,4.6,10.64,6.28,16.5,5.61a22.7,22.7,0,0,0,16.93-10.15c4.53-7,5.45-15.75,4.86-23.88-1.07-14.46-5.17-30-14.73-41.29-4.27-5-10.13-8.95-16.7-10.06-8.93-1.51-17.33,1.81-24.79,6.5-15.06,9.46-29.11,21-42.18,33.06a338.17,338.17,0,0,0-36.26,39q-4.17,5.28-8.16,10.7c-1.4,1.9-.32,4.89,1.57,6,2.23,1.3,4.6.34,6-1.57Z" transform="translate(-32.59 -30.56)"/><path class="cls-1" d="M846.22,221.77c15.68-21.89,31.28-44,50.92-62.64a194.13,194.13,0,0,1,17.57-14.84l-5.31-6.89A85.28,85.28,0,0,0,889.55,167a70.48,70.48,0,0,0-4.35,17.75,21,21,0,0,0,1.67,11.19c4.44,9.72,17.41,10.89,26.36,7.32,11-4.39,14.88-17,15.76-27.91a49.59,49.59,0,0,0-11.31-35.47l-4.26,7.32a57.86,57.86,0,0,0,55.67-15.3l-7.48-3.1c1.28,52.39.1,104.86-2.24,157.2q-.95,21.25-2.25,42.5h8.76c-1.35-17.92-1.47-35.94-1.2-53.89.32-21.28,1.32-42.56,3.22-63.75,1.66-18.55,3.66-36.32,8.14-54.52.84-3.43,1.78-6.83,2.9-10.18.49-1.46,1-2.91,1.59-4.35.11-.27.22-.55.34-.83-.48,1.17,0,0,.13-.29.27-.58.53-1.17.82-1.75a36.49,36.49,0,0,1,1.83-3.3c.26-.41.55-.81.82-1.22.42-.62.28-.34-.1.11.18-.21.34-.43.52-.63s.61-.68.94-1c.15-.15.32-.28.47-.44.64-.65-.16.12-.2.14a8.77,8.77,0,0,0,1-.64c.14-.09.36-.14.5-.25.37-.31-1.14.26-.33.15a3.89,3.89,0,0,0,1-.26c-.34.19-1.22,0-.49.09a2.49,2.49,0,0,0,.61,0c.89-.11-1.1-.35.07,0,.39.12.8.29,1.19.38-1.15-.27-.41-.11.25.21.42.21,1.83.89,1.11.48-.92-.54.81.7,0,0-.63-.53.18.17.23.31-.2-.65-.34-.49,0,.07s.34.88.08.11c.13.4.27.79.38,1.2s.19.77.27,1.16.22,1.35.1.47c.14,1,.2,2.06.25,3.09.09,2.34,0,4.68-.11,7-.31,5.61-1,11.19-1.7,16.76-1.45,11.37-3.35,22.81-3.18,34.31.11,7.25,1.59,14.89,7.51,19.7A23.88,23.88,0,0,0,1012.4,222c14.21-1.55,23.6-13.9,28.79-26.21a124.59,124.59,0,0,0,8-30.45c1.24-8.56,3-19.31-.83-27.5-1.43-3.07-4.33-5.45-7.86-5.31-.51,0-2.66.36-.89.11a12.8,12.8,0,0,0-1.51.23,7.73,7.73,0,0,0-3,1.65,12.29,12.29,0,0,0-2.71,3.41,41,41,0,0,0-3.87,11.74,144,144,0,0,0-2.25,16.55,164.12,164.12,0,0,0,.22,33.68c.83,6.77,2.67,14.47,10.1,16.71,6.25,1.88,12.37-2.09,16.39-6.55,5.13-5.7,7.6-12.59,10.41-19.6l10-25,9.65-24.11-8.61-1.16,4.54,71a4.4,4.4,0,0,0,8.61,1.16c2.86-8.54,2.64-18.07,2.65-27,0-4.86,0-9.73.18-14.6.1-2.3.25-4.61.51-6.9,0-.28.22-1.72.1-.89.08-.53.16-1.07.25-1.6q.27-1.55.63-3.06c.24-1,.51-1.92.82-2.87.13-.39.29-.78.43-1.18,0-.13.33-.83.1-.29s.15-.32.21-.43c.38-.75.76-1.5,1.21-2.21.09-.13.85-1.23.5-.76s.51-.6.69-.79.61-.6.91-.89a6.4,6.4,0,0,1,.49-.42l-.26.19a19.85,19.85,0,0,1,2.4-1.41c.6-.29-.6.14.54-.19l1.2-.35c.48-.12,1-.21,1.45-.3.67-.13-.7.07,0,0,.34,0,.67-.07,1-.09a27.51,27.51,0,0,1,6.76.43c.35.07.7.15,1.06.21,0,0,1,.22.36,0,.21.09,1.1.72.72.44s.59.57.73.7.32.35.47.53c.41.48-.51-.83.08.13.26.43.51.86.76,1.29.1.17.17.35.26.53.31.61-.23-.6,0,0a24.15,24.15,0,0,1,1.06,3.52,38.8,38.8,0,0,1,.91,7.54c.38,8.09-.21,16.23-.68,24.31-.58,9.87-1.12,19.75-1.09,29.64,0,4.6,5.76,5.63,8.16,2.21a374.22,374.22,0,0,0,41.2-76.14l-8.46-2.33a150.66,150.66,0,0,0-6,36.52,142.78,142.78,0,0,0,.46,18.38c.48,5.41.81,11.35,2.85,16.45,1.86,4.62,5.55,8.51,10.63,9.32,4.87.77,9.28-1.33,13-4.3,8.61-6.89,12.1-17.66,16.26-27.43l17-39.89-8.17-2.22c0,21.19-3.92,42.2-3.89,63.38,0,5.73,8.25,5.53,8.76,0,.08-.83.18-1.65.27-2.47s-.1.65.06-.41c.08-.56.16-1.12.25-1.68.35-2.27.76-4.53,1.2-6.78q1.58-7.95,3.75-15.74a139.84,139.84,0,0,1,5.23-15.59c.21-.51.7-1.65,1.15-2.61.52-1.12,1.07-2.22,1.67-3.31.48-.88,1-1.74,1.53-2.59.23-.36.48-.72.72-1.08.7-1-.2.12.59-.78a22.89,22.89,0,0,1,2-2c-.69.61-.22.13.23-.12.21-.12,1.31-.62.6-.35s.44-.06.62-.13c-1.06.43-.55,0,.1.09-.48-.09-.74-.17.11.09.63.18-.39-.06-.34-.16s.68.37.71.39l-1.58-1.58c2.6,4.57,2.66,10.17,2.46,15.28-.23,5.93-1.13,11.8-1.86,17.69-.69,5.53-.78,10.86,1,16.25s4.68,10.34,9.3,13.6a15.1,15.1,0,0,0,15.64.94c5.1-2.54,9.44-7.92,12.27-12.78,4.67-8,6.16-17.26,8.72-26,2.79-9.6,7.15-17,17.48-19.92,4.72-1.32,3.84-8.67-1.17-8.61-22.74.23-28.92,29.92-28,47.73.42,7.82,1.84,18.6,9,23.31,4.77,3.12,11.6-.34,15.41-3.6,4.5-3.85,7.21-9.52,9.31-14.94,5.32-13.74,6.62-28.62,10.19-42.83l-8.61-1.16c-1.13,26.09-3.37,52.15-6.11,78.13-2.78,26.41-6.06,52.82-10.81,78.95-1.79,9.84-3.75,19.68-6.47,29.31-1,3.36-2,6.66-3.31,9.91-.28.69.43-.94,0,.1l-.39.85c-.28.59-.57,1.17-.88,1.73s-.51.87-.78,1.29c-.12.19-.29.37-.39.56s.79-.78.1-.16a4.68,4.68,0,0,0-.78.76c.14-.24,1.07-.73.4-.35s.7-.22.47-.16c-1.32.32,2.77.25.92-.06-.92-.16.46.42.11.08a3.83,3.83,0,0,0-.82-.5c.62.29.6.62.17.05-.58-.79.33.64.09.13a5.18,5.18,0,0,0-.4-.69c-.57-.84.16.89,0-.14-.12-.61-.3-1.22-.42-1.83.26,1.37,0,.25,0-.13s0-.92,0-1.39c0-.81,0-1.62.11-2.43,0-.44.09-.87.14-1.31.09-.81,0,0,0,.15,0-.35.1-.7.16-1.05.37-2.2.87-4.37,1.45-6.51a153.25,153.25,0,0,1,5.14-15.38c9.18-23.84,21.37-46.63,33.1-69.35q1.83-3.52,3.64-7.07c2.57-5-5-9.45-7.57-4.42-12.16,23.75-24.8,47.33-35,72-4.19,10.12-8.35,20.67-9.65,31.62-.44,3.72-.39,7.62,1.19,11.08,1.43,3.15,4.78,5.9,8.39,5.88,6,0,8.93-7.86,10.66-12.39,3.1-8.13,5-16.74,6.78-25.24,5.53-26.35,9-53.16,12-79.89,3.18-27.75,5.73-55.6,7.23-83.48.15-2.89.3-5.78.42-8.66.22-4.95-7.41-5.95-8.61-1.17-2.33,9.27-3.73,18.74-5.87,28.06a115.81,115.81,0,0,1-4,13.78,39.11,39.11,0,0,1-2.42,5.44c-.44.83-.91,1.65-1.41,2.44-.25.38-.5.75-.76,1.12a6.94,6.94,0,0,1-.51.68,22,22,0,0,1-2.18,2.25c-.15.14-.31.27-.46.39-.54.44.49-.34-.07,0-.39.26-.77.52-1.17.74-.21.12-1.2.61-.89.48s-.84.28-1.15.37-.91.23-1.37.31c.83-.15-.69,0-.91,0l2.21.6c-.33-.14-.63-.35-1-.49-.92-.39.44.57-.09-.05a7.59,7.59,0,0,0-.75-.75c-.78-.76.37.7-.31-.43-.47-.76-.89-1.53-1.29-2.34-.27-.56.22.67-.15-.37-.2-.56-.4-1.12-.58-1.69-.33-1.06-.6-2.14-.83-3.23-.12-.54-.22-1.09-.32-1.64l-.15-.94c-.16-1,.07.7-.06-.38a64.22,64.22,0,0,1-.44-7.85,57.18,57.18,0,0,1,2-15.84c.35-1.33.74-2.65,1.19-3.94.21-.61.43-1.2.66-1.8.1-.26.2-.53.31-.78-.31.76.24-.53.31-.67a36.29,36.29,0,0,1,3.62-6.18,33.31,33.31,0,0,1,2.42-2.55c.22-.2.46-.39.69-.59s.18-.16-.19.13c.19-.15.38-.29.58-.42.49-.33,1-.66,1.5-1a13.74,13.74,0,0,1,6.19-1.57l-1.17-8.61a30.68,30.68,0,0,0-19,14.47c-3.65,6.5-5.23,13.88-7.1,21s-4,13.87-8.87,19.31a18.76,18.76,0,0,1-5.27,4.66,6.51,6.51,0,0,1-4.32.62c-3-.78-5.35-3.77-6.92-6.92-4-7.94-1.72-16.68-.73-25,1.08-9.14,2.29-20.28-2.57-28.62-3.36-5.79-11.21-3.64-15.16.09-4.5,4.25-7.13,10.45-9.4,16.08a160.56,160.56,0,0,0-7.24,23.71,151.94,151.94,0,0,0-3.64,20.84h8.76c0-21.18,3.92-42.19,3.9-63.38,0-4-6.39-6.4-8.17-2.21l-13.73,32.25-6.68,15.71c-1.81,4.24-3.53,8.43-6.26,12.18-2,2.7-4.71,5.7-7.84,6.91a4.25,4.25,0,0,1-3.36.22,6.15,6.15,0,0,1-3.14-3.31c-1.84-4.08-2-9.3-2.38-13.68a143.59,143.59,0,0,1-.52-16.2,140.56,140.56,0,0,1,5.74-36.37,4.46,4.46,0,0,0-3.06-5.39c-2.5-.69-4.51.85-5.4,3.06a364.66,364.66,0,0,1-40.31,74.05l8.17,2.21c0-17.32,2.28-34.61,1.85-51.91-.15-5.95-.68-12.14-3.28-17.58a15.61,15.61,0,0,0-4.55-5.64c-2.65-2-5.84-2.4-9.08-2.76-9.61-1.09-18.8,2.62-23,11.72s-4.2,19.35-4.26,29c0,5.75.06,11.49-.19,17.23-.06,1.42-.14,2.84-.26,4.26,0,.61-.1,1.23-.17,1.84,0,.34-.07.67-.11,1-.1.85,0-.31,0,.21a40.67,40.67,0,0,1-1.59,7l8.61,1.17-4.54-71c-.33-5.13-6.79-5.71-8.61-1.17l-19.13,47.79c-2.5,6.23-4.57,12.79-9.33,17.73-1.6,1.66-3.61,3.4-5.81,3.74a5.24,5.24,0,0,1-1.3-.1,4.75,4.75,0,0,1-2.41-2.48c-1.18-2.52-1.27-5-1.52-7.31-.27-2.51-.44-5-.56-7.53-.26-5.59-.23-11.19,0-16.78.43-9.69,1.09-19.55,4.19-28.8.14-.43.29-.84.44-1.26.07-.17.14-.34.2-.51.24-.61-.3.66,0,.09s.64-1.28,1-1.9c.63-1.08-.26.47.48-.59.46-.68-.09.06-.15.09.78-.41-1,.38-.18.07.4-.15-.83.11-.73.09l.59-.08c.81-.1.77-.1-.11,0a1.51,1.51,0,0,1,.67,0c-.59-.06-.93-.17-.25,0-.39-.11-.5-.14-.5-.24s-.34-.23.12.17c-.08-.07-.4-.78-.06,0,.12.26.29.54.43.8,0,0-.2-.69,0,.15s.42,1.46.56,2.21c.07.36.13.71.18,1.07-.15-1,0,.49.07.76a53.6,53.6,0,0,1,.14,6.21,99.16,99.16,0,0,1-1.5,14.2,145.42,145.42,0,0,1-3.41,15.15,85.06,85.06,0,0,1-4.4,12.42c-4.71,10-13.8,21.77-26.37,18.79-5.62-1.33-8.86-5.28-9.65-11s-.25-11.6.28-17.23c1-11.14,2.91-22.18,3.93-33.31a81.48,81.48,0,0,0,.42-13.7c-.29-3.75-.9-7.9-3.52-10.8a8.52,8.52,0,0,0-1.92-1.62c-.19-.12-.4-.22-.6-.32-.4-.2-.86-.31-1.26-.52,0,0,1,.45.5.18a13.87,13.87,0,0,0-3.13-1.32,10.87,10.87,0,0,0-6.19.12c-4.44,1.5-7.51,5.39-9.71,9.35a77.66,77.66,0,0,0-6.46,17c-4.6,16.67-6.8,34.05-8.6,51.22-2.14,20.4-3.33,40.91-3.91,61.42-.53,18.48-.59,37,.29,55.47.17,3.55.38,7.1.65,10.64a4.38,4.38,0,0,0,8.76,0q4.88-78.45,5-157.14,0-21.29-.47-42.56c-.1-3.71-4.78-5.88-7.49-3.1a48.92,48.92,0,0,1-47.14,13c-4.5-1.2-7,4.1-4.27,7.33a40.09,40.09,0,0,1,8.87,24.41,41.18,41.18,0,0,1-1.79,13.23c-1.13,3.65-2.65,7.85-5.93,10.08s-7.59,2.73-11.47,2.37c-3.32-.3-5.33-1.67-6.53-4.24.25.53-.06-.14-.09-.22-.15-.42-.28-.85-.39-1.28s-.13-.58-.19-.87c-.31-1.34,0,.46-.07-.33a19.19,19.19,0,0,1,.08-4.48,62.3,62.3,0,0,1,3.51-14A74.81,74.81,0,0,1,915.6,143.6c3.44-3.38-1.23-9.93-5.31-6.89-22.69,16.9-40.76,38.26-57.43,60.93-4.8,6.53-9.5,13.12-14.21,19.71-1.38,1.92-.34,4.88,1.57,6,2.2,1.29,4.61.36,6-1.57Z" transform="translate(-32.59 -30.56)"/><path class="cls-1" d="M1168.28,77.44l-2.51,2.44a4.87,4.87,0,0,0-1.29,3.09,3.26,3.26,0,0,0,.38,1.69,3.22,3.22,0,0,0,.91,1.41l.88.69a4.33,4.33,0,0,0,2.22.6l1.16-.16a4.3,4.3,0,0,0,1.93-1.13l2.52-2.43a4.87,4.87,0,0,0,1.29-3.1,3.41,3.41,0,0,0-.38-1.69,3.34,3.34,0,0,0-.91-1.41l-.88-.68a4.33,4.33,0,0,0-2.22-.6l-1.16.15a4.48,4.48,0,0,0-1.94,1.13Z" transform="translate(-32.59 -30.56)"/><path class="cls-1" d="M40.06,512.54C49.63,504,58.92,495.22,68.71,487q3.32-2.79,6.71-5.46l.41-.31c.5-.39-.58.44-.08.05.28-.2.55-.41.82-.62l1.78-1.34c1.15-.85,2.31-1.68,3.48-2.5a144.6,144.6,0,0,1,15-9.25c3.12-1.68,6.31-3.23,9.55-4.68l2.56-1.12-.12.05.76-.31,1.33-.55q2.84-1.15,5.73-2.2c2.14-.79,3.83-3,3.06-5.4a4.47,4.47,0,0,0-5.4-3.06c-8.43,2.69-16.72,6.6-21.18,14.67a44.64,44.64,0,0,0-4.27,12.31c-1.22,5.72-2,11.52.57,17,1.62,3.44,4.93,6.19,8.07,8.21,4.73,3,11.62,1.56,16.6-.07,5.64-1.84,11.23-4.88,15.12-9.47a22.84,22.84,0,0,0,4.38-7.4,24.26,24.26,0,0,0,1-6.16,42.64,42.64,0,0,0-1.91-15.09c-1.36-4.33-3.68-9.44-8-11.55l-2.21,8.17c15.37-.33,31.24,1.77,46.24-2.57a50.58,50.58,0,0,0,12.33-5.41l-6.59-3.78-4.32,48.75a4.4,4.4,0,0,0,3.22,4.23,4.5,4.5,0,0,0,5-2c4.64-8.18,6.1-17.92,8.14-27a89,89,0,0,1,3.65-13,3.67,3.67,0,0,0,.26-.65c-.08.45-.37.84-.08.21.21-.47.43-.94.66-1.4a21.6,21.6,0,0,1,1.3-2.23l.33-.48c.48-.71-.62.71-.16.2.27-.3.52-.61.8-.89s.54-.47.79-.73-1,.66-.34.26c.19-.12.38-.26.57-.37s.61-.31.91-.48-1.13.39-.42.19c.2-.05.38-.12.58-.18l.5-.11c.85-.21-.62,0-.37,0,.4,0,.8-.05,1.2,0l.58,0c.74,0,0,.07-.37-.06a9.19,9.19,0,0,0,1.47.33,5.33,5.33,0,0,0,1.69.2s-1-.17-.52-.07l.38.07a14.29,14.29,0,0,1,1.59.42c.18.06,1,.41.3.09s.26.13.39.2a12,12,0,0,1,1.42.83c.15.1.79.65.28.18s.13.11.26.22a18.32,18.32,0,0,1,1.35,1.29c.38.4.72.83,1.09,1.24s-.28-.34-.25-.33.22.29.25.34c.2.28.4.55.59.83a32.26,32.26,0,0,1,2,3.41c.3.57.57,1.15.84,1.74.13.3.26.6.4.9-.4-.91.07.2.19.5.53,1.36,1,2.73,1.44,4.12a93.74,93.74,0,0,1,2.35,9.19c.69,3.3,1.25,6.62,1.73,10,0,.39.1.77.16,1.16-.11-.78,0,.07.05.38.11.83.2,1.67.31,2.5a23.23,23.23,0,0,0,1.26,5.65c2.81,7.15,9,13.25,17.12,13.18,7.36-.06,14-4.51,19.38-9.14,1.3-1.12,2.54-2.29,3.74-3.5a4.38,4.38,0,0,0-6.2-6.2c-1.2,1.21-2.44,2.39-3.74,3.5-.61.53-1.24,1-1.87,1.55.54-.43-.24.16-.41.29-.44.32-.88.63-1.33.93a31.73,31.73,0,0,1-4.27,2.46l-.52.25c.06,0,.64-.25.17-.08s-.81.32-1.23.45a17.38,17.38,0,0,1-2.28.61l-.52.09s.8-.06.29,0c-.35,0-.69,0-1,.06s-.8,0-1.21,0c-.1,0-.68-.07-.1,0s-.15,0-.26-.06c-.34-.07-.68-.16-1-.26-.17-.05-1.08-.43-.63-.21s-.47-.26-.61-.34l-.48-.29c-.09-.06-.94-.63-.5-.32s-.45-.38-.59-.5c-.29-.26-.57-.53-.83-.81s-.51-.59-.78-.86,0,.06.08.13l-.45-.63a18.41,18.41,0,0,1-1.28-2.19c-.08-.17-.16-.35-.25-.52,0,.06.24.62.07.15s-.32-.85-.45-1.28a22.42,22.42,0,0,1-.53-2.26c.17.88,0-.25-.07-.55s-.11-.9-.17-1.35c-.24-1.93-.5-3.87-.8-5.8-.49-3.26-1.06-6.5-1.77-9.72a69.92,69.92,0,0,0-6.12-17.79c-2.54-4.78-6.2-9.11-11.27-11.25a14.8,14.8,0,0,0-3.57-1.05c-.56-.08-1.13-.13-1.69-.22-.36-.06,1.06.21.24,0a16.44,16.44,0,0,0-2.4-.39,11.93,11.93,0,0,0-5.56.62c-8.45,3.18-11.21,13.29-13.17,21.21-1.17,4.71-2.11,9.47-3.22,14.19-.54,2.32-1.13,4.64-1.82,6.93-.32,1.09-.67,2.16-1.05,3.23-.17.47-.35.94-.53,1.41-.1.23-.19.45-.28.68-.17.43.23-.51.2-.49a2.17,2.17,0,0,0-.19.44c-.42.92-.86,1.81-1.35,2.69l8.17,2.21,4.32-48.75c.29-3.35-3.94-5.42-6.6-3.79a44.63,44.63,0,0,1-4.87,2.61c-.19.08-1.13.48-.49.22l-1.35.53q-1.26.46-2.55.87c-1.7.53-3.44,1-5.19,1.33-.88.18-1.76.34-2.64.49l-1.24.18c-.51.08.06,0,.14,0l-.83.1c-7.41.87-14.9.69-22.34.54-4.27-.09-8.53-.17-12.79-.07a4.38,4.38,0,0,0-2.21,8.17c.29.14.55.32.83.47.66.35-.69-.63-.32-.26.12.12.26.23.38.34s.45.47.67.71c.55.58-.12-.27-.19-.27s.37.52.41.57a16.19,16.19,0,0,1,1.17,2.07c.1.19.19.39.29.59.32.67-.12-.22-.12-.3a8.11,8.11,0,0,0,.59,1.57,37.44,37.44,0,0,1,1.45,5.72c.08.45.13.9.21,1.34.11.66-.12-1.13,0-.11l.06.59c.11,1,.18,2.06.21,3.1,0,.88,0,1.78,0,2.66,0,.45-.06.89-.1,1.33a4.43,4.43,0,0,0-.06.51c0-1.23.09-.56,0-.17a17.13,17.13,0,0,1-.51,2.23c-.07.22-.48,1.23-.13.43s-.07.11-.1.17c-.16.33-.34.66-.52,1-.31.54-.66,1-1,1.56-.09.14-.49.68,0,0-.19.24-.39.47-.59.71a29.86,29.86,0,0,1-2.79,2.72c-.12.11-.65.51,0,0l-.76.55q-.69.48-1.41.93a31.18,31.18,0,0,1-3.52,1.87c-.2.09-1,.41-.17.08l-.71.28c-.59.23-1.18.44-1.78.64-1.09.36-2.2.66-3.32.92-.55.12-1.11.23-1.67.33,0,0-1.18.14-.48.07l-.49,0a17.84,17.84,0,0,1-1.79.06l-.69,0c-1.09,0,.86.24-.17,0-.25-.06-.51-.14-.77-.19-.89-.19,0,.07,0,.05s-1-.63-1.08-.7l-.67-.5-.51-.38c-.6-.44.83.68.21.16s-1.06-.87-1.56-1.36q-.36-.34-.69-.72c-.13-.14-.24-.3-.37-.44s-.1-.11.33.44l-.27-.38c-.18-.31-.38-.61-.55-.92s-.19-.37-.28-.55c-.34-.63.15.26.14.34a6.06,6.06,0,0,0-.42-1.29c0-.18-.09-.37-.13-.55s-.15-1.33-.12-.61,0-.3,0-.37c0-.23,0-.45,0-.68,0-.61,0-1.21,0-1.82,0-.26,0-.52.06-.79,0-.08.19-1.4,0-.5.1-.65.22-1.3.34-1.94.41-2.12.88-4.24,1.47-6.32.25-.87.52-1.74.83-2.59.13-.38.28-.77.42-1.14s.58-.88,0,.07a6.21,6.21,0,0,0,.31-.7,26.48,26.48,0,0,1,1.29-2.41c.23-.38.47-.74.72-1.11l.35-.48c.49-.72-.69.8-.11.14s1.13-1.3,1.77-1.9c.34-.33.71-.64,1.07-1a2.59,2.59,0,0,1,.38-.31c-.75.27-.56.42-.1.09a32.48,32.48,0,0,1,5.12-2.94l.81-.37c.8-.36-.84.33.07,0l1.63-.64c1.24-.46,2.49-.88,3.75-1.28l-2.34-8.46A161,161,0,0,0,79.25,468C69.2,474.77,60,482.75,51,490.87c-5.71,5.16-11.38,10.36-17.14,15.47a4.42,4.42,0,0,0,0,6.2,4.48,4.48,0,0,0,6.2,0Z" transform="translate(-32.59 -30.56)"/><path class="cls-1" d="M377.77,519.37a537.17,537.17,0,0,0,42.6-60.5,529.82,529.82,0,0,0,33.48-65.22q8.28-19.31,15.07-39.19a4.42,4.42,0,0,0-3.06-5.4c-2.56-.58-4.44.79-5.39,3.07a727.09,727.09,0,0,0-42.33,139.11c-1.12,5.62-3.16,12.15-.95,17.73,2.13,5.34,7.27,8.2,12.87,8.44,11.82.49,18.52-10.82,24.05-19.49A572.56,572.56,0,0,0,488,436.83a582.58,582.58,0,0,0,26.54-65.59c.91-2.73,1.81-5.47,2.68-8.22l-8.45-2.33-12.67,56.42-12.72,56.66-7.15,31.86a4.39,4.39,0,0,0,8,3.37c4.82-8.42,7.83-17.76,11.32-26.78.42-1.09.85-2.19,1.29-3.27l.66-1.6c-.37.88-.12.29,0,.1l.47-1.08c.87-2,1.8-3.92,2.84-5.8.47-.84.95-1.66,1.47-2.47.26-.4.52-.81.8-1.2l.33-.47.33-.45-.26.34c.56-.65,1.08-1.31,1.68-1.92.3-.31.61-.6.93-.89.13-.11.25-.23.38-.33l.39-.32-.39.3a6.34,6.34,0,0,0,.91-.62c.56-.56-.94.19-.2,0,.14,0,.28-.09.42-.12s.34-.07.5-.11c.51-.15-1.21,0-.48.08h.37c.72-.09-1.22-.27-.38-.05,1.05.27-.63-.44-.15-.12a3.3,3.3,0,0,0,.45.26c.39.2-.11.38-.47-.36a5.14,5.14,0,0,0,.66.66c-.55-.22-.57-.84-.33-.42l.4.62c.16.29.3.59.45.89.41.75-.32-1-.07-.17,0,.16.11.32.16.47a22.29,22.29,0,0,1,.73,2.78c.08.44.15.89.23,1.34.18,1.07-.1-1,0,.09,0,.21,0,.43.07.65.13,1.2.2,2.42.24,3.63.09,2.64,0,5.28-.15,7.92-.08,1.23-.18,2.47-.3,3.7-.06.7-.14,1.4-.22,2.1l-.12,1c0,.17-.22,1.61-.09.74-.37,2.64-1,5.28-.73,8a20.36,20.36,0,0,0,2.37,7.71c2.37,4.34,7,8.13,12.25,7.59,6.18-.64,10.82-6,14.68-10.47a83.07,83.07,0,0,0,16.53-29.23,77.31,77.31,0,0,0,2.06-7.81,32,32,0,0,0,1-7.89,13.52,13.52,0,0,0-2.15-7.19,8,8,0,0,0-8.51-3.33c-6.24,1.55-8,9.35-9.58,14.66a106.71,106.71,0,0,0-3.65,18.91c-1,10.25.07,22.82,8.31,30.11,7,6.18,18.27,7.4,25.76,1.45a13.36,13.36,0,0,0,3.82-5c.92-2.1.68-4.81-1.57-6-1.9-1-5-.67-6,1.57a11.46,11.46,0,0,1-.64,1.26c-.09.16-.2.31-.29.47-.39.64.1-.21.2-.23-.18,0-.76.85-.91,1l-.4.36c-.66.63.82-.52,0,0-.37.24-.74.49-1.14.7L560,505c-.67.36.21-.13.3-.11a6.43,6.43,0,0,0-1.3.44,12.78,12.78,0,0,1-1.36.32,2.25,2.25,0,0,0-.55.09c.56-.36.81-.07.18,0l-1.29.06c-.43,0-.87,0-1.3-.05-.08,0-.71-.08-.72-.06s1.12.19,0,0a17.46,17.46,0,0,1-2.56-.65l-.55-.19c-.19-.07-.79-.5-.29-.11s-.13-.07-.27-.14l-.78-.41c-.33-.19-.67-.4-1-.61s-.39-.29-.59-.42c-.53-.31.79.71.09.06-.28-.26-.58-.51-.85-.78s-.35-.37-.52-.56-.84-1-.51-.57-.35-.48-.34-.46l-.42-.63c-.3-.46-.59-.95-.85-1.44s-.52-1-.75-1.5c-.36-.75-.06-.14,0,0-.14-.35-.27-.7-.4-1.05a29.55,29.55,0,0,1-1-3.46c-.13-.56-.23-1.12-.33-1.69,0-.25-.08-.5-.11-.76.14,1,0-.14,0-.36a49.28,49.28,0,0,1-.16-7.39,79.44,79.44,0,0,1,2.51-16q1.07-4.33,2.52-8.55c.2-.59.4-1.18.62-1.76,0,0,.43-1.05.16-.43s.2-.39.21-.42c.21-.41.45-.79.69-1.19.57-.94-.34.53,0,0l.34-.34c-.44.31-.52.38-.26.2s.9-.42-.07,0c.24-.1.8-.09-.22,0,.78-.06-.26,0-.35-.09.07.09,1,.2.21,0l-.3-.12c.39.25.29.16-.28-.25,0,0,.4.35.37.35-.33,0-.5-.79-.22-.25,0,0,.39.72.4.72-.19.05-.3-1-.09-.1.06.24.14.48.2.73s.08.4.12.6c.21,1,.05-.7,0-.09a13.38,13.38,0,0,0,.05,1.41c0,.2,0,.41,0,.61,0,.64,0,.69,0,0a45.11,45.11,0,0,1-1.54,7.53,74.94,74.94,0,0,1-2.29,7.33c-.21.57-.42,1.14-.65,1.7-.12.32-.25.63-.37.94-.06.13-.33.77,0,.07-.54,1.24-1.09,2.47-1.69,3.68-1.1,2.24-2.31,4.43-3.62,6.55s-2.81,4.28-4.35,6.33c-.47.62.63-.78-.18.23l-.51.63c-.38.47-.77.94-1.16,1.4-.83,1-1.68,1.93-2.56,2.87s-1.78,1.84-2.71,2.72c-.44.43-.88.85-1.34,1.26l-.63.55c-.7.65.3-.13-.43.35-.3.19-.58.39-.88.56s-1,.43-.26.16c-.26.1-.52.16-.79.24-1.13.31.17-.1.17,0s-.66,0-.73,0c-.89,0,.09-.23.18,0a5.44,5.44,0,0,0-.56-.13c-1-.27,0,0,0,.06s-1.09-.61-1.13-.63c-.65-.37-.23.09.06.08a2.47,2.47,0,0,1-.44-.4c-.33-.3-.6-.71-.94-1s.55.85,0,0c-.18-.26-.36-.52-.52-.79s-.47-.84-.69-1.27c-.13-.24-.35-1,0,0-.07-.2-.15-.4-.22-.61a14,14,0,0,1-.41-1.4c-.07-.26-.11-.53-.17-.79-.21-.89,0,.88,0-.1,0-.42-.06-.84-.06-1.26,0-.26,0-2,0-.67a39.07,39.07,0,0,1,.65-4.39c.37-2.76.68-5.52.87-8.3a70.63,70.63,0,0,0-.36-14.61c-.5-3.65-1.54-7.55-4.17-10.28a9,9,0,0,0-11-1.43c-7.05,4.21-10.8,12.56-13.84,19.8-1.75,4.16-3.3,8.39-4.89,12.61-.79,2.09-1.59,4.18-2.42,6.26-.2.5-.4,1-.61,1.5l-.27.66c-.44,1.06.24-.56,0,.09-.47,1.08-.94,2.15-1.43,3.21q-1.32,2.84-2.86,5.55l8,3.38,12.67-56.42L510,394.88,517.17,363a4.38,4.38,0,0,0-8.45-2.33q-5.19,16.26-11.32,32.21-3,7.86-6.29,15.62c-.35.83-.17.4-.09.21l-.45,1c-.26.63-.53,1.26-.8,1.89-.6,1.39-1.2,2.78-1.81,4.17-1.1,2.51-2.21,5-3.35,7.48a570.37,570.37,0,0,1-31.82,60.12q-4.43,7.28-9.06,14.41c-.62,1-1.25,1.91-1.91,2.85-.35.5-.71,1-1.07,1.47.44-.59,0,0-.05.08l-.77.93a27.47,27.47,0,0,1-2.49,2.57c-.25.22-.51.43-.75.65-.55.48.81-.53-.21.15-.56.36-1.1.73-1.68,1.05-.23.13-.48.24-.71.37-.85.49.62-.12,0,0s-.92.31-1.38.43a4.29,4.29,0,0,1-1.27.26c1,.08.37,0,0,0s-.64,0-1,0a4.36,4.36,0,0,1-1.44-.09c.78.32.55.1.22,0l-.77-.17-.75-.23c-.35-.09-.55,0,.19.1-.45,0-1-.52-1.35-.73-.82-.44.39.48,0,0-.15-.18-.39-.34-.56-.51s-.4-.37-.4-.45c0,.19.43.68.13.15l-.39-.67c-.28-.47.15.59,0,0-.09-.33-.18-.66-.28-1-.29-.85,0,.53-.1-.45,0-.55-.05-1.1,0-1.66,0-.35,0-.7.06-1s.12-1.12,0-.31c.18-1.38.48-2.75.74-4.11q6.65-34.61,16.62-68.45t23.16-66.52q1.63-4.05,3.32-8.09l-8.45-2.33q-5.87,17.26-12.91,34.09c0-.1-.52,1.22-.29.69s-.34.8-.3.69c-.28.68-.57,1.35-.86,2q-1,2.22-1.93,4.44-1.77,4-3.61,8-3.85,8.37-8,16.62A529.35,529.35,0,0,1,395.63,481q-5.73,8.33-11.78,16.42c-1.05,1.4-2.11,2.81-3.18,4.2l-1.47,1.92c-.51.66.61-.78-.25.33l-.81,1q-3.24,4.15-6.57,8.25c-1.44,1.78-1.86,4.49,0,6.2,1.6,1.47,4.66,1.9,6.2,0Z" transform="translate(-32.59 -30.56)"/><path class="cls-1" d="M410.12,411a237.05,237.05,0,0,0,58.24-6.76,4.38,4.38,0,1,0-2.33-8.45,222.79,222.79,0,0,1-55.91,6.44,4.42,4.42,0,0,0-4.38,4.38,4.47,4.47,0,0,0,4.38,4.39Z" transform="translate(-32.59 -30.56)"/><path class="cls-1" d="M801.3,365.77c3.54,2.34,7.72-1,7.71-4.77,0-4.63-5.14-6.52-8.81-4.47-2.17,1.22-4,3.31-5.83,5s-3.38,3.26-5,4.94a195.93,195.93,0,0,0-45.2,74.18,187.32,187.32,0,0,0-7,27.67c-.85,4.87-1.59,9.8-2,14.73a38.66,38.66,0,0,0,1,13.93,20,20,0,0,0,8.61,11.69,21.23,21.23,0,0,0,14,2.44c9.78-1.37,17.21-8.65,21.35-17.29A62.7,62.7,0,0,0,785,479.62a14.11,14.11,0,0,0-.42-8.6,10.74,10.74,0,0,0-6.66-5.7c-4.55-1.63-9.92-1.43-14.57-.33a30.13,30.13,0,0,0-12.7,6.6,28.45,28.45,0,0,0-4.69,5.35,4.4,4.4,0,0,0,1.58,6,4.47,4.47,0,0,0,6-1.57c.13-.18,1-1.28.41-.57.32-.36.62-.74.95-1.1a23.48,23.48,0,0,1,2.09-2c.19-.15.38-.3.56-.46,0,0-.57.42-.16.13s.78-.56,1.19-.83a27.49,27.49,0,0,1,2.52-1.46l.66-.31c.12-.06.83-.38.31-.15s.08,0,.15-.06l.68-.26a25.28,25.28,0,0,1,3-.87c.41-.1.83-.18,1.25-.25l.72-.12c-.94.15-.29,0-.09,0,1-.07,1.93-.14,2.91-.12.48,0,1,0,1.45.07l.73.07c-.16,0-.92-.15-.09,0a22.79,22.79,0,0,1,2.85.7c-.16,0-.75-.4,0,0l.63.35c.07,0,.53.4.14.07s.11.17.22.25c.45.36-.3-.57,0,0s0-.12,0-.19a6.14,6.14,0,0,1,.22.73c.28,1,.08-.37,0,.16s0,1.06-.05,1.57c0,.68.16-.64,0,0,0,.19-.07.4-.11.59-.23,1.1-.53,2.19-.82,3.27-.55,2-1.17,3.95-1.89,5.88-.19.5-.38,1-.58,1.49.33-.81-.27.6-.35.77-.44,1-.91,1.9-1.42,2.82s-1,1.7-1.53,2.51c-.25.38-.52.75-.78,1.12-.49.68-.14.18,0,0-.24.31-.49.61-.74.9a27.24,27.24,0,0,1-1.89,2c-.38.36-.79.7-1.18,1.05-.14.13-.65.48.07,0l-.71.51a21.32,21.32,0,0,1-2.26,1.34c-.25.13-1.49.68-.56.3-.43.18-.88.34-1.32.49a21.4,21.4,0,0,1-2.72.73c-.19,0-1.4.2-.8.14l-.28,0-.87.05a24.52,24.52,0,0,1-2.57-.08c-.64,0,.78.16.15,0-.16,0-.33-.06-.5-.09a14.94,14.94,0,0,1-1.63-.41c-.17-.05-1.3-.42-.74-.23s-.53-.26-.7-.34c-.39-.21-.78-.44-1.16-.69-.19-.12-.37-.25-.55-.38.47.33.3.24-.05-.07s-.61-.57-.9-.87-1-1.24-.47-.49a15.25,15.25,0,0,1-1.46-2.42c-.11-.21-.2-.43-.3-.64.37.82.1.24,0,0-.15-.45-.32-.9-.45-1.36-.27-.93-.45-1.88-.64-2.84,0-.19-.1-.86,0,.07,0-.25-.06-.49-.08-.74,0-.44-.08-.87-.1-1.31-.07-1.06-.09-2.13-.07-3.2,0-1.94.18-3.88.39-5.81.11-1,.23-2,.36-3,0-.26.07-.53.1-.8,0,.18-.12.84,0,0,.07-.53.15-1.06.22-1.59a186.65,186.65,0,0,1,5.41-24.75q1.78-6.19,4-12.24c.72-2,1.46-3.9,2.24-5.83.2-.49.4-1,.61-1.49l.26-.62c.41-1,.84-2,1.28-3a192.35,192.35,0,0,1,11.88-22.61q3.31-5.4,7-10.58,1.8-2.55,3.69-5l.48-.64c.42-.56-.37.48.06-.07l.86-1.11c.71-.9,1.42-1.79,2.15-2.67A185.65,185.65,0,0,1,802,366.37c.74-.69,1.49-1.36,2.23-2,.49-.44.09,0,0,0l.17-.1c.52-.28.19-.22-1,.2l-1.6-1.7c-1.26-.45-1.78-1.15-1.56-2.08a2.92,2.92,0,0,1,1.5-2.28l2.22-.6,1.72.46a4.42,4.42,0,0,0-6,1.57,4.5,4.5,0,0,0,1.57,6Z" transform="translate(-32.59 -30.56)"/><path class="cls-1" d="M840.13,357.13Q828.64,388.23,819,420T801.46,483.9q-4.41,18.21-8.22,36.56c-.55,2.65,1.22,5.69,4.22,5.55a12.84,12.84,0,0,0,12.23-12.52,4.38,4.38,0,1,0-8.76,0q0,.35,0,.69c.09-.59.09-.64,0-.14-.09.25-.64,1.51-.13.57l-.5.91c-.28.4-.26.38.07,0-.15.18-.3.35-.46.52s-1.31,1-.43.44c-.3.18-.6.35-.89.54-.45.21-.41.2.1,0-.21.08-.43.15-.65.21s-.45.11-.68.15c.6-.07.64-.09.13-.06l4.23,5.55q6.75-32.46,15.37-64.49t19.1-63.48q5.93-17.77,12.43-35.36a4.41,4.41,0,0,0-3.07-5.39,4.51,4.51,0,0,0-5.39,3.06Z" transform="translate(-32.59 -30.56)"/><path class="cls-1" d="M802.27,428.08c16,1.51,32.2-2.45,46.22-10.11a88.9,88.9,0,0,0,34.1-33,76.91,76.91,0,0,0,9.3-25.07,4.55,4.55,0,0,0-.79-3.83,4.08,4.08,0,0,0-3.44-1.72,14.35,14.35,0,0,0-7,2.66,22.41,22.41,0,0,0-5.22,5.72c-2.69,4.07-4.49,8.77-6.47,13.2Q862,391.35,856,407.16a592.39,592.39,0,0,0-20.2,63.38q-4.66,18.09-8.18,36.45a4.45,4.45,0,0,0,2.54,5.17c1.85.78,4.55.19,5.47-1.79,3.91-8.42,7.24-17.1,11.27-25.46a89.25,89.25,0,0,1,6.45-11.54c.29-.43.59-.86.9-1.27.72-1-.54.62.22-.29.59-.7,1.18-1.39,1.83-2,.24-.24.5-.48.76-.7a2.87,2.87,0,0,0,.45-.39s-1,.67-.43.34c.31-.19.6-.41.92-.59a3.07,3.07,0,0,1,.31-.17c.75-.39.31.18-.29.09a2.68,2.68,0,0,0,.76-.24c1.07-.32-.7,0-.25,0a4,4,0,0,0,.91,0c-1.36.29-1.06-.22-.71-.08a3.25,3.25,0,0,0,.61.17c.92.15-1.94-1.44-1-.58l.45.39a15.73,15.73,0,0,1,1.23,1.22c.12.14.24.29.37.43.66.74-.54-.81,0,0,.31.47.63.93.92,1.42s.5.92.73,1.39c0,.1.33.58.3.65l-.22-.51.21.54c.38,1,.7,2.05,1,3.1a64.91,64.91,0,0,1,1.3,6.81c1.4,9.64,2.33,20,10.73,26.37,11.41,8.63,27.08,1.72,37.87-4.47a4.38,4.38,0,0,0-4.42-7.57,86.27,86.27,0,0,1-7.94,4.09l-.57.24-.57.23c-.67.27-1.34.53-2,.77a42.42,42.42,0,0,1-4.26,1.26c-.67.16-1.35.3-2,.42-.3.06-.61.11-.91.15,1.09-.16-.12,0-.3,0a22.46,22.46,0,0,1-4.1,0c-.27,0-1.05-.19,0,0-.34-.07-.68-.12-1-.2a15.85,15.85,0,0,1-1.67-.46c-.17-.06-1.25-.49-.25-.05-.32-.14-.63-.29-.94-.45a17.75,17.75,0,0,1-1.82-1.12c-1-.65.6.59-.27-.22l-.45-.4a16.1,16.1,0,0,1-1.22-1.26A3.35,3.35,0,0,1,878,500l.33.43c-.11-.15-.23-.31-.33-.47a17,17,0,0,1-.92-1.46c-.28-.5-.53-1-.78-1.55s-.29-.15.09.25a3.11,3.11,0,0,1-.32-.82,31.56,31.56,0,0,1-1.05-3.43c-1.11-4.46-1.49-9.06-2.21-13.59S871,470,868.43,466c-1.41-2.18-3.48-4.83-5.94-5.87a9.48,9.48,0,0,0-5.88-.49c-3.48.81-6.32,3.46-8.49,6.17A66.81,66.81,0,0,0,841.05,477c-4.85,9.4-8.54,19.32-13,28.9l8,3.38a593.3,593.3,0,0,1,15.61-62.74q4.77-15.52,10.38-30.75,2.79-7.56,5.78-15c2-5.1,3.9-9.58,5.93-14.26,2.31-5.35,4.58-10.77,7.22-16,.52-1,1.07-2,1.68-3,.28-.45.59-.89.89-1.33.64-.94-.39.42.07-.09.19-.22.37-.45.56-.66.39-.43.8-.81,1.22-1.2.56-.54,0,0-.11.05.27-.19.54-.38.82-.56s.39-.2.57-.32c.73-.47-.75.18.16-.09.31-.09,1.93-.45.8-.3l-4.23-5.55a72,72,0,0,1-2.83,10.94c-.29.84-.6,1.66-.91,2.48-.17.44-.35.88-.52,1.31-.06.13-.35.82-.12.29s-.2.44-.2.45q-1.14,2.56-2.46,5.06a78.65,78.65,0,0,1-6,9.54l-.74,1c-.08.11-.54.7-.19.26s-.12.14-.2.25c-.62.78-1.26,1.56-1.91,2.32q-1.77,2.1-3.68,4.06a84.09,84.09,0,0,1-8.41,7.6l-.25.2-.26.2-1,.74q-1.21.9-2.46,1.74c-1.56,1.07-3.16,2.08-4.79,3.05s-3.18,1.8-4.81,2.63c-.84.43-1.69.84-2.54,1.24l-1.29.58c-.31.14-1.43.61-.57.26a82.34,82.34,0,0,1-10.68,3.62q-3.07.8-6.19,1.35l-1.56.26-.7.1c-.66.11,1.09-.13,0,0s-2.1.24-3.15.33a71.94,71.94,0,0,1-12.71-.08c-2.29-.21-4.48,2.18-4.38,4.39a4.49,4.49,0,0,0,4.38,4.38Z" transform="translate(-32.59 -30.56)"/><path class="cls-1" d="M1046.41,512.75a430.32,430.32,0,0,1,61.3-39.78l-5.31-6.88a47.6,47.6,0,0,0-12.19,15.41,49.4,49.4,0,0,0-3.56,9.4c-1,3.71-1.52,7.89.58,11.34,3.08,5.05,9.88,6.18,15.1,4.14,6.42-2.5,9.34-8.76,11.29-15a82.85,82.85,0,0,1,7.11-17.07,135,135,0,0,1,10.65-15.5c7.63-9.78,15.87-19.17,22.28-29.84a170.13,170.13,0,0,0,14-30.17,152.24,152.24,0,0,0,7.9-32.16c1.15-9,1.41-18.76-1.58-27.45-2.39-6.93-8.47-16.36-17.12-14.58-7.67,1.58-9,11.63-9.77,18-.92,7.95-.67,16-.88,23.95-.17,6.37-.71,12.73-1,19.09q-.63,11.76-1.14,23.51-1,23.61-1.67,47.25c-.9,31.5-1.46,63-2.2,94.51-.57,24.19-.73,48.52-2.82,72.64q-.34,4-.79,7.9-.22,2-.48,4c0,.12-.12.86,0,.13,0,.28-.07.57-.11.85-.1.71-.21,1.42-.31,2.12a121.46,121.46,0,0,1-2.74,13.48,58.23,58.23,0,0,1-1.84,5.75c-.14.38-.31.76-.45,1.14.42-1.12,0,0-.15.31-.35.75-.72,1.49-1.13,2.21s-.82,1.28-1.23,1.92.7-.77,0,0c-.26.27-.49.56-.76.82s-.42.38-.62.58c-.76.74.77-.42,0,0-.25.13-.52.3-.76.45-.79.51.79-.12.08,0-.42.06-1.62.09-.38.11-.36,0-.72.07-1.08.07a4.1,4.1,0,0,1-1,0c0-.14,1.2.3.35,0a4.9,4.9,0,0,0-.55-.13,3,3,0,0,0-.42-.14c-.72-.11.65.45.36.14-.11-.11-.8-.31-.82-.48s.85.86.39.3a4.12,4.12,0,0,0-.31-.28,2.87,2.87,0,0,0-.29-.31c-.66-.62.13.21.14.21-.32-.06-.76-1.3-.92-1.57-.4-.72.17.79.11.26a2.44,2.44,0,0,0-.17-.47c-.12-.41-.26-.82-.37-1.24-.19-.77-.31-1.55-.45-2.33.23,1.26,0,0,0-.32,0-.52-.08-1-.1-1.56a72.65,72.65,0,0,1,.73-12.59c.09-.68-.1.71,0,0,0-.25.07-.51.1-.76.09-.57.17-1.14.26-1.71.18-1.14.36-2.28.56-3.42q.58-3.33,1.23-6.66c.71-3.63,1.47-7.25,2.11-10.9a4.51,4.51,0,0,0-3.06-5.39c-2.12-.58-5,.72-5.39,3.06-1.45,8.21-3.31,16.33-4.42,24.6-1,7.68-2.19,16.71,1.36,23.93s12.87,8.42,18.78,3.45c5.43-4.56,7.67-12.65,9.26-19.25,2.35-9.78,3.44-19.89,4.26-29.9.85-10.32,1.29-20.67,1.62-31,.92-29,1.46-58,2.1-87,.68-30.93,1.44-61.86,2.75-92.78.62-14.47,1.69-28.93,2.24-43.39.29-7.71,0-15.43.71-23.13.09-.95.22-1.91.31-2.86.06-.64-.14.81,0,.18,0-.21.07-.42.1-.63.08-.52.17-1,.26-1.55a32.36,32.36,0,0,1,1.23-4.64c.07-.2.16-.39.23-.58,0,.06-.49,1-.15.38.15-.26.27-.55.42-.81s.33-.48.45-.73c.3-.59-.23.43-.31.4l.39-.44c.74-.81,0,.19-.19.07l.61-.37c.45-.38-.48.33-.56.23a3.25,3.25,0,0,0,.42-.13c.2,0,.66-.11-.14,0-1.09.15,0,0,0,0s.34,0,.38,0c.7-.1-.83-.29-.46-.06a4,4,0,0,0,.86.24c.83.18-.83-.48.21.09a7.38,7.38,0,0,0,1.11.64c.53.16-.57-.52-.18-.15.14.12.29.25.42.38.32.29.62.59.91.9s.49.58.75.86.41.65-.15-.21c.15.24.34.47.5.71a19.78,19.78,0,0,1,1.23,2q.29.53.54,1.08c.09.18.17.37.26.55.42.87-.25-.74,0,.1a48.22,48.22,0,0,1,1.61,5.51c.09.45.18.9.25,1.36,0,.22.29,1.91.14.76.14,1.1.24,2.19.32,3.29.15,2.21.17,4.42.1,6.62-.07,2.36-.25,4.72-.51,7.06-.07.64-.15,1.29-.23,1.93s.09-.61,0,.13c0,.29-.08.58-.13.87q-.3,2-.66,4a162.39,162.39,0,0,1-9.3,31.34c-1.71,4.24-4,9.19-6.34,13.74a131.35,131.35,0,0,1-7.67,13c-7.12,10.5-15.72,19.88-23.14,30.2a99.1,99.1,0,0,0-9.63,16,76.18,76.18,0,0,0-3.65,9.38,59.29,59.29,0,0,1-2.7,7.89,13.83,13.83,0,0,1-2,3.16c-.22.24-.46.46-.68.69-.46.48.52-.33,0,0-.27.19-.55.36-.83.52-.09.05-1,.49-.55.28s-.29.09-.4.12l-.77.21c-.23.06-1.09.15-.19.07-.26,0-.52,0-.78,0s-1.67-.18-.73,0c-.25-.05-.49-.1-.73-.17s-1.13-.55-.3-.07L1095,498c.36.2.27.51.06,0,0-.09-.59-.74,0,.08-.14-.2-.25-.41-.38-.62.43.73,0,.05,0-.21,0,0-.06-.55-.07-.6a8.59,8.59,0,0,1,.32-2.41,38.85,38.85,0,0,1,2.82-8.11,41.2,41.2,0,0,1,10.94-13.88c1.66-1.38,1.59-4.19.34-5.76a4.4,4.4,0,0,0-5.65-1.13,443.46,443.46,0,0,0-63.08,41.15c-1.87,1.46-1.53,4.67,0,6.2,1.85,1.85,4.33,1.46,6.2,0Z" transform="translate(-32.59 -30.56)"/><path class="cls-1" d="M1133.19,506.9a202.68,202.68,0,0,1,19.43-21.06q5.22-4.9,10.78-9.44c.89-.72,1.78-1.44,2.68-2.14l.67-.53.4-.31.41-.31.85-.65q2.91-2.19,5.89-4.28,6.66-4.65,13.69-8.77a4.39,4.39,0,0,0-4.43-7.57,207,207,0,0,0-45.77,36.42q-5.65,6-10.8,12.44c-1.42,1.79-1.87,4.48,0,6.2,1.59,1.46,4.67,1.92,6.2,0Z" transform="translate(-32.59 -30.56)"/><path class="cls-1" d="M1334.52,474.64c-3.7,6.47-1.41,14.1,3.93,18.9s13,7,20.1,4.51c7.53-2.63,13.07-8.41,17.55-14.81,4.82-6.87,8.72-14.49,12.52-22,16.08-31.64,27-65.59,35.93-99.86,5-19.33,9.42-38.82,13.79-58.31l-8.61-1.17a106.33,106.33,0,0,0,8.65,54.09c.9,2,4.23,2.83,6,1.57a184.25,184.25,0,0,0,53.25-58.53l-8-3.38a793.53,793.53,0,0,0-42.29,180.68c-.8,6.94-1.84,13.87-.42,20.8,1.24,6,5,11.83,11.36,13.11a4.54,4.54,0,0,0,5-2c6.51-10.56,11.41-22,17.34-32.9q2.25-4.12,4.73-8.11c1.44-2.29,3.51-5.32,4.8-7a48.77,48.77,0,0,1,12-11.32,32.34,32.34,0,0,1,17.69-5,4.4,4.4,0,0,0,4.31-3.81c.23-2-1-4.44-3.14-4.81-21-3.49-40.86,18.6-38.26,39a29.56,29.56,0,0,0,7.07,15.72c3.7,4.33,8.77,8.67,14.8,8.18,10-.81,14.53-11,16.72-19.45a111,111,0,0,0,2.93-31.15c-.17-4.79-7.42-6.13-8.61-1.16a41.67,41.67,0,0,0,11.63,39.59c2.19,2.08,5.22,1.43,6.88-.89,9.78-13.67,15.41-29.85,25.19-43.53l-8-1c.15.75.28,1.51.4,2.27l.15,1c.07.5.06.46,0-.11l.09.73c.23,1.94.44,3.88.61,5.83.42,4.83.67,9.69.73,14.54a119.91,119.91,0,0,1-.5,14.06c0,.5-.11,1-.17,1.5.12-.93-.11.7-.14.86-.14.86-.31,1.71-.51,2.56s-.41,1.47-.63,2.21c-.36,1.16.25-.27-.1.28-.17.28-.3.61-.48.9l8.17,2.21c.28-3.41.57-6.82.93-10.23.17-1.55.35-3.1.55-4.65-.14,1.06,0-.2.05-.35.06-.37.11-.74.16-1.12.13-.85.27-1.71.42-2.56a75.94,75.94,0,0,1,1.92-8.55q.54-1.89,1.23-3.75c.11-.3.88-2.14.38-1,.3-.67.59-1.33.92-2a35.12,35.12,0,0,1,1.79-3.16c.33-.5.69-1,1-1.48.57-.85-.62.73,0-.05.25-.3.5-.61.76-.91a25.75,25.75,0,0,1,2.5-2.51c.23-.19.47-.37.69-.57.76-.69-.8.52.06-.05.59-.4,1.16-.83,1.77-1.2a30.07,30.07,0,0,1,3.37-1.78c1-.46-.89.3.17-.07.32-.11.63-.24,1-.36.77-.27,1.54-.52,2.33-.74a40.54,40.54,0,0,1,4.37-1l1.17-.18c-1,.14.34,0,.45,0q1.49-.15,3-.24c10.31-.58,20.52,1.19,30.53,3.46l-1-8c-6.87,5.11-13.53,11.13-17.72,18.7a26.55,26.55,0,0,0-3.59,12.13c-.1,3.75,1.14,7.2,2.71,10.54s3.66,6.73,6.66,8.9a10.78,10.78,0,0,0,9.65,1.19c6.9-2.25,12.48-8.21,16.6-13.95,2.55-3.56,4.7-7.46,6.95-11.21q3.81-6.35,7.49-12.76,7.35-12.82,14.17-26,13.73-26.43,25.22-53.94,12.88-30.69,22.88-62.48c1.46-4.66-5.85-7.91-8-3.38A393.44,393.44,0,0,0,1665.8,437q-1.77,19.16-1.63,38.42c0,4.17,6.14,6.19,8.17,2.21,4.84-9.51,5.55-20.72,7.72-31,.51-2.46,1.09-4.91,1.83-7.31.33-1.08.71-2.14,1.12-3.2.25-.65-.44.95,0,0l.27-.59c.27-.56.56-1.12.88-1.65.2-.34.44-.65.63-1,.47-.84-.66.67,0,0,.13-.13.24-.27.36-.4.3-.33.64-.6.94-.91-.72.75-.09.15.35-.17.87-.64-.75.08.31-.14l1-.23c-1.33.34,0,.07.42.07a5.27,5.27,0,0,1,.56,0c-1.27-.06-.19,0,.15.07l1.41.43c1.06.33-.53-.28.11,0,.32.15.63.3.94.47s1.4.85,1.49.92a18.53,18.53,0,0,1,1.47,1.4,6.42,6.42,0,0,1,.54.63c-.46-.6.07.13.16.28.32.54.63,1.06.91,1.61.59,1.16-.15-.45.13.28.13.32.25.65.35,1,.22.67.4,1.35.56,2s.29,1.42.39,2.14c-.09-.66.09,1,.11,1.27.13,1.62.18,3.24.2,4.86,0,3-.06,6,0,9,.13,6.05.83,12.63,4.55,17.66a21.27,21.27,0,0,0,16.44,8.48c13.65.64,28.82-10.42,27.77-25.06a4.49,4.49,0,0,0-4.38-4.39c-2.25,0-4.56,2-4.39,4.39a17.79,17.79,0,0,1,0,2.19c0,.28,0,.57-.07.86.09-.81,0,.1-.07.3-.15.61-.29,1.22-.49,1.82,0-.07-.45,1.2-.22.65.15-.37-.33.66-.4.8q-.43.82-1,1.62-.23.35-.48.69c.5-.68-.33.41-.36.44-.37.43-.76.84-1.17,1.24-.25.25-.52.5-.78.74s-1.18,1-.62.55a23.15,23.15,0,0,1-3.31,2.1,14.37,14.37,0,0,1-3.39,1.41c-.63.19-1.26.36-1.9.5-.27.06-1.91.34-1.19.25a20.93,20.93,0,0,1-4.26.1l-.84-.09c.95.13-.41-.1-.49-.11-.55-.12-1.09-.26-1.62-.43-.33-.1-.66-.22-1-.34-.72-.28.88.46-.29-.14a17.2,17.2,0,0,1-1.82-1.05,12.69,12.69,0,0,1-3.88-4.74,21.69,21.69,0,0,1-1.55-7.65c-.19-3-.14-6-.12-9,0-6.11-.09-12.39-2.6-18.08a18.74,18.74,0,0,0-13.35-10.69c-10.94-2-15.67,8.81-17.89,17.56-1.5,5.89-2.4,11.92-3.54,17.89-.55,2.89-1.15,5.78-1.91,8.62-.36,1.32-.75,2.63-1.21,3.92-.19.54-.4,1.08-.62,1.62.42-1-.37.74-.51,1l8.17,2.22a383.87,383.87,0,0,1,22.48-132,374.42,374.42,0,0,1,14.49-34.78l-8-3.38a710.68,710.68,0,0,1-40.7,101.46q-12.11,24.54-26.08,48.1c-3.83,6.47-7.43,13.45-12.35,18.6a26.18,26.18,0,0,1-7,5.58,3,3,0,0,1-1.25.51c-.34.09-.67.19-1,.26.17,0,.84-.14,0,0a4.08,4.08,0,0,1-.78,0c.87.07.25,0,0,0-1.15-.39.47.22-.17-.06a4.08,4.08,0,0,1-.44-.28c.33.25.37.27.13,0a22.41,22.41,0,0,1-4.69-7.85c-1.12-3.17-1-5.71.3-9.26,2.81-7.48,9.64-13.65,15.89-18.3a4.44,4.44,0,0,0,2.09-4.36,4.34,4.34,0,0,0-3.14-3.65c-16.14-3.66-35.83-7.25-51.29.81-10.94,5.7-16.06,17.25-18.38,28.8a206.41,206.41,0,0,0-2.91,23.91c-.37,4.48,6.07,5.76,8.17,2.21s2.62-7.7,3.1-11.65a113.45,113.45,0,0,0,.63-14.63,150,150,0,0,0-2.29-27.1,4.35,4.35,0,0,0-3.65-3.14,4.52,4.52,0,0,0-4.37,2.1c-9.77,13.67-15.4,29.85-25.18,43.53l6.88-.89a32.75,32.75,0,0,1-9.37-31.06l-8.61-1.17c.12,3.52.07,7.05-.1,10.57-.11,2.12-.26,4.25-.47,6.36-.11,1.07-.23,2.13-.37,3.2-.07.51,0,0,0-.1,0,.28-.09.57-.13.85q-.14,1-.3,1.92c-.37,2.15-.81,4.3-1.37,6.42-.26,1-.55,1.95-.86,2.91-.17.5-.34,1-.52,1.49-.11.29-.69,1.72-.33.89a26.35,26.35,0,0,1-2.55,4.59c-.46.65,0,0,.09-.11a6.12,6.12,0,0,1-.41.48c-.28.3-.55.61-.85.89-.13.12-1,.84-.47.43s-.58.36-.77.47-1.12.53-.51.28-.55.15-.7.2c-.5.15-1,.13-.13.08-.47,0-.92.05-1.38.05s-1.13-.16-.29,0c-.18,0-1.27-.4-.81-.18a15,15,0,0,1-3.08-2.28,24.92,24.92,0,0,1-4.62-5.12,27.84,27.84,0,0,1-1.63-2.92c-.38-.79-.16-.33-.08-.15-.11-.26-.21-.53-.31-.8-.19-.53-.37-1.07-.52-1.62s-.29-1.08-.41-1.63c0-.28-.28-1.7-.18-.89a24.25,24.25,0,0,1-.18-3.3c0-.48,0-1,.06-1.45,0-.25.15-1.56.11-1.27s.13-.77.18-1.05c.12-.61.26-1.22.42-1.82a30.24,30.24,0,0,1,5.29-10.67,29.69,29.69,0,0,1,10.25-8.54c.53-.27,1.07-.53,1.63-.76-.78.32.55-.19.79-.27a25.94,25.94,0,0,1,3.38-.92l.75-.13c-.63.1-.24,0,.17,0,.57-.05,1.14-.09,1.72-.1s1,0,1.53,0l.76.06c1,.08-.7-.13.36,0l1.16-8.61c-13.25,0-24.85,6.14-33.49,16s-14.56,21.87-20.4,33.56c-3.23,6.45-6.44,12.92-10.23,19.07l4.95-2a4.08,4.08,0,0,1-2.28-.87c.56.37-.44-.42-.59-.56-.57-.55-.24-.13-.65-.84a16.34,16.34,0,0,1-1.94-6c0,.2-.11-1.12-.13-1.39,0-.52-.06-1-.08-1.55a39.69,39.69,0,0,1,.09-4.08c.23-3.41.69-6.82,1.07-10.21q2.51-21.86,6.26-43.53A794,794,0,0,1,1482.41,346q7.06-24.25,15.66-48c1.71-4.73-5.58-7.62-8-3.38A174.26,174.26,0,0,1,1440,350l6,1.58a97.88,97.88,0,0,1-7.45-49.67c.52-4.92-7.54-5.94-8.61-1.16-7.24,32.22-14.52,64.49-24.61,96a429.53,429.53,0,0,1-17.38,45.81q-5,11.18-10.88,22c-3.4,6.27-6.8,12.88-11.58,18.23a24.72,24.72,0,0,1-8.38,6.53,14.57,14.57,0,0,1-4.27,1.12,9.13,9.13,0,0,1-3.87-.58,12.53,12.53,0,0,1-6.32-4.79,12.28,12.28,0,0,0-.73-1.28c-.11-.29-.2-.59-.28-.88,0,0-.26-1.38-.18-.63a4.3,4.3,0,0,1,.68-3.18c2.81-4.91-4.76-9.33-7.57-4.42Z" transform="translate(-32.59 -30.56)"/></svg>