<svg id="Layer_2" data-name="Layer 2" xmlns="http://www.w3.org/2000/svg" viewBox="0 0 451.24 164.81"><defs><style>.cls-1{fill:#f7931e;}</style></defs><title>shop</title><path class="cls-1" d="M11.92,103.27l94.94-22.63,47.69-11.36c7.23-1.73,15.29-4.46,22.73-2.41,4.76,1.32,6.86,5.73,8.28,10.14s2.41,9.68,1.3,14.3a6.61,6.61,0,0,1-1.65,3.28c-1.35,1.32-2.46.61-2.59-1.11-.24-3.15,2.62-4.78,5.07-6,8.21-4.1,14.39-11,19.66-18.37A110.89,110.89,0,0,0,221.46,42c2.29-6.46,5-15,2.76-21.8-.6-1.81-1.82-3.32-3.87-3.41s-3.84,1.59-5,3.24a17,17,0,0,0-2.59,7.79c-.43,3.69-.8,7.38-1.15,11.08a390.7,390.7,0,0,0-1.92,46.27q.14,5.57.51,11.12c.16,2.38,3.77,2.44,3.75,0-.07-8.21,1-17.15,4.1-24.81.71-1.77,2.13-5.47,4.51-5.41.84,0,1,.24,1.23.53a8.13,8.13,0,0,1,1,3.16c1.15,6.6.28,13.46.65,20.12.12,2.18.18,4.83,1.38,6.76,2.24,3.58,5.59.29,7.42-1.94,4-4.85,5.87-10.9,9.1-16.2,2.56-4.21,9.23-10.64,14.24-6.2l2.65-2.66c-2.61-2.1-5.9-2-9.07-2.26a2.83,2.83,0,0,0-3,1.15,14.94,14.94,0,0,0-2,3.2,32.08,32.08,0,0,0-2.75,16.17c.37,4.3,1.82,10,6.67,11.2,5.49,1.33,8.49-3.81,10.11-8.19,2.23-6,3.65-13.91,1.94-20.25L259.4,72.8c4.41,2.43,9.53,3.87,14.5,2.37,5.16-1.55,8.79-5.72,11.31-10.3l-3.5-.94c1.66,34.65,4.65,69.26,5.75,103.94.08,2.64.16,5.28.12,7.91,0,.85,0,1.7-.09,2.54,0,.64-.11.22,0,.42s-.31.68,0,0l1.62-.93h-.41c0-.06.18,0,.08,0a1.58,1.58,0,0,1-.27-.28,8.37,8.37,0,0,1-1-2.14,39.52,39.52,0,0,1-1.37-8.72,217.66,217.66,0,0,1,.15-27.15c.51-10,1.33-19.91,2.34-29.84.41-4.06,1-8.11,1.32-12.18s.22-8,.32-11.92c.12-5.31-.29-16.4,6.42-18.22a11.58,11.58,0,0,1,5.39.23c1.34.29,1.76.77,2.13,2.14,1.06,3.9.23,8.48-.08,12.43-.63,7.91-1.29,18.9,7.78,22.27,6.42,2.37,13.29,1.16,19.82,0L355,100.15l93-17.15,11.41-2.1c2.37-.44,1.36-4.06-1-3.62L388.26,90.22l-35.55,6.56L335.16,100c-5.63,1-11.48,2.57-17.24,2-3.55-.36-7.22-1.35-8.85-4.78a20.1,20.1,0,0,1-1.5-9.52c.2-6.15,2-13.24.2-19.26-1.58-5.17-8.53-6.07-13-4.32-5,1.93-6.78,7.42-7.5,12.27-.91,6.11-.62,12.29-.85,18.44s-1.24,12.4-1.84,18.58a423.34,423.34,0,0,0-2.44,44.6,83.26,83.26,0,0,0,1.31,16.38c.57,2.73,1.74,7,5.14,7.21,3.12.23,2.75-3.74,2.77-5.83.06-4.31-.13-8.63-.31-12.94-1.22-29.69-3.45-59.34-5-89-.18-3.3-.35-6.59-.51-9.89-.08-1.78-2.56-2.65-3.49-1-2,3.71-4.85,7.29-9.06,8.58-4,1.22-8.08,0-11.62-2a1.89,1.89,0,0,0-2.75,2.12c1,3.89.46,8.36-.3,12.25-.67,3.4-1.66,8.73-4.61,11-2.23,1.73-4.5-.25-5.39-2.34-1.44-3.36-1.37-7.45-.94-11,.46-3.77,1.47-8.29,4.18-11.12l-1.82.48c2.38.43,6-.24,8,1.37,1.84,1.48,4.49-1,2.65-2.66-4-3.56-9.24-3-13.51-.09-4.95,3.36-7.52,8.47-10.07,13.69a55,55,0,0,1-4.39,7.91A19.06,19.06,0,0,1,230.8,93c-.24.26-1.3,1-1.35,1.32s.5.25.62.37c-.12-.12,0,0,0,0,0-.43-.58-1.76-.68-2.52a40.71,40.71,0,0,1-.28-4.81c-.08-3.77,0-7.53-.08-11.3-.08-3.13-.13-6.52-1.15-9.52-.84-2.48-2.51-4.13-5.22-4.26-3.15-.15-5.38,2.45-6.77,5-2.32,4.22-3.44,9.14-4.28,13.85a83.51,83.51,0,0,0-1.4,15.13H214a334.3,334.3,0,0,1,.53-46.94q.43-6.06,1-12.11c.35-3.66.44-7.56,1.27-11.16.2-.88,2.08-6.34,3.55-5.4.69.43.73,2.91.77,3.63.45,8.49-3.2,17.43-6.7,25-4.37,9.45-10,18.67-17.16,26.25a38.64,38.64,0,0,1-10,7.94c-4.59,2.39-9.83,5.66-8.15,11.76a5,5,0,0,0,5.09,3.87c2.78-.23,4.84-2.83,5.77-5.25,1.64-4.29,1.14-9.4.24-13.8-.95-4.7-2.7-9.69-5.93-13.32C180.36,62.35,173.41,62,168,62.68c-7.79.91-15.46,3.23-23.07,5.05L120.6,73.51,23.06,96.76l-12.14,2.9c-2.35.56-1.35,4.17,1,3.61Z" transform="translate(-9.58 -16.81)"/></svg>